<svg width="734" height="734" xmlns="http://www.w3.org/2000/svg" xmlns:xlink="http://www.w3.org/1999/xlink" xml:space="preserve" overflow="hidden"><defs><filter id="fx0" x="-10%" y="-10%" width="120%" height="120%" filterUnits="userSpaceOnUse" primitiveUnits="userSpaceOnUse"><feComponentTransfer color-interpolation-filters="sRGB"><feFuncR type="discrete" tableValues="0 0"/><feFuncG type="discrete" tableValues="0 0"/><feFuncB type="discrete" tableValues="0 0"/><feFuncA type="linear" slope="0.4" intercept="0"/></feComponentTransfer><feGaussianBlur stdDeviation="7.63889 7.63889"/></filter><clipPath id="clip1"><rect x="1998" y="1512" width="734" height="734"/></clipPath><clipPath id="clip2"><path d="M2366 1684.5C2254.71 1684.5 2164.5 1774.71 2164.5 1886 2164.5 1997.29 2254.71 2087.5 2366 2087.5 2477.29 2087.5 2567.5 1997.29 2567.5 1886 2567.5 1774.71 2477.29 1684.5 2366 1684.5ZM1998 1512 2732 1512 2732 2246 1998 2246Z" fill-rule="evenodd" clip-rule="evenodd"/></clipPath><clipPath id="clip3"><rect x="-7" y="-7" width="479" height="479"/></clipPath><clipPath id="clip4"><rect x="0" y="0" width="464" height="464"/></clipPath></defs><g clip-path="url(#clip1)" transform="translate(-1998 -1512)"><g clip-path="url(#clip2)"><g clip-path="url(#clip3)" filter="url(#fx0)" transform="translate(2134 1654)"><g clip-path="url(#clip4)"><path d="M26.4702 232C26.4702 118.489 118.489 26.4698 232 26.4698 345.511 26.4698 437.53 118.489 437.53 232 437.53 345.511 345.511 437.53 232 437.53 118.489 437.53 26.4702 345.511 26.4702 232Z" stroke="#000000" stroke-width="5" stroke-miterlimit="8" fill="#51995A" fill-rule="evenodd"/></g></g></g><path d="M2164.5 1886C2164.5 1774.71 2254.71 1684.5 2366 1684.5 2477.29 1684.5 2567.5 1774.71 2567.5 1886 2567.5 1997.29 2477.29 2087.5 2366 2087.5 2254.71 2087.5 2164.5 1997.29 2164.5 1886Z" stroke="#000000" stroke-width="4.58333" stroke-miterlimit="8" fill="#51995A" fill-rule="evenodd"/><text fill="#FFFFFF" font-family="Calibri,Calibri_MSFontService,sans-serif" font-weight="400" font-size="202" transform="matrix(1 0 0 1 2263.33 1953)">13</text></g></svg>