<svg width="564" height="564" xmlns="http://www.w3.org/2000/svg" xmlns:xlink="http://www.w3.org/1999/xlink" xml:space="preserve" overflow="hidden"><defs><filter id="fx0" x="-10%" y="-10%" width="120%" height="120%" filterUnits="userSpaceOnUse" primitiveUnits="userSpaceOnUse"><feComponentTransfer color-interpolation-filters="sRGB"><feFuncR type="discrete" tableValues="0 0"/><feFuncG type="discrete" tableValues="0 0"/><feFuncB type="discrete" tableValues="0 0"/><feFuncA type="linear" slope="0.4" intercept="0"/></feComponentTransfer><feGaussianBlur stdDeviation="7.63889 7.63889"/></filter><clipPath id="clip1"><rect x="837" y="1597" width="564" height="564"/></clipPath><clipPath id="clip2"><path d="M1119 1684.5C1007.71 1684.5 917.5 1774.71 917.5 1886 917.5 1997.29 1007.71 2087.5 1119 2087.5 1230.29 2087.5 1320.5 1997.29 1320.5 1886 1320.5 1774.71 1230.29 1684.5 1119 1684.5ZM837 1597 1401 1597 1401 2161 837 2161Z" fill-rule="evenodd" clip-rule="evenodd"/></clipPath><clipPath id="clip3"><rect x="-7" y="-7" width="479" height="479"/></clipPath><clipPath id="clip4"><rect x="0" y="0" width="464" height="464"/></clipPath></defs><g clip-path="url(#clip1)" transform="translate(-837 -1597)"><g clip-path="url(#clip2)"><g clip-path="url(#clip3)" filter="url(#fx0)" transform="translate(887 1654)"><g clip-path="url(#clip4)"><path d="M26.47 232C26.47 118.489 118.489 26.4698 232 26.4698 345.511 26.4698 437.53 118.489 437.53 232 437.53 345.511 345.511 437.53 232 437.53 118.489 437.53 26.47 345.511 26.47 232Z" stroke="#000000" stroke-width="5" stroke-miterlimit="8" fill="#51995A" fill-rule="evenodd"/></g></g></g><path d="M917.5 1886C917.5 1774.71 1007.71 1684.5 1119 1684.5 1230.29 1684.5 1320.5 1774.71 1320.5 1886 1320.5 1997.29 1230.29 2087.5 1119 2087.5 1007.71 2087.5 917.5 1997.29 917.5 1886Z" stroke="#000000" stroke-width="4.58333" stroke-miterlimit="8" fill="#51995A" fill-rule="evenodd"/><text fill="#FFFFFF" font-family="Calibri,Calibri_MSFontService,sans-serif" font-weight="400" font-size="202" transform="matrix(1 0 0 1 1067.7 1953)">4</text></g></svg>