<svg xmlns="http://www.w3.org/2000/svg" xmlns:xlink="http://www.w3.org/1999/xlink" viewBox="0 0 60 60">
    <defs>
        <linearGradient id="0KA_svg__a">
            <stop offset="0" stop-color="#dfb459"/>
            <stop offset=".041" stop-color="#dead54"/>
            <stop offset=".082" stop-color="#e1b85f"/>
            <stop offset=".165" stop-color="#dba84d"/>
            <stop offset=".305" stop-color="#dfb765"/>
            <stop offset=".539" stop-color="#d8a94e"/>
            <stop offset=".586" stop-color="#d5ab53"/>
            <stop offset=".84" stop-color="#e0bf6e"/>
            <stop offset=".924" stop-color="#daae52"/>
            <stop offset=".962" stop-color="#d9af57"/>
            <stop offset="1" stop-color="#e1b663"/>
        </linearGradient>
        <linearGradient xlink:href="#0KA_svg__a" id="0KA_svg__c" x1="-30.849" x2="-15.094" y1="30.267" y2="30.267" gradientTransform="translate(40.882 -.267)" gradientUnits="userSpaceOnUse" spreadMethod="repeat"/>
        <linearGradient xlink:href="#0KA_svg__a" id="0KA_svg__f" x1="177.827" x2="197.093" y1="92.855" y2="92.855" gradientUnits="userSpaceOnUse" spreadMethod="repeat"/>
        <linearGradient xlink:href="#0KA_svg__a" id="0KA_svg__e" x1="132.561" x2="148.24" y1="231.857" y2="231.857" gradientUnits="userSpaceOnUse" spreadMethod="repeat"/>
        <linearGradient xlink:href="#0KA_svg__a" id="0KA_svg__g" x1="176.859" x2="196.381" y1="80.264" y2="80.264" gradientUnits="userSpaceOnUse" spreadMethod="repeat"/>
        <linearGradient xlink:href="#0KA_svg__a" id="0KA_svg__d" x1="1125.366" x2="1167.429" y1="159.01" y2="159.01" gradientUnits="userSpaceOnUse" spreadMethod="repeat"/>
        <filter id="0KA_svg__b">
            <feGaussianBlur in="SourceAlpha" result="blur" stdDeviation="2"/>
            <feOffset dx="2" dy="2" result="offsetBlur"/>
            <feBlend in="SourceGraphic" in2="offsetBlur"/>
        </filter>
    </defs>
    <g fill="#75581b" filter="url(#0KA_svg__b)" transform="translate(41.197 .902)">
        <path fill="#84631f" d="m-10.96 6.237-12.84 3.61-6.865 43.278-.814.002.629 1.168H9.084C6.781 39.41 5.01 23.745 2.295 10.133l-.629-1.17.203 1.045z"/>
    </g>
    <path fill="url(#0KA_svg__c)" d="M29.922 5.97 17.084 9.578l-7.051 44.45h39.934c-2.303-14.885-4.076-30.55-6.79-44.163z"/>
    <path fill="#654b13" d="m9.719 54.03.628 1.167h39.934l-.628-1.168z"/>
    <g stroke-width=".6">
        <path fill="none" stroke="#000" stroke-width="1" d="m41.785 27.713-2.775.278"/>
        <path stroke="#000" stroke-width=".623" d="M46.44 41.074c-6.962-.49-13.487-.07-22.966 0m.715-5.078c4.095-6.716 10.39-4.523 14.778-4.464 3.667 2.174 4.206 2.35 5.55 3.988 1.42 1.908 1.782 3.234 1.896 5.577-7.084 2.553-14.164 3.077-22.64.488-.13-2.08.18-3.846.416-5.59z"/>
        <g stroke="#000" stroke-width="1.554">
            <path fill="url(#0KA_svg__d)" d="M1134.293 141.964c2.547 12.294 3.186 23.557 4.198 35.944 1.943 9.213 14.401 18.842 21.54 16.842-2.932-16.412-2.031-40.457-11.142-69.998-5.61-.793-11.376-1.122-17.492-1.757-2.038.106-3.543.516-4.955 1.456-1.895 2.68-6.003 11.52-7.692 15.867l.805 9.044c3.986 1.631 6.221 3.263 9.188 4.894z" transform="matrix(-.40052 0 0 .40052 478.562 -28.51)"/>
            <path fill="none" stroke-width=".622" d="M26.571 33.085c-1.477-3.188-1.91-4.756-3.768-7.781-.752-.928-1.517-1.837-2.387-2.588-.99-.32-1.235-.715-2.224-.38"/>
        </g>
        <path stroke="#000" stroke-width=".623" d="m38.645 31.536 1.656-12.758c.597-3.453-.196-5.31-3.072-4.775-2.65.754-4.33 3.278-5.685 6.396L30.2 31.337c4.627-.44 6.155-.12 8.447.199z"/>
        <path fill="none" stroke="url(#0KA_svg__e)" stroke-width=".964" d="M114.546 230.804c.192-.076.282-.063.668.062 4.966 1.6 9.507 3.317 20.202.889.1-.023.345-.097.522-.078" transform="translate(164.86 276.848)scale(1.03765)"/>
        <path fill="none" stroke="#000" stroke-width="1" d="m33.79 28.423-5.886.344"/>
    </g>
    <path fill="none" stroke="url(#0KA_svg__f)" stroke-width="1.285" d="M151.095 93.551c.279.024.88-.147 1.001-.177 8.975-2.21 17.802-2.648 27.993.597.253.08.757.09 1.026.112" transform="matrix(-.77824 0 0 .77824 164.292 -31.996)"/>
    <path fill="none" stroke="url(#0KA_svg__g)" stroke-width="1.285" d="M160.883 80.539c4.815-.641 7.67-.68 11.119-.268.44.052.574.106.702.091" transform="matrix(-.77824 0 0 .77824 164.292 -31.996)"/>
</svg>
