<svg xmlns="http://www.w3.org/2000/svg" xmlns:xlink="http://www.w3.org/1999/xlink" viewBox="0 0 60 60">
    <defs>
        <linearGradient id="0KE_svg__a">
            <stop offset="0" stop-color="#dfb459"/>
            <stop offset=".042" stop-color="#dead54"/>
            <stop offset=".093" stop-color="#e1b85f"/>
            <stop offset=".165" stop-color="#dba84d"/>
            <stop offset=".305" stop-color="#dfb765"/>
            <stop offset=".539" stop-color="#d8a94e"/>
            <stop offset=".586" stop-color="#d5ab53"/>
            <stop offset=".84" stop-color="#e0bf6e"/>
            <stop offset=".924" stop-color="#daae52"/>
            <stop offset=".962" stop-color="#d9af57"/>
            <stop offset="1" stop-color="#e1b663"/>
        </linearGradient>
        <linearGradient xlink:href="#0KE_svg__a" id="0KE_svg__b" x1="287.356" x2="301.335" y1="53.513" y2="53.513" gradientUnits="userSpaceOnUse" spreadMethod="repeat"/>
        <linearGradient xlink:href="#0KE_svg__a" id="0KE_svg__f" x1="-134.375" x2="-104.096" y1="82.638" y2="82.638" gradientUnits="userSpaceOnUse"/>
        <linearGradient xlink:href="#0KE_svg__a" id="0KE_svg__g" x1="-134.375" x2="-104.096" y1="82.638" y2="82.638" gradientUnits="userSpaceOnUse"/>
        <linearGradient xlink:href="#0KE_svg__a" id="0KE_svg__i" x1="373.592" x2="376.533" y1="89.663" y2="89.663" gradientUnits="userSpaceOnUse"/>
        <linearGradient xlink:href="#0KE_svg__a" id="0KE_svg__e" x1="-96.59" x2="-93.377" y1="92.733" y2="92.733" gradientUnits="userSpaceOnUse"/>
        <linearGradient xlink:href="#0KE_svg__a" id="0KE_svg__h" x1="-136.475" x2="-99.186" y1="99.718" y2="99.718" gradientUnits="userSpaceOnUse" spreadMethod="repeat"/>
        <linearGradient xlink:href="#0KE_svg__a" id="0KE_svg__d" x1="287.356" x2="301.335" y1="53.513" y2="53.513" gradientUnits="userSpaceOnUse" spreadMethod="repeat"/>
        <filter id="0KE_svg__c">
            <feGaussianBlur in="SourceAlpha" result="blur" stdDeviation="2"/>
            <feOffset dx="2" dy="2" result="offsetBlur"/>
            <feBlend in="SourceGraphic" in2="offsetBlur"/>
        </filter>
    </defs>
    <g fill="url(#0KE_svg__b)" filter="url(#0KE_svg__c)" transform="translate(39.641 2.874)scale(.91071)">
        <path fill="#826015" d="M-10.368 7.62c-4.319 1-8.69 2.087-12.838 3.607l-7.05 44.45H9.676l-6.79-44.163c-4.418-1.297-8.838-2.6-13.255-3.895z"/>
        <path fill="url(#0KE_svg__d)" d="M-10.96 6.237c-4.319 1-8.69 2.088-12.838 3.608l-7.051 44.45H9.085l-6.79-44.162c-4.418-1.298-8.839-2.6-13.255-3.896"/>
    </g>
    <g stroke-width="1.386">
        <path stroke="#000" stroke-width=".638" d="M22.636 14.43c-.737 1.39-.45 2.979-.45 4.505-1.214 2.5-2.035 4.423-1.867 6.692-1.577 1.757-2.963 3.627-3.86 5.791-.257 1.073-.478 2.145-.065 3.218l.58.322c.746 1.548.966 1.89 2.637 1.673l.322-1.609.45-.772-.32 2.059.45 1.094c2.56-.825 2.501-2.202 3.844-4.274 2.032-.938 2.914-1.414 4.907-2.161l.9-.58 1.352-2.251-1.223 2.188.322 1.415s.064 1.287 0 1.609c-.136 2.074-1.973 4.578-3.46 5.858-2.033 1.548-2.425 2.987-2.717 5.467 9.926 5.51 14.796 2.929 19.368-.128a33 33 0 0 0-.783-3.515c-1.099-3.686-1.303-6.014-1.469-12.38-.306-4.666-5.084-11.19-11.158-10.88l-2.998-4.628c-1.263 1.124-1.078 2.793-1.287 4.376l-.966-.129z"/>
        <path fill="none" stroke="url(#0KE_svg__e)" stroke-width="1.732" d="M-95.839 96.831c1.504-2.624 1.695-6.972 1.543-8.543" transform="translate(74.243 -14.27)scale(.46019)"/>
        <path fill="url(#0KE_svg__f)" stroke="url(#0KE_svg__g)" stroke-width="1.984" d="M-108.574 80.454c-3.305-.203-3.03 1.49-3.91 4.358 3.366.262 3.052-1.43 3.91-4.358z" transform="translate(74.243 -14.27)scale(.46019)"/>
        <path fill="none" stroke="url(#0KE_svg__h)" stroke-width="2.968" d="M-93.16 74.22c1.994-1.137 5.955 1.095 7.4 2.315 4.784 4.04 10.222 9.277 10.309 16.017 1.315 10.47.825 25.073 4.796 33.889" transform="translate(74.243 -14.27)scale(.46019)"/>
    </g>
    <path fill="none" stroke="url(#0KE_svg__i)" stroke-width=".999" d="m373.442 92.04 2.683-3.877" transform="translate(-278.263 -35.88)scale(.79748)"/>
    <path fill="none" stroke="#debc6a" stroke-width=".797" d="M17.573 33.46c-.412-.77.158-.956 1.08-1.83"/>
    <path fill="#815e0c" d="m41.172 12.102.54 1.258-.356-.06z"/>
    <path fill="#654b13" d="m11.546 52.322.54 1.258h36.368l-.54-1.258z"/>
</svg>
