<svg xmlns="http://www.w3.org/2000/svg" xmlns:xlink="http://www.w3.org/1999/xlink" viewBox="0 0 60 60">
    <defs>
        <linearGradient id="0KY_svg__a">
            <stop offset="0" stop-color="#dfb459"/>
            <stop offset=".042" stop-color="#dead54"/>
            <stop offset=".093" stop-color="#e1b85f"/>
            <stop offset=".165" stop-color="#dba84d"/>
            <stop offset=".305" stop-color="#dfb765"/>
            <stop offset=".539" stop-color="#d8a94e"/>
            <stop offset=".586" stop-color="#d5ab53"/>
            <stop offset=".84" stop-color="#e0bf6e"/>
            <stop offset=".924" stop-color="#daae52"/>
            <stop offset=".962" stop-color="#d9af57"/>
            <stop offset="1" stop-color="#e1b663"/>
        </linearGradient>
        <linearGradient xlink:href="#0KY_svg__a" id="0KY_svg__b" x1="287.356" x2="301.335" y1="53.513" y2="53.513" gradientUnits="userSpaceOnUse" spreadMethod="repeat"/>
        <linearGradient xlink:href="#0KY_svg__a" id="0KY_svg__e" x1="214.813" x2="366.351" y1="1248.905" y2="1248.905" gradientUnits="userSpaceOnUse" spreadMethod="repeat"/>
        <linearGradient xlink:href="#0KY_svg__a" id="0KY_svg__d" x1="287.356" x2="301.335" y1="53.513" y2="53.513" gradientUnits="userSpaceOnUse" spreadMethod="repeat"/>
        <filter id="0KY_svg__c">
            <feGaussianBlur in="SourceAlpha" result="blur" stdDeviation="2"/>
            <feOffset dx="2" dy="2" result="offsetBlur"/>
            <feBlend in="SourceGraphic" in2="offsetBlur"/>
        </filter>
    </defs>
    <g fill="url(#0KY_svg__b)" filter="url(#0KY_svg__c)" transform="translate(39.64 2.874)scale(.91071)">
        <path fill="#826015" d="M-10.368 7.618c-4.319 1-8.69 2.09-12.837 3.61l-7.052 44.45H9.678l-6.79-44.163-.594-1.383.197 1.265c-4.285-1.259-8.575-2.522-12.859-3.779"/>
        <path fill="url(#0KY_svg__d)" d="M-10.96 6.237c-4.319 1-8.69 2.088-12.838 3.608l-7.051 44.45H9.085l-6.79-44.162c-4.418-1.298-8.839-2.6-13.255-3.896"/>
    </g>
    <path fill="#654b13" d="m11.546 52.322.54 1.258h36.368l-.54-1.258z"/>
    <g stroke="#000" stroke-width="4.938">
        <path stroke-width=".476" d="M29.276 50.35V24.756h1.447V50.35z"/>
        <path fill="url(#0KY_svg__e)" stroke-width="8.694" d="m373.444 1325.142-13.45-8.57 2.65-111.341 16.688-28.568 17.542 27.755 2.373 111.247-13.382 9.224z" transform="translate(-6.602 -102.513)scale(.09641)"/>
        <path fill="none" stroke-width=".435" d="M29.992 11.354v10.134l1.594 1.265m-1.594-1.265-1.573 1.397"/>
    </g>
    <path stroke="#000" stroke-width=".476" d="M22.063 40.877h15.875v1.446H22.062z"/>
    <path d="M30 32.452a9.15 9.15 0 0 0-9.148 9.148A9.15 9.15 0 0 0 30 50.748a9.15 9.15 0 0 0 9.148-9.148A9.15 9.15 0 0 0 30 32.452m0 1.995a7.15 7.15 0 0 1 7.15 7.153A7.15 7.15 0 0 1 30 48.752a7.15 7.15 0 0 1-7.152-7.152A7.15 7.15 0 0 1 30 34.447"/>
    <path stroke="#000" stroke-width=".476" d="m23.877 46.701 11.225-11.225 1.022 1.023-11.226 11.225z"/>
    <path stroke="#000" stroke-width=".476" d="m24.898 35.476 11.225 11.225-1.022 1.023-11.225-11.225z"/>
</svg>
