<svg xmlns="http://www.w3.org/2000/svg" xmlns:xlink="http://www.w3.org/1999/xlink" viewBox="0 0 60 60">
    <defs>
        <linearGradient id="0NK_svg__a">
            <stop offset="0" stop-color="#dfb459"/>
            <stop offset=".042" stop-color="#dead54"/>
            <stop offset=".093" stop-color="#e1b85f"/>
            <stop offset=".165" stop-color="#dba84d"/>
            <stop offset=".305" stop-color="#dfb765"/>
            <stop offset=".539" stop-color="#d8a94e"/>
            <stop offset=".586" stop-color="#d5ab53"/>
            <stop offset=".84" stop-color="#e0bf6e"/>
            <stop offset=".924" stop-color="#daae52"/>
            <stop offset=".962" stop-color="#d9af57"/>
            <stop offset="1" stop-color="#e1b663"/>
        </linearGradient>
        <linearGradient xlink:href="#0NK_svg__a" id="0NK_svg__b" x1="287.356" x2="301.335" y1="53.513" y2="53.513" gradientUnits="userSpaceOnUse" spreadMethod="repeat"/>
        <linearGradient xlink:href="#0NK_svg__a" id="0NK_svg__f" x1="-135.705" x2="-100.814" y1="83.095" y2="83.095" gradientUnits="userSpaceOnUse"/>
        <linearGradient xlink:href="#0NK_svg__a" id="0NK_svg__e" x1="-135.705" x2="-106.858" y1="83.095" y2="83.095" gradientUnits="userSpaceOnUse"/>
        <linearGradient xlink:href="#0NK_svg__a" id="0NK_svg__i" x1="10.349" x2="22.561" y1="36.113" y2="36.113" gradientUnits="userSpaceOnUse"/>
        <linearGradient xlink:href="#0NK_svg__a" id="0NK_svg__h" x1="363.308" x2="381.337" y1="90.022" y2="90.022" gradientUnits="userSpaceOnUse"/>
        <linearGradient xlink:href="#0NK_svg__a" id="0NK_svg__g" x1="-136.085" x2="-100.553" y1="99.718" y2="99.718" gradientUnits="userSpaceOnUse" spreadMethod="repeat"/>
        <linearGradient xlink:href="#0NK_svg__a" id="0NK_svg__j" x1="8.508" x2="24.751" y1="26.218" y2="26.218" gradientUnits="userSpaceOnUse"/>
        <linearGradient xlink:href="#0NK_svg__a" id="0NK_svg__l" x1="8.317" x2="24.006" y1="36.147" y2="36.147" gradientUnits="userSpaceOnUse" spreadMethod="repeat"/>
        <linearGradient xlink:href="#0NK_svg__a" id="0NK_svg__k" x1="8.569" x2="20.782" y1="44.674" y2="44.674" gradientUnits="userSpaceOnUse" spreadMethod="repeat"/>
        <linearGradient xlink:href="#0NK_svg__a" id="0NK_svg__d" x1="287.356" x2="301.335" y1="53.513" y2="53.513" gradientUnits="userSpaceOnUse" spreadMethod="repeat"/>
        <filter id="0NK_svg__c">
            <feGaussianBlur in="SourceAlpha" result="blur" stdDeviation="2"/>
            <feOffset dx="2" dy="2" result="offsetBlur"/>
            <feBlend in="SourceGraphic" in2="offsetBlur"/>
        </filter>
    </defs>
    <g fill="url(#0NK_svg__b)" filter="url(#0NK_svg__c)" transform="translate(39.641 2.874)scale(.91071)">
        <path fill="#826015" d="M-10.368 7.62c-4.319 1-8.69 2.087-12.838 3.607l-7.05 44.45H9.676l-6.79-44.163c-4.418-1.297-8.838-2.6-13.255-3.895z"/>
        <path fill="url(#0NK_svg__d)" d="M-10.96 6.237c-4.319 1-8.69 2.088-12.838 3.608l-7.051 44.45H9.085l-6.79-44.162c-4.418-1.298-8.839-2.6-13.255-3.896"/>
    </g>
    <path fill="#815e0c" d="m29.73 12.102.54 1.258-.356-.06z"/>
    <path fill="#654b13" d="m11.546 52.322.54 1.258h36.368l-.54-1.258z"/>
    <g stroke-width="1.386">
        <path fill="#c80000" stroke="#c80000" stroke-width=".638" d="M22.636 14.43c-.737 1.39-.45 2.979-.45 4.505-1.214 2.5-2.035 4.423-1.867 6.692-1.577 1.757-2.963 3.627-3.86 5.791-.257 1.073-.478 2.145-.065 3.218l.58.322c.746 1.548.966 1.89 2.637 1.673.921-2.854.797-.984.901.772 2.56-.825 2.502-2.202 3.845-4.274 2.032-.938 2.914-1.414 4.907-2.161l.9-.58 1.352-2.251-1.223 2.188.322 1.415s.064 1.287 0 1.609c-.136 2.074-1.973 4.578-3.46 5.858-2.033 1.548-2.425 2.987-2.717 5.467 9.926 5.51 14.796 2.929 19.368-.128a33 33 0 0 0-.783-3.515c-1.099-3.686-1.303-6.014-1.469-12.38-.306-4.666-5.084-11.19-11.158-10.88l-2.998-4.628c-1.263 1.124-1.078 2.793-1.287 4.376l-.966-.129z"/>
        <path fill="none" stroke="#debc6a" stroke-width=".797" d="M30.14 30.292c.691-1.208.78-3.209.71-3.932"/>
        <path fill="url(#0NK_svg__e)" stroke="url(#0NK_svg__f)" stroke-width="2.236" d="M-108.086 80.845c-4.597 1.232-3.885 2.46-5.113 4.738 3.794.296 5.742-1.934 5.113-4.738z" transform="translate(74.243 -14.27)scale(.46019)"/>
        <path fill="none" stroke="url(#0NK_svg__g)" stroke-width="2.968" d="M-93.16 74.22c1.994-1.137 5.955 1.095 7.4 2.315 4.784 4.04 10.222 9.277 10.309 16.017 1.315 10.47.825 25.073 4.796 33.889" transform="translate(74.243 -14.27)scale(.46019)"/>
    </g>
    <path fill="none" stroke="url(#0NK_svg__h)" stroke-width=".999" d="m373.76 91.88 2.365-3.717" transform="translate(-278.263 -35.88)scale(.79748)"/>
    <path fill="none" stroke="url(#0NK_svg__i)" stroke-width=".7" d="M15.076 36.961c-.362-.676.138-.84.949-1.607" transform="translate(.412 -8.615)scale(1.13836)"/>
    <path fill="url(#0NK_svg__j)" stroke="#c80000" stroke-width=".417" d="m14.683 28.695 3.982 2.321c2.292-3.793 2.303-3.728 4.583-6.924-.705-1.743-3.133-2.591-5.027-3.62l.82-1.948c1.904 1.19 4.274 1.825 5.49 3.857 1.41-1.697 2.315-3.407 3.249-4.77.807.098 1.455.102 2.409.516-2.615 3.8-5.993 7.51-10.153 13.808l1.228 1.194-.86 1.573-1.925-1.949-4.587-2.486a9 9 0 0 1 .791-1.572z" transform="translate(3.093)"/>
    <path fill="none" stroke="url(#0NK_svg__k)" stroke-width="1.5" d="M21.193 43.242c.333.075 1.114.413 1.273.5 5.752 3.181 11.644 3.772 16.572.1.21-.157 1.519-.816 1.735-.877" transform="translate(3.093)"/>
    <path fill="none" stroke="url(#0NK_svg__l)" stroke-width="1.2" d="M20.526 33.57c.31.217.257.338.3.44 1.541 3.703 4.262 5.532 5.96 5.945 6.678-.027 8.327-4.17 11.46-7.204.13-.125.463-.405.664-.414" transform="translate(3.093)"/>
</svg>
