<svg xmlns="http://www.w3.org/2000/svg" xmlns:xlink="http://www.w3.org/1999/xlink" viewBox="0 0 60 60">
    <defs>
        <linearGradient xlink:href="#1GY_svg__a" id="1GY_svg__c" x1="148.578" x2="130.323" y1="49.826" y2="49.826" gradientUnits="userSpaceOnUse" spreadMethod="repeat"/>
        <linearGradient id="1GY_svg__a">
            <stop offset="0" stop-color="#dfb459"/>
            <stop offset=".041" stop-color="#dead54"/>
            <stop offset=".082" stop-color="#e1b85f"/>
            <stop offset=".165" stop-color="#dba84d"/>
            <stop offset=".305" stop-color="#dfb765"/>
            <stop offset=".539" stop-color="#d8a94e"/>
            <stop offset=".586" stop-color="#d5ab53"/>
            <stop offset=".84" stop-color="#e0bf6e"/>
            <stop offset=".924" stop-color="#daae52"/>
            <stop offset=".962" stop-color="#d9af57"/>
            <stop offset="1" stop-color="#e1b663"/>
        </linearGradient>
        <linearGradient xlink:href="#1GY_svg__b" id="1GY_svg__f" x1="148.578" x2="130.323" y1="49.826" y2="49.826" gradientUnits="userSpaceOnUse" spreadMethod="repeat"/>
        <linearGradient id="1GY_svg__b">
            <stop offset="0" stop-color="#e5c37b"/>
            <stop offset=".042" stop-color="#e4bd76"/>
            <stop offset=".093" stop-color="#e7c781"/>
            <stop offset=".165" stop-color="#e2b86e"/>
            <stop offset=".305" stop-color="#e6c686"/>
            <stop offset=".539" stop-color="#dfb96f"/>
            <stop offset=".586" stop-color="#ddbb73"/>
            <stop offset=".84" stop-color="#e7ce8f"/>
            <stop offset=".924" stop-color="#e1bd73"/>
            <stop offset=".962" stop-color="#e0bf78"/>
            <stop offset="1" stop-color="#e7c685"/>
        </linearGradient>
        <linearGradient xlink:href="#1GY_svg__a" id="1GY_svg__e" x1="148.578" x2="130.323" y1="49.826" y2="49.826" gradientUnits="userSpaceOnUse" spreadMethod="repeat"/>
        <filter id="1GY_svg__d">
            <feGaussianBlur in="SourceAlpha" result="blur" stdDeviation="2"/>
            <feOffset dx="2" dy="2" result="offsetBlur"/>
            <feBlend in="SourceGraphic" in2="offsetBlur"/>
        </filter>
    </defs>
    <g fill="url(#1GY_svg__c)" filter="url(#1GY_svg__d)" transform="matrix(.98186 0 0 .98185 -96.558 -23.22)">
        <g fill="url(#1GY_svg__e)" transform="rotate(180 45.578 23.813)">
            <path fill="#876419" d="m-57.545 17.808.139-.972-.718-.01zm-.58-.982h40.191l-6.41-44.002.454.121-.578-.98-13.14-3.935a.9.9 0 0 0-.27-.022l-13.41 4.26z"/>
            <path fill="url(#1GY_svg__f)" d="m-37.3-31.01-13.408 4.26-6.837 44.558h40.19l-6.535-44.862-13.138-3.935a.9.9 0 0 0-.271-.021"/>
        </g>
    </g>
    <path fill="#9c7526" d="m29.568 53.987.302.943 13.432-4.162-.569-.964z"/>
    <path stroke="#000" stroke-linejoin="round" stroke-width=".453" d="M41.364 42.419v8.086h5.242l.837 2.478h-6.079v9.13H51.43l.836 2.869H27.964l.836-2.87h9.952v-9.13h-6.237l.836-2.477h5.401v-8.086h-7.136l-.836-2.87h18.597l-.836 2.87z" opacity=".99" transform="matrix(-1.19583 0 0 -1.07583 77.493 83.992)"/>
</svg>
