<svg xmlns="http://www.w3.org/2000/svg" xmlns:xlink="http://www.w3.org/1999/xlink" viewBox="0 0 60 60">
    <defs>
        <linearGradient xlink:href="#1KA_svg__a" id="1KA_svg__b" x1="148.578" x2="130.323" y1="49.826" y2="49.826" gradientUnits="userSpaceOnUse" spreadMethod="repeat"/>
        <linearGradient xlink:href="#1KA_svg__a" id="1KA_svg__e" x1="1112.353" x2="1167.429" y1="159.01" y2="159.01" gradientUnits="userSpaceOnUse" spreadMethod="repeat"/>
        <linearGradient xlink:href="#1KA_svg__a" id="1KA_svg__f" x1="132.561" x2="148.24" y1="231.857" y2="231.857" gradientUnits="userSpaceOnUse" spreadMethod="repeat"/>
        <linearGradient xlink:href="#1KA_svg__a" id="1KA_svg__g" x1="177.827" x2="197.093" y1="92.855" y2="92.855" gradientUnits="userSpaceOnUse" spreadMethod="repeat"/>
        <linearGradient xlink:href="#1KA_svg__a" id="1KA_svg__h" x1="176.859" x2="196.381" y1="80.264" y2="80.264" gradientUnits="userSpaceOnUse" spreadMethod="repeat"/>
        <linearGradient id="1KA_svg__a">
            <stop offset="0" stop-color="#e5c37b"/>
            <stop offset=".042" stop-color="#e4bd76"/>
            <stop offset=".093" stop-color="#e7c781"/>
            <stop offset=".165" stop-color="#e2b86e"/>
            <stop offset=".305" stop-color="#e6c686"/>
            <stop offset=".539" stop-color="#dfb96f"/>
            <stop offset=".586" stop-color="#ddbb73"/>
            <stop offset=".84" stop-color="#e7ce8f"/>
            <stop offset=".924" stop-color="#e1bd73"/>
            <stop offset=".962" stop-color="#e0bf78"/>
            <stop offset="1" stop-color="#e7c685"/>
        </linearGradient>
        <linearGradient xlink:href="#1KA_svg__a" id="1KA_svg__d" x1="148.578" x2="130.323" y1="49.826" y2="49.826" gradientUnits="userSpaceOnUse" spreadMethod="repeat"/>
        <filter id="1KA_svg__c">
            <feGaussianBlur in="SourceAlpha" result="blur" stdDeviation="2"/>
            <feOffset dx="2" dy="2" result="offsetBlur"/>
            <feBlend in="SourceGraphic" in2="offsetBlur"/>
        </filter>
    </defs>
    <g fill="url(#1KA_svg__b)" filter="url(#1KA_svg__c)" transform="translate(-96.558 -23.219)scale(.98185)">
        <path fill="#876419" d="m148.702 29.817-.139.972.718.01zm.58.982H109.09l6.41 44.002-.454-.121.578.98 13.14 3.935a.9.9 0 0 0 .27.022l13.41-4.26 6.836-44.558z"/>
        <path fill="url(#1KA_svg__d)" d="m128.456 78.635 13.41-4.26 6.836-44.558h-40.19l6.535 44.862 13.138 3.935c.09.017.18.032.271.021"/>
    </g>
    <path fill="#ac812a" d="m29.566 53.989.303.943L43.3 50.77l-.568-.964z"/>
    <g stroke-width=".6">
        <path fill="none" stroke="#000" stroke-width="1" d="m18.198 31.618 2.776-.278"/>
        <path stroke="#000" stroke-width=".623" d="M13.545 18.257c6.961.49 13.485.07 22.964 0m-.715 5.078c-4.094 6.716-10.39 4.523-14.778 4.464-3.667-2.174-4.206-2.35-5.55-3.988-1.42-1.908-1.78-3.234-1.895-5.577 7.084-2.553 14.164-3.077 22.64-.488.13 2.08-.18 3.846-.417 5.589z"/>
        <g stroke="#000" stroke-width="1.554">
            <path fill="url(#1KA_svg__e)" d="M1134.293 141.964c2.547 12.294 3.186 23.557 4.198 35.944 1.943 9.213 14.401 18.842 21.54 16.842-2.932-16.412-2.031-40.457-11.142-69.998-5.61-.793-11.376-1.122-17.492-1.757-2.038.106-3.543.516-4.955 1.456-1.895 2.68-6.003 11.52-7.692 15.867l.805 9.044c3.986 1.631 6.221 3.263 9.188 4.894z" transform="matrix(.40052 0 0 -.40052 -418.578 87.841)"/>
            <path fill="none" stroke-width=".622" d="M33.413 26.246c1.476 3.188 1.91 4.756 3.767 7.781.753.928 1.518 1.837 2.388 2.588.99.32 1.235.715 2.224.38"/>
        </g>
        <path stroke="#000" stroke-width=".623" d="m21.34 27.795-1.658 12.759c-.596 3.452.196 5.31 3.073 4.774 2.65-.753 4.33-3.278 5.684-6.396l1.347-10.938c-4.628.44-6.156.121-8.447-.199z"/>
        <path fill="none" stroke="url(#1KA_svg__f)" stroke-width=".964" d="M114.546 230.804c.192-.076.282-.063.668.062 4.966 1.6 9.507 3.317 20.202.889.1-.023.345-.097.522-.078" transform="translate(-104.876 -217.517)scale(1.03765)"/>
        <path fill="none" stroke="#000" stroke-width="1" d="m26.193 30.908 5.886-.344"/>
    </g>
    <path fill="none" stroke="url(#1KA_svg__g)" stroke-width="1.285" d="M151.095 93.551c.279.024.88-.147 1.001-.177 8.975-2.21 17.802-2.648 27.993.597.253.08.757.09 1.026.112" transform="matrix(.77824 0 0 -.77824 -104.308 91.327)"/>
    <path fill="none" stroke="url(#1KA_svg__h)" stroke-width="1.285" d="M160.883 80.539c4.815-.641 7.67-.68 11.119-.268.44.052.574.106.702.091" transform="matrix(.77824 0 0 -.77824 -104.308 91.327)"/>
</svg>
