<svg xmlns="http://www.w3.org/2000/svg" xmlns:xlink="http://www.w3.org/1999/xlink" viewBox="0 0 60 60">
    <defs>
        <linearGradient xlink:href="#1KE_svg__a" id="1KE_svg__d" x1="-96.59" x2="-93.377" y1="92.733" y2="92.733" gradientUnits="userSpaceOnUse"/>
        <linearGradient xlink:href="#1KE_svg__a" id="1KE_svg__e" x1="-134.375" x2="-104.096" y1="82.638" y2="82.638" gradientUnits="userSpaceOnUse"/>
        <linearGradient xlink:href="#1KE_svg__a" id="1KE_svg__f" x1="-136.475" x2="-99.186" y1="99.718" y2="99.718" gradientUnits="userSpaceOnUse" spreadMethod="repeat"/>
        <linearGradient xlink:href="#1KE_svg__a" id="1KE_svg__g" x1="373.592" x2="376.533" y1="89.663" y2="89.663" gradientUnits="userSpaceOnUse"/>
        <linearGradient xlink:href="#1KE_svg__a" id="1KE_svg__c" x1="-57.446" x2="-39.653" y1="-2.331" y2="-2.331" gradientUnits="userSpaceOnUse" spreadMethod="repeat"/>
        <linearGradient id="1KE_svg__a">
            <stop offset="0" stop-color="#e5c37b"/>
            <stop offset=".042" stop-color="#e4bd76"/>
            <stop offset=".093" stop-color="#e7c781"/>
            <stop offset=".165" stop-color="#e2b86e"/>
            <stop offset=".305" stop-color="#e6c686"/>
            <stop offset=".539" stop-color="#dfb96f"/>
            <stop offset=".586" stop-color="#ddbb73"/>
            <stop offset=".84" stop-color="#e7ce8f"/>
            <stop offset=".924" stop-color="#e1bd73"/>
            <stop offset=".962" stop-color="#e0bf78"/>
            <stop offset="1" stop-color="#e7c685"/>
        </linearGradient>
        <linearGradient xlink:href="#1KE_svg__a" id="1KE_svg__h" x1="14.606" x2="16.266" y1="36.113" y2="36.113" gradientUnits="userSpaceOnUse"/>
        <filter id="1KE_svg__b">
            <feGaussianBlur in="SourceAlpha" result="blur" stdDeviation="2"/>
            <feOffset dx="2" dy="2" result="offsetBlur"/>
            <feBlend in="SourceGraphic" in2="offsetBlur"/>
        </filter>
    </defs>
    <g fill="#654b13" filter="url(#1KE_svg__b)" transform="translate(-84.656 -17.119)scale(.89418)">
        <path fill="#876419" d="m147.797 28.31-.236 1.177h-39.613l6.736 43.812-.542-.129.703 1.18 13.139 3.933c.093.026.192.016.27.022l13.41-4.261 6.837-44.557z"/>
    </g>
    <path fill="url(#1KE_svg__c)" d="m-37.3-31.01-13.408 4.26-6.837 44.558h40.553l-6.898-44.862-13.138-3.935c-.094-.026-.193-.015-.271-.021z" transform="translate(-3.954 24.118)scale(-.89418)"/>
    <g stroke-width="1.386">
        <path stroke="#000" stroke-width=".638" d="M36.073 46.008c.737-1.39.45-2.978.45-4.504 1.214-2.5 2.035-4.423 1.867-6.693 1.577-1.756 2.963-3.627 3.86-5.791.257-1.072.478-2.145.065-3.217l-.579-.322c-.747-1.548-.967-1.891-2.638-1.673l-.322 1.608-.45.773.321-2.06-.45-1.093c-2.56.824-2.502 2.201-3.845 4.273-2.032.939-2.914 1.414-4.907 2.161l-.9.58-1.352 2.252 1.223-2.188-.322-1.416s-.064-1.287 0-1.608c.136-2.074 1.973-4.579 3.46-5.858 2.033-1.549 2.426-2.987 2.718-5.468-9.927-5.509-14.797-2.928-19.37.129.2 1.138.355 1.948.784 3.515 1.099 3.685 1.303 6.014 1.469 12.379.307 4.667 5.084 11.19 11.159 10.88l2.998 4.628c1.262-1.124 1.077-2.792 1.286-4.376l.966.129z"/>
        <path fill="none" stroke="#fff" stroke-width=".797" d="M28.57 30.147c-.692 1.207-.78 3.208-.71 3.931"/>
        <path fill="#fff" stroke="#fff" stroke-width=".913" d="M34.43 37.683c1.521.094 1.394-.685 1.8-2.005-1.55-.12-1.405.658-1.8 2.005z"/>
        <path fill="none" stroke="#fff" stroke-width="1.366" d="M27.337 40.552c-.918.523-2.74-.504-3.405-1.065-2.202-1.86-4.705-4.27-4.744-7.371-.606-4.818-.38-11.538-2.208-15.595"/>
    </g>
    <path fill="none" stroke="#fff" stroke-width=".797" d="m38.716 23.618-1.695 2.392m4.115.968c.412.77-.158.956-1.08 1.83"/>
    <g stroke-width="1.386">
        <path stroke="#000" stroke-width=".638" d="M36.073 46.008c.737-1.39.45-2.978.45-4.504 1.214-2.5 2.035-4.423 1.867-6.693 1.577-1.756 2.963-3.627 3.86-5.791.257-1.072.478-2.145.065-3.217l-.579-.322c-.747-1.548-.967-1.891-2.638-1.673l-.322 1.608-.45.773.321-2.06-.45-1.093c-2.56.824-2.502 2.201-3.845 4.273-2.032.939-2.914 1.414-4.907 2.161l-.9.58-1.352 2.252 1.223-2.188-.322-1.416s-.064-1.287 0-1.608c.136-2.074 1.973-4.579 3.46-5.858 2.033-1.549 2.426-2.987 2.718-5.468-9.927-5.509-14.797-2.928-19.37.129.2 1.138.355 1.948.784 3.515 1.099 3.685 1.303 6.014 1.469 12.379.307 4.667 5.084 11.19 11.159 10.88l2.998 4.628c1.262-1.124 1.077-2.792 1.286-4.376l.966.129z"/>
        <path fill="none" stroke="url(#1KE_svg__d)" stroke-width="1.732" d="M-95.839 96.831c1.504-2.624 1.695-6.972 1.543-8.543" transform="translate(-15.534 74.708)scale(-.46019)"/>
        <path fill="url(#1KE_svg__e)" stroke="url(#1KE_svg__e)" stroke-width="1.984" d="M-108.574 80.454c-3.305-.203-3.03 1.49-3.91 4.358 3.366.262 3.052-1.43 3.91-4.358z" transform="translate(-15.534 74.708)scale(-.46019)"/>
        <path fill="none" stroke="url(#1KE_svg__f)" stroke-width="2.968" d="M-93.16 74.22c1.994-1.137 5.955 1.095 7.4 2.315 4.784 4.04 10.222 9.277 10.309 16.017 1.315 10.47.825 25.073 4.796 33.889" transform="translate(-15.534 74.708)scale(-.46019)"/>
    </g>
    <path fill="none" stroke="url(#1KE_svg__g)" stroke-width=".999" d="m373.442 92.04 2.683-3.877" transform="translate(336.974 96.318)scale(-.79748)"/>
    <path fill="none" stroke="url(#1KE_svg__h)" stroke-width=".7" d="M15.076 36.961c-.362-.676.138-.84.949-1.607" transform="translate(58.296 69.052)scale(-1.13836)"/>
    <path fill="#a5780f" d="m29.399 51.847.628 1.053 11.99-3.81-.628-1.052z"/>
</svg>
