<svg xmlns="http://www.w3.org/2000/svg" xmlns:xlink="http://www.w3.org/1999/xlink" viewBox="0 0 60 60">
    <defs>
        <linearGradient xlink:href="#1KI_svg__a" id="1KI_svg__e" x1="-37.193" x2="238.302" y1="216.519" y2="216.519" gradientUnits="userSpaceOnUse" spreadMethod="repeat"/>
        <linearGradient xlink:href="#1KI_svg__a" id="1KI_svg__f" x1="276.992" x2="291.233" y1="142.974" y2="142.974" gradientUnits="userSpaceOnUse"/>
        <linearGradient xlink:href="#1KI_svg__a" id="1KI_svg__g" x1="304.71" x2="326.65" y1="91.813" y2="91.813" gradientUnits="userSpaceOnUse"/>
        <linearGradient xlink:href="#1KI_svg__a" id="1KI_svg__h" x1="305.234" x2="326.101" y1="93.216" y2="93.216" gradientUnits="userSpaceOnUse"/>
        <linearGradient xlink:href="#1KI_svg__a" id="1KI_svg__i" x1="294.98" x2="313.791" y1="91.465" y2="91.465" gradientUnits="userSpaceOnUse" spreadMethod="repeat"/>
        <linearGradient xlink:href="#1KI_svg__a" id="1KI_svg__j" x1="223.004" x2="242.046" y1="79.253" y2="79.253" gradientUnits="userSpaceOnUse" spreadMethod="repeat"/>
        <linearGradient xlink:href="#1KI_svg__a" id="1KI_svg__k" x1="239.247" x2="249.558" y1="100.537" y2="100.537" gradientUnits="userSpaceOnUse"/>
        <linearGradient xlink:href="#1KI_svg__a" id="1KI_svg__l" x1="238.298" x2="250.496" y1="104.713" y2="104.713" gradientUnits="userSpaceOnUse"/>
        <linearGradient xlink:href="#1KI_svg__a" id="1KI_svg__b" x1="148.368" x2="129.504" y1="49.819" y2="49.819" gradientUnits="userSpaceOnUse" spreadMethod="repeat"/>
        <linearGradient id="1KI_svg__a">
            <stop offset="0" stop-color="#e5c37b"/>
            <stop offset=".042" stop-color="#e4bd76"/>
            <stop offset=".093" stop-color="#e7c781"/>
            <stop offset=".165" stop-color="#e2b86e"/>
            <stop offset=".305" stop-color="#e6c686"/>
            <stop offset=".539" stop-color="#dfb96f"/>
            <stop offset=".586" stop-color="#ddbb73"/>
            <stop offset=".84" stop-color="#e7ce8f"/>
            <stop offset=".924" stop-color="#e1bd73"/>
            <stop offset=".962" stop-color="#e0bf78"/>
            <stop offset="1" stop-color="#e7c685"/>
        </linearGradient>
        <linearGradient xlink:href="#1KI_svg__a" id="1KI_svg__d" x1="148.368" x2="129.504" y1="49.819" y2="49.819" gradientUnits="userSpaceOnUse" spreadMethod="repeat"/>
        <filter id="1KI_svg__c">
            <feGaussianBlur in="SourceAlpha" result="blur" stdDeviation="2"/>
            <feOffset dx="2" dy="2" result="offsetBlur"/>
            <feBlend in="SourceGraphic" in2="offsetBlur"/>
        </filter>
    </defs>
    <g fill="url(#1KI_svg__b)" filter="url(#1KI_svg__c)" transform="translate(-88.747 -20.034)scale(.92309)">
        <path fill="#876419" d="m148.703 29.817-.234 1.17h-39.89l6.924 43.53-.457-.142.62 1.17 13.14 4.24c.09.018.18.03.27.02l13.409-4.26 6.836-44.558z"/>
        <path fill="url(#1KI_svg__d)" d="m128.456 78.635 13.41-4.26 6.836-44.558H107.96l7.088 44.558 13.138 4.239c.09.017.18.032.271.021z"/>
    </g>
    <g transform="matrix(-.8358 0 0 -.8254 234.4 100.84)">
        <g stroke="#000" stroke-width="1.2">
            <path fill="url(#1KI_svg__e)" stroke-width="8.056" d="M89.878 104.459c71.228 71.229 31.757 135.82 52.51 165.378 28.87 49.947 71.082 59.605 129.342 59.37a66 66 0 0 0 3.413-.105q1.714.098 3.413.104c58.26.236 100.472-9.422 129.342-59.369 20.753-29.557-18.718-94.15 52.51-165.378-11.605-5.015-42.725 25.605-62.898 25.525-25.612-15.171-47.031 3.08-52.25 16.777 37.838-11.301 70.078 121.468-45.539 137.914-7.067 1.97-16.164 2.514-24.578 2.72-8.414-.206-17.511-.75-24.578-2.72-115.617-16.446-83.377-149.215-45.538-137.914-5.22-13.698-26.64-31.948-52.251-16.777-20.173.08-51.293-30.54-62.898-25.525z" transform="matrix(.06853 0 0 .08094 225.709 60.013)"/>
            <path stroke-width="16.112" d="M141.488 275.714c-28.03-24.447-35.67-22.506-73.48-17.843l-35.66 52.997c60.802-7.142 122.974 2.29 115.3 107.58 7.77-26.63 28.133-63.418 39.832-101.833m220.385-40.901c28.03-24.447 35.67-22.506 73.479-17.843l35.66 52.997c-60.801-7.142-122.974 2.29-115.3 107.58-7.77-26.63-28.132-63.418-39.83-101.833" transform="matrix(.06853 0 0 .08094 225.73 59.991)"/>
            <path stroke-width="16.112" d="m128.121 339.223-29.443 64.098c-3.406-2.033 6.609 9.49-6.592 1.008-14.055 23.338-19.002 29.833-33.969 54.715 21.968 17.086 24.659 18.31 46.106 25.56 13.293-25.846 25.739-42.373 44.639-83.918m270.022-61.463 29.443 64.098c3.407-2.033-6.608 9.49 6.593 1.008 14.054 23.338 19.002 29.833 33.968 54.715-21.968 17.086-24.658 18.31-46.106 25.56-13.292-25.846-25.738-42.373-44.638-83.918" transform="matrix(.06853 0 0 .08094 225.709 60.013)"/>
            <path d="M233.88 97.288c7.362 3.092 14.48 3.19 21.327 0l-4.023-11.781c-5.552 2.376-8.767 2.099-13.5.437z"/>
            <path fill="none" stroke="url(#1KI_svg__f)" d="M277.188 142.28c4.81 1.655 8.506 2.056 13.826-.031" transform="translate(-39.725 -53.576)"/>
        </g>
        <path fill="none" stroke="url(#1KI_svg__g)" stroke-width=".7" d="M304.855 89.188c.302.137.414.39.467.478 1.928 3.26 1.51 3.297 1.895 4.828m19.295-5.088c-.305.131-.422.381-.476.469-1.994 3.22-1.576 3.266-1.992 4.79" transform="translate(-71.19 -1.25)"/>
        <path fill="none" stroke="url(#1KI_svg__h)" d="m305.71 99.48 4.06-12.61m11.288.253 4.574 12.42" transform="translate(-71.19 -1.25)"/>
        <path fill="none" stroke="url(#1KI_svg__i)" stroke-width=".998" d="M304.034 89.76c.18.09.406.383.61.575l3.094 2.918m22.05-3.494c-.18.09-.406.384-.61.576l-3.093 2.918" transform="translate(-72.44 2.488)"/>
        <path stroke="#000" d="M239.024 80.489c3.438-2.881 8.3-2.42 11.037.134-2.365 3.351-9.494 2.307-11.037-.134z"/>
        <ellipse cx="244.601" cy="79.253" fill="url(#1KI_svg__j)" stroke="#000" stroke-width=".604" rx="3.947" ry="3.818"/>
        <path stroke="#000" d="m240.019 99.645-1.37 5.82-.911-.363-.997 3.086c4.988 2.097 11.13 1.98 15.249 0l-.997-3.086-.854.363-1.37-5.82"/>
        <path fill="none" stroke="url(#1KI_svg__k)" stroke-width=".998" d="M239.37 100.175c.152.039.143.036.229.06 3.05.835 6.735.845 9.675.113.05-.013.015-.002.171-.039"/>
        <path fill="none" stroke="url(#1KI_svg__l)" stroke-width=".998" d="M238.41 104.291c.156.037.124.045.187.066 3.28 1.12 8.768.875 11.584-.009.08-.024.052-.026.198-.06"/>
    </g>
    <path fill="#a57a1b" d="m29.58 52.534.822 1.099L42.78 49.7l-.572-1.08z"/>
</svg>
