<svg xmlns="http://www.w3.org/2000/svg" xmlns:xlink="http://www.w3.org/1999/xlink" viewBox="0 0 60 60">
    <defs>
        <linearGradient xlink:href="#1KY_svg__a" id="1KY_svg__c" x1="-57.446" x2="-39.653" y1="-2.331" y2="-2.331" gradientUnits="userSpaceOnUse" spreadMethod="repeat"/>
        <linearGradient xlink:href="#1KY_svg__a" id="1KY_svg__d" x1="214.813" x2="366.351" y1="1248.905" y2="1248.905" gradientUnits="userSpaceOnUse" spreadMethod="repeat"/>
        <linearGradient id="1KY_svg__a">
            <stop offset="0" stop-color="#e5c37b"/>
            <stop offset=".042" stop-color="#e4bd76"/>
            <stop offset=".093" stop-color="#e7c781"/>
            <stop offset=".165" stop-color="#e2b86e"/>
            <stop offset=".305" stop-color="#e6c686"/>
            <stop offset=".539" stop-color="#dfb96f"/>
            <stop offset=".586" stop-color="#ddbb73"/>
            <stop offset=".84" stop-color="#e7ce8f"/>
            <stop offset=".924" stop-color="#e1bd73"/>
            <stop offset=".962" stop-color="#e0bf78"/>
            <stop offset="1" stop-color="#e7c685"/>
        </linearGradient>
        <filter id="1KY_svg__b">
            <feGaussianBlur in="SourceAlpha" result="blur" stdDeviation="2"/>
            <feOffset dx="2" dy="2" result="offsetBlur"/>
            <feBlend in="SourceGraphic" in2="offsetBlur"/>
        </filter>
    </defs>
    <g fill="#654b13" filter="url(#1KY_svg__b)" transform="translate(-84.656 -17.119)scale(.89418)">
        <path fill="#876419" d="m147.797 28.31-.236 1.177h-39.613l6.736 43.812-.542-.129.703 1.18 13.139 3.933c.093.026.192.016.27.022l13.41-4.261 6.837-44.557z"/>
    </g>
    <path fill="url(#1KY_svg__c)" d="m-37.3-31.01-13.408 4.26-6.837 44.558h40.553l-6.898-44.862-13.138-3.935c-.094-.026-.193-.015-.271-.021z" transform="translate(-3.954 24.118)scale(-.89418)"/>
    <path fill="#a5780f" d="m29.4 51.847.627 1.053 11.99-3.81-.628-1.052z"/>
    <g stroke="#000" stroke-width="4.938">
        <path stroke-width=".476" d="M30.05 10.052v25.593h-1.446V10.052z"/>
        <path fill="url(#1KY_svg__d)" stroke-width="8.694" d="m373.444 1325.142-13.45-8.57 2.65-111.341 16.688-28.568 17.542 27.755 2.373 111.247-13.382 9.224z" transform="translate(65.93 162.914)scale(-.09641)"/>
        <path fill="none" stroke-width=".435" d="M29.336 49.047V38.914l-1.594-1.265m1.594 1.265 1.573-1.397"/>
    </g>
    <path stroke="#000" stroke-width=".476" d="M37.265 19.525H21.39v-1.446h15.875z"/>
    <path d="M29.327 27.95a9.15 9.15 0 0 0 9.148-9.148 9.15 9.15 0 0 0-9.148-9.148 9.15 9.15 0 0 0-9.147 9.148 9.15 9.15 0 0 0 9.147 9.148m0-1.995a7.15 7.15 0 0 1-7.15-7.153 7.15 7.15 0 0 1 7.15-7.152 7.15 7.15 0 0 1 7.154 7.152 7.15 7.15 0 0 1-7.154 7.153"/>
    <path stroke="#000" stroke-width=".476" d="M35.451 13.7 24.226 24.926l-1.023-1.023L34.43 12.678z"/>
    <path stroke="#000" stroke-width=".476" d="M34.43 24.926 23.202 13.7l1.023-1.022L35.45 23.903z"/>
</svg>
