<svg xmlns="http://www.w3.org/2000/svg" xmlns:xlink="http://www.w3.org/1999/xlink" viewBox="0 0 60 60">
    <defs>
        <linearGradient id="1NK_svg__b">
            <stop offset="0" stop-color="#dfb459"/>
            <stop offset=".042" stop-color="#dead54"/>
            <stop offset=".093" stop-color="#e1b85f"/>
            <stop offset=".165" stop-color="#dba84d"/>
            <stop offset=".305" stop-color="#dfb765"/>
            <stop offset=".539" stop-color="#d8a94e"/>
            <stop offset=".586" stop-color="#d5ab53"/>
            <stop offset=".84" stop-color="#e0bf6e"/>
            <stop offset=".924" stop-color="#daae52"/>
            <stop offset=".962" stop-color="#d9af57"/>
            <stop offset="1" stop-color="#e1b663"/>
        </linearGradient>
        <linearGradient xlink:href="#1NK_svg__a" id="1NK_svg__d" x1="-57.446" x2="-39.653" y1="-2.331" y2="-2.331" gradientUnits="userSpaceOnUse" spreadMethod="repeat"/>
        <linearGradient xlink:href="#1NK_svg__b" id="1NK_svg__e" x1="-135.705" x2="-106.858" y1="83.095" y2="83.095" gradientUnits="userSpaceOnUse"/>
        <linearGradient xlink:href="#1NK_svg__b" id="1NK_svg__f" x1="-135.705" x2="-100.814" y1="83.095" y2="83.095" gradientUnits="userSpaceOnUse"/>
        <linearGradient xlink:href="#1NK_svg__a" id="1NK_svg__g" x1="-136.085" x2="-100.553" y1="99.718" y2="99.718" gradientUnits="userSpaceOnUse" spreadMethod="repeat"/>
        <linearGradient xlink:href="#1NK_svg__b" id="1NK_svg__h" x1="363.308" x2="381.337" y1="90.022" y2="90.022" gradientUnits="userSpaceOnUse"/>
        <linearGradient xlink:href="#1NK_svg__b" id="1NK_svg__i" x1="10.349" x2="22.561" y1="36.113" y2="36.113" gradientUnits="userSpaceOnUse"/>
        <linearGradient xlink:href="#1NK_svg__a" id="1NK_svg__j" x1="8.508" x2="24.751" y1="26.218" y2="26.218" gradientUnits="userSpaceOnUse"/>
        <linearGradient xlink:href="#1NK_svg__a" id="1NK_svg__k" x1="8.569" x2="20.782" y1="44.674" y2="44.674" gradientUnits="userSpaceOnUse" spreadMethod="repeat"/>
        <linearGradient xlink:href="#1NK_svg__a" id="1NK_svg__l" x1="8.317" x2="24.006" y1="36.147" y2="36.147" gradientUnits="userSpaceOnUse" spreadMethod="repeat"/>
        <linearGradient id="1NK_svg__a">
            <stop offset="0" stop-color="#e5c37b"/>
            <stop offset=".042" stop-color="#e4bd76"/>
            <stop offset=".093" stop-color="#e7c781"/>
            <stop offset=".165" stop-color="#e2b86e"/>
            <stop offset=".305" stop-color="#e6c686"/>
            <stop offset=".539" stop-color="#dfb96f"/>
            <stop offset=".586" stop-color="#ddbb73"/>
            <stop offset=".84" stop-color="#e7ce8f"/>
            <stop offset=".924" stop-color="#e1bd73"/>
            <stop offset=".962" stop-color="#e0bf78"/>
            <stop offset="1" stop-color="#e7c685"/>
        </linearGradient>
        <filter id="1NK_svg__c">
            <feGaussianBlur in="SourceAlpha" result="blur" stdDeviation="2"/>
            <feOffset dx="2" dy="2" result="offsetBlur"/>
            <feBlend in="SourceGraphic" in2="offsetBlur"/>
        </filter>
    </defs>
    <g fill="#654b13" filter="url(#1NK_svg__c)" transform="translate(-84.656 -17.119)scale(.89418)">
        <path fill="#876419" d="m147.797 28.31-.236 1.177h-39.613l6.736 43.812-.542-.129.703 1.18 13.139 3.933c.093.026.192.016.27.022l13.41-4.261 6.837-44.557z"/>
    </g>
    <path fill="url(#1NK_svg__d)" d="m-37.3-31.01-13.408 4.26-6.837 44.558h40.553l-6.898-44.862-13.138-3.935c-.094-.026-.193-.015-.271-.021z" transform="translate(-3.954 24.118)scale(-.89418)"/>
    <path fill="#a5780f" d="m29.399 51.847.628 1.053 11.99-3.81-.628-1.052z"/>
    <g stroke-width="1.386">
        <path fill="#c80000" stroke="#c80000" stroke-width=".638" d="M36.429 46.096c.736-1.39.45-2.979.45-4.505 1.214-2.5 2.035-4.423 1.866-6.692 1.577-1.757 2.964-3.628 3.861-5.792.256-1.072.478-2.144.065-3.217l-.58-.322c-.746-1.548-.967-1.89-2.638-1.673-.92 2.854-.796.984-.9-.772-2.56.824-2.502 2.202-3.845 4.273-2.032.94-2.914 1.415-4.907 2.162l-.901.579-1.351 2.252 1.222-2.188-.321-1.415s-.065-1.287 0-1.609c.135-2.074 1.973-4.578 3.46-5.858 2.033-1.548 2.425-2.987 2.717-5.467-9.926-5.51-14.797-2.929-19.369.128.2 1.138.355 1.949.783 3.515 1.1 3.685 1.304 6.014 1.47 12.38.306 4.666 5.084 11.19 11.158 10.88l2.998 4.627c1.262-1.123 1.078-2.792 1.287-4.375l.965.128z"/>
        <path fill="none" stroke="#debc6a" stroke-width=".797" d="M28.925 30.234c-.692 1.208-.78 3.209-.71 3.932"/>
        <path fill="url(#1NK_svg__e)" stroke="url(#1NK_svg__f)" stroke-width="2.236" d="M-108.086 80.845c-4.597 1.232-3.885 2.46-5.113 4.738 3.794.296 5.742-1.934 5.113-4.738z" transform="translate(-15.18 74.794)scale(-.46019)"/>
        <path fill="none" stroke="url(#1NK_svg__g)" stroke-width="2.968" d="M-93.16 74.22c1.994-1.137 5.955 1.095 7.4 2.315 4.784 4.04 10.222 9.277 10.309 16.017 1.315 10.47.825 25.073 4.796 33.889" transform="translate(-15.18 74.794)scale(-.46019)"/>
    </g>
    <path fill="none" stroke="url(#1NK_svg__h)" stroke-width=".999" d="m373.76 91.88 2.365-3.717" transform="translate(337.328 96.406)scale(-.79748)"/>
    <path fill="none" stroke="url(#1NK_svg__i)" stroke-width=".7" d="M15.076 36.961c-.362-.676.138-.84.949-1.607" transform="translate(58.652 69.14)scale(-1.13836)"/>
    <path fill="url(#1NK_svg__j)" stroke="#c80000" stroke-width=".417" d="m14.683 28.695 3.982 2.321c2.292-3.793 2.303-3.728 4.583-6.924-.705-1.743-3.133-2.591-5.027-3.62l.82-1.948c1.904 1.19 4.274 1.825 5.49 3.857 1.41-1.697 2.315-3.407 3.249-4.77.807.098 1.455.102 2.409.516-2.615 3.8-5.993 7.51-10.153 13.808l1.228 1.194-.86 1.573-1.925-1.949-4.587-2.486a9 9 0 0 1 .791-1.572z" transform="rotate(180 27.986 30.263)"/>
    <path fill="none" stroke="url(#1NK_svg__k)" stroke-width="1.5" d="M21.193 43.242c.333.075 1.114.413 1.273.5 5.752 3.181 11.644 3.772 16.572.1.21-.157 1.519-.816 1.735-.877" transform="rotate(180 27.986 30.263)"/>
    <path fill="none" stroke="url(#1NK_svg__l)" stroke-width="1.2" d="M20.526 33.57c.31.217.257.338.3.44 1.541 3.703 4.262 5.532 5.96 5.945 6.678-.027 8.327-4.17 11.46-7.204.13-.125.463-.405.664-.414" transform="rotate(180 27.986 30.263)"/>
</svg>
