<svg xmlns="http://www.w3.org/2000/svg" xmlns:xlink="http://www.w3.org/1999/xlink" viewBox="0 0 60 60">
    <defs>
        <linearGradient xlink:href="#1NY_svg__a" id="1NY_svg__c" x1="-57.446" x2="-39.653" y1="-2.331" y2="-2.331" gradientUnits="userSpaceOnUse" spreadMethod="repeat"/>
        <linearGradient id="1NY_svg__a">
            <stop offset="0" stop-color="#e5c37b"/>
            <stop offset=".042" stop-color="#e4bd76"/>
            <stop offset=".093" stop-color="#e7c781"/>
            <stop offset=".165" stop-color="#e2b86e"/>
            <stop offset=".305" stop-color="#e6c686"/>
            <stop offset=".539" stop-color="#dfb96f"/>
            <stop offset=".586" stop-color="#ddbb73"/>
            <stop offset=".84" stop-color="#e7ce8f"/>
            <stop offset=".924" stop-color="#e1bd73"/>
            <stop offset=".962" stop-color="#e0bf78"/>
            <stop offset="1" stop-color="#e7c685"/>
        </linearGradient>
        <filter id="1NY_svg__b">
            <feGaussianBlur in="SourceAlpha" result="blur" stdDeviation="2"/>
            <feOffset dx="2" dy="2" result="offsetBlur"/>
            <feBlend in="SourceGraphic" in2="offsetBlur"/>
        </filter>
    </defs>
    <g fill="#654b13" filter="url(#1NY_svg__b)" transform="translate(-84.656 -17.119)scale(.89418)">
        <path fill="#876419" d="m147.797 28.31-.236 1.177h-39.613l6.736 43.812-.542-.129.703 1.18 13.139 3.933c.093.026.192.016.27.022l13.41-4.261 6.837-44.557z"/>
    </g>
    <path fill="url(#1NY_svg__c)" d="m-37.3-31.01-13.408 4.26-6.837 44.558h40.553l-6.898-44.862-13.138-3.935c-.094-.026-.193-.015-.271-.021z" transform="translate(-3.954 24.118)scale(-.89418)"/>
    <path fill="#a5780f" d="m29.4 51.847.627 1.053 11.99-3.81-.628-1.052z"/>
    <path fill="#c80000" stroke="#c80000" stroke-width="4.938" d="M372.14 1666.57v-346.55h15v346.55z" transform="matrix(.07194 0 0 -.05254 2.033 107.087)"/>
    <g fill="#c80000" stroke="#c80000" stroke-width="4.938">
        <path stroke-width="7.713" d="m373.444 1325.142-13.45-8.57 2.65-111.341 16.688-28.568 17.542 27.755 2.373 111.247-13.382 9.224z" transform="matrix(.05076 0 0 -.03707 10.075 85.945)"/>
        <path stroke-width="4.516" d="M379.551 1181.017v105.099l16.535 13.127m-16.535-13.127-16.317 14.496" transform="matrix(.05076 0 0 -.03707 10.075 85.945)"/>
    </g>
    <path fill="#c80000" d="M29.343 36.094a8.44 8.44 0 0 1-8.442-8.443 8.44 8.44 0 0 1 8.442-8.442 8.44 8.44 0 0 1 8.442 8.442 8.44 8.44 0 0 1-8.442 8.443m0-1.841a6.6 6.6 0 0 0 6.6-6.602 6.6 6.6 0 0 0-6.6-6.6 6.6 6.6 0 0 0-6.602 6.6 6.6 6.6 0 0 0 6.602 6.602"/>
    <path fill="#c80000" stroke="#c80000" stroke-width="4.938" d="M372.14 1666.57v-346.55h15v346.55z" transform="matrix(.07194 0 0 .05254 2.033 -51.842)"/>
    <g stroke="#c80000" stroke-width="4.938">
        <path fill="#c80000" stroke-width="7.713" d="m373.444 1325.142-13.45-8.57 2.65-111.341 16.688-28.568 17.542 27.755 2.373 111.247-13.382 9.224z" transform="matrix(.05076 0 0 .03707 10.077 -30.7)"/>
        <path fill="#c80000" stroke-width="4.516" d="M379.551 1181.017v105.099l16.535 13.127" transform="matrix(.05076 0 0 .03707 10.077 -30.7)"/>
        <path fill="none" stroke-width="4.516" d="m379.551 1286.116-16.317 14.496" transform="matrix(.05076 0 0 .03707 10.077 -30.7)"/>
    </g>
    <path fill="#c80000" stroke="#c80000" stroke-width="4.938" d="M372.14 1666.57v-346.55h15v346.55z" transform="rotate(135 11.61 65.224)scale(-.07194 .05254)"/>
    <path fill="#c80000" stroke="#c80000" stroke-width="4.938" d="M372.14 1666.57v-346.55h15v346.55z" transform="rotate(225 17.597 53.125)scale(.07194 .05254)"/>
    <path fill="#c80000" stroke="#c80000" stroke-width="4.938" d="M372.14 1666.57v-346.55h15v346.55z" transform="matrix(0 .07194 .05254 0 -49.566 .342)"/>
    <g stroke="#c80000" stroke-width="4.938">
        <path fill="#c80000" stroke-width="7.713" d="m373.444 1325.142-13.45-8.57 2.65-111.341 16.688-28.568 17.542 27.755 2.373 111.247-13.382 9.224z" transform="matrix(0 .05076 .03707 0 -29.005 8.383)"/>
        <path fill="#c80000" stroke-width="4.516" d="M379.551 1181.017v105.099l16.535 13.127" transform="matrix(0 .05076 .03707 0 -29.005 8.383)"/>
        <path fill="none" stroke-width="4.516" d="m379.551 1286.116-16.317 14.496" transform="matrix(0 .05076 .03707 0 -29.005 8.383)"/>
    </g>
    <path fill="#c80000" stroke="#c80000" stroke-width="4.938" d="M372.14 1666.57v-346.55h15v346.55z" transform="matrix(0 .07194 -.05254 0 108.291 .342)"/>
    <g stroke="#c80000" stroke-width="4.938">
        <path fill="#c80000" stroke-width="7.713" d="m373.444 1325.142-13.45-8.57 2.65-111.341 16.688-28.568 17.542 27.755 2.373 111.247-13.382 9.224z" transform="matrix(0 .05076 -.03707 0 87.787 8.383)"/>
        <path fill="none" stroke-width="4.516" d="M379.551 1181.017v105.099l16.535 13.127m-16.535-13.127-16.317 14.496" transform="matrix(0 .05076 -.03707 0 87.787 8.383)"/>
    </g>
    <g stroke="#c80000" stroke-width="4.938">
        <path fill="#c80000" stroke-width="7.713" d="m373.444 1325.142-13.45-8.57 2.65-111.341 16.688-28.568 17.542 27.755 2.373 111.247-13.382 9.224z" transform="matrix(-.03589 .0359 -.02621 -.02621 84.24 55.542)"/>
        <path fill="none" stroke-width="4.516" d="M379.551 1181.017v105.099l16.535 13.127m-16.535-13.127-16.317 14.496" transform="matrix(-.03589 .0359 -.02621 -.02621 84.24 55.542)"/>
    </g>
    <g stroke="#c80000" stroke-width="4.938">
        <path fill="#c80000" stroke-width="7.713" d="m373.444 1325.142-13.45-8.57 2.65-111.341 16.688-28.568 17.542 27.755 2.373 111.247-13.382 9.224z" transform="rotate(45 -79.964 -3.411)scale(.05077 -.03707)"/>
        <path fill="none" stroke-width="4.516" d="M379.551 1181.017v105.099l16.535 13.127m-16.535-13.127-16.317 14.496" transform="rotate(45 -79.964 -3.411)scale(.05077 -.03707)"/>
    </g>
</svg>
