<svg xmlns="http://www.w3.org/2000/svg" xmlns:xlink="http://www.w3.org/1999/xlink" viewBox="0 0 60 60">
    <defs>
        <linearGradient id="1RY_svg__a">
            <stop offset="0" stop-color="#dfb459"/>
            <stop offset=".041" stop-color="#dead54"/>
            <stop offset=".082" stop-color="#e1b85f"/>
            <stop offset=".165" stop-color="#dba84d"/>
            <stop offset=".305" stop-color="#dfb765"/>
            <stop offset=".539" stop-color="#d8a94e"/>
            <stop offset=".586" stop-color="#d5ab53"/>
            <stop offset=".84" stop-color="#e0bf6e"/>
            <stop offset=".924" stop-color="#daae52"/>
            <stop offset=".962" stop-color="#d9af57"/>
            <stop offset="1" stop-color="#e1b663"/>
        </linearGradient>
        <linearGradient xlink:href="#1RY_svg__a" id="1RY_svg__c" x1="148.578" x2="130.323" y1="49.826" y2="49.826" gradientUnits="userSpaceOnUse" spreadMethod="repeat"/>
        <linearGradient id="1RY_svg__b">
            <stop offset="0" stop-color="#e5c37b"/>
            <stop offset=".042" stop-color="#e4bd76"/>
            <stop offset=".093" stop-color="#e7c781"/>
            <stop offset=".165" stop-color="#e2b86e"/>
            <stop offset=".305" stop-color="#e6c686"/>
            <stop offset=".539" stop-color="#dfb96f"/>
            <stop offset=".586" stop-color="#ddbb73"/>
            <stop offset=".84" stop-color="#e7ce8f"/>
            <stop offset=".924" stop-color="#e1bd73"/>
            <stop offset=".962" stop-color="#e0bf78"/>
            <stop offset="1" stop-color="#e7c685"/>
        </linearGradient>
        <linearGradient xlink:href="#1RY_svg__b" id="1RY_svg__e" x1="148.578" x2="130.323" y1="49.826" y2="49.826" gradientUnits="userSpaceOnUse" spreadMethod="repeat"/>
        <filter id="1RY_svg__d">
            <feGaussianBlur in="SourceAlpha" result="blur" stdDeviation="2"/>
            <feOffset dx="2" dy="2" result="offsetBlur"/>
            <feBlend in="SourceGraphic" in2="offsetBlur"/>
        </filter>
    </defs>
    <g fill="url(#1RY_svg__c)" filter="url(#1RY_svg__d)" transform="translate(-96.557 -23.219)scale(.98185)">
        <path fill="#876419" d="m148.702 29.817-.139.972.718.01zm.58.982H109.09l6.41 44.002-.454-.121.578.98 13.14 3.935a.9.9 0 0 0 .27.022l13.41-4.26 6.836-44.558z"/>
        <path fill="url(#1RY_svg__e)" d="m-37.3-31.01-13.408 4.26-6.837 44.558h40.19l-6.535-44.862-13.138-3.935a.9.9 0 0 0-.271-.021z" transform="rotate(180 45.578 23.813)"/>
    </g>
    <path fill="#c80000" d="M19.94 47.328a1.6 1.6 0 0 1-.271-.004.6.6 0 0 1-.201-.053c.502-.613 4.462-3.429 2.297-4.207-.027-.009-.044-.02-.069-.029-.866.04-1.75.917-1.846 1.004-.129.118-.431.157-.779.143-1.043-.044-2.495-.871-.908-1.205 1.446-.503 2.622-.76 3.484-1.38l.004.008c.616-.638 1.899-1.798 2.54-2.363l1.07-1.021c.325-.279.895-.74 1.498-1.078a4 4 0 0 1 .882-.38c.261-.067.446-.068.594-.02 0 .002-.002.006.004.034a.9.9 0 0 1-.045.373c-.098.333-.333.785-.596 1.221s-.55.859-.757 1.162q-.156.226-.239.356s-4.254 1.116-2.88 2.81c2.277 2.81-2.249 4.533-3.782 4.627zm19.6 0v-.002c-1.533-.094-6.06-1.818-3.781-4.627 1.373-1.694-2.881-2.81-2.881-2.81a14 14 0 0 0-.238-.356 24 24 0 0 1-.758-1.162c-.262-.436-.498-.888-.596-1.22a.9.9 0 0 1-.041-.409c.148-.047.333-.046.594.022.263.068.577.207.883.378.602.34 1.173.8 1.498 1.079l1.07 1.021c.64.565 1.923 1.725 2.539 2.363l.004-.007c.862.619 2.038.876 3.484 1.378 1.587.335.135 1.162-.908 1.206-.348.014-.65-.025-.78-.143-.095-.087-.98-.964-1.845-1.004-.025.01-.042.02-.068.03-2.166.777 1.794 3.593 2.297 4.206a.6.6 0 0 1-.202.053q-.117.014-.271.004m-19.953-7.973c-.714-1.578-1.015-2.434 1-4.761-1.33.318-2.772 2.99-3.38 3.539-1.041-2.636.262-3.793 1.874-4.633-1.572-.336-2.51.416-4.086.895.878-1.605 1.963-4.058 4.62-2.917-.987-1.355-2.707-1.979-4.177-2.851 1.511-.286 3.086-1.036 4.375.289-.669-1.222-1.758-2.266-2.828-3.316q.665.087 1.303.224c.684.756 1.477 1.258 2.262 1.613.008.419.12.855.234 1.237.068.228.088.263.14.41-.193.05-.354.062-.577.203a1.14 1.14 0 0 0-.467.566c-.094.258-.09.558-.002.883l.484 1.776c.144.528.602.785 1.06 1.03.363.195.727.335 1.06.47a35 35 0 0 0-.14 1.21zm20.256 0-2.76-4.136a36 36 0 0 0-.137-1.207c.332-.135.696-.275 1.059-.47.459-.245.916-.502 1.06-1.03l.485-1.776c.088-.325.093-.625 0-.883a1.14 1.14 0 0 0-.47-.566c-.222-.141-.382-.154-.575-.203.053-.147.072-.182.14-.41.114-.382.227-.818.235-1.237.784-.355 1.578-.857 2.261-1.613q.64-.137 1.305-.224c-1.07 1.05-2.161 2.094-2.83 3.316 1.289-1.325 2.866-.575 4.377-.29-1.47.873-3.191 1.497-4.178 2.852 2.657-1.14 3.742 1.312 4.62 2.917-1.577-.479-2.513-1.23-4.085-.895 1.612.84 2.916 1.997 1.873 4.633-.607-.549-2.052-3.221-3.38-3.54 2.014 2.328 1.713 3.184 1 4.762m-8.72-.318a16 16 0 0 1-.528-.02l-.02.003-.861-.149-.86.149q-.01-.002-.021-.002a17 17 0 0 1-.473.017c.035-.057.063-.092.098-.15.283-.471.546-.938.697-1.451.077-.262.134-.437.067-.811.002.016.01.027.011.043-.006-.077-.013-.088-.013-.09.004.02-.002.028.002.047-.165-.987-1.044-1.034-1.83-.826h-.004a4.7 4.7 0 0 0-1.12.474c-.705.397-1.308.89-1.658 1.19l-.021.017-1.06 1.014-.073.065-.031-.069v-.002c-.495-1.309-.316-2.978-.098-4.68l.041-.314-.295-.121c-.379-.154-.867-.346-1.262-.557-.394-.21-.64-.476-.652-.52l-.484-1.775c-.058-.21-.042-.322-.02-.384s.056-.1.135-.15c.128-.082.362-.14.603-.206.393.004.834.025 1.295-.017.565-.053 1.171-.22 1.608-.711L24.34 29l.025-.063c.171-.402.277-.835.379-1.253h-.666c-.314.009-3.7.075-5.728-2.592-.767-1.008-1.5-1.753-2.342-2.137-.368-.168-.531-.317-.838-.357-.19-.025-.527.095-.809.171l.264-.683c.917-.315 1.661-.16 2.371.303.737.48 1.42 1.284 2.082 2.148.864 1.136 2.256 1.662 3.418 1.918.988.217 1.573.202 1.803.203l.738.027q.072-.169.152-.29a.6.6 0 0 1 .307-.254 32 32 0 0 0 4.184.646l.033.004.035-.004a32 32 0 0 0 4.182-.646c.114.046.211.11.306.253q.08.121.153.291l.74-.027c.23 0 .815.015 1.803-.203 1.162-.256 2.553-.782 3.418-1.918.662-.864 1.345-1.669 2.082-2.148.71-.462 1.453-.618 2.37-.303l.264.683c-.282-.076-.619-.196-.808-.171-.307.04-.47.19-.838.357-.842.384-1.575 1.129-2.342 2.137-2.028 2.667-5.415 2.6-5.728 2.592h-.668c.1.418.207.85.378 1.253l.028.063.045.05c.44.496 1.064.678 1.658.753.55.07 1.091.054 1.53.06.127.037.243.074.318.121.079.05.112.089.134.15.023.063.038.174-.02.385l-.484 1.776c-.011.043-.26.308-.654.52-.394.21-.883.402-1.262.556l-.293.121.04.315c.218 1.702.398 3.372-.098 4.681l-.016.035-.035-.03-1.06-1.015-.022-.017c-.35-.3-.953-.793-1.658-1.19a4.7 4.7 0 0 0-1.12-.474h-.001c-.788-.208-1.669-.162-1.832.828.003-.02 0-.028.004-.049 0 .002-.008.012-.014.09l.01-.041c-.067.372-.009.548.068.809.151.513.414.98.697 1.45.036.06.064.095.1.153m-5.55-3.516c.68-.096.953-1.012 3.049-2.521-.536-.882-1.297-1.258-2.637-1.041-1.257.452-2.48 1.213-1.709 2.791.29.48.62.704.973.764.12.02.321-.087.324.007m8.283 0c.097.014.202.013.323-.007.353-.06.682-.284.972-.764.772-1.578-.452-2.34-1.709-2.791-1.34-.217-2.098.16-2.635 1.041 2.097 1.509 2.37 2.425 3.05 2.521zm-6.154-6.216c.66-.145.95-1.093 1.406-1.678l-.838.62-1.04.112c.069.45-.368.81.472.946m4.023 0c.84-.136.406-.495.475-.946l-1.041-.113-.838-.62c.457.586.744 1.534 1.404 1.679m5.928-.278a7 7 0 0 1-.758-.043c-.479-.06-.854-.208-1.101-.463-.035-.088-.062-.2-.092-.304a9 9 0 0 0 2.293-.434c-.032.21-.075.434-.14.656-.098.328-.163.487-.202.588m-15.902-.07c-.047-.124-.09-.23-.176-.518-.067-.226-.094-.44-.127-.652a9 9 0 0 0 2.28.43c-.03.103-.058.215-.092.303-.247.255-.58.378-1.024.42a8 8 0 0 1-.861.017m2.639-2.793a8.7 8.7 0 0 1-1.78-.219 8 8 0 0 1-.674-.187c.113-.194.224-.39.36-.565-.007.01.291-.198.554-.312s.5-.194.5-.194l.24-.08.038-.25c.554-3.645 1.3-4.983 2.22-7.709.108-.167.242-.315.39-.455l.573-7.69.813 5.778 1.088-5.13 1.006 5.025 1-5.014 1.095 5.205.813-5.9.568 7.73c.145.138.279.284.385.45.921 2.725 1.666 4.064 2.22 7.71l.04.25.238.08s.239.08.502.194.56.321.553.312c.136.176.246.373.36.567a8 8 0 0 1-.673.185 8.7 8.7 0 0 1-1.781.219c-.038-.075-.067-.154-.113-.225a1.5 1.5 0 0 0-.787-.619c.037-3.946-.025-3.54-1.014-7.267l-.041-.157-.135-.085c-.89-.573-2.052-.853-3.219-.852-1.166 0-2.343.284-3.244.924l-.12.086-.038.144c-.986 3.745-1.105 3.332-1.018 7.201l-.01.002c-.349.106-.615.35-.796.623-.047.07-.076.15-.114.225zm5.324-.203c-.924-.078-2.2-.242-3.48-.5l.585-3.135.813 1.57 1.088-1.203 1.005 1.143 1-1.137 1.096 1.246.813-1.64.58 3.15c-1.287.26-2.571.428-3.5.506m.011-5.277-1-.963-.947.912-.426-2.26a5 5 0 0 1 2.377-.59 5.4 5.4 0 0 1 2.368.549l-.432 2.293-.94-.904Z"/>
</svg>
