<svg width="140" height="140" viewBox="0 0 140 140" fill="none" xmlns="http://www.w3.org/2000/svg">
<path d="M38.6824 51.2476C14.9651 74.9649 28.816 104.374 33.18 113.861C33.9389 115.569 34.3184 117.087 34.5081 118.415C32.8005 118.225 30.5236 118.984 28.4365 120.692C25.4007 123.158 26.7289 127.143 28.4365 128.661C29.5749 129.799 30.7134 130.368 33.5594 129.23C37.9234 127.522 47.7898 121.071 42.8566 110.066C28.6263 78.5699 48.5488 59.2166 48.5488 59.2166L58.6049 49.54L49.4974 40.4326L39.4413 50.4887L38.6824 51.2476ZM119.89 29.4277C118.183 31.5149 117.424 33.7917 117.613 35.4994C116.285 35.3096 114.767 34.9302 113.06 34.1712C103.383 29.8072 74.1634 15.9563 50.4461 39.6736L49.4974 40.4326L58.6049 49.54C58.6049 49.54 78.1479 29.6175 109.455 43.8478C120.27 48.781 126.721 38.7249 128.428 34.5507C129.757 31.5149 129.187 30.5662 127.859 29.4277C126.341 27.7201 122.547 26.2022 119.89 29.4277Z" fill="#6E6966"/>
<path d="M39.4982 50.5551L49.4272 40.6261L58.4151 49.6159L48.488 59.543L39.4982 50.5551Z" fill="#585350"/>
<path d="M24.8315 78.0006C25.9699 64.3395 36.6901 51.9116 44.2796 44.3221C51.8692 36.7326 54.2409 34.3609 67.5225 28.6687C80.8042 22.9765 98.355 28.6687 98.355 28.6687C98.355 28.6687 81.7529 26.14 69.8943 31.0405C59.8515 35.1906 54.2409 39.5787 46.177 47.6425C38.1131 55.7064 32.2354 62.8216 28.6262 79.4237C26.7289 88.1516 30.998 105.829 33.3697 113.577C30.0493 107.41 23.6931 91.6618 24.8315 78.0006Z" fill="#878280"/>
<path d="M33.7492 125.056C35.2671 123.538 35.2671 120.123 34.5081 118.605C33.7492 118.605 32.9902 118.605 32.2313 118.794C34.6979 118.415 32.6108 125.625 31.6621 124.107C30.5236 122.589 30.5236 123.728 30.5236 123.917C30.7134 124.866 31.4723 127.333 33.7492 125.056ZM124.065 34.7404C122.547 36.2583 119.131 36.2583 117.613 35.4993C117.613 34.7404 117.613 34.1712 117.803 33.2225C117.424 35.6891 124.634 33.602 123.116 32.6533C121.598 31.5148 122.736 31.5148 122.926 31.5148C123.875 31.7046 126.341 32.4635 124.065 34.7404Z" fill="#585350"/>
<path d="M38.1132 86.0646C38.1132 86.0646 37.7622 84.8113 37.9567 82.4188C37.9906 75.9413 39.482 62.105 50.4461 51.4372C78.4325 24.2071 104.521 41.9504 104.521 41.9504C104.521 41.9504 73.689 33.4122 54.2409 53.8089C41.1151 67.5749 38.3605 77.4519 37.9567 82.4188C37.9448 84.6967 38.1132 86.0646 38.1132 86.0646Z" fill="#585350"/>
<path d="M129.187 31.5148C129.104 32.5122 128.584 34.1912 127.283 35.8904C125.476 40.3852 123.129 45.5224 116.854 46.2195C108.316 47.1682 108.632 45.2708 106.893 44.3222L86.9707 40.053C86.8126 39.1044 87.1605 37.207 89.8168 37.207C93.1372 37.207 114.483 42.8991 121.598 40.053C124.298 38.9731 126.108 37.4235 127.283 35.8904C127.935 34.2687 128.517 32.7306 129.187 31.5148Z" fill="#585350"/>
<path fill-rule="evenodd" clip-rule="evenodd" d="M42.8566 110.066C47.7898 121.071 37.9234 127.522 33.5594 129.23C30.7134 130.368 29.5749 129.799 28.4365 128.661C26.7289 127.143 25.4007 123.158 28.4365 120.692C29.501 119.821 30.6147 119.197 31.6772 118.819C32.698 118.457 33.6714 118.322 34.5081 118.415C34.3652 117.415 34.1147 116.307 33.6755 115.091C33.5315 114.693 33.3673 114.283 33.18 113.861C33.1408 113.776 33.1008 113.689 33.0602 113.601C28.5703 103.847 15.178 74.752 38.6824 51.2476L49.4974 40.4325L50.4461 39.6736C50.5507 39.569 50.6555 39.4651 50.7603 39.3619C73.9887 16.5035 102.368 29.3367 112.513 33.9241C112.701 34.0094 112.884 34.0919 113.06 34.1712C113.481 34.3585 113.891 34.5228 114.29 34.6667C115.505 35.1059 116.613 35.3565 117.613 35.4994C117.52 34.6626 117.655 33.6892 118.018 32.6684C118.395 31.6059 119.019 30.4922 119.89 29.4277C122.547 26.2022 126.341 27.7201 127.859 29.4277C129.187 30.5662 129.757 31.5149 128.428 34.5507C126.721 38.7249 120.27 48.781 109.455 43.8478C78.9188 29.9679 59.5745 48.5795 58.6403 49.5045C58.6167 49.5279 58.6049 49.54 58.6049 49.54L48.5487 59.2166C48.5487 59.2166 28.6263 78.5699 42.8566 110.066ZM131.468 35.8372C130.466 38.2688 128.132 42.3657 124.356 45.2404C120.351 48.2884 114.753 49.8908 108.087 46.8511C93.295 40.1281 81.4844 41.5234 73.4182 44.4586C69.3476 45.9398 66.1865 47.8316 64.056 49.3417C62.9924 50.0956 62.1915 50.7502 61.669 51.2038C61.408 51.4304 61.217 51.6063 61.0982 51.7185C61.0388 51.7747 60.9974 51.8149 60.9744 51.8375L60.9563 51.8553L60.9544 51.8572L60.9537 51.858L60.9273 51.8849L50.8519 61.5801L50.8354 61.5966C50.813 61.6192 50.7731 61.6599 50.7172 61.7185C50.6053 61.8359 50.4299 62.0246 50.2038 62.283C49.7512 62.8002 49.0976 63.5937 48.3447 64.6492C46.8366 66.7632 44.9465 69.9049 43.4664 73.9615C40.5338 81.9989 39.1343 93.8129 45.8639 108.708L45.8679 108.717C48.878 115.432 47.3686 121.059 44.3368 125.112C41.4688 128.945 37.3333 131.295 34.774 132.298C33.0993 132.967 31.4252 133.347 29.7673 133.046C28.0611 132.736 26.9225 131.803 26.1659 131.057C24.7131 129.726 23.6254 127.624 23.3779 125.396C23.1075 122.963 23.8372 120.179 26.3512 118.134C27.592 117.12 28.9775 116.303 30.4043 115.771C30.3325 115.591 30.2554 115.407 30.1727 115.22C30.1288 115.125 30.0838 115.027 30.0378 114.927C27.8005 110.068 23.1909 100.057 22.1142 88.189C21.0014 75.9227 23.6604 61.6026 36.3489 48.9142L47.2932 37.9699L48.244 37.2093C73.1451 12.4637 103.656 26.2878 113.749 30.8608C113.979 30.9652 114.199 31.0648 114.408 31.159C114.598 31.2436 114.786 31.3223 114.969 31.3955C115.502 29.967 116.32 28.58 117.336 27.3381L117.343 27.3299C119.441 24.7816 122.205 23.9799 124.724 24.3049C126.938 24.5906 128.9 25.725 130.16 27.0551C130.933 27.7332 132.044 28.8607 132.383 30.6695C132.713 32.4283 132.188 34.1822 131.468 35.8372Z" fill="#3C3C3C"/>
<path d="M34.6979 128.851L102.434 106.272L100.727 104.754L40.39 124.866L34.6979 128.851Z" fill="#3C3C3C"/>
<path d="M127.859 35.6892L123.875 41.3814L103.763 101.908L105.28 103.426L127.859 35.6892Z" fill="#3C3C3C"/>
<path fill-rule="evenodd" clip-rule="evenodd" d="M30.4 28.6L27.4 31.6L91.5826 95.7826C91.5324 96.2849 91.3671 97.7767 91.0092 99.6761C90.9987 99.7318 90.9881 99.7878 90.9773 99.8441C90.7261 101.152 90.3848 102.64 89.929 104.126C89.7219 104.801 89.4913 105.476 89.2347 106.133C89.0386 106.635 88.8274 107.126 88.6 107.6L85.8016 109.349L84.8392 107.809L85.625 106.172C86.6421 104.053 87.3278 101.379 87.7577 99.1106C87.9102 98.3059 88.0258 97.5777 88.1111 96.9779L25.7355 34.6024L18.784 34.1679L7.59644 8.59644L33.1679 19.784L33.6289 27.1597L95.9434 89.316C96.5497 89.2303 97.2904 89.1131 98.1107 88.9577C100.379 88.5279 103.053 87.8421 105.172 86.825L106.809 86.0392L108.349 87.0016L106.6 89.8C106.165 90.009 105.714 90.2043 105.254 90.3868C105.214 90.4029 105.173 90.4189 105.133 90.4347C104.476 90.6913 103.801 90.922 103.126 91.129C103.112 91.1334 103.098 91.1377 103.084 91.142C101.602 91.5945 100.119 91.9332 98.8171 92.1825C98.7699 92.1915 98.7229 92.2005 98.6761 92.2093C96.7327 92.5755 95.216 92.74 94.7493 92.786L30.4 28.6ZM107.381 110.041C106.811 110.376 106.27 110.469 106 110.2L104.359 108.559C104.237 109.033 103.849 110.506 103.316 112.183C102.261 115.508 100.639 119.639 99.4 118.4C98.3711 117.5 97.5903 116.682 96.6853 115.734C96.4713 115.51 96.2503 115.279 96.0175 115.037C95.7039 114.712 95.3687 114.369 95 114C94.4 113.4 95.8 109.6 95.8 109.6C95.8 109.6 94.2 112.8 93.6 112.6C93.3034 112.501 92.8603 112.207 92.4879 111.862C92.2281 111.621 92.0028 111.356 91.8857 111.116C91.8311 111.003 91.8 110.897 91.8 110.8C91.7688 110.582 91.7814 110.285 91.8249 109.941C91.8275 109.921 91.8301 109.9 91.8328 109.88C92.0847 108.006 93.2 104.8 93.2 104.8C93.2 104.8 93.1454 104.957 93.0476 105.211C92.7255 106.05 91.9345 107.948 91.0795 108.79C90.7884 109.077 90.4899 109.241 90.2 109.2C89.7836 109.2 89.1744 108.429 88.8407 107.958C88.6936 107.75 88.6 107.6 88.6 107.6C85.8016 109.349 85.8014 109.349 85.8016 109.349L85.8036 109.352L85.8061 109.356L85.8121 109.366L85.8287 109.392C85.8418 109.412 85.8588 109.439 85.8795 109.471C85.9208 109.534 85.9773 109.619 86.0463 109.72C86.1807 109.915 86.3784 110.191 86.6138 110.481C86.8337 110.752 87.1648 111.132 87.5712 111.474L87.5741 111.477C87.7249 111.604 88.1436 111.956 88.7673 112.212C88.9304 112.637 89.1312 112.959 89.2584 113.148C89.562 113.599 89.9165 113.976 90.2234 114.262C90.6601 114.67 91.3173 115.187 92.0618 115.533C92.2113 115.801 92.4077 116.075 92.6665 116.333C93.186 116.853 93.676 117.365 94.1605 117.871C95.1222 118.876 96.0627 119.859 97.1708 120.834C97.6599 121.291 98.3503 121.724 99.2432 121.872C100.206 122.033 101.047 121.805 101.665 121.496C102.741 120.958 103.418 120.041 103.771 119.512C104.568 118.316 105.24 116.683 105.751 115.278C105.949 114.735 106.136 114.187 106.309 113.655C107.115 113.67 107.792 113.459 108.109 113.34C108.98 113.013 109.767 112.468 110.403 111.861C111.166 111.221 111.84 110.407 112.248 109.473C112.415 109.092 112.678 108.323 112.651 107.432C113.171 107.254 113.706 107.063 114.237 106.864C115.628 106.34 117.22 105.669 118.392 104.91C118.909 104.575 119.783 103.952 120.343 102.985C120.66 102.438 120.969 101.617 120.867 100.619C120.763 99.5889 120.265 98.7977 119.733 98.2666C118.145 96.6783 117.194 95.727 115.453 93.7925L115.395 93.728L115.333 93.6666C115.075 93.4077 114.801 93.2113 114.533 93.0618C114.187 92.3173 113.67 91.6601 113.262 91.2234C112.976 90.9165 112.599 90.562 112.148 90.2584C111.943 90.1208 111.584 89.8968 111.105 89.7278C110.866 89.2362 110.587 88.9047 110.477 88.7741L110.474 88.7713C110.132 88.3649 109.752 88.0338 109.481 87.8139C109.191 87.5785 108.915 87.3808 108.72 87.2463C108.619 87.1774 108.534 87.1208 108.471 87.0796C108.439 87.0589 108.412 87.0418 108.392 87.0288L108.366 87.0121L108.356 87.0061L108.352 87.0037L108.351 87.0026C108.35 87.0024 108.349 87.0016 106.6 89.8C106.6 89.8 106.677 89.8485 106.798 89.9304C107.227 90.2208 108.2 90.9321 108.2 91.4C108.241 91.69 108.077 91.9885 107.79 92.2796C107.013 93.0684 105.337 93.8028 104.424 94.1647C104.903 93.9884 105.607 93.7373 106.361 93.4976C107.214 93.2263 108.13 92.9696 108.853 92.8518C108.878 92.8477 108.903 92.8437 108.928 92.8399C109.278 92.7868 109.579 92.7685 109.8 92.8C109.897 92.8 110.003 92.8311 110.116 92.8857C110.381 93.0146 110.675 93.2748 110.934 93.5676C111.247 93.922 111.508 94.3244 111.6 94.6C111.8 95.2 108.6 96.8 108.6 96.8C108.6 96.8 112.4 95.4 113 96C113.356 96.3955 113.68 96.7518 113.985 97.0814C115.219 98.4189 116.116 99.3164 117.4 100.6C118.515 101.715 114.413 103.367 111.129 104.463C109.468 105.017 108.016 105.429 107.554 105.558L109.2 107.2C109.47 107.47 109.375 108.013 108.978 108.584C108.787 108.859 108.525 109.14 108.2 109.4C107.939 109.661 107.657 109.879 107.381 110.041ZM105.447 89.9554C105.454 89.9494 105.457 89.9463 105.458 89.9461C105.458 89.9458 105.455 89.9489 105.447 89.9554ZM27.4 31.4L30.4 28.4L30 22L14 15L21 31L27.4 31.4Z" fill="#3C3C3C"/>
<path d="M109.2 107.2L30.4 28.6L27.4 31.6L106 110.2C106.4 110.6 107.4 110.2 108.2 109.4C109.2 108.6 109.6 107.6 109.2 107.2Z" fill="#878280"/>
<path d="M113 96C112.4 95.4 108.6 96.8 108.6 96.8C108.6 96.8 111.8 95.2 111.6 94.6C111.4 94 110.4 92.8 109.8 92.8C108.4 92.6 103.8 94.4 103.8 94.4C103.8 94.4 108.4 92.8 108.2 91.4C108.2 90.8 106.6 89.8 106.6 89.8C101.6 92.2 94.6 92.8 94.6 92.8L107.4 105.6C107.4 105.6 119.2 102.4 117.4 100.6C115.8 99 114.8 98 113 96Z" fill="#6E6966"/>
<path d="M95 114C94.4 113.4 95.8 109.6 95.8 109.6C95.8 109.6 94.2 112.8 93.6 112.6C93 112.4 91.8 111.4 91.8 110.8C91.6 109.4 93.2 104.8 93.2 104.8C93.2 104.8 91.6 109.4 90.2 109.2C89.6 109.2 88.6 107.6 88.6 107.6C91 102.6 91.6 95.6 91.6 95.6L104.4 108.4C104.4 108.4 101.4 120.4 99.4 118.4C97.8 117 96.8 115.8 95 114Z" fill="#6E6966"/>
<path d="M30.4 28.4L30 22L14 15L21 31L27.4 31.4L30.4 28.4Z" fill="#878280"/>
<path d="M30 22V26V28.5L29 30L14.5 15L30 22Z" fill="#A8A3A1"/>
<path d="M90.4 102C91.2 98.6 91.4 95.6 91.4 95.6L104.2 108.4C104.2 108.4 103.4 111.4 102.4 114.2C98.6 99.2 90.4 102 90.4 102Z" fill="#585350"/>
<path d="M101 91.4C97.6 92.2 94.6 92.4 94.6 92.4L107.4 105.2C107.4 105.2 110.4 104.4 113.2 103.4C98.2 99.6 101 91.4 101 91.4Z" fill="#585350"/>
<path d="M27.4 31.4L30.4 28.4V26.4L22.2 27.6L14 15L21 31L27.4 31.4Z" fill="#585350"/>
</svg>
