<svg width="141" height="140" viewBox="-20 -20 181 180" fill="none" xmlns="http://www.w3.org/2000/svg">
<path fill-rule="evenodd" clip-rule="evenodd" d="M43.426 105.72L46.8583 108.214L100.21 34.781C100.714 34.752 102.214 34.6819 104.146 34.7382C104.202 34.7399 104.259 34.7416 104.317 34.7435C105.648 34.787 107.171 34.8912 108.71 35.109C109.409 35.2079 110.111 35.3302 110.8 35.4809C111.327 35.596 111.845 35.7278 112.349 35.8782L114.514 38.3686L113.144 39.5601L111.404 39.04C109.152 38.3669 106.404 38.1079 104.096 38.0382C103.277 38.0135 102.54 38.0132 101.934 38.0228L50.0842 109.388L50.7425 116.322L27.236 131.372L34.2855 104.365L41.4983 102.756L93.1412 31.4855C92.9617 30.9001 92.7302 30.1868 92.4483 29.401C91.6688 27.2274 90.5733 24.694 89.2372 22.7602L88.205 21.2662L88.9147 19.5947L91.9523 20.8844C92.2268 21.2817 92.4902 21.6961 92.7423 22.1216C92.7645 22.1591 92.7866 22.1967 92.8087 22.2344C93.1649 22.843 93.4982 23.473 93.8082 24.1072C93.8148 24.1205 93.8212 24.1339 93.8277 24.1472C94.5065 25.5403 95.073 26.9519 95.5229 28.1987C95.5392 28.244 95.5554 28.289 95.5714 28.3338C96.2371 30.196 96.6369 31.6683 96.7553 32.122L43.426 105.72ZM111.822 16.9465C112.242 17.4567 112.419 17.9774 112.195 18.2857L110.831 20.1628C111.318 20.2093 112.833 20.3626 114.573 20.6262C118.022 21.1487 122.356 22.1046 121.326 23.5217C120.598 24.6788 119.913 25.5779 119.118 26.62C118.93 26.8664 118.737 27.1208 118.534 27.3886C118.262 27.7492 117.975 28.134 117.669 28.5558C117.17 29.2423 113.198 28.454 113.198 28.454C113.198 28.454 116.609 29.5337 116.505 30.1576C116.454 30.466 116.233 30.9498 115.95 31.3715C115.753 31.6657 115.527 31.9297 115.307 32.083C115.205 32.1545 115.104 32.2019 115.009 32.217C114.798 32.282 114.503 32.3159 114.156 32.3268C114.136 32.3275 114.116 32.328 114.095 32.3285C112.205 32.3728 108.864 31.7729 108.864 31.7729C108.864 31.7729 109.027 31.8022 109.294 31.859C110.172 32.046 112.171 32.5304 113.136 33.243C113.465 33.4857 113.674 33.7548 113.679 34.0476C113.744 34.459 113.078 35.1812 112.664 35.5846C112.482 35.7624 112.349 35.8782 112.349 35.8782C114.514 38.3686 114.514 38.3689 114.514 38.3686L114.517 38.366L114.52 38.363L114.529 38.3556L114.552 38.3351C114.57 38.319 114.594 38.298 114.622 38.2726C114.678 38.222 114.753 38.1527 114.842 38.0689C115.014 37.9055 115.256 37.6671 115.505 37.3893C115.738 37.1297 116.062 36.7432 116.336 36.2883L116.338 36.2851C116.44 36.1163 116.723 35.6476 116.878 34.9915C117.273 34.7639 117.558 34.5153 117.725 34.3601C118.124 33.9896 118.44 33.5805 118.675 33.2326C119.01 32.7375 119.417 32.0075 119.642 31.2181C119.884 31.0286 120.123 30.7917 120.339 30.4955C120.77 29.9012 121.2 29.3372 121.624 28.7794C122.466 27.6723 123.29 26.5897 124.079 25.3427C124.455 24.7881 124.773 24.0385 124.781 23.1334C124.788 22.1577 124.432 21.3619 124.03 20.8004C123.331 19.822 122.319 19.2967 121.741 19.0308C120.435 18.4305 118.716 18.0218 117.249 17.737C116.683 17.6271 116.112 17.5281 115.559 17.4398C115.448 16.6419 115.133 16.0061 114.966 15.7118C114.507 14.9028 113.846 14.2105 113.147 13.6775C112.395 13.0236 111.486 12.4857 110.499 12.2281C110.097 12.1231 109.296 11.9836 108.42 12.1501C108.163 11.664 107.891 11.1649 107.611 10.6722C106.877 9.37964 105.965 7.91228 105.031 6.87376C104.619 6.41586 103.868 5.64954 102.825 5.24795C102.236 5.02085 101.376 4.84364 100.406 5.10026C99.4051 5.36487 98.7015 5.98047 98.26 6.58815C96.9398 8.40529 96.149 9.49364 94.5106 11.5159L94.456 11.5834L94.405 11.6536C94.1898 11.9497 94.0386 12.2511 93.9329 12.539C93.2517 12.9971 92.6834 13.6104 92.3158 14.0812C92.0576 14.4121 91.7664 14.8399 91.5372 15.3333C91.4332 15.557 91.2682 15.9469 91.1762 16.4463C90.7281 16.7593 90.4443 17.0869 90.3325 17.216L90.3301 17.2188C89.9822 17.6204 89.7147 18.0478 89.5398 18.3496C89.3527 18.6726 89.2006 18.9762 89.0984 19.1904C89.046 19.3003 89.0035 19.3934 88.9726 19.4623C88.9572 19.4969 88.9445 19.5258 88.9348 19.548L88.9225 19.5765L88.918 19.5869L88.9162 19.5911L88.9154 19.593C88.9152 19.5934 88.9147 19.5947 91.9523 20.8844C91.9523 20.8844 91.988 20.8003 92.05 20.6681C92.2698 20.1996 92.82 19.127 93.2823 19.0538C93.5621 18.9675 93.8827 19.0832 94.2151 19.321C95.1157 19.9652 96.1033 21.5054 96.6035 22.3507C96.3546 21.9057 95.9964 21.249 95.6416 20.542C95.2404 19.7422 94.8435 18.8778 94.6141 18.182C94.606 18.1576 94.5982 18.1333 94.5905 18.1093C94.4832 17.772 94.4181 17.4777 94.4147 17.2545C94.3996 17.1591 94.4136 17.0487 94.45 16.9293C94.5359 16.6475 94.7467 16.3157 94.9955 16.0143C95.2965 15.6494 95.6531 15.3289 95.911 15.195C96.4723 14.9036 98.5532 17.8139 98.5532 17.8139C98.5532 17.8139 96.576 14.2797 97.0747 13.5933C97.4096 13.1799 97.7108 12.8036 97.9887 12.4516C99.1167 11.0233 99.8627 9.9965 100.93 8.52784C101.856 7.25236 104.13 11.0453 105.726 14.1178C106.533 15.6713 107.167 17.0407 107.367 17.4775L108.731 15.5944C108.956 15.2856 109.507 15.2939 110.133 15.5971C110.434 15.7432 110.753 15.9576 111.061 16.238C111.359 16.4549 111.619 16.6995 111.822 16.9465ZM92.2859 21.9984C92.2791 21.9933 92.2755 21.9903 92.2752 21.9899C92.2749 21.9895 92.2785 21.9921 92.2859 21.9984ZM46.6608 108.245L43.2284 105.751L36.9698 107.148L32.559 124.046L47.2669 114.629L46.6608 108.245Z" fill="#3C3C3C"/>
<path d="M108.731 15.5944L43.426 105.72L46.8583 108.214L112.195 18.2857C112.527 17.828 111.976 16.9029 111.061 16.2379C110.114 15.3754 109.064 15.1367 108.731 15.5944Z" fill="#D3976E"/>
<path d="M97.0747 13.5932C96.576 14.2797 98.5532 17.8139 98.5532 17.8139C98.5532 17.8139 96.4723 14.9036 95.911 15.195C95.3497 15.4864 94.3209 16.6618 94.4147 17.2544C94.4362 18.6685 96.9336 22.9303 96.9336 22.9303C96.9336 22.9303 94.6337 18.6372 93.2823 19.0537C92.6896 19.1476 91.9523 20.8843 91.9523 20.8843C95.1049 25.4473 96.7925 32.2673 96.7925 32.2673L107.433 17.6225C107.433 17.6225 102.426 6.46838 100.93 8.5278C99.5998 10.3584 98.7685 11.5025 97.0747 13.5932Z" fill="#ED4C5C"/>
<path d="M117.669 28.5558C117.17 29.2423 113.198 28.454 113.198 28.454C113.198 28.454 116.609 29.5337 116.505 30.1576C116.401 30.7815 115.601 32.1231 115.009 32.217C113.657 32.6335 108.864 31.7728 108.864 31.7728C108.864 31.7728 113.657 32.6336 113.679 34.0476C113.773 34.6402 112.349 35.8782 112.349 35.8782C107.035 34.2899 100.027 34.7923 100.027 34.7923L110.667 20.1476C110.667 20.1476 122.989 21.2334 121.326 23.5217C120.194 25.321 119.165 26.4964 117.669 28.5558Z" fill="#ED4C5C"/>
<path d="M43.2284 105.751L36.9698 107.148L32.559 124.046L47.2669 114.629L46.6608 108.245L43.2284 105.751Z" fill="#B2C1C0"/>
<path opacity="0.1" d="M106.536 34.9764C103.053 34.7181 100.059 34.9899 100.059 34.9899L110.699 20.3451C110.699 20.3451 113.787 20.6659 116.709 21.2156C102.488 27.3153 106.536 34.9764 106.536 34.9764Z" fill="black"/>
<path opacity="0.1" d="M94.4086 26.1651C95.7306 29.3981 96.3974 32.3298 96.3974 32.3298L107.037 17.6851C107.037 17.6851 105.778 14.8471 104.352 12.2381C102.946 27.6478 94.4086 26.1651 94.4086 26.1651Z" fill="black"/>
<path d="M46.6608 108.245L43.2285 105.751L41.2531 106.064L43.7211 113.975L32.559 124.046L47.2669 114.629L46.6608 108.245Z" fill="#788283"/>
<path d="M109.504 21.7493C113.84 22.2775 118.238 23.2008 120.828 24.2081L119.498 26.0387C117.137 25.1977 112.541 24.3057 108.007 23.8088L109.504 21.7493Z" fill="#FFCE31"/>
<path d="M106.071 19.2556C104.229 15.295 101.992 11.397 100.233 9.24556L98.9034 11.0762C100.433 13.0614 102.701 17.1569 104.575 21.315L106.071 19.2556Z" fill="#FFCE31"/>
<path d="M9.09271 69.4756C29.9232 87.2106 41.3061 116.192 44.4247 133.258H33.566C29.1226 116.032 26.3752 96.2041 9.09271 69.4756Z" fill="#74D23B"/>
<path fill-rule="evenodd" clip-rule="evenodd" d="M44.4247 133.258H33.566C32.89 130.637 32.2533 127.956 31.5987 125.2C28.5871 112.521 25.1968 98.246 15.8633 80.903C13.8897 77.2357 11.6504 73.4313 9.09271 69.4756C12.513 72.3877 15.6786 75.6029 18.5948 79.0189C32.3393 95.1192 40.5417 115.678 43.7505 129.958C44.0071 131.1 44.2317 132.202 44.4247 133.258ZM26.235 95.4147C33.4094 107.434 38.0752 120.137 40.3655 129.958H36.1377C35.6976 128.173 35.2652 126.351 34.823 124.487C32.7673 115.822 30.4977 106.254 26.235 95.4147Z" fill="#3C3C3C"/>
<path d="M71.5 95C61.2397 105.302 58.5 118.5 56.3149 133.077C53 133.077 45.5 133.077 45.5 133.077C48.0935 121.224 62.4409 95.3497 71.5 95Z" fill="#74D23B"/>
<path fill-rule="evenodd" clip-rule="evenodd" d="M53.4836 129.777C54.2494 124.943 55.1417 120.168 56.4423 115.551C53.6444 120.512 51.3091 125.63 49.8818 129.777H53.4836ZM46.405 129.777C49.2175 120.995 56.1145 107.988 62.8441 100.621C65.8961 97.2804 68.9136 95.0999 71.5 95C69.1156 97.3942 67.1373 99.9447 65.4778 102.633C59.9963 111.511 57.9922 121.888 56.3149 133.077H45.5C45.7203 132.07 46.0255 130.962 46.405 129.777Z" fill="#3C3C3C"/>
<path d="M15.695 133.135H29.5C29.5 133.135 27 121 25 114C23 107 16.7233 98.1375 13.9677 95.6538C17.3174 110.303 19.2458 123.086 15.695 133.135Z" fill="#74D23B"/>
<path fill-rule="evenodd" clip-rule="evenodd" d="M15.695 133.135C16.0729 132.065 16.3887 130.965 16.6473 129.835C18.4244 122.069 17.5035 112.892 15.4704 102.642C15.0186 100.364 14.5119 98.0338 13.9677 95.6538C15.093 96.6681 16.8055 98.7461 18.5742 101.327C21.1365 105.065 23.8167 109.859 25 114C26.3448 118.707 27.9156 125.735 28.8005 129.835C29.2317 131.832 29.5 133.135 29.5 133.135H15.695ZM25.424 129.835H20.0232C21.2375 123.957 21.0737 117.477 20.1632 110.617C20.8662 112.107 21.4434 113.564 21.827 114.907C22.7987 118.308 23.9062 123.011 24.7797 126.913C25.0151 127.965 25.2324 128.953 25.424 129.835Z" fill="#3C3C3C"/>
<path d="M69.4443 133.043C66.5239 127.751 67.7452 121.559 75.2012 110.177C64.3739 116.687 60.3422 122.915 58.5 133.043H69.4443Z" fill="#74D23B"/>
<path fill-rule="evenodd" clip-rule="evenodd" d="M69.4443 133.043H58.5C58.7088 131.894 58.9458 130.796 59.2176 129.743C60.773 123.712 63.4694 119.122 68.5642 114.833C70.4331 113.26 72.6247 111.726 75.2012 110.177C73.5681 112.67 72.2342 114.914 71.1773 116.954C68.3692 122.375 67.5174 126.356 68.2093 129.743C68.446 130.901 68.8631 131.989 69.4443 133.043ZM62.6362 129.743C63.2552 127.565 64.0388 125.654 65.0499 123.906C64.6318 125.984 64.5725 127.916 64.8571 129.743H62.6362Z" fill="#3C3C3C"/>
</svg>
