<svg xmlns="http://www.w3.org/2000/svg" xmlns:xlink="http://www.w3.org/1999/xlink" width="144" height="144" viewBox="0 0 144 144"><defs><filter id="d" width="144.9%" height="137%" x="-21.2%" y="-18.3%" filterUnits="objectBoundingBox"><feOffset dx="-3" dy="3" in="SourceAlpha" result="shadowOffsetOuter1"/><feGaussianBlur in="shadowOffsetOuter1" result="shadowBlurOuter1" stdDeviation="2"/><feColorMatrix in="shadowBlurOuter1" result="shadowMatrixOuter1" values="0 0 0 0 0.22 0 0 0 0 0.05 0 0 0 0 0.05 0 0 0 0.18 0"/><feMerge><feMergeNode in="shadowMatrixOuter1"/><feMergeNode in="SourceGraphic"/></feMerge></filter><filter id="f" width="141.3%" height="146.2%" x="-20.7%" y="-23.1%" filterUnits="objectBoundingBox"><feGaussianBlur in="SourceGraphic" stdDeviation="1"/></filter><filter id="g" width="169.2%" height="177.3%" x="-34.6%" y="-38.6%" filterUnits="objectBoundingBox"><feGaussianBlur in="SourceGraphic" stdDeviation="2"/></filter><radialGradient id="b" cx="41.59%" cy="41.28%" r="46.16%" fx="41.59%" fy="41.28%" gradientTransform="matrix(0 1 -.86774 0 .77 0)"><stop offset="0%" stop-color="#FFF" stop-opacity=".1"/><stop offset="63.59%" stop-color="#FFF" stop-opacity=".09"/><stop offset="100%" stop-color="#344152" stop-opacity=".11"/></radialGradient><radialGradient id="c" cx="5.66%" cy="50%" r="15.04%" fx="5.66%" fy="50%" gradientTransform="matrix(-.86774 0 0 -1.42648 .1 1.21)"><stop offset="0%" stop-color="#2F4E38"/><stop offset="100%" stop-color="#2B662D" stop-opacity="0"/></radialGradient><path id="a" d="M19.5 29.58C27 31.17 33 24.43 33 18.08S27 5.17 19.5 6.58 6 11.73 6 18.08s6 9.92 13.5 11.5"/><g id="e"><use xlink:href="#a" fill="#407014"/><use xlink:href="#a" fill="url(#b)"/><use xlink:href="#a" fill="url(#c)"/></g></defs><g fill="none" fill-rule="evenodd" filter="url(#d)" transform="translate(44.12 33.73)"><use xlink:href="#e" transform="rotate(28 -50 44.33)"/><path fill="#000" d="M17.2 29.51q-1.52-7.95 3.64-11.35t10.53.2q-4.9-1.27-9.65 2.43t-4.53 8.72" filter="url(#f)" opacity=".15" transform="rotate(-159 28.84 41.16)"/><path fill="#FFF" d="M12.6 25.04q-1.82-9.5 4.35-13.57 6.16-4.05 12.57.24-5.84-1.5-11.52 2.9-5.7 4.42-5.4 10.43" filter="url(#g)" opacity=".7" transform="rotate(76 -.08 38.11)"/><use xlink:href="#e" transform="rotate(140 27.45 25.69)"/><path fill="#000" d="M17.2 29.51q-1.52-7.95 3.64-11.35t10.53.2q-4.9-1.27-9.65 2.43t-4.53 8.72" filter="url(#f)" opacity=".15" transform="rotate(-47 32.48 16.27)"/><path fill="#FFF" d="M12.6 25.04q-1.82-9.5 4.35-13.57 6.16-4.05 12.57.24-5.84-1.5-11.52 2.9-5.7 4.42-5.4 10.43" filter="url(#g)" opacity=".7" transform="rotate(-172 29.92 22.01)"/></g></svg>