<?xml version="1.0" encoding="UTF-8"?>
<svg width="144px" height="144px" viewBox="0 0 144 144" version="1.1" xmlns="http://www.w3.org/2000/svg" xmlns:xlink="http://www.w3.org/1999/xlink">
    <title>seeds-45</title>
    <defs>
        <filter x="-14.1%" y="-15.7%" width="130.7%" height="131.0%" filterUnits="objectBoundingBox" id="filter-1">
            <feOffset dx="-3" dy="3" in="SourceAlpha" result="shadowOffsetOuter1"></feOffset>
            <feGaussianBlur stdDeviation="2" in="shadowOffsetOuter1" result="shadowBlurOuter1"></feGaussianBlur>
            <feColorMatrix values="0 0 0 0 0.221688975   0 0 0 0 0.0536301031   0 0 0 0 0.0536301031  0 0 0 0.18 0" type="matrix" in="shadowBlurOuter1" result="shadowMatrixOuter1"></feColorMatrix>
            <feMerge>
                <feMergeNode in="shadowMatrixOuter1"></feMergeNode>
                <feMergeNode in="SourceGraphic"></feMergeNode>
            </feMerge>
        </filter>
        <radialGradient cx="41.5870949%" cy="41.277448%" fx="41.5870949%" fy="41.277448%" r="46.1573049%" gradientTransform="translate(0.415871,0.412774),scale(0.867739,1.000000),rotate(90.000000),translate(-0.415871,-0.412774)" id="radialGradient-2">
            <stop stop-color="#FFFFFF" stop-opacity="0.1" offset="0%"></stop>
            <stop stop-color="#FFFFFF" stop-opacity="0.0858890035" offset="63.5889013%"></stop>
            <stop stop-color="#344152" stop-opacity="0.11" offset="100%"></stop>
        </radialGradient>
        <radialGradient cx="5.66065978%" cy="50%" fx="5.66065978%" fy="50%" r="15.0406377%" gradientTransform="translate(0.056607,0.500000),scale(0.867739,1.000000),rotate(180.000000),scale(1.000000,1.426476),translate(-0.056607,-0.500000)" id="radialGradient-3">
            <stop stop-color="#2F4E38" offset="0%"></stop>
            <stop stop-color="#2B662D" stop-opacity="0" offset="100%"></stop>
        </radialGradient>
        <path d="M19.5,29.5828118 C27,31.1656236 33,24.4340864 33,18.0828118 C33,11.7315372 27,5.16562364 19.5,6.58281182 C12,8 6,11.7315372 6,18.0828118 C6,24.4340864 12,28 19.5,29.5828118 Z" id="path-4"></path>
        <filter x="-20.7%" y="-23.1%" width="141.3%" height="146.2%" filterUnits="objectBoundingBox" id="filter-5">
            <feGaussianBlur stdDeviation="1" in="SourceGraphic"></feGaussianBlur>
        </filter>
        <filter x="-34.6%" y="-38.6%" width="169.2%" height="177.3%" filterUnits="objectBoundingBox" id="filter-6">
            <feGaussianBlur stdDeviation="2" in="SourceGraphic"></feGaussianBlur>
        </filter>
        <path d="M19.5,29.5828118 C27,31.1656236 33,24.4340864 33,18.0828118 C33,11.7315372 27,5.16562364 19.5,6.58281182 C12,8 6,11.7315372 6,18.0828118 C6,24.4340864 12,28 19.5,29.5828118 Z" id="path-7"></path>
        <filter x="-20.7%" y="-23.1%" width="141.3%" height="146.2%" filterUnits="objectBoundingBox" id="filter-8">
            <feGaussianBlur stdDeviation="1" in="SourceGraphic"></feGaussianBlur>
        </filter>
        <filter x="-34.6%" y="-38.6%" width="169.2%" height="177.3%" filterUnits="objectBoundingBox" id="filter-9">
            <feGaussianBlur stdDeviation="2" in="SourceGraphic"></feGaussianBlur>
        </filter>
        <path d="M19.5,29.5828118 C27,31.1656236 33,24.4340864 33,18.0828118 C33,11.7315372 27,5.16562364 19.5,6.58281182 C12,8 6,11.7315372 6,18.0828118 C6,24.4340864 12,28 19.5,29.5828118 Z" id="path-10"></path>
        <filter x="-20.7%" y="-23.1%" width="141.3%" height="146.2%" filterUnits="objectBoundingBox" id="filter-11">
            <feGaussianBlur stdDeviation="1" in="SourceGraphic"></feGaussianBlur>
        </filter>
        <filter x="-34.6%" y="-38.6%" width="169.2%" height="177.3%" filterUnits="objectBoundingBox" id="filter-12">
            <feGaussianBlur stdDeviation="2" in="SourceGraphic"></feGaussianBlur>
        </filter>
        <filter x="-33.8%" y="-43.9%" width="167.8%" height="183.8%" filterUnits="objectBoundingBox" id="filter-13">
            <feOffset dx="-1" dy="2" in="SourceAlpha" result="shadowOffsetOuter1"></feOffset>
            <feGaussianBlur stdDeviation="2.5" in="shadowOffsetOuter1" result="shadowBlurOuter1"></feGaussianBlur>
            <feColorMatrix values="0 0 0 0 0   0 0 0 0 0   0 0 0 0 0  0 0 0 0.3 0" type="matrix" in="shadowBlurOuter1" result="shadowMatrixOuter1"></feColorMatrix>
            <feMerge>
                <feMergeNode in="shadowMatrixOuter1"></feMergeNode>
                <feMergeNode in="SourceGraphic"></feMergeNode>
            </feMerge>
        </filter>
        <path d="M19.5,29.5828118 C27,31.1656236 33,24.4340864 33,18.0828118 C33,11.7315372 27,5.16562364 19.5,6.58281182 C12,8 6,11.7315372 6,18.0828118 C6,24.4340864 12,28 19.5,29.5828118 Z" id="path-14"></path>
        <filter x="-20.7%" y="-23.1%" width="141.3%" height="146.2%" filterUnits="objectBoundingBox" id="filter-15">
            <feGaussianBlur stdDeviation="1" in="SourceGraphic"></feGaussianBlur>
        </filter>
        <filter x="-34.6%" y="-38.6%" width="169.2%" height="177.3%" filterUnits="objectBoundingBox" id="filter-16">
            <feGaussianBlur stdDeviation="2" in="SourceGraphic"></feGaussianBlur>
        </filter>
        <path d="M19.5,29.5828118 C27,31.1656236 33,24.4340864 33,18.0828118 C33,11.7315372 27,5.16562364 19.5,6.58281182 C12,8 6,11.7315372 6,18.0828118 C6,24.4340864 12,28 19.5,29.5828118 Z" id="path-17"></path>
        <filter x="-20.7%" y="-23.1%" width="141.3%" height="146.2%" filterUnits="objectBoundingBox" id="filter-18">
            <feGaussianBlur stdDeviation="1" in="SourceGraphic"></feGaussianBlur>
        </filter>
        <filter x="-34.6%" y="-38.6%" width="169.2%" height="177.3%" filterUnits="objectBoundingBox" id="filter-19">
            <feGaussianBlur stdDeviation="2" in="SourceGraphic"></feGaussianBlur>
        </filter>
        <path d="M19.5,29.5828118 C27,31.1656236 33,24.4340864 33,18.0828118 C33,11.7315372 27,5.16562364 19.5,6.58281182 C12,8 6,11.7315372 6,18.0828118 C6,24.4340864 12,28 19.5,29.5828118 Z" id="path-20"></path>
        <filter x="-20.7%" y="-23.1%" width="141.3%" height="146.2%" filterUnits="objectBoundingBox" id="filter-21">
            <feGaussianBlur stdDeviation="1" in="SourceGraphic"></feGaussianBlur>
        </filter>
        <filter x="-34.6%" y="-38.6%" width="169.2%" height="177.3%" filterUnits="objectBoundingBox" id="filter-22">
            <feGaussianBlur stdDeviation="2" in="SourceGraphic"></feGaussianBlur>
        </filter>
        <path d="M19.5,29.5828118 C27,31.1656236 33,24.4340864 33,18.0828118 C33,11.7315372 27,5.16562364 19.5,6.58281182 C12,8 6,11.7315372 6,18.0828118 C6,24.4340864 12,28 19.5,29.5828118 Z" id="path-23"></path>
        <filter x="-20.7%" y="-23.1%" width="141.3%" height="146.2%" filterUnits="objectBoundingBox" id="filter-24">
            <feGaussianBlur stdDeviation="1" in="SourceGraphic"></feGaussianBlur>
        </filter>
        <filter x="-34.6%" y="-38.6%" width="169.2%" height="177.3%" filterUnits="objectBoundingBox" id="filter-25">
            <feGaussianBlur stdDeviation="2" in="SourceGraphic"></feGaussianBlur>
        </filter>
        <filter x="-40.0%" y="-50.9%" width="180.3%" height="197.7%" filterUnits="objectBoundingBox" id="filter-26">
            <feOffset dx="-1" dy="2" in="SourceAlpha" result="shadowOffsetOuter1"></feOffset>
            <feGaussianBlur stdDeviation="3" in="shadowOffsetOuter1" result="shadowBlurOuter1"></feGaussianBlur>
            <feColorMatrix values="0 0 0 0 0   0 0 0 0 0   0 0 0 0 0  0 0 0 0.35 0" type="matrix" in="shadowBlurOuter1" result="shadowMatrixOuter1"></feColorMatrix>
            <feMerge>
                <feMergeNode in="shadowMatrixOuter1"></feMergeNode>
                <feMergeNode in="SourceGraphic"></feMergeNode>
            </feMerge>
        </filter>
        <path d="M19.5,29.5828118 C27,31.1656236 33,24.4340864 33,18.0828118 C33,11.7315372 27,5.16562364 19.5,6.58281182 C12,8 6,11.7315372 6,18.0828118 C6,24.4340864 12,28 19.5,29.5828118 Z" id="path-27"></path>
        <filter x="-20.7%" y="-23.1%" width="141.3%" height="146.2%" filterUnits="objectBoundingBox" id="filter-28">
            <feGaussianBlur stdDeviation="1" in="SourceGraphic"></feGaussianBlur>
        </filter>
        <filter x="-34.6%" y="-38.6%" width="169.2%" height="177.3%" filterUnits="objectBoundingBox" id="filter-29">
            <feGaussianBlur stdDeviation="2" in="SourceGraphic"></feGaussianBlur>
        </filter>
        <path d="M19.5,29.5828118 C27,31.1656236 33,24.4340864 33,18.0828118 C33,11.7315372 27,5.16562364 19.5,6.58281182 C12,8 6,11.7315372 6,18.0828118 C6,24.4340864 12,28 19.5,29.5828118 Z" id="path-30"></path>
        <filter x="-20.7%" y="-23.1%" width="141.3%" height="146.2%" filterUnits="objectBoundingBox" id="filter-31">
            <feGaussianBlur stdDeviation="1" in="SourceGraphic"></feGaussianBlur>
        </filter>
        <filter x="-34.6%" y="-38.6%" width="169.2%" height="177.3%" filterUnits="objectBoundingBox" id="filter-32">
            <feGaussianBlur stdDeviation="2" in="SourceGraphic"></feGaussianBlur>
        </filter>
    </defs>
    <g id="Page-1" stroke="none" stroke-width="1" fill="none" fill-rule="evenodd">
        <g id="8+-seeds-(green)" transform="translate(-340.000000, -1052.000000)">
            <g id="seeds-45" transform="translate(340.000000, 1052.000000)">
                <rect id="Rectangle" fill-opacity="0.01" fill="#FFFFFF" x="0" y="0" width="144" height="144"></rect>
                <g id="Seeds-(grey)" filter="url(#filter-1)" transform="translate(25.000000, 26.000000)">
                    <g id="Group" transform="translate(30.000000, 24.000000)">
                        <g id="seed-copy-3" transform="translate(20.000000, 18.000000) rotate(132.000000) translate(-20.000000, -18.000000) ">
                            <g id="colour" transform="translate(19.500000, 18.102442) rotate(12.000000) translate(-19.500000, -18.102442) ">
                                <use fill="#407014" xlink:href="#path-4"></use>
                                <use fill="url(#radialGradient-2)" xlink:href="#path-4"></use>
                                <use fill="url(#radialGradient-3)" xlink:href="#path-4"></use>
                            </g>
                            <path d="M17.1949285,29.5133109 C16.1862303,24.2067905 17.4019869,20.4225957 20.8421983,18.1607263 C24.2824098,15.898857 27.7902769,15.9661147 31.3657997,18.3624994 C28.1076014,17.5152707 24.8919615,18.3242265 21.7188799,20.7893669 C18.5457984,23.2545073 17.0378146,26.1624886 17.1949285,29.5133109 Z" id="shadow" fill="#000000" opacity="0.149999991" filter="url(#filter-5)" transform="translate(24.108838, 23.013311) rotate(-175.000000) translate(-24.108838, -23.013311) "></path>
                            <path d="M12.5948736,25.0350541 C11.3899054,18.6960045 12.8422208,14.1754906 16.9518199,11.4735124 C21.0614189,8.7715343 25.2518379,8.85187883 29.5230768,11.714546 C25.6309065,10.7024657 21.7895756,11.6688261 17.999084,14.6136272 C14.2085923,17.5584284 12.4071889,21.0322373 12.5948736,25.0350541 Z" id="glow" fill="#FFFFFF" opacity="0.699999988" filter="url(#filter-6)" transform="translate(20.854074, 17.270301) rotate(-300.000000) translate(-20.854074, -17.270301) "></path>
                        </g>
                    </g>
                    <g id="Group" transform="translate(45.000000, 56.000000)">
                        <g id="seed-copy-9" transform="translate(20.000000, 18.000000) rotate(-142.000000) translate(-20.000000, -18.000000) ">
                            <g id="colour" transform="translate(19.500000, 18.102442) rotate(12.000000) translate(-19.500000, -18.102442) ">
                                <use fill="#407014" xlink:href="#path-7"></use>
                                <use fill="url(#radialGradient-2)" xlink:href="#path-7"></use>
                                <use fill="url(#radialGradient-3)" xlink:href="#path-7"></use>
                            </g>
                            <path d="M17.1949285,29.5133109 C16.1862303,24.2067905 17.4019869,20.4225957 20.8421983,18.1607263 C24.2824098,15.898857 27.7902769,15.9661147 31.3657997,18.3624994 C28.1076014,17.5152707 24.8919615,18.3242265 21.7188799,20.7893669 C18.5457984,23.2545073 17.0378146,26.1624886 17.1949285,29.5133109 Z" id="shadow" fill="#000000" opacity="0.149999991" filter="url(#filter-8)" transform="translate(24.108838, 23.013311) rotate(-175.000000) translate(-24.108838, -23.013311) "></path>
                            <path d="M12.5948736,25.0350541 C11.3899054,18.6960045 12.8422208,14.1754906 16.9518199,11.4735124 C21.0614189,8.7715343 25.2518379,8.85187883 29.5230768,11.714546 C25.6309065,10.7024657 21.7895756,11.6688261 17.999084,14.6136272 C14.2085923,17.5584284 12.4071889,21.0322373 12.5948736,25.0350541 Z" id="glow" fill="#FFFFFF" opacity="0.699999988" filter="url(#filter-9)" transform="translate(20.854074, 17.270301) rotate(-300.000000) translate(-20.854074, -17.270301) "></path>
                        </g>
                    </g>
                    <g id="Group" transform="translate(13.000000, 56.000000)">
                        <g id="seed-copy-8" transform="translate(20.000000, 18.000000) rotate(-22.000000) translate(-20.000000, -18.000000) ">
                            <g id="colour" transform="translate(19.500000, 18.102442) rotate(12.000000) translate(-19.500000, -18.102442) ">
                                <use fill="#407014" xlink:href="#path-10"></use>
                                <use fill="url(#radialGradient-2)" xlink:href="#path-10"></use>
                                <use fill="url(#radialGradient-3)" xlink:href="#path-10"></use>
                            </g>
                            <path d="M17.1949285,29.5133109 C16.1862303,24.2067905 17.4019869,20.4225957 20.8421983,18.1607263 C24.2824098,15.898857 27.7902769,15.9661147 31.3657997,18.3624994 C28.1076014,17.5152707 24.8919615,18.3242265 21.7188799,20.7893669 C18.5457984,23.2545073 17.0378146,26.1624886 17.1949285,29.5133109 Z" id="shadow" fill="#000000" opacity="0.149999991" filter="url(#filter-11)" transform="translate(24.108838, 23.013311) rotate(-175.000000) translate(-24.108838, -23.013311) "></path>
                            <path d="M12.5948736,25.0350541 C11.3899054,18.6960045 12.8422208,14.1754906 16.9518199,11.4735124 C21.0614189,8.7715343 25.2518379,8.85187883 29.5230768,11.714546 C25.6309065,10.7024657 21.7895756,11.6688261 17.999084,14.6136272 C14.2085923,17.5584284 12.4071889,21.0322373 12.5948736,25.0350541 Z" id="glow" fill="#FFFFFF" opacity="0.699999988" filter="url(#filter-12)" transform="translate(20.854074, 17.270301) rotate(-300.000000) translate(-20.854074, -17.270301) "></path>
                        </g>
                    </g>
                    <g id="Group" transform="translate(28.000000, 44.000000)">
                        <g id="seed-copy-11" filter="url(#filter-13)" transform="translate(20.000000, 18.000000) rotate(18.000000) translate(-20.000000, -18.000000) ">
                            <g id="colour" transform="translate(19.500000, 18.102442) rotate(12.000000) translate(-19.500000, -18.102442) ">
                                <use fill="#407014" xlink:href="#path-14"></use>
                                <use fill="url(#radialGradient-2)" xlink:href="#path-14"></use>
                                <use fill="url(#radialGradient-3)" xlink:href="#path-14"></use>
                            </g>
                            <path d="M17.1949285,29.5133109 C16.1862303,24.2067905 17.4019869,20.4225957 20.8421983,18.1607263 C24.2824098,15.898857 27.7902769,15.9661147 31.3657997,18.3624994 C28.1076014,17.5152707 24.8919615,18.3242265 21.7188799,20.7893669 C18.5457984,23.2545073 17.0378146,26.1624886 17.1949285,29.5133109 Z" id="shadow" fill="#000000" opacity="0.149999991" filter="url(#filter-15)" transform="translate(24.108838, 23.013311) rotate(-175.000000) translate(-24.108838, -23.013311) "></path>
                            <path d="M12.5948736,25.0350541 C11.3899054,18.6960045 12.8422208,14.1754906 16.9518199,11.4735124 C21.0614189,8.7715343 25.2518379,8.85187883 29.5230768,11.714546 C25.6309065,10.7024657 21.7895756,11.6688261 17.999084,14.6136272 C14.2085923,17.5584284 12.4071889,21.0322373 12.5948736,25.0350541 Z" id="glow" fill="#FFFFFF" opacity="0.699999988" filter="url(#filter-16)" transform="translate(20.854074, 17.270301) rotate(-300.000000) translate(-20.854074, -17.270301) "></path>
                        </g>
                    </g>
                    <g id="Group" transform="translate(0.000000, 33.000000)">
                        <g id="colour" transform="translate(19.500000, 18.102442) rotate(12.000000) translate(-19.500000, -18.102442) ">
                            <use fill="#407014" xlink:href="#path-17"></use>
                            <use fill="url(#radialGradient-2)" xlink:href="#path-17"></use>
                            <use fill="url(#radialGradient-3)" xlink:href="#path-17"></use>
                        </g>
                        <path d="M17.1949285,29.5133109 C16.1862303,24.2067905 17.4019869,20.4225957 20.8421983,18.1607263 C24.2824098,15.898857 27.7902769,15.9661147 31.3657997,18.3624994 C28.1076014,17.5152707 24.8919615,18.3242265 21.7188799,20.7893669 C18.5457984,23.2545073 17.0378146,26.1624886 17.1949285,29.5133109 Z" id="shadow" fill="#000000" opacity="0.149999991" filter="url(#filter-18)" transform="translate(24.108838, 23.013311) rotate(-175.000000) translate(-24.108838, -23.013311) "></path>
                        <path d="M12.5948736,25.0350541 C11.3899054,18.6960045 12.8422208,14.1754906 16.9518199,11.4735124 C21.0614189,8.7715343 25.2518379,8.85187883 29.5230768,11.714546 C25.6309065,10.7024657 21.7895756,11.6688261 17.999084,14.6136272 C14.2085923,17.5584284 12.4071889,21.0322373 12.5948736,25.0350541 Z" id="glow" fill="#FFFFFF" opacity="0.699999988" filter="url(#filter-19)" transform="translate(20.854074, 17.270301) rotate(-300.000000) translate(-20.854074, -17.270301) "></path>
                    </g>
                    <g id="Group" transform="translate(55.000000, 39.000000)">
                        <g id="seed-copy-10" transform="translate(20.000000, 18.000000) rotate(82.000000) translate(-20.000000, -18.000000) ">
                            <g id="colour" transform="translate(19.500000, 18.102442) rotate(12.000000) translate(-19.500000, -18.102442) ">
                                <use fill="#407014" xlink:href="#path-20"></use>
                                <use fill="url(#radialGradient-2)" xlink:href="#path-20"></use>
                                <use fill="url(#radialGradient-3)" xlink:href="#path-20"></use>
                            </g>
                            <path d="M17.1949285,29.5133109 C16.1862303,24.2067905 17.4019869,20.4225957 20.8421983,18.1607263 C24.2824098,15.898857 27.7902769,15.9661147 31.3657997,18.3624994 C28.1076014,17.5152707 24.8919615,18.3242265 21.7188799,20.7893669 C18.5457984,23.2545073 17.0378146,26.1624886 17.1949285,29.5133109 Z" id="shadow" fill="#000000" opacity="0.149999991" filter="url(#filter-21)" transform="translate(24.108838, 23.013311) rotate(-175.000000) translate(-24.108838, -23.013311) "></path>
                            <path d="M12.5948736,25.0350541 C11.3899054,18.6960045 12.8422208,14.1754906 16.9518199,11.4735124 C21.0614189,8.7715343 25.2518379,8.85187883 29.5230768,11.714546 C25.6309065,10.7024657 21.7895756,11.6688261 17.999084,14.6136272 C14.2085923,17.5584284 12.4071889,21.0322373 12.5948736,25.0350541 Z" id="glow" fill="#FFFFFF" opacity="0.699999988" filter="url(#filter-22)" transform="translate(20.854074, 17.270301) rotate(-300.000000) translate(-20.854074, -17.270301) "></path>
                        </g>
                    </g>
                    <g id="Group" transform="translate(53.000000, 14.000000)">
                        <g id="colour" transform="translate(19.500000, 18.102442) rotate(12.000000) translate(-19.500000, -18.102442) ">
                            <use fill="#407014" xlink:href="#path-23"></use>
                            <use fill="url(#radialGradient-2)" xlink:href="#path-23"></use>
                            <use fill="url(#radialGradient-3)" xlink:href="#path-23"></use>
                        </g>
                        <path d="M17.1949285,29.5133109 C16.1862303,24.2067905 17.4019869,20.4225957 20.8421983,18.1607263 C24.2824098,15.898857 27.7902769,15.9661147 31.3657997,18.3624994 C28.1076014,17.5152707 24.8919615,18.3242265 21.7188799,20.7893669 C18.5457984,23.2545073 17.0378146,26.1624886 17.1949285,29.5133109 Z" id="shadow" fill="#000000" opacity="0.149999991" filter="url(#filter-24)" transform="translate(24.108838, 23.013311) rotate(-175.000000) translate(-24.108838, -23.013311) "></path>
                        <path d="M12.5948736,25.0350541 C11.3899054,18.6960045 12.8422208,14.1754906 16.9518199,11.4735124 C21.0614189,8.7715343 25.2518379,8.85187883 29.5230768,11.714546 C25.6309065,10.7024657 21.7895756,11.6688261 17.999084,14.6136272 C14.2085923,17.5584284 12.4071889,21.0322373 12.5948736,25.0350541 Z" id="glow" fill="#FFFFFF" opacity="0.699999988" filter="url(#filter-25)" transform="translate(20.854074, 17.270301) rotate(-300.000000) translate(-20.854074, -17.270301) "></path>
                    </g>
                    <g id="Group" transform="translate(11.126989, 16.777450)">
                        <g id="seed-copy-4" filter="url(#filter-26)" transform="translate(20.000000, 18.000000) rotate(90.000000) translate(-20.000000, -18.000000) ">
                            <g id="colour" transform="translate(19.500000, 18.102442) rotate(12.000000) translate(-19.500000, -18.102442) ">
                                <use fill="#407014" xlink:href="#path-27"></use>
                                <use fill="url(#radialGradient-2)" xlink:href="#path-27"></use>
                                <use fill="url(#radialGradient-3)" xlink:href="#path-27"></use>
                            </g>
                            <path d="M17.1949285,29.5133109 C16.1862303,24.2067905 17.4019869,20.4225957 20.8421983,18.1607263 C24.2824098,15.898857 27.7902769,15.9661147 31.3657997,18.3624994 C28.1076014,17.5152707 24.8919615,18.3242265 21.7188799,20.7893669 C18.5457984,23.2545073 17.0378146,26.1624886 17.1949285,29.5133109 Z" id="shadow" fill="#000000" opacity="0.149999991" filter="url(#filter-28)" transform="translate(24.108838, 23.013311) rotate(-175.000000) translate(-24.108838, -23.013311) "></path>
                            <path d="M12.5948736,25.0350541 C11.3899054,18.6960045 12.8422208,14.1754906 16.9518199,11.4735124 C21.0614189,8.7715343 25.2518379,8.85187883 29.5230768,11.714546 C25.6309065,10.7024657 21.7895756,11.6688261 17.999084,14.6136272 C14.2085923,17.5584284 12.4071889,21.0322373 12.5948736,25.0350541 Z" id="glow" fill="#FFFFFF" opacity="0.699999988" filter="url(#filter-29)" transform="translate(20.854074, 17.270301) rotate(-300.000000) translate(-20.854074, -17.270301) "></path>
                        </g>
                    </g>
                    <g id="Group" transform="translate(32.000000, 0.000000)">
                        <g id="colour" transform="translate(19.500000, 18.102442) rotate(12.000000) translate(-19.500000, -18.102442) ">
                            <use fill="#407014" xlink:href="#path-30"></use>
                            <use fill="url(#radialGradient-2)" xlink:href="#path-30"></use>
                            <use fill="url(#radialGradient-3)" xlink:href="#path-30"></use>
                        </g>
                        <path d="M17.1949285,29.5133109 C16.1862303,24.2067905 17.4019869,20.4225957 20.8421983,18.1607263 C24.2824098,15.898857 27.7902769,15.9661147 31.3657997,18.3624994 C28.1076014,17.5152707 24.8919615,18.3242265 21.7188799,20.7893669 C18.5457984,23.2545073 17.0378146,26.1624886 17.1949285,29.5133109 Z" id="shadow" fill="#000000" opacity="0.149999991" filter="url(#filter-31)" transform="translate(24.108838, 23.013311) rotate(-175.000000) translate(-24.108838, -23.013311) "></path>
                        <path d="M12.5948736,25.0350541 C11.3899054,18.6960045 12.8422208,14.1754906 16.9518199,11.4735124 C21.0614189,8.7715343 25.2518379,8.85187883 29.5230768,11.714546 C25.6309065,10.7024657 21.7895756,11.6688261 17.999084,14.6136272 C14.2085923,17.5584284 12.4071889,21.0322373 12.5948736,25.0350541 Z" id="glow" fill="#FFFFFF" opacity="0.699999988" filter="url(#filter-32)" transform="translate(20.854074, 17.270301) rotate(-300.000000) translate(-20.854074, -17.270301) "></path>
                    </g>
                </g>
                <g id="Group" transform="translate(93.000000, 26.000000)">
                    <circle id="Oval" fill="#000000" cx="19" cy="19" r="19"></circle>
                    <path d="M17.783,25 L17.783,23.096 L18.871,23.096 L18.871,20.937 L17.783,20.937 L17.783,17.877 L15.437,17.877 L15.437,20.937 L12.768,20.937 L16.627,12.76 L13.975,12.76 L10.116,20.937 L10.116,23.096 L15.437,23.096 L15.437,25 L17.783,25 Z M24.549,25.255 C25.705,25.255 25.705,25.255 26.691,24.70675 C27.677,24.1585 27.677,24.1585 28.2805,23.22775 C28.884,22.297 28.884,22.297 28.884,21.141 C28.884,19.985 28.884,19.985 28.38675,19.08825 C27.8895,18.1915 27.8895,18.1915 27.00975,17.67725 C26.13,17.163 26.13,17.163 24.974,17.163 C24.464,17.163 24.464,17.163 23.8775,17.333 C23.6429,17.401 23.6429,17.401 23.4287,17.50164 L23.27,17.585 L23.432,14.919 L28.068,14.919 L28.068,12.76 L21.387,12.76 L21.013,19.271 L22.968,19.866 C23.172,19.6705 23.172,19.6705 23.58,19.45375 C23.988,19.237 23.988,19.237 24.634,19.237 C25.161,19.237 25.161,19.237 25.59875,19.492 C26.0365,19.747 26.0365,19.747 26.29575,20.1805 C26.555,20.614 26.555,20.614 26.555,21.141 C26.555,21.668 26.555,21.668 26.29575,22.1015 C26.0365,22.535 26.0365,22.535 25.59875,22.79 C25.161,23.045 25.161,23.045 24.634,23.045 C24.2345,23.045 24.2345,23.045 23.85625,22.87075 C23.478,22.6965 23.478,22.6965 23.19325,22.382 C22.9085,22.0675 22.9085,22.0675 22.798,21.634 L22.798,21.634 L20.571,22.229 C20.826,23.13 20.826,23.13 21.4125,23.81 C21.999,24.49 21.999,24.49 22.81075,24.8725 C23.6225,25.255 23.6225,25.255 24.549,25.255 Z" id="Combined-Shape" fill="#FFFFFF"></path>
                </g>
            </g>
        </g>
    </g>
</svg>