<svg width="96" height="169" viewBox="0 0 96 169" fill="none" xmlns="http://www.w3.org/2000/svg">
<path opacity="0.5" fill-rule="evenodd" clip-rule="evenodd" d="M50.5303 168.956C49.8572 168.985 49.1803 169 48.5 169C47.8197 169 47.1428 168.985 46.4697 168.956L46.5984 165.959C47.2287 165.986 47.8627 166 48.5 166C49.1373 166 49.7713 165.986 50.4016 165.959L50.5303 168.956ZM42.4267 168.607L42.8147 165.632C41.551 165.467 40.3046 165.248 39.0779 164.977L38.4312 167.907C39.7431 168.197 41.0758 168.431 42.4267 168.607ZM34.5129 166.86L35.4143 163.998C34.2023 163.616 33.0132 163.183 31.8495 162.7L30.7004 165.472C31.9449 165.988 33.2166 166.451 34.5129 166.86ZM27.0243 163.754L28.4118 161.095C27.2872 160.508 26.1914 159.874 25.127 159.194L23.5127 161.723C24.6505 162.449 25.822 163.127 27.0243 163.754ZM20.1915 159.393L22.0195 157.014C21.015 156.242 20.045 155.428 19.1124 154.572L17.0851 156.784C18.0816 157.697 19.118 158.568 20.1915 159.393ZM14.2162 153.915L16.4275 151.888C15.5725 150.955 14.7576 149.985 13.9857 148.98L11.6069 150.808C12.4319 151.882 13.3026 152.918 14.2162 153.915ZM9.2772 147.487L11.8059 145.873C11.1264 144.809 10.492 143.713 9.90539 142.588L7.24552 143.976C7.87269 145.178 8.55087 146.35 9.2772 147.487ZM5.52845 140.3L8.29962 139.15C7.81706 137.987 7.38361 136.798 7.00183 135.586L4.14044 136.487C4.54878 137.783 5.01237 139.055 5.52845 140.3ZM3.09304 132.569L6.02251 131.922C5.75172 130.695 5.53268 129.449 5.36783 128.185L2.39303 128.573C2.56925 129.924 2.80344 131.257 3.09304 132.569ZM2.04353 124.53L5.04076 124.402C5.01369 123.771 5 123.137 5 122.5V120.6H2V122.5C2 123.18 2.01461 123.857 2.04353 124.53ZM2 116.8H5V113H2V116.8ZM2 109.2H5V105.4H2V109.2ZM2 101.6H5V97.8H2V101.6ZM2 94H5V90.2H2V94ZM2 86.4H5V82.6H2V86.4ZM2 78.8H5V75H2V78.8ZM2 71.2H5V67.4H2V71.2ZM2 63.6H5V59.8H2V63.6ZM2 56H5V52.2H2V56ZM2 48.4H5V46.5C5 45.8627 5.01369 45.2287 5.04076 44.5984L2.04353 44.4697C2.01461 45.1428 2 45.8197 2 46.5V48.4ZM2.39303 40.4267L5.36783 40.8147C5.53268 39.551 5.75172 38.3046 6.02251 37.0779L3.09304 36.4312C2.80344 37.7431 2.56925 39.0758 2.39303 40.4267ZM4.14044 32.5129L7.00183 33.4143C7.38361 32.2023 7.81706 31.0132 8.29962 29.8495L5.52844 28.7004C5.01237 29.9449 4.54878 31.2166 4.14044 32.5129ZM7.24552 25.0243L9.90539 26.4117C10.492 25.2872 11.1264 24.1914 11.8059 23.127L9.2772 21.5127C8.55087 22.6505 7.87269 23.822 7.24552 25.0243ZM11.6069 18.1915L13.9857 20.0195C14.7576 19.015 15.5725 18.045 16.4275 17.1124L14.2162 15.0851C13.3026 16.0816 12.4319 17.118 11.6069 18.1915ZM17.085 12.2162L19.1124 14.4275C20.045 13.5725 21.015 12.7576 22.0195 11.9857L20.1915 9.60693C19.118 10.4319 18.0816 11.3026 17.085 12.2162ZM23.5127 7.2772L25.127 9.80587C26.1914 9.12635 27.2872 8.49197 28.4117 7.90539L27.0243 5.24552C25.822 5.87269 24.6505 6.55087 23.5127 7.2772ZM30.7004 3.52844L31.8495 6.29962C33.0132 5.81706 34.2023 5.38361 35.4143 5.00183L34.5129 2.14044C33.2166 2.54878 31.9449 3.01237 30.7004 3.52844ZM38.4312 1.09304L39.0779 4.02251C40.3046 3.75172 41.551 3.53268 42.8147 3.36783L42.4267 0.393032C41.0758 0.569246 39.7431 0.803443 38.4312 1.09304ZM46.4697 0.0435292C47.1428 0.0146086 47.8197 0 48.5 0C49.1803 0 49.8572 0.0146086 50.5303 0.0435293L50.4016 3.04076C49.7713 3.01369 49.1373 3 48.5 3C47.8627 3 47.2287 3.01369 46.5984 3.04076L46.4697 0.0435292ZM54.5733 0.393031L54.1853 3.36783C55.449 3.53268 56.6954 3.75172 57.9221 4.02251L58.5688 1.09304C57.2569 0.803443 55.9242 0.569246 54.5733 0.393031ZM62.4871 2.14044L61.5857 5.00183C62.7977 5.38361 63.9868 5.81706 65.1505 6.29962L66.2996 3.52845C65.0551 3.01237 63.7834 2.54878 62.4871 2.14044ZM69.9757 5.24552L68.5882 7.90539C69.7128 8.49197 70.8086 9.12635 71.873 9.80586L73.4873 7.2772C72.3495 6.55087 71.178 5.87269 69.9757 5.24552ZM76.8085 9.60693L74.9805 11.9857C75.985 12.7576 76.955 13.5725 77.8876 14.4275L79.9149 12.2162C78.9184 11.3026 77.882 10.4319 76.8085 9.60693ZM82.7838 15.085L80.5725 17.1124C81.4275 18.045 82.2424 19.015 83.0143 20.0195L85.3931 18.1915C84.5681 17.118 83.6974 16.0816 82.7838 15.085ZM87.7228 21.5127L85.1941 23.127C85.8736 24.1914 86.508 25.2872 87.0946 26.4117L89.7545 25.0243C89.1273 23.822 88.4491 22.6505 87.7228 21.5127ZM91.4716 28.7004L88.7004 29.8495C89.1829 31.0132 89.6164 32.2023 89.9982 33.4143L92.8596 32.5129C92.4512 31.2166 91.9876 29.9449 91.4716 28.7004ZM93.907 36.4312L90.9775 37.0779C91.2483 38.3046 91.4673 39.551 91.6322 40.8147L94.607 40.4267C94.4308 39.0758 94.1966 37.7431 93.907 36.4312ZM94.9565 44.4697L91.9592 44.5984C91.9863 45.2287 92 45.8627 92 46.5V48.4H95V46.5C95 45.8197 94.9854 45.1428 94.9565 44.4697ZM95 52.2H92V56H95V52.2ZM95 59.8H92V63.6H95V59.8ZM95 67.4H92V71.2H95V67.4ZM95 75H92V78.8H95V75ZM95 82.6H92V86.4H95V82.6ZM95 90.2H92V94H95V90.2ZM95 97.8H92V101.6H95V97.8ZM95 105.4H92V109.2H95V105.4ZM95 113H92V116.8H95V113ZM95 120.6H92V122.5C92 123.137 91.9863 123.771 91.9592 124.402L94.9565 124.53C94.9854 123.857 95 123.18 95 122.5V120.6ZM94.607 128.573L91.6322 128.185C91.4673 129.449 91.2483 130.695 90.9775 131.922L93.907 132.569C94.1966 131.257 94.4308 129.924 94.607 128.573ZM92.8596 136.487L89.9982 135.586C89.6164 136.798 89.1829 137.987 88.7004 139.15L91.4716 140.3C91.9876 139.055 92.4512 137.783 92.8596 136.487ZM89.7545 143.976L87.0946 142.588C86.508 143.713 85.8736 144.809 85.1941 145.873L87.7228 147.487C88.4491 146.35 89.1273 145.178 89.7545 143.976ZM85.3931 150.808L83.0143 148.98C82.2424 149.985 81.4275 150.955 80.5725 151.888L82.7838 153.915C83.6974 152.918 84.5681 151.882 85.3931 150.808ZM79.915 156.784L77.8876 154.572C76.955 155.428 75.985 156.242 74.9805 157.014L76.8085 159.393C77.882 158.568 78.9184 157.697 79.915 156.784ZM73.4873 161.723L71.873 159.194C70.8086 159.874 69.7128 160.508 68.5882 161.095L69.9757 163.754C71.178 163.127 72.3495 162.449 73.4873 161.723ZM66.2996 165.472L65.1505 162.7C63.9868 163.183 62.7977 163.616 61.5857 163.998L62.4871 166.86C63.7834 166.451 65.0551 165.988 66.2996 165.472ZM58.5688 167.907L57.9221 164.977C56.6954 165.248 55.449 165.467 54.1853 165.632L54.5733 168.607C55.9242 168.431 57.2569 168.197 58.5688 167.907Z" fill="#882727"/>
</svg>
