<svg width="96" height="169" viewBox="0 0 96 169" fill="none" xmlns="http://www.w3.org/2000/svg">
<path opacity="0.45" fill-rule="evenodd" clip-rule="evenodd" d="M1 11V7H3V11H1ZM1 3V1H3V3H1ZM10.7917 1H6.87501V3H10.7917V1ZM3 169V167H1V169H3ZM93 169H95V167H93V169ZM93 1V3L95 3V1H93ZM14.7083 1V3H18.625V1H14.7083ZM22.5417 1V3H26.4583V1H22.5417ZM30.375 1V3H34.2917V1H30.375ZM38.2083 1V3H42.125V1H38.2083ZM46.0417 1V3H49.9583V1H46.0417ZM53.875 1V3H57.7917V1H53.875ZM61.7083 1V3H65.625V1H61.7083ZM69.5417 1V3H73.4583V1H69.5417ZM77.375 1V3H81.2917V1H77.375ZM85.2083 1V3H89.125V1H85.2083ZM95 7H93V11H95V7ZM95 15H93V19H95V15ZM95 23H93V27H95V23ZM95 31H93V35H95V31ZM95 39H93V43H95V39ZM95 47H93V51H95V47ZM95 55H93V59H95V55ZM95 63H93V67H95V63ZM95 71H93V75H95V71ZM95 79H93V83H95V79ZM95 87H93V91H95V87ZM95 95H93V99H95V95ZM95 103H93V107H95V103ZM95 111H93V115H95V111ZM95 119H93V123H95V119ZM95 127H93V131H95V127ZM95 135H93V139H95V135ZM95 143H93V147H95V143ZM95 151H93V155H95V151ZM95 159H93V163H95V159ZM89.125 169V167H85.2083V169H89.125ZM81.2917 169V167H77.375V169H81.2917ZM73.4583 169V167H69.5417V169H73.4583ZM65.625 169V167H61.7083V169H65.625ZM57.7917 169V167H53.875V169H57.7917ZM49.9583 169V167H46.0417V169H49.9583ZM42.125 169V167H38.2083V169H42.125ZM34.2917 169V167H30.375V169H34.2917ZM26.4583 169V167H22.5417V169H26.4583ZM18.625 169V167H14.7083V169H18.625ZM10.7917 169V167H6.875V169H10.7917ZM1 163H3V159H1V163ZM1 155H3V151H1V155ZM1 147H3V143H1V147ZM1 139H3V135H1V139ZM1 131H3V127H1V131ZM1 123H3V119H1V123ZM1 115H3V111H1V115ZM1 107H3V103H1V107ZM1 99H3V95H1V99ZM1 91H3V87H1V91ZM1 83H3V79H1V83ZM1 75H3V71H1V75ZM1 67H3V63H1V67ZM1 59H3V55H1V59ZM1 51H3V47H1V51ZM1 43H3V39H1V43ZM1 35H3V31H1V35ZM1 27H3V23H1V27ZM1 19H3V15H1V19Z" fill="#882727"/>
</svg>
