<svg width="321" height="2046" viewBox="0 0 321 2046" fill="none" xmlns="http://www.w3.org/2000/svg">
  <!-- 5 checkers, all circles, evenly spaced with 16px gap at top and between each, with brown checker and dual arcs -->
  <!-- Circle center y = 16 (gap) + 144.5 (radius) + n * (289 (diameter) + 16 (gap)) -->
  <!-- Centers: 160.5, 466.5, 772.5, 1078.5, 1384.5 -->
  <g>
    <!-- Checker 1 (top) -->
	<circle cx="160.5" cy="160.5" r="144.5" fill="#241612" opacity="0.98"/>
    <circle cx="156.5" cy="156.5" r="140.5" fill="#6C362A" opacity="0.98"/>
    <path
      d="M20 156.5
         A144.5 144.5 0 0 1 160.5 20"
      stroke="#855040"
      stroke-width="8"
      fill="none"
      opacity="0.36"
    />
  </g>
  <g>
    <!-- Checker 2 -->
	<circle cx="160.5" cy="466.5" r="144.5" fill="#241612" opacity="0.98"/>
    <circle cx="156.5" cy="462.5" r="140.5" fill="#6C362A" opacity="0.98"/>
    <path
      d="M20 462.5
         A144.5 144.5 0 0 1 160.5 326"
      stroke="#855040"
      stroke-width="8"
      fill="none"
      opacity="0.36"
    />
  </g>
  <g>
    <!-- Checker 3 -->
	<circle cx="160.5" cy="772.5" r="144.5" fill="#241612" opacity="0.98"/>
    <circle cx="156.5" cy="768.5" r="140.5" fill="#6C362A" opacity="0.98"/>
    <path
      d="M20 768.5
         A144.5 144.5 0 0 1 160.5 632"
      stroke="#855040"
      stroke-width="8"
      fill="none"
      opacity="0.36"
    />
  </g>
  <g>
    <!-- Checker 4 -->
	<circle cx="160.5" cy="1078.5" r="144.5" fill="#241612" opacity="0.98"/>
    <circle cx="156.5" cy="1074.5" r="140.5" fill="#6C362A" opacity="0.98"/>
    <path
      d="M20 1074.5
         A144.5 144.5 0 0 1 160.5 938"
      stroke="#855040"
      stroke-width="8"
      fill="none"
      opacity="0.36"
    />
  </g>
  <g>
    <!-- Checker 5 (bottom in this new arrangement) -->
	<circle cx="160.5" cy="1384.5" r="144.5" fill="#241612" opacity="0.98"/>
    <circle cx="156.5" cy="1380.5" r="140.5" fill="#6C362A" opacity="0.98"/>
    <path
      d="M20 1380.5
         A144.5 144.5 0 0 1 160.5 1244"
      stroke="#855040"
      stroke-width="8"
      fill="none"
      opacity="0.36"
    />
	<text x="160.5" y="1394.5"
      text-anchor="middle"
      dominant-baseline="middle"
      font-family="Noto Sans, sans-serif"
      font-size="150"
      font-weight="bold"
      fill="#F3C876"
      letter-spacing="2"
      >
      14
    </text>
  </g>
</svg>