<svg width="321" height="2046" viewBox="0 0 321 2046" fill="none" xmlns="http://www.w3.org/2000/svg">
  <!-- 5 checkers, all circles, evenly spaced with equal gap at bottom, shading arc fully inside on bottom right edge -->
  <!-- Parameters: r=144.5, gap=16px, bottom gap=16px, centers: 1885.5, 1580.5, 1275.5, 970.5, 665.5 -->
  <g>
    <!-- Checker 1 (bottom) -->
	<circle cx="160.5" cy="1885.5" r="144.5" fill="#6B4301" opacity="0.98"/>
    <circle cx="164.5" cy="1889.5" r="140.5" fill="#EEBA64" opacity="0.98"/>
	<path
      d="M301 1881.5
         A144.5 144.5 0 0 1 160.5 2026"
      stroke="#F1BD68"
      stroke-width="8"
      fill="none"
      opacity="0.6"
    />
  </g>
  <g>
    <!-- Checker 2 -->
	<circle cx="160.5" cy="1580.5" r="144.5" fill="#6B4301" opacity="0.98"/>
    <circle cx="164.5" cy="1589.5" r="140.5" fill="#EEBA64" opacity="0.98"/>
	<path
      d="M301 1576.5
         A144.5 144.5 0 0 1 160.5 1721"
      stroke="#F1BD68"
      stroke-width="8"
      fill="none"
      opacity="0.6"
    />
  </g>
  <g>
    <!-- Checker 3 -->
	<circle cx="160.5" cy="1275.5" r="144.5" fill="#6B4301" opacity="0.98"/>
    <circle cx="164.5" cy="1279.5" r="140.5" fill="#EEBA64" opacity="0.98"/>
	<path
      d="M301 1271.5
         A144.5 144.5 0 0 1 160.5 1416"
      stroke="#F1BD68"
      stroke-width="8"
      fill="none"
      opacity="0.6"
    />
  </g>
  <g>
    <!-- Checker 4 -->
	<circle cx="160.5" cy="970.5" r="144.5" fill="#6B4301" opacity="0.98"/>
    <circle cx="164.5" cy="974.5" r="140.5" fill="#EEBA64" opacity="0.98"/>
	<path
      d="M301 966.5
         A144.5 144.5 0 0 1 160.5 1111"
      stroke="#F1BD68"
      stroke-width="8"
      fill="none"
      opacity="0.6"
    />
  </g>
</svg>