<svg id="svg" version="1.1" xmlns="http://www.w3.org/2000/svg" xmlns:xlink="http://www.w3.org/1999/xlink" width="400" height="400" viewBox="0, 0, 400,400"><g id="svgg"><path id="path0" d="M156.809 24.070 L 160.990 41.628 156.344 46.273 C 153.788 48.827,151.805 50.917,151.937 50.917 C 152.069 50.917,147.843 55.252,142.546 60.550 C 137.249 65.849,132.811 70.183,132.684 70.183 C 132.557 70.183,119.558 83.079,103.797 98.841 L 75.140 127.499 76.795 132.614 C 77.706 135.427,81.269 146.399,84.713 156.995 L 90.974 176.261 116.444 176.320 C 136.650 176.366,141.961 176.319,142.141 176.090 C 142.266 175.932,144.089 170.487,146.194 163.991 C 148.298 157.494,150.065 152.046,150.120 151.884 C 150.201 151.648,150.348 151.654,150.856 151.914 C 161.539 157.373,181.082 158.369,194.323 154.131 C 195.427 153.778,196.330 153.519,196.330 153.556 C 196.330 153.592,175.638 179.668,150.348 211.502 L 104.365 269.381 153.798 269.439 L 203.230 269.496 204.975 268.319 C 252.234 236.429,276.548 176.323,265.012 119.905 C 253.840 65.267,212.690 21.867,158.950 8.044 C 156.596 7.438,154.863 6.886,155.051 6.802 C 155.238 6.719,154.993 6.709,154.507 6.780 C 153.903 6.869,153.673 6.831,153.778 6.661 C 153.877 6.501,153.700 6.430,153.280 6.462 L 152.627 6.512 156.809 24.070 M204.358 22.936 C 204.799 23.177,205.264 23.375,205.390 23.375 C 205.516 23.375,205.258 23.177,204.817 22.936 C 204.375 22.694,203.911 22.496,203.784 22.496 C 203.658 22.496,203.916 22.694,204.358 22.936 M208.028 24.647 C 208.028 24.710,208.440 24.972,208.945 25.229 C 209.450 25.487,209.862 25.646,209.862 25.583 C 209.862 25.520,209.450 25.257,208.945 25.000 C 208.440 24.743,208.028 24.584,208.028 24.647 M247.477 51.219 C 247.477 51.258,247.813 51.593,248.222 51.964 L 248.968 52.638 248.294 51.892 C 247.666 51.197,247.477 51.041,247.477 51.219 M250.229 53.784 C 250.657 54.226,251.059 54.587,251.122 54.587 C 251.185 54.587,250.887 54.226,250.459 53.784 C 250.031 53.343,249.629 52.982,249.566 52.982 C 249.503 52.982,249.801 53.343,250.229 53.784 M253.440 56.766 C 254.253 57.586,254.970 58.257,255.033 58.257 C 255.096 58.257,254.482 57.586,253.670 56.766 C 252.857 55.946,252.141 55.275,252.077 55.275 C 252.014 55.275,252.628 55.946,253.440 56.766 M261.239 64.564 C 262.051 65.384,262.768 66.055,262.831 66.055 C 262.894 66.055,262.281 65.384,261.468 64.564 C 260.655 63.744,259.939 63.073,259.876 63.073 C 259.813 63.073,260.426 63.744,261.239 64.564 M264.106 67.661 C 264.598 68.165,265.053 68.578,265.116 68.578 C 265.179 68.578,264.828 68.165,264.335 67.661 C 263.842 67.156,263.387 66.743,263.324 66.743 C 263.261 66.743,263.613 67.156,264.106 67.661 M265.367 69.108 C 265.367 69.148,265.702 69.483,266.112 69.854 L 266.858 70.528 266.184 69.782 C 265.556 69.087,265.367 68.931,265.367 69.108 M159.054 75.220 C 166.228 78.736,163.726 89.536,155.734 89.546 C 147.122 89.556,145.429 77.418,153.670 74.745 C 154.852 74.361,157.839 74.625,159.054 75.220 M291.628 106.881 C 291.824 107.259,292.036 107.569,292.099 107.569 C 292.162 107.569,292.053 107.259,291.858 106.881 C 291.662 106.502,291.450 106.193,291.387 106.193 C 291.324 106.193,291.433 106.502,291.628 106.881 M295.658 114.794 C 295.658 114.920,295.806 115.281,295.986 115.596 C 296.167 115.912,296.314 116.067,296.314 115.940 C 296.314 115.814,296.167 115.453,295.986 115.138 C 295.806 114.822,295.658 114.667,295.658 114.794 M312.897 175.459 C 312.897 175.900,312.944 176.081,313.002 175.860 C 313.060 175.639,313.060 175.278,313.002 175.057 C 312.944 174.837,312.897 175.017,312.897 175.459 M313.136 177.752 C 313.136 178.320,313.181 178.552,313.235 178.268 C 313.290 177.985,313.290 177.520,313.235 177.236 C 313.181 176.952,313.136 177.185,313.136 177.752 M313.365 180.275 C 313.365 180.843,313.410 181.075,313.465 180.791 C 313.519 180.507,313.519 180.043,313.465 179.759 C 313.410 179.475,313.365 179.708,313.365 180.275 M313.603 183.372 C 313.604 184.128,313.647 184.410,313.698 183.998 C 313.749 183.586,313.748 182.967,313.696 182.622 C 313.644 182.277,313.602 182.615,313.603 183.372 M313.843 187.729 C 313.842 188.865,313.881 189.358,313.929 188.826 C 313.977 188.293,313.978 187.365,313.930 186.762 C 313.883 186.159,313.844 186.594,313.843 187.729 M314.085 195.757 C 314.084 197.901,314.119 198.810,314.161 197.775 C 314.204 196.741,314.204 194.986,314.162 193.876 C 314.120 192.766,314.085 193.612,314.085 195.757 M313.843 203.784 C 313.842 204.920,313.881 205.413,313.929 204.881 C 313.977 204.348,313.978 203.420,313.930 202.817 C 313.883 202.214,313.844 202.649,313.843 203.784 M313.603 207.913 C 313.604 208.670,313.647 208.952,313.698 208.539 C 313.749 208.127,313.748 207.508,313.696 207.163 C 313.644 206.819,313.602 207.156,313.603 207.913 M313.365 211.009 C 313.365 211.577,313.410 211.809,313.465 211.525 C 313.519 211.241,313.519 210.777,313.465 210.493 C 313.410 210.209,313.365 210.442,313.365 211.009 M313.131 213.647 C 313.134 214.151,313.181 214.331,313.236 214.045 C 313.290 213.760,313.288 213.347,313.231 213.128 C 313.174 212.909,313.129 213.142,313.131 213.647 M312.897 215.826 C 312.897 216.267,312.944 216.448,313.002 216.227 C 313.060 216.006,313.060 215.645,313.002 215.424 C 312.944 215.204,312.897 215.384,312.897 215.826 M108.596 275.199 C 109.216 275.988,109.829 276.699,109.958 276.779 C 110.087 276.859,109.685 276.278,109.065 275.489 C 108.445 274.700,107.832 273.989,107.703 273.909 C 107.574 273.829,107.976 274.410,108.596 275.199 M114.788 282.997 C 115.409 283.787,116.021 284.498,116.150 284.577 C 116.279 284.657,115.878 284.076,115.257 283.287 C 114.637 282.498,114.024 281.787,113.895 281.707 C 113.766 281.627,114.168 282.208,114.788 282.997 M121.560 291.514 C 121.959 292.018,122.338 292.431,122.401 292.431 C 122.464 292.431,122.189 292.018,121.789 291.514 C 121.389 291.009,121.011 290.596,120.948 290.596 C 120.885 290.596,121.160 291.009,121.560 291.514 M128.091 299.740 C 128.711 300.530,129.324 301.241,129.453 301.320 C 129.582 301.400,129.180 300.820,128.560 300.030 C 127.940 299.241,127.327 298.530,127.198 298.450 C 127.069 298.371,127.471 298.951,128.091 299.740 M134.284 307.539 C 134.904 308.328,135.517 309.039,135.646 309.119 C 135.775 309.198,135.373 308.618,134.753 307.828 C 134.133 307.039,133.520 306.328,133.391 306.248 C 133.262 306.169,133.664 306.749,134.284 307.539 M270.284 313.360 L 269.610 314.106 270.356 313.432 C 271.050 312.804,271.206 312.615,271.029 312.615 C 270.990 312.615,270.654 312.950,270.284 313.360 M140.476 315.337 C 141.097 316.126,141.709 316.837,141.838 316.917 C 141.967 316.996,141.566 316.416,140.946 315.627 C 140.325 314.837,139.713 314.126,139.584 314.047 C 139.455 313.967,139.856 314.547,140.476 315.337 M268.566 315.310 L 267.775 316.170 268.635 315.379 C 269.108 314.945,269.495 314.558,269.495 314.519 C 269.495 314.344,269.301 314.509,268.566 315.310 M265.705 318.406 L 264.106 320.069 265.768 318.469 C 267.313 316.984,267.536 316.743,267.368 316.743 C 267.333 316.743,266.585 317.491,265.705 318.406 M146.651 323.108 L 147.697 324.427 115.190 324.542 C 97.312 324.606,88.386 324.684,95.356 324.714 L 108.028 324.771 108.028 359.864 L 108.028 394.956 129.415 394.898 L 150.803 394.839 150.861 359.805 L 150.919 324.771 149.562 324.771 L 148.205 324.771 147.018 323.280 C 146.366 322.460,145.781 321.789,145.719 321.789 C 145.656 321.789,146.076 322.382,146.651 323.108 M259.908 324.128 C 259.757 324.280,259.633 324.486,259.633 324.587 C 259.633 324.688,273.927 324.771,291.398 324.771 L 323.164 324.771 323.223 359.862 L 323.282 394.954 323.281 359.805 L 323.280 324.656 291.544 324.598 C 263.397 324.546,259.840 324.501,260.092 324.196 C 260.432 323.787,260.299 323.738,259.908 324.128 " stroke="none" fill="#63737b" fill-rule="evenodd"></path><path id="path1" d="M161.468 8.519 C 217.131 23.988,258.444 71.016,266.616 128.211 C 274.370 182.480,250.492 236.979,205.218 268.348 L 203.440 269.580 203.440 297.060 L 203.440 324.541 231.503 324.541 L 259.565 324.541 263.441 320.584 C 323.184 259.577,330.763 164.056,281.706 90.367 C 253.867 48.550,211.001 19.183,161.871 8.269 C 157.609 7.322,157.470 7.408,161.468 8.519 M60.685 14.880 C 60.800 14.982,76.944 27.326,96.560 42.313 C 116.175 57.300,132.361 69.669,132.527 69.799 C 132.758 69.980,135.069 67.796,142.327 60.540 C 148.507 54.361,151.725 50.989,151.539 50.885 C 151.297 50.749,78.632 21.862,65.043 16.499 C 62.531 15.507,60.570 14.779,60.685 14.880 M154.068 74.777 C 145.370 76.967,147.252 89.912,156.193 89.395 C 162.874 89.008,165.689 80.818,160.659 76.401 C 158.994 74.940,156.177 74.246,154.068 74.777 M310.780 359.735 L 310.780 394.698 309.805 394.786 C 309.269 394.834,312.056 394.892,315.998 394.914 L 323.165 394.954 323.165 359.862 L 323.165 324.771 316.972 324.771 L 310.780 324.771 310.780 359.735 " stroke="none" fill="#343c44" fill-rule="evenodd"></path><path id="path2" d="M225.220 45.700 C 225.782 46.299,226.272 46.789,226.309 46.789 C 226.481 46.789,226.299 46.583,225.287 45.633 L 224.197 44.610 225.220 45.700 M267.959 144.954 C 267.959 145.648,268.002 145.932,268.054 145.585 C 268.107 145.238,268.107 144.670,268.054 144.323 C 268.002 143.976,267.959 144.260,267.959 144.954 M267.956 152.179 C 267.957 152.810,268.002 153.040,268.054 152.692 C 268.107 152.343,268.106 151.827,268.051 151.545 C 267.997 151.263,267.954 151.548,267.956 152.179 M225.110 251.663 L 223.050 253.784 225.172 251.725 C 226.339 250.592,227.294 249.638,227.294 249.603 C 227.294 249.437,227.023 249.692,225.110 251.663 M203.267 297.076 L 203.211 324.771 231.365 324.714 L 259.518 324.658 231.480 324.599 L 203.442 324.539 203.383 296.960 L 203.324 269.381 203.267 297.076 M268.807 359.862 L 268.807 394.954 288.384 394.954 C 299.151 394.954,308.595 394.888,309.370 394.807 L 310.780 394.659 310.780 359.715 L 310.780 324.771 289.794 324.771 L 268.807 324.771 268.807 359.862 " stroke="none" fill="#3f4751" fill-rule="evenodd"></path><path id="path3" d="M142.315 60.608 L 132.683 70.298 142.374 60.666 C 147.704 55.369,152.064 51.008,152.064 50.976 C 152.064 50.814,151.268 51.601,142.315 60.608 M267.977 148.624 C 267.977 150.075,268.014 150.668,268.059 149.943 C 268.105 149.217,268.105 148.030,268.059 147.305 C 268.014 146.580,267.977 147.173,267.977 148.624 M104.761 270.011 C 104.887 270.169,114.661 282.477,126.480 297.362 L 147.969 324.427 149.615 324.569 C 150.521 324.647,162.950 324.724,177.236 324.741 L 203.211 324.771 203.211 297.248 L 203.211 269.725 153.871 269.725 C 114.429 269.725,104.577 269.782,104.761 270.011 M243.979 324.715 L 228.670 324.774 228.670 359.736 L 228.670 394.698 227.695 394.786 C 227.159 394.834,236.190 394.892,247.764 394.914 L 268.807 394.954 268.807 359.871 L 268.807 324.789 264.048 324.722 C 261.431 324.686,252.400 324.682,243.979 324.715 " stroke="none" fill="#45545c" fill-rule="evenodd"></path><path id="path4" d="M222.936 43.693 C 223.621 44.386,224.233 44.954,224.296 44.954 C 224.359 44.954,223.850 44.386,223.165 43.693 C 222.480 42.999,221.868 42.431,221.805 42.431 C 221.742 42.431,222.251 42.999,222.936 43.693 M227.523 48.280 C 228.208 48.974,228.820 49.541,228.883 49.541 C 228.946 49.541,228.437 48.974,227.752 48.280 C 227.067 47.586,226.455 47.018,226.392 47.018 C 226.329 47.018,226.838 47.586,227.523 48.280 M257.335 60.608 C 259.568 62.898,259.862 63.178,259.862 63.012 C 259.862 62.978,258.753 61.869,257.397 60.546 L 254.931 58.142 257.335 60.608 M155.218 89.611 C 155.502 89.666,155.966 89.666,156.250 89.611 C 156.534 89.557,156.302 89.512,155.734 89.512 C 155.166 89.512,154.934 89.557,155.218 89.611 M267.714 141.743 C 267.714 142.185,267.761 142.365,267.819 142.144 C 267.876 141.924,267.876 141.563,267.819 141.342 C 267.761 141.121,267.714 141.302,267.714 141.743 M267.714 155.505 C 267.714 155.946,267.761 156.127,267.819 155.906 C 267.876 155.685,267.876 155.324,267.819 155.103 C 267.761 154.882,267.714 155.063,267.714 155.505 M228.086 248.452 L 227.179 249.427 228.154 248.520 C 229.060 247.677,229.234 247.477,229.060 247.477 C 229.023 247.477,228.584 247.916,228.086 248.452 M222.018 254.472 C 221.461 255.040,221.057 255.505,221.120 255.505 C 221.183 255.505,221.691 255.040,222.248 254.472 C 222.805 253.905,223.209 253.440,223.146 253.440 C 223.083 253.440,222.575 253.905,222.018 254.472 M129.089 269.667 C 142.755 269.700,165.048 269.700,178.631 269.667 C 192.213 269.635,181.032 269.608,153.784 269.608 C 126.537 269.608,115.424 269.635,129.089 269.667 M262.151 321.961 L 260.206 323.968 262.213 322.023 C 263.317 320.954,264.220 320.051,264.220 320.017 C 264.220 319.850,263.957 320.097,262.151 321.961 M149.600 324.698 L 150.920 324.793 150.862 359.873 L 150.803 394.954 188.326 394.954 C 208.964 394.954,226.485 394.888,227.260 394.807 L 228.670 394.659 228.670 359.715 L 228.670 324.771 190.517 324.771 C 169.533 324.771,151.445 324.733,150.322 324.687 C 149.199 324.640,148.874 324.645,149.600 324.698 M82.798 359.862 L 82.798 394.954 95.413 394.954 L 108.028 394.954 108.028 359.862 L 108.028 324.771 95.413 324.771 L 82.798 324.771 82.798 359.862 " stroke="none" fill="#545c6b" fill-rule="evenodd"></path></g></svg>