<svg xmlns="http://www.w3.org/2000/svg" xmlns:xlink="http://www.w3.org/1999/xlink" viewBox="0 0 566.93 566.93" xmlns:v="https://vecta.io/nano"><g transform="matrix(.91 0 0 .91 25.521246 25.524738)"><radialGradient id="B"><stop offset="0.85" stop-color="black"/><stop offset="1" stop-color="transparent"/></radialGradient><circle cx="283.46" cy="283.46" r="256" fill="url(#B)"/><radialGradient id="A" cx="283.465" cy="283.465" r="242.64" gradientUnits="userSpaceOnUse"><stop offset="0" stop-color="#fff"/><stop offset="1" stop-color="gray"/><stop offset="1" stop-color="#545152"/></radialGradient><circle cx="283.46" cy="283.46" r="242.64" fill="url(#A)"/><path d="M411.62 236.85c-3.92 0-7.1 3.18-7.1 7.1 0 1.17.29 2.28.79 3.25l-83.05 37.27-37.48-96.25a7.09 7.09 0 0 0 5.83-6.98c0-3.92-3.18-7.1-7.1-7.1s-7.1 3.18-7.1 7.1c0 3.26 2.2 6 5.19 6.84l-38.68 94.85-81.91-34.76c.88-1.18 1.4-2.64 1.4-4.22 0-3.92-3.18-7.1-7.1-7.1s-7.1 3.18-7.1 7.1 3.18 7.1 7.1 7.1c.65 0 1.28-.1 1.88-.26l34.55 94.4h180.83l36.66-94.56c.75.27 1.55.42 2.39.42 3.92 0 7.1-3.18 7.1-7.1s-3.18-7.1-7.1-7.1zM193.68 352.36h179.66v20.42H193.68z"/></g></svg>