<?xml version="1.0" encoding="UTF-8"?>
<svg width="144px" height="144px" viewBox="0 0 144 144" version="1.1" xmlns="http://www.w3.org/2000/svg" xmlns:xlink="http://www.w3.org/1999/xlink">
    <title>seeds-30</title>
    <defs>
        <rect id="path-1" x="0" y="0" width="144" height="144"></rect>
        <filter x="-22.2%" y="-26.1%" width="144.4%" height="152.2%" filterUnits="objectBoundingBox" id="filter-3">
            <feGaussianBlur stdDeviation="2" in="SourceGraphic"></feGaussianBlur>
        </filter>
        <radialGradient cx="46.387808%" cy="46.387808%" fx="46.387808%" fy="46.387808%" r="46.1573049%" gradientTransform="translate(0.463878,0.463878),scale(0.851852,1.000000),rotate(90.000000),translate(-0.463878,-0.463878)" id="radialGradient-4">
            <stop stop-color="#FFFFFF" stop-opacity="0.1" offset="0%"></stop>
            <stop stop-color="#FFFFFF" stop-opacity="0.0858890035" offset="63.5889013%"></stop>
            <stop stop-color="#000000" stop-opacity="0.08" offset="100%"></stop>
        </radialGradient>
        <ellipse id="path-5" cx="13.5" cy="11.5" rx="13.5" ry="11.5"></ellipse>
        <filter x="-34.6%" y="-38.6%" width="169.2%" height="177.3%" filterUnits="objectBoundingBox" id="filter-6">
            <feGaussianBlur stdDeviation="2" in="SourceGraphic"></feGaussianBlur>
        </filter>
        <filter x="-22.2%" y="-26.1%" width="144.4%" height="152.2%" filterUnits="objectBoundingBox" id="filter-7">
            <feGaussianBlur stdDeviation="2" in="SourceGraphic"></feGaussianBlur>
        </filter>
        <ellipse id="path-8" cx="13.5" cy="11.5" rx="13.5" ry="11.5"></ellipse>
        <filter x="-34.6%" y="-38.6%" width="169.2%" height="177.3%" filterUnits="objectBoundingBox" id="filter-9">
            <feGaussianBlur stdDeviation="2" in="SourceGraphic"></feGaussianBlur>
        </filter>
        <filter x="-22.2%" y="-26.1%" width="144.4%" height="152.2%" filterUnits="objectBoundingBox" id="filter-10">
            <feGaussianBlur stdDeviation="2" in="SourceGraphic"></feGaussianBlur>
        </filter>
        <ellipse id="path-11" cx="13.5" cy="11.5" rx="13.5" ry="11.5"></ellipse>
        <filter x="-34.6%" y="-38.6%" width="169.2%" height="177.3%" filterUnits="objectBoundingBox" id="filter-12">
            <feGaussianBlur stdDeviation="2" in="SourceGraphic"></feGaussianBlur>
        </filter>
        <filter x="-22.2%" y="-26.1%" width="144.4%" height="152.2%" filterUnits="objectBoundingBox" id="filter-13">
            <feGaussianBlur stdDeviation="2" in="SourceGraphic"></feGaussianBlur>
        </filter>
        <ellipse id="path-14" cx="13.5" cy="11.5" rx="13.5" ry="11.5"></ellipse>
        <filter x="-34.6%" y="-38.6%" width="169.2%" height="177.3%" filterUnits="objectBoundingBox" id="filter-15">
            <feGaussianBlur stdDeviation="2" in="SourceGraphic"></feGaussianBlur>
        </filter>
        <filter x="-22.2%" y="-26.1%" width="144.4%" height="152.2%" filterUnits="objectBoundingBox" id="filter-16">
            <feGaussianBlur stdDeviation="2" in="SourceGraphic"></feGaussianBlur>
        </filter>
        <ellipse id="path-17" cx="13.5" cy="11.5" rx="13.5" ry="11.5"></ellipse>
        <filter x="-34.6%" y="-38.6%" width="169.2%" height="177.3%" filterUnits="objectBoundingBox" id="filter-18">
            <feGaussianBlur stdDeviation="2" in="SourceGraphic"></feGaussianBlur>
        </filter>
        <filter x="-22.2%" y="-26.1%" width="144.4%" height="152.2%" filterUnits="objectBoundingBox" id="filter-19">
            <feGaussianBlur stdDeviation="2" in="SourceGraphic"></feGaussianBlur>
        </filter>
        <ellipse id="path-20" cx="13.5" cy="11.5" rx="13.5" ry="11.5"></ellipse>
        <filter x="-34.6%" y="-38.6%" width="169.2%" height="177.3%" filterUnits="objectBoundingBox" id="filter-21">
            <feGaussianBlur stdDeviation="2" in="SourceGraphic"></feGaussianBlur>
        </filter>
        <filter x="-22.2%" y="-26.1%" width="144.4%" height="152.2%" filterUnits="objectBoundingBox" id="filter-22">
            <feGaussianBlur stdDeviation="2" in="SourceGraphic"></feGaussianBlur>
        </filter>
        <ellipse id="path-23" cx="13.5" cy="11.5" rx="13.5" ry="11.5"></ellipse>
        <filter x="-34.6%" y="-38.6%" width="169.2%" height="177.3%" filterUnits="objectBoundingBox" id="filter-24">
            <feGaussianBlur stdDeviation="2" in="SourceGraphic"></feGaussianBlur>
        </filter>
        <filter x="-22.2%" y="-26.1%" width="144.4%" height="152.2%" filterUnits="objectBoundingBox" id="filter-25">
            <feGaussianBlur stdDeviation="2" in="SourceGraphic"></feGaussianBlur>
        </filter>
        <ellipse id="path-26" cx="13.5" cy="11.5" rx="13.5" ry="11.5"></ellipse>
        <filter x="-34.6%" y="-38.6%" width="169.2%" height="177.3%" filterUnits="objectBoundingBox" id="filter-27">
            <feGaussianBlur stdDeviation="2" in="SourceGraphic"></feGaussianBlur>
        </filter>
        <filter x="-22.2%" y="-26.1%" width="144.4%" height="152.2%" filterUnits="objectBoundingBox" id="filter-28">
            <feGaussianBlur stdDeviation="2" in="SourceGraphic"></feGaussianBlur>
        </filter>
        <ellipse id="path-29" cx="13.5" cy="11.5" rx="13.5" ry="11.5"></ellipse>
        <filter x="-34.6%" y="-38.6%" width="169.2%" height="177.3%" filterUnits="objectBoundingBox" id="filter-30">
            <feGaussianBlur stdDeviation="2" in="SourceGraphic"></feGaussianBlur>
        </filter>
    </defs>
    <g id="Page-1" stroke="none" stroke-width="1" fill="none" fill-rule="evenodd">
        <g id="8+-seeds" transform="translate(-772.000000, -620.000000)">
            <g id="seeds-30" transform="translate(772.000000, 620.000000)">
                <mask id="mask-2" fill="white">
                    <use xlink:href="#path-1"></use>
                </mask>
                <use id="Mask" fill-opacity="0.01" fill="#FFFFFF" xlink:href="#path-1"></use>
                <g id="Seeds" mask="url(#mask-2)">
                    <g transform="translate(21.000000, 26.000000)" id="Group">
                        <g transform="translate(28.000000, 21.000000)">
                            <ellipse id="shadow" fill="#000000" opacity="0.4" style="mix-blend-mode: multiply;" filter="url(#filter-3)" cx="18.5" cy="19.0828118" rx="13.5" ry="11.5"></ellipse>
                            <g id="colour---red" transform="translate(6.000000, 6.582812)">
                                <use fill="#D02424" xlink:href="#path-5"></use>
                                <use fill="url(#radialGradient-4)" xlink:href="#path-5"></use>
                            </g>
                            <ellipse id="gradient" fill="url(#radialGradient-4)" cx="19.5" cy="18.0828118" rx="13.5" ry="11.5"></ellipse>
                            <path d="M12.5948736,25.0350541 C11.3899054,18.6960045 12.8422208,14.1754906 16.9518199,11.4735124 C21.0614189,8.7715343 25.2518379,8.85187883 29.5230768,11.714546 C25.6309065,10.7024657 21.7895756,11.6688261 17.999084,14.6136272 C14.2085923,17.5584284 12.4071889,21.0322373 12.5948736,25.0350541 Z" id="glow" fill="#FFFFFF" filter="url(#filter-6)" transform="translate(20.854074, 17.270301) rotate(-300.000000) translate(-20.854074, -17.270301) "></path>
                        </g>
                        <g transform="translate(32.000000, 44.000000)">
                            <ellipse id="shadow" fill="#000000" opacity="0.4" style="mix-blend-mode: multiply;" filter="url(#filter-7)" cx="18.5" cy="19.0828118" rx="13.5" ry="11.5"></ellipse>
                            <g id="colour---red" transform="translate(6.000000, 6.582812)">
                                <use fill="#D02424" xlink:href="#path-8"></use>
                                <use fill="url(#radialGradient-4)" xlink:href="#path-8"></use>
                            </g>
                            <ellipse id="gradient" fill="url(#radialGradient-4)" cx="19.5" cy="18.0828118" rx="13.5" ry="11.5"></ellipse>
                            <path d="M12.5948736,25.0350541 C11.3899054,18.6960045 12.8422208,14.1754906 16.9518199,11.4735124 C21.0614189,8.7715343 25.2518379,8.85187883 29.5230768,11.714546 C25.6309065,10.7024657 21.7895756,11.6688261 17.999084,14.6136272 C14.2085923,17.5584284 12.4071889,21.0322373 12.5948736,25.0350541 Z" id="glow" fill="#FFFFFF" filter="url(#filter-9)" transform="translate(20.854074, 17.270301) rotate(-300.000000) translate(-20.854074, -17.270301) "></path>
                        </g>
                        <g transform="translate(0.000000, 31.000000)">
                            <ellipse id="shadow" fill="#000000" opacity="0.4" style="mix-blend-mode: multiply;" filter="url(#filter-10)" cx="18.5" cy="19.0828118" rx="13.5" ry="11.5"></ellipse>
                            <g id="colour---red" transform="translate(6.000000, 6.582812)">
                                <use fill="#D02424" xlink:href="#path-11"></use>
                                <use fill="url(#radialGradient-4)" xlink:href="#path-11"></use>
                            </g>
                            <ellipse id="gradient" fill="url(#radialGradient-4)" cx="19.5" cy="18.0828118" rx="13.5" ry="11.5"></ellipse>
                            <path d="M12.5948736,25.0350541 C11.3899054,18.6960045 12.8422208,14.1754906 16.9518199,11.4735124 C21.0614189,8.7715343 25.2518379,8.85187883 29.5230768,11.714546 C25.6309065,10.7024657 21.7895756,11.6688261 17.999084,14.6136272 C14.2085923,17.5584284 12.4071889,21.0322373 12.5948736,25.0350541 Z" id="glow" fill="#FFFFFF" filter="url(#filter-12)" transform="translate(20.854074, 17.270301) rotate(-300.000000) translate(-20.854074, -17.270301) "></path>
                        </g>
                        <g transform="translate(14.000000, 52.000000)">
                            <ellipse id="shadow" fill="#000000" opacity="0.4" style="mix-blend-mode: multiply;" filter="url(#filter-13)" cx="18.5" cy="19.0828118" rx="13.5" ry="11.5"></ellipse>
                            <g id="colour---red" transform="translate(6.000000, 6.582812)">
                                <use fill="#D02424" xlink:href="#path-14"></use>
                                <use fill="url(#radialGradient-4)" xlink:href="#path-14"></use>
                            </g>
                            <ellipse id="gradient" fill="url(#radialGradient-4)" cx="19.5" cy="18.0828118" rx="13.5" ry="11.5"></ellipse>
                            <path d="M12.5948736,25.0350541 C11.3899054,18.6960045 12.8422208,14.1754906 16.9518199,11.4735124 C21.0614189,8.7715343 25.2518379,8.85187883 29.5230768,11.714546 C25.6309065,10.7024657 21.7895756,11.6688261 17.999084,14.6136272 C14.2085923,17.5584284 12.4071889,21.0322373 12.5948736,25.0350541 Z" id="glow" fill="#FFFFFF" filter="url(#filter-15)" transform="translate(20.854074, 17.270301) rotate(-300.000000) translate(-20.854074, -17.270301) "></path>
                        </g>
                        <g transform="translate(42.000000, 56.000000)">
                            <ellipse id="shadow" fill="#000000" opacity="0.4" style="mix-blend-mode: multiply;" filter="url(#filter-16)" cx="18.5" cy="19.0828118" rx="13.5" ry="11.5"></ellipse>
                            <g id="colour---red" transform="translate(6.000000, 6.582812)">
                                <use fill="#D02424" xlink:href="#path-17"></use>
                                <use fill="url(#radialGradient-4)" xlink:href="#path-17"></use>
                            </g>
                            <ellipse id="gradient" fill="url(#radialGradient-4)" cx="19.5" cy="18.0828118" rx="13.5" ry="11.5"></ellipse>
                            <path d="M12.5948736,25.0350541 C11.3899054,18.6960045 12.8422208,14.1754906 16.9518199,11.4735124 C21.0614189,8.7715343 25.2518379,8.85187883 29.5230768,11.714546 C25.6309065,10.7024657 21.7895756,11.6688261 17.999084,14.6136272 C14.2085923,17.5584284 12.4071889,21.0322373 12.5948736,25.0350541 Z" id="glow" fill="#FFFFFF" filter="url(#filter-18)" transform="translate(20.854074, 17.270301) rotate(-300.000000) translate(-20.854074, -17.270301) "></path>
                        </g>
                        <g transform="translate(61.000000, 38.000000)">
                            <ellipse id="shadow" fill="#000000" opacity="0.4" style="mix-blend-mode: multiply;" filter="url(#filter-19)" cx="18.5" cy="19.0828118" rx="13.5" ry="11.5"></ellipse>
                            <g id="colour---red" transform="translate(6.000000, 6.582812)">
                                <use fill="#D02424" xlink:href="#path-20"></use>
                                <use fill="url(#radialGradient-4)" xlink:href="#path-20"></use>
                            </g>
                            <ellipse id="gradient" fill="url(#radialGradient-4)" cx="19.5" cy="18.0828118" rx="13.5" ry="11.5"></ellipse>
                            <path d="M12.5948736,25.0350541 C11.3899054,18.6960045 12.8422208,14.1754906 16.9518199,11.4735124 C21.0614189,8.7715343 25.2518379,8.85187883 29.5230768,11.714546 C25.6309065,10.7024657 21.7895756,11.6688261 17.999084,14.6136272 C14.2085923,17.5584284 12.4071889,21.0322373 12.5948736,25.0350541 Z" id="glow" fill="#FFFFFF" filter="url(#filter-21)" transform="translate(20.854074, 17.270301) rotate(-300.000000) translate(-20.854074, -17.270301) "></path>
                        </g>
                        <g transform="translate(57.000000, 14.000000)">
                            <ellipse id="shadow" fill="#000000" opacity="0.4" style="mix-blend-mode: multiply;" filter="url(#filter-22)" cx="18.5" cy="19.0828118" rx="13.5" ry="11.5"></ellipse>
                            <g id="colour---red" transform="translate(6.000000, 6.582812)">
                                <use fill="#D02424" xlink:href="#path-23"></use>
                                <use fill="url(#radialGradient-4)" xlink:href="#path-23"></use>
                            </g>
                            <ellipse id="gradient" fill="url(#radialGradient-4)" cx="19.5" cy="18.0828118" rx="13.5" ry="11.5"></ellipse>
                            <path d="M12.5948736,25.0350541 C11.3899054,18.6960045 12.8422208,14.1754906 16.9518199,11.4735124 C21.0614189,8.7715343 25.2518379,8.85187883 29.5230768,11.714546 C25.6309065,10.7024657 21.7895756,11.6688261 17.999084,14.6136272 C14.2085923,17.5584284 12.4071889,21.0322373 12.5948736,25.0350541 Z" id="glow" fill="#FFFFFF" filter="url(#filter-24)" transform="translate(20.854074, 17.270301) rotate(-300.000000) translate(-20.854074, -17.270301) "></path>
                        </g>
                        <g transform="translate(9.000000, 8.000000)">
                            <ellipse id="shadow" fill="#000000" opacity="0.4" style="mix-blend-mode: multiply;" filter="url(#filter-25)" cx="18.5" cy="19.0828118" rx="13.5" ry="11.5"></ellipse>
                            <g id="colour---red" transform="translate(6.000000, 6.582812)">
                                <use fill="#D02424" xlink:href="#path-26"></use>
                                <use fill="url(#radialGradient-4)" xlink:href="#path-26"></use>
                            </g>
                            <ellipse id="gradient" fill="url(#radialGradient-4)" cx="19.5" cy="18.0828118" rx="13.5" ry="11.5"></ellipse>
                            <path d="M12.5948736,25.0350541 C11.3899054,18.6960045 12.8422208,14.1754906 16.9518199,11.4735124 C21.0614189,8.7715343 25.2518379,8.85187883 29.5230768,11.714546 C25.6309065,10.7024657 21.7895756,11.6688261 17.999084,14.6136272 C14.2085923,17.5584284 12.4071889,21.0322373 12.5948736,25.0350541 Z" id="glow" fill="#FFFFFF" filter="url(#filter-27)" transform="translate(20.854074, 17.270301) rotate(-300.000000) translate(-20.854074, -17.270301) "></path>
                        </g>
                        <g transform="translate(36.000000, 0.000000)">
                            <ellipse id="shadow" fill="#000000" opacity="0.4" style="mix-blend-mode: multiply;" filter="url(#filter-28)" cx="18.5" cy="19.0828118" rx="13.5" ry="11.5"></ellipse>
                            <g id="colour---red" transform="translate(6.000000, 6.582812)">
                                <use fill="#D02424" xlink:href="#path-29"></use>
                                <use fill="url(#radialGradient-4)" xlink:href="#path-29"></use>
                            </g>
                            <ellipse id="gradient" fill="url(#radialGradient-4)" cx="19.5" cy="18.0828118" rx="13.5" ry="11.5"></ellipse>
                            <path d="M12.5948736,25.0350541 C11.3899054,18.6960045 12.8422208,14.1754906 16.9518199,11.4735124 C21.0614189,8.7715343 25.2518379,8.85187883 29.5230768,11.714546 C25.6309065,10.7024657 21.7895756,11.6688261 17.999084,14.6136272 C14.2085923,17.5584284 12.4071889,21.0322373 12.5948736,25.0350541 Z" id="glow" fill="#FFFFFF" filter="url(#filter-30)" transform="translate(20.854074, 17.270301) rotate(-300.000000) translate(-20.854074, -17.270301) "></path>
                        </g>
                    </g>
                </g>
                <g id="Group" mask="url(#mask-2)">
                    <g transform="translate(93.000000, 26.000000)">
                        <circle id="Oval" fill="#000000" cx="19" cy="19" r="19"></circle>
                        <path d="M13.5075,25.221 C14.6635,25.221 14.6635,25.221 15.6325,24.68125 C16.6015,24.1415 16.6015,24.1415 17.188,23.21925 C17.7745,22.297 17.7745,22.297 17.7745,21.141 C17.7745,20.1975 17.7745,20.1975 17.39625,19.36025 C17.018,18.523 17.018,18.523 16.29125,17.94925 C15.8370312,17.5906563 15.8370312,17.5906563 15.2549805,17.3930977 L15.068,17.337 L17.5535,14.936 L17.5535,12.76 L9.9035,12.76 L9.9035,14.936 L14.817,14.936 L11.5185,17.673 L12.5555,19.492 C12.7765,19.3645 12.7765,19.3645 13.0145,19.29225 C13.2525,19.22 13.2525,19.22 13.5075,19.22 C14.349,19.22 14.349,19.22 14.88875,19.78525 C15.4285,20.3505 15.4285,20.3505 15.4285,21.141 C15.4285,21.668 15.4285,21.668 15.16925,22.1015 C14.91,22.535 14.91,22.535 14.47225,22.79 C14.0345,23.045 14.0345,23.045 13.5075,23.045 C12.8955,23.045 12.8955,23.045 12.37275,22.67525 C11.85,22.3055 11.85,22.3055 11.6715,21.634 L11.6715,21.634 L9.4275,22.229 C9.691,23.1385 9.691,23.1385 10.30725,23.81 C10.9235,24.4815 10.9235,24.4815 11.7565,24.85125 C12.5895,25.221 12.5895,25.221 13.5075,25.221 Z M24.5235,25.255 C25.8835,25.255 25.8835,25.255 26.9035,24.6855 C27.9235,24.116 27.9235,24.116 28.493,23.096 C29.0625,22.076 29.0625,22.076 29.0625,20.716 L29.0625,20.716 L29.0625,17.044 C29.0625,15.684 29.0625,15.684 28.493,14.664 C27.9235,13.644 27.9235,13.644 26.9035,13.0745 C25.8835,12.505 25.8835,12.505 24.5235,12.505 C23.1635,12.505 23.1635,12.505 22.1435,13.0745 C21.1235,13.644 21.1235,13.644 20.554,14.664 C19.9845,15.684 19.9845,15.684 19.9845,17.044 L19.9845,17.044 L19.9845,20.716 C19.9845,22.076 19.9845,22.076 20.554,23.096 C21.1235,24.116 21.1235,24.116 22.1435,24.6855 C23.1635,25.255 23.1635,25.255 24.5235,25.255 Z M24.5235,23.062 C23.9115,23.062 23.9115,23.062 23.4185,22.773 C22.9255,22.484 22.9255,22.484 22.6365,21.991 C22.3475,21.498 22.3475,21.498 22.3475,20.886 L22.3475,20.886 L22.3475,16.857 C22.3475,16.245 22.3475,16.245 22.6365,15.752 C22.9255,15.259 22.9255,15.259 23.4185,14.97 C23.9115,14.681 23.9115,14.681 24.5235,14.681 C25.1355,14.681 25.1355,14.681 25.6285,14.97 C26.1215,15.259 26.1215,15.259 26.4105,15.752 C26.6995,16.245 26.6995,16.245 26.6995,16.857 L26.6995,16.857 L26.6995,20.886 C26.6995,21.498 26.6995,21.498 26.4105,21.991 C26.1215,22.484 26.1215,22.484 25.6285,22.773 C25.1355,23.062 25.1355,23.062 24.5235,23.062 Z" id="Combined-Shape" fill="#FFFFFF"></path>
                    </g>
                </g>
            </g>
        </g>
    </g>
</svg>