<svg width="96" height="158" viewBox="0 0 96 158" fill="none" xmlns="http://www.w3.org/2000/svg">
<g clip-path="url(#clip0_232_40303)">
<circle cx="34" cy="35.5" r="9.5" fill="black" fill-opacity="0.2" stroke="black" stroke-opacity="0.41" stroke-width="0.5"/>
<g filter="url(#filter0_f_232_40303)">
<circle cx="35" cy="33.5" r="1.5" fill="white" fill-opacity="0.6"/>
</g>
<circle cx="34" cy="59.5" r="9.5" fill="black" fill-opacity="0.2" stroke="black" stroke-opacity="0.41" stroke-width="0.5"/>
<g filter="url(#filter1_f_232_40303)">
<circle cx="35" cy="57.5" r="1.5" fill="white" fill-opacity="0.6"/>
</g>
<circle cx="34" cy="83.5" r="9.5" fill="black" fill-opacity="0.2" stroke="black" stroke-opacity="0.41" stroke-width="0.5"/>
<g filter="url(#filter2_f_232_40303)">
<circle cx="35" cy="81.5" r="1.5" fill="white" fill-opacity="0.6"/>
</g>
<circle cx="34" cy="107.5" r="9.5" fill="black" fill-opacity="0.2" stroke="black" stroke-opacity="0.41" stroke-width="0.5"/>
<g filter="url(#filter3_f_232_40303)">
<circle cx="35" cy="105.5" r="1.5" fill="white" fill-opacity="0.6"/>
</g>
<g style="mix-blend-mode:multiply" opacity="0.7" filter="url(#filter4_f_232_40303)">
<circle cx="32.7333" cy="132.767" r="9.5" fill="black"/>
</g>
<circle cx="34" cy="131.5" r="9.5" fill="#011417"/>
<circle cx="34" cy="131.5" r="9.5" fill="url(#paint0_radial_232_40303)"/>
<g filter="url(#filter5_f_232_40303)">
<path fill-rule="evenodd" clip-rule="evenodd" d="M27.6667 127.829C27.6667 127.829 32.3096 123.292 36.4846 125.67C40.6597 128.048 40.3333 133.572 40.3333 133.572C40.3333 133.572 39.3172 129.397 35.094 127.448C30.8707 125.499 27.6667 127.829 27.6667 127.829Z" fill="white"/>
</g>
<g opacity="0.5" filter="url(#filter6_f_232_40303)">
<path fill-rule="evenodd" clip-rule="evenodd" d="M37.1667 139.1C37.1667 139.1 30.9317 139.974 28.5904 137.434C26.2491 134.895 26.4 130.233 26.4 130.233C26.4 130.233 27.463 134.263 29.9308 136.52C32.3985 138.776 37.1667 139.1 37.1667 139.1Z" fill="white"/>
</g>
<g filter="url(#filter7_f_232_40303)">
<circle cx="33" cy="127.5" r="1.5" fill="#D9D9D9"/>
</g>
<circle cx="62" cy="35.5" r="9.5" fill="black" fill-opacity="0.2" stroke="black" stroke-opacity="0.41" stroke-width="0.5"/>
<g filter="url(#filter8_f_232_40303)">
<circle cx="63" cy="33.5" r="1.5" fill="white" fill-opacity="0.6"/>
</g>
<circle cx="62" cy="59.5" r="9.5" fill="black" fill-opacity="0.2" stroke="black" stroke-opacity="0.41" stroke-width="0.5"/>
<g filter="url(#filter9_f_232_40303)">
<circle cx="63" cy="57.5" r="1.5" fill="white" fill-opacity="0.6"/>
</g>
<circle cx="62" cy="83.5" r="9.5" fill="black" fill-opacity="0.2" stroke="black" stroke-opacity="0.41" stroke-width="0.5"/>
<g filter="url(#filter10_f_232_40303)">
<circle cx="63" cy="81.5" r="1.5" fill="white" fill-opacity="0.6"/>
</g>
<g style="mix-blend-mode:multiply" opacity="0.7" filter="url(#filter11_f_232_40303)">
<circle cx="60.7333" cy="108.767" r="9.5" fill="black"/>
</g>
<circle cx="62" cy="107.5" r="9.5" fill="#011417"/>
<circle cx="62" cy="107.5" r="9.5" fill="url(#paint1_radial_232_40303)"/>
<g filter="url(#filter12_f_232_40303)">
<path fill-rule="evenodd" clip-rule="evenodd" d="M55.6667 103.829C55.6667 103.829 60.3096 99.2922 64.4846 101.67C68.6597 104.048 68.3333 109.572 68.3333 109.572C68.3333 109.572 67.3172 105.397 63.094 103.448C58.8707 101.499 55.6667 103.829 55.6667 103.829Z" fill="white"/>
</g>
<g opacity="0.5" filter="url(#filter13_f_232_40303)">
<path fill-rule="evenodd" clip-rule="evenodd" d="M65.1667 115.1C65.1667 115.1 58.9317 115.974 56.5904 113.434C54.2491 110.895 54.4 106.233 54.4 106.233C54.4 106.233 55.463 110.263 57.9308 112.52C60.3985 114.776 65.1667 115.1 65.1667 115.1Z" fill="white"/>
</g>
<g filter="url(#filter14_f_232_40303)">
<circle cx="61" cy="103.5" r="1.5" fill="#D9D9D9"/>
</g>
<g style="mix-blend-mode:multiply" opacity="0.7" filter="url(#filter15_f_232_40303)">
<circle cx="60.7333" cy="132.767" r="9.5" fill="black"/>
</g>
<circle cx="62" cy="131.5" r="9.5" fill="#011417"/>
<circle cx="62" cy="131.5" r="9.5" fill="url(#paint2_radial_232_40303)"/>
<g filter="url(#filter16_f_232_40303)">
<path fill-rule="evenodd" clip-rule="evenodd" d="M55.6667 127.829C55.6667 127.829 60.3096 123.292 64.4846 125.67C68.6597 128.048 68.3333 133.572 68.3333 133.572C68.3333 133.572 67.3172 129.397 63.094 127.448C58.8707 125.499 55.6667 127.829 55.6667 127.829Z" fill="white"/>
</g>
<g opacity="0.5" filter="url(#filter17_f_232_40303)">
<path fill-rule="evenodd" clip-rule="evenodd" d="M65.1667 139.1C65.1667 139.1 58.9317 139.974 56.5904 137.434C54.2491 134.895 54.4 130.233 54.4 130.233C54.4 130.233 55.463 134.263 57.9308 136.52C60.3985 138.776 65.1667 139.1 65.1667 139.1Z" fill="white"/>
</g>
<g filter="url(#filter18_f_232_40303)">
<circle cx="61" cy="127.5" r="1.5" fill="#D9D9D9"/>
</g>
<g style="mix-blend-mode:multiply" opacity="0.7" filter="url(#filter19_f_232_40303)">
<circle cx="32.7333" cy="27.7667" r="9.5" fill="black"/>
</g>
<circle cx="34" cy="26.5" r="9.5" fill="#011417"/>
<circle cx="34" cy="26.5" r="9.5" fill="url(#paint3_radial_232_40303)"/>
<g filter="url(#filter20_f_232_40303)">
<path fill-rule="evenodd" clip-rule="evenodd" d="M27.6667 22.8289C27.6667 22.8289 32.3096 18.2922 36.4846 20.6699C40.6597 23.0475 40.3333 28.5719 40.3333 28.5719C40.3333 28.5719 39.3172 24.3974 35.094 22.4481C30.8707 20.4987 27.6667 22.8289 27.6667 22.8289Z" fill="white"/>
</g>
<g opacity="0.5" filter="url(#filter21_f_232_40303)">
<path fill-rule="evenodd" clip-rule="evenodd" d="M37.1667 34.1C37.1667 34.1 30.9317 34.9735 28.5904 32.4343C26.2491 29.8951 26.4 25.2333 26.4 25.2333C26.4 25.2333 27.463 29.2632 29.9308 31.5196C32.3985 33.7759 37.1667 34.1 37.1667 34.1Z" fill="white"/>
</g>
<g filter="url(#filter22_f_232_40303)">
<circle cx="33" cy="22.5" r="1.5" fill="#D9D9D9"/>
</g>
<g style="mix-blend-mode:multiply" opacity="0.7" filter="url(#filter23_f_232_40303)">
<circle cx="32.7333" cy="51.7667" r="9.5" fill="black"/>
</g>
<circle cx="34" cy="50.5" r="9.5" fill="#011417"/>
<circle cx="34" cy="50.5" r="9.5" fill="url(#paint4_radial_232_40303)"/>
<g filter="url(#filter24_f_232_40303)">
<path fill-rule="evenodd" clip-rule="evenodd" d="M27.6667 46.8289C27.6667 46.8289 32.3096 42.2922 36.4846 44.6699C40.6597 47.0475 40.3333 52.5719 40.3333 52.5719C40.3333 52.5719 39.3172 48.3974 35.094 46.4481C30.8707 44.4987 27.6667 46.8289 27.6667 46.8289Z" fill="white"/>
</g>
<g opacity="0.5" filter="url(#filter25_f_232_40303)">
<path fill-rule="evenodd" clip-rule="evenodd" d="M37.1667 58.1C37.1667 58.1 30.9317 58.9735 28.5904 56.4343C26.2491 53.8951 26.4 49.2333 26.4 49.2333C26.4 49.2333 27.463 53.2632 29.9308 55.5196C32.3985 57.7759 37.1667 58.1 37.1667 58.1Z" fill="white"/>
</g>
<g filter="url(#filter26_f_232_40303)">
<circle cx="33" cy="46.5" r="1.5" fill="#D9D9D9"/>
</g>
<g style="mix-blend-mode:multiply" opacity="0.7" filter="url(#filter27_f_232_40303)">
<circle cx="32.7333" cy="75.7667" r="9.5" fill="black"/>
</g>
<circle cx="34" cy="74.5" r="9.5" fill="#011417"/>
<circle cx="34" cy="74.5" r="9.5" fill="url(#paint5_radial_232_40303)"/>
<g filter="url(#filter28_f_232_40303)">
<path fill-rule="evenodd" clip-rule="evenodd" d="M27.6667 70.8289C27.6667 70.8289 32.3096 66.2922 36.4846 68.6699C40.6597 71.0475 40.3333 76.5719 40.3333 76.5719C40.3333 76.5719 39.3172 72.3974 35.094 70.4481C30.8707 68.4987 27.6667 70.8289 27.6667 70.8289Z" fill="white"/>
</g>
<g opacity="0.5" filter="url(#filter29_f_232_40303)">
<path fill-rule="evenodd" clip-rule="evenodd" d="M37.1667 82.1C37.1667 82.1 30.9317 82.9735 28.5904 80.4343C26.2491 77.8951 26.4 73.2333 26.4 73.2333C26.4 73.2333 27.463 77.2632 29.9308 79.5196C32.3985 81.7759 37.1667 82.1 37.1667 82.1Z" fill="white"/>
</g>
<g filter="url(#filter30_f_232_40303)">
<circle cx="33" cy="70.5" r="1.5" fill="#D9D9D9"/>
</g>
<g style="mix-blend-mode:multiply" opacity="0.7" filter="url(#filter31_f_232_40303)">
<circle cx="32.7333" cy="99.7667" r="9.5" fill="black"/>
</g>
<circle cx="34" cy="98.5" r="9.5" fill="#011417"/>
<circle cx="34" cy="98.5" r="9.5" fill="url(#paint6_radial_232_40303)"/>
<g filter="url(#filter32_f_232_40303)">
<path fill-rule="evenodd" clip-rule="evenodd" d="M27.6667 94.8289C27.6667 94.8289 32.3096 90.2922 36.4846 92.6699C40.6597 95.0475 40.3333 100.572 40.3333 100.572C40.3333 100.572 39.3172 96.3974 35.094 94.4481C30.8707 92.4987 27.6667 94.8289 27.6667 94.8289Z" fill="white"/>
</g>
<g opacity="0.5" filter="url(#filter33_f_232_40303)">
<path fill-rule="evenodd" clip-rule="evenodd" d="M37.1667 106.1C37.1667 106.1 30.9317 106.974 28.5904 104.434C26.2491 101.895 26.4 97.2333 26.4 97.2333C26.4 97.2333 27.463 101.263 29.9308 103.52C32.3985 105.776 37.1667 106.1 37.1667 106.1Z" fill="white"/>
</g>
<g filter="url(#filter34_f_232_40303)">
<circle cx="33" cy="94.5" r="1.5" fill="#D9D9D9"/>
</g>
<g style="mix-blend-mode:multiply" opacity="0.7" filter="url(#filter35_f_232_40303)">
<circle cx="60.7333" cy="27.7667" r="9.5" fill="black"/>
</g>
<circle cx="62" cy="26.5" r="9.5" fill="#011417"/>
<circle cx="62" cy="26.5" r="9.5" fill="url(#paint7_radial_232_40303)"/>
<g filter="url(#filter36_f_232_40303)">
<path fill-rule="evenodd" clip-rule="evenodd" d="M55.6667 22.8289C55.6667 22.8289 60.3096 18.2922 64.4846 20.6699C68.6597 23.0475 68.3333 28.5719 68.3333 28.5719C68.3333 28.5719 67.3172 24.3974 63.094 22.4481C58.8707 20.4987 55.6667 22.8289 55.6667 22.8289Z" fill="white"/>
</g>
<g opacity="0.5" filter="url(#filter37_f_232_40303)">
<path fill-rule="evenodd" clip-rule="evenodd" d="M65.1667 34.1C65.1667 34.1 58.9317 34.9735 56.5904 32.4343C54.2491 29.8951 54.4 25.2333 54.4 25.2333C54.4 25.2333 55.463 29.2632 57.9308 31.5196C60.3985 33.7759 65.1667 34.1 65.1667 34.1Z" fill="white"/>
</g>
<g filter="url(#filter38_f_232_40303)">
<circle cx="61" cy="22.5" r="1.5" fill="#D9D9D9"/>
</g>
<g style="mix-blend-mode:multiply" opacity="0.7" filter="url(#filter39_f_232_40303)">
<circle cx="60.7333" cy="51.7667" r="9.5" fill="black"/>
</g>
<circle cx="62" cy="50.5" r="9.5" fill="#011417"/>
<circle cx="62" cy="50.5" r="9.5" fill="url(#paint8_radial_232_40303)"/>
<g filter="url(#filter40_f_232_40303)">
<path fill-rule="evenodd" clip-rule="evenodd" d="M55.6667 46.8289C55.6667 46.8289 60.3096 42.2922 64.4846 44.6699C68.6597 47.0475 68.3333 52.5719 68.3333 52.5719C68.3333 52.5719 67.3172 48.3974 63.094 46.4481C58.8707 44.4987 55.6667 46.8289 55.6667 46.8289Z" fill="white"/>
</g>
<g opacity="0.5" filter="url(#filter41_f_232_40303)">
<path fill-rule="evenodd" clip-rule="evenodd" d="M65.1667 58.1C65.1667 58.1 58.9317 58.9735 56.5904 56.4343C54.2491 53.8951 54.4 49.2333 54.4 49.2333C54.4 49.2333 55.463 53.2632 57.9308 55.5196C60.3985 57.7759 65.1667 58.1 65.1667 58.1Z" fill="white"/>
</g>
<g filter="url(#filter42_f_232_40303)">
<circle cx="61" cy="46.5" r="1.5" fill="#D9D9D9"/>
</g>
<g style="mix-blend-mode:multiply" opacity="0.7" filter="url(#filter43_f_232_40303)">
<circle cx="60.7333" cy="75.7667" r="9.5" fill="black"/>
</g>
<circle cx="62" cy="74.5" r="9.5" fill="#011417"/>
<circle cx="62" cy="74.5" r="9.5" fill="url(#paint9_radial_232_40303)"/>
<g filter="url(#filter44_f_232_40303)">
<path fill-rule="evenodd" clip-rule="evenodd" d="M55.6667 70.8289C55.6667 70.8289 60.3096 66.2922 64.4846 68.6699C68.6597 71.0475 68.3333 76.5719 68.3333 76.5719C68.3333 76.5719 67.3172 72.3974 63.094 70.4481C58.8707 68.4987 55.6667 70.8289 55.6667 70.8289Z" fill="white"/>
</g>
<g opacity="0.5" filter="url(#filter45_f_232_40303)">
<path fill-rule="evenodd" clip-rule="evenodd" d="M65.1667 82.1C65.1667 82.1 58.9317 82.9735 56.5904 80.4343C54.2491 77.8951 54.4 73.2333 54.4 73.2333C54.4 73.2333 55.463 77.2632 57.9308 79.5196C60.3985 81.7759 65.1667 82.1 65.1667 82.1Z" fill="white"/>
</g>
<g filter="url(#filter46_f_232_40303)">
<circle cx="61" cy="70.5" r="1.5" fill="#D9D9D9"/>
</g>
</g>
<defs>
<filter id="filter0_f_232_40303" x="30.1" y="28.6" width="9.8" height="9.8" filterUnits="userSpaceOnUse" color-interpolation-filters="sRGB">
<feFlood flood-opacity="0" result="BackgroundImageFix"/>
<feBlend mode="normal" in="SourceGraphic" in2="BackgroundImageFix" result="shape"/>
<feGaussianBlur stdDeviation="1.7" result="effect1_foregroundBlur_232_40303"/>
</filter>
<filter id="filter1_f_232_40303" x="30.1" y="52.6" width="9.8" height="9.8" filterUnits="userSpaceOnUse" color-interpolation-filters="sRGB">
<feFlood flood-opacity="0" result="BackgroundImageFix"/>
<feBlend mode="normal" in="SourceGraphic" in2="BackgroundImageFix" result="shape"/>
<feGaussianBlur stdDeviation="1.7" result="effect1_foregroundBlur_232_40303"/>
</filter>
<filter id="filter2_f_232_40303" x="30.1" y="76.6" width="9.8" height="9.8" filterUnits="userSpaceOnUse" color-interpolation-filters="sRGB">
<feFlood flood-opacity="0" result="BackgroundImageFix"/>
<feBlend mode="normal" in="SourceGraphic" in2="BackgroundImageFix" result="shape"/>
<feGaussianBlur stdDeviation="1.7" result="effect1_foregroundBlur_232_40303"/>
</filter>
<filter id="filter3_f_232_40303" x="30.1" y="100.6" width="9.8" height="9.8" filterUnits="userSpaceOnUse" color-interpolation-filters="sRGB">
<feFlood flood-opacity="0" result="BackgroundImageFix"/>
<feBlend mode="normal" in="SourceGraphic" in2="BackgroundImageFix" result="shape"/>
<feGaussianBlur stdDeviation="1.7" result="effect1_foregroundBlur_232_40303"/>
</filter>
<filter id="filter4_f_232_40303" x="17.7967" y="117.83" width="29.8731" height="29.8731" filterUnits="userSpaceOnUse" color-interpolation-filters="sRGB">
<feFlood flood-opacity="0" result="BackgroundImageFix"/>
<feBlend mode="normal" in="SourceGraphic" in2="BackgroundImageFix" result="shape"/>
<feGaussianBlur stdDeviation="2.71828" result="effect1_foregroundBlur_232_40303"/>
</filter>
<filter id="filter5_f_232_40303" x="23.2266" y="120.541" width="21.5527" height="17.4713" filterUnits="userSpaceOnUse" color-interpolation-filters="sRGB">
<feFlood flood-opacity="0" result="BackgroundImageFix"/>
<feBlend mode="normal" in="SourceGraphic" in2="BackgroundImageFix" result="shape"/>
<feGaussianBlur stdDeviation="2.22" result="effect1_foregroundBlur_232_40303"/>
</filter>
<filter id="filter6_f_232_40303" x="23.9581" y="127.793" width="15.6486" height="13.8918" filterUnits="userSpaceOnUse" color-interpolation-filters="sRGB">
<feFlood flood-opacity="0" result="BackgroundImageFix"/>
<feBlend mode="normal" in="SourceGraphic" in2="BackgroundImageFix" result="shape"/>
<feGaussianBlur stdDeviation="1.22" result="effect1_foregroundBlur_232_40303"/>
</filter>
<filter id="filter7_f_232_40303" x="28.1" y="122.6" width="9.8" height="9.8" filterUnits="userSpaceOnUse" color-interpolation-filters="sRGB">
<feFlood flood-opacity="0" result="BackgroundImageFix"/>
<feBlend mode="normal" in="SourceGraphic" in2="BackgroundImageFix" result="shape"/>
<feGaussianBlur stdDeviation="1.7" result="effect1_foregroundBlur_232_40303"/>
</filter>
<filter id="filter8_f_232_40303" x="58.1" y="28.6" width="9.8" height="9.8" filterUnits="userSpaceOnUse" color-interpolation-filters="sRGB">
<feFlood flood-opacity="0" result="BackgroundImageFix"/>
<feBlend mode="normal" in="SourceGraphic" in2="BackgroundImageFix" result="shape"/>
<feGaussianBlur stdDeviation="1.7" result="effect1_foregroundBlur_232_40303"/>
</filter>
<filter id="filter9_f_232_40303" x="58.1" y="52.6" width="9.8" height="9.8" filterUnits="userSpaceOnUse" color-interpolation-filters="sRGB">
<feFlood flood-opacity="0" result="BackgroundImageFix"/>
<feBlend mode="normal" in="SourceGraphic" in2="BackgroundImageFix" result="shape"/>
<feGaussianBlur stdDeviation="1.7" result="effect1_foregroundBlur_232_40303"/>
</filter>
<filter id="filter10_f_232_40303" x="58.1" y="76.6" width="9.8" height="9.8" filterUnits="userSpaceOnUse" color-interpolation-filters="sRGB">
<feFlood flood-opacity="0" result="BackgroundImageFix"/>
<feBlend mode="normal" in="SourceGraphic" in2="BackgroundImageFix" result="shape"/>
<feGaussianBlur stdDeviation="1.7" result="effect1_foregroundBlur_232_40303"/>
</filter>
<filter id="filter11_f_232_40303" x="45.7967" y="93.8301" width="29.8731" height="29.8731" filterUnits="userSpaceOnUse" color-interpolation-filters="sRGB">
<feFlood flood-opacity="0" result="BackgroundImageFix"/>
<feBlend mode="normal" in="SourceGraphic" in2="BackgroundImageFix" result="shape"/>
<feGaussianBlur stdDeviation="2.71828" result="effect1_foregroundBlur_232_40303"/>
</filter>
<filter id="filter12_f_232_40303" x="51.2266" y="96.5406" width="21.5527" height="17.4714" filterUnits="userSpaceOnUse" color-interpolation-filters="sRGB">
<feFlood flood-opacity="0" result="BackgroundImageFix"/>
<feBlend mode="normal" in="SourceGraphic" in2="BackgroundImageFix" result="shape"/>
<feGaussianBlur stdDeviation="2.22" result="effect1_foregroundBlur_232_40303"/>
</filter>
<filter id="filter13_f_232_40303" x="51.9581" y="103.793" width="15.6486" height="13.8918" filterUnits="userSpaceOnUse" color-interpolation-filters="sRGB">
<feFlood flood-opacity="0" result="BackgroundImageFix"/>
<feBlend mode="normal" in="SourceGraphic" in2="BackgroundImageFix" result="shape"/>
<feGaussianBlur stdDeviation="1.22" result="effect1_foregroundBlur_232_40303"/>
</filter>
<filter id="filter14_f_232_40303" x="56.1" y="98.6" width="9.8" height="9.8" filterUnits="userSpaceOnUse" color-interpolation-filters="sRGB">
<feFlood flood-opacity="0" result="BackgroundImageFix"/>
<feBlend mode="normal" in="SourceGraphic" in2="BackgroundImageFix" result="shape"/>
<feGaussianBlur stdDeviation="1.7" result="effect1_foregroundBlur_232_40303"/>
</filter>
<filter id="filter15_f_232_40303" x="45.7967" y="117.83" width="29.8731" height="29.8731" filterUnits="userSpaceOnUse" color-interpolation-filters="sRGB">
<feFlood flood-opacity="0" result="BackgroundImageFix"/>
<feBlend mode="normal" in="SourceGraphic" in2="BackgroundImageFix" result="shape"/>
<feGaussianBlur stdDeviation="2.71828" result="effect1_foregroundBlur_232_40303"/>
</filter>
<filter id="filter16_f_232_40303" x="51.2266" y="120.541" width="21.5527" height="17.4713" filterUnits="userSpaceOnUse" color-interpolation-filters="sRGB">
<feFlood flood-opacity="0" result="BackgroundImageFix"/>
<feBlend mode="normal" in="SourceGraphic" in2="BackgroundImageFix" result="shape"/>
<feGaussianBlur stdDeviation="2.22" result="effect1_foregroundBlur_232_40303"/>
</filter>
<filter id="filter17_f_232_40303" x="51.9581" y="127.793" width="15.6486" height="13.8918" filterUnits="userSpaceOnUse" color-interpolation-filters="sRGB">
<feFlood flood-opacity="0" result="BackgroundImageFix"/>
<feBlend mode="normal" in="SourceGraphic" in2="BackgroundImageFix" result="shape"/>
<feGaussianBlur stdDeviation="1.22" result="effect1_foregroundBlur_232_40303"/>
</filter>
<filter id="filter18_f_232_40303" x="56.1" y="122.6" width="9.8" height="9.8" filterUnits="userSpaceOnUse" color-interpolation-filters="sRGB">
<feFlood flood-opacity="0" result="BackgroundImageFix"/>
<feBlend mode="normal" in="SourceGraphic" in2="BackgroundImageFix" result="shape"/>
<feGaussianBlur stdDeviation="1.7" result="effect1_foregroundBlur_232_40303"/>
</filter>
<filter id="filter19_f_232_40303" x="17.7967" y="12.8301" width="29.8731" height="29.8731" filterUnits="userSpaceOnUse" color-interpolation-filters="sRGB">
<feFlood flood-opacity="0" result="BackgroundImageFix"/>
<feBlend mode="normal" in="SourceGraphic" in2="BackgroundImageFix" result="shape"/>
<feGaussianBlur stdDeviation="2.71828" result="effect1_foregroundBlur_232_40303"/>
</filter>
<filter id="filter20_f_232_40303" x="23.2266" y="15.5406" width="21.5527" height="17.4714" filterUnits="userSpaceOnUse" color-interpolation-filters="sRGB">
<feFlood flood-opacity="0" result="BackgroundImageFix"/>
<feBlend mode="normal" in="SourceGraphic" in2="BackgroundImageFix" result="shape"/>
<feGaussianBlur stdDeviation="2.22" result="effect1_foregroundBlur_232_40303"/>
</filter>
<filter id="filter21_f_232_40303" x="23.9581" y="22.7933" width="15.6486" height="13.8918" filterUnits="userSpaceOnUse" color-interpolation-filters="sRGB">
<feFlood flood-opacity="0" result="BackgroundImageFix"/>
<feBlend mode="normal" in="SourceGraphic" in2="BackgroundImageFix" result="shape"/>
<feGaussianBlur stdDeviation="1.22" result="effect1_foregroundBlur_232_40303"/>
</filter>
<filter id="filter22_f_232_40303" x="28.1" y="17.6" width="9.8" height="9.8" filterUnits="userSpaceOnUse" color-interpolation-filters="sRGB">
<feFlood flood-opacity="0" result="BackgroundImageFix"/>
<feBlend mode="normal" in="SourceGraphic" in2="BackgroundImageFix" result="shape"/>
<feGaussianBlur stdDeviation="1.7" result="effect1_foregroundBlur_232_40303"/>
</filter>
<filter id="filter23_f_232_40303" x="17.7967" y="36.8301" width="29.8731" height="29.8731" filterUnits="userSpaceOnUse" color-interpolation-filters="sRGB">
<feFlood flood-opacity="0" result="BackgroundImageFix"/>
<feBlend mode="normal" in="SourceGraphic" in2="BackgroundImageFix" result="shape"/>
<feGaussianBlur stdDeviation="2.71828" result="effect1_foregroundBlur_232_40303"/>
</filter>
<filter id="filter24_f_232_40303" x="23.2266" y="39.5406" width="21.5527" height="17.4714" filterUnits="userSpaceOnUse" color-interpolation-filters="sRGB">
<feFlood flood-opacity="0" result="BackgroundImageFix"/>
<feBlend mode="normal" in="SourceGraphic" in2="BackgroundImageFix" result="shape"/>
<feGaussianBlur stdDeviation="2.22" result="effect1_foregroundBlur_232_40303"/>
</filter>
<filter id="filter25_f_232_40303" x="23.9581" y="46.7933" width="15.6486" height="13.8918" filterUnits="userSpaceOnUse" color-interpolation-filters="sRGB">
<feFlood flood-opacity="0" result="BackgroundImageFix"/>
<feBlend mode="normal" in="SourceGraphic" in2="BackgroundImageFix" result="shape"/>
<feGaussianBlur stdDeviation="1.22" result="effect1_foregroundBlur_232_40303"/>
</filter>
<filter id="filter26_f_232_40303" x="28.1" y="41.6" width="9.8" height="9.8" filterUnits="userSpaceOnUse" color-interpolation-filters="sRGB">
<feFlood flood-opacity="0" result="BackgroundImageFix"/>
<feBlend mode="normal" in="SourceGraphic" in2="BackgroundImageFix" result="shape"/>
<feGaussianBlur stdDeviation="1.7" result="effect1_foregroundBlur_232_40303"/>
</filter>
<filter id="filter27_f_232_40303" x="17.7967" y="60.8301" width="29.8731" height="29.8731" filterUnits="userSpaceOnUse" color-interpolation-filters="sRGB">
<feFlood flood-opacity="0" result="BackgroundImageFix"/>
<feBlend mode="normal" in="SourceGraphic" in2="BackgroundImageFix" result="shape"/>
<feGaussianBlur stdDeviation="2.71828" result="effect1_foregroundBlur_232_40303"/>
</filter>
<filter id="filter28_f_232_40303" x="23.2266" y="63.5406" width="21.5527" height="17.4714" filterUnits="userSpaceOnUse" color-interpolation-filters="sRGB">
<feFlood flood-opacity="0" result="BackgroundImageFix"/>
<feBlend mode="normal" in="SourceGraphic" in2="BackgroundImageFix" result="shape"/>
<feGaussianBlur stdDeviation="2.22" result="effect1_foregroundBlur_232_40303"/>
</filter>
<filter id="filter29_f_232_40303" x="23.9581" y="70.7933" width="15.6486" height="13.8918" filterUnits="userSpaceOnUse" color-interpolation-filters="sRGB">
<feFlood flood-opacity="0" result="BackgroundImageFix"/>
<feBlend mode="normal" in="SourceGraphic" in2="BackgroundImageFix" result="shape"/>
<feGaussianBlur stdDeviation="1.22" result="effect1_foregroundBlur_232_40303"/>
</filter>
<filter id="filter30_f_232_40303" x="28.1" y="65.6" width="9.8" height="9.8" filterUnits="userSpaceOnUse" color-interpolation-filters="sRGB">
<feFlood flood-opacity="0" result="BackgroundImageFix"/>
<feBlend mode="normal" in="SourceGraphic" in2="BackgroundImageFix" result="shape"/>
<feGaussianBlur stdDeviation="1.7" result="effect1_foregroundBlur_232_40303"/>
</filter>
<filter id="filter31_f_232_40303" x="17.7967" y="84.8301" width="29.8731" height="29.8731" filterUnits="userSpaceOnUse" color-interpolation-filters="sRGB">
<feFlood flood-opacity="0" result="BackgroundImageFix"/>
<feBlend mode="normal" in="SourceGraphic" in2="BackgroundImageFix" result="shape"/>
<feGaussianBlur stdDeviation="2.71828" result="effect1_foregroundBlur_232_40303"/>
</filter>
<filter id="filter32_f_232_40303" x="23.2266" y="87.5406" width="21.5527" height="17.4714" filterUnits="userSpaceOnUse" color-interpolation-filters="sRGB">
<feFlood flood-opacity="0" result="BackgroundImageFix"/>
<feBlend mode="normal" in="SourceGraphic" in2="BackgroundImageFix" result="shape"/>
<feGaussianBlur stdDeviation="2.22" result="effect1_foregroundBlur_232_40303"/>
</filter>
<filter id="filter33_f_232_40303" x="23.9581" y="94.7933" width="15.6486" height="13.8918" filterUnits="userSpaceOnUse" color-interpolation-filters="sRGB">
<feFlood flood-opacity="0" result="BackgroundImageFix"/>
<feBlend mode="normal" in="SourceGraphic" in2="BackgroundImageFix" result="shape"/>
<feGaussianBlur stdDeviation="1.22" result="effect1_foregroundBlur_232_40303"/>
</filter>
<filter id="filter34_f_232_40303" x="28.1" y="89.6" width="9.8" height="9.8" filterUnits="userSpaceOnUse" color-interpolation-filters="sRGB">
<feFlood flood-opacity="0" result="BackgroundImageFix"/>
<feBlend mode="normal" in="SourceGraphic" in2="BackgroundImageFix" result="shape"/>
<feGaussianBlur stdDeviation="1.7" result="effect1_foregroundBlur_232_40303"/>
</filter>
<filter id="filter35_f_232_40303" x="45.7967" y="12.8301" width="29.8731" height="29.8731" filterUnits="userSpaceOnUse" color-interpolation-filters="sRGB">
<feFlood flood-opacity="0" result="BackgroundImageFix"/>
<feBlend mode="normal" in="SourceGraphic" in2="BackgroundImageFix" result="shape"/>
<feGaussianBlur stdDeviation="2.71828" result="effect1_foregroundBlur_232_40303"/>
</filter>
<filter id="filter36_f_232_40303" x="51.2266" y="15.5406" width="21.5527" height="17.4714" filterUnits="userSpaceOnUse" color-interpolation-filters="sRGB">
<feFlood flood-opacity="0" result="BackgroundImageFix"/>
<feBlend mode="normal" in="SourceGraphic" in2="BackgroundImageFix" result="shape"/>
<feGaussianBlur stdDeviation="2.22" result="effect1_foregroundBlur_232_40303"/>
</filter>
<filter id="filter37_f_232_40303" x="51.9581" y="22.7933" width="15.6486" height="13.8918" filterUnits="userSpaceOnUse" color-interpolation-filters="sRGB">
<feFlood flood-opacity="0" result="BackgroundImageFix"/>
<feBlend mode="normal" in="SourceGraphic" in2="BackgroundImageFix" result="shape"/>
<feGaussianBlur stdDeviation="1.22" result="effect1_foregroundBlur_232_40303"/>
</filter>
<filter id="filter38_f_232_40303" x="56.1" y="17.6" width="9.8" height="9.8" filterUnits="userSpaceOnUse" color-interpolation-filters="sRGB">
<feFlood flood-opacity="0" result="BackgroundImageFix"/>
<feBlend mode="normal" in="SourceGraphic" in2="BackgroundImageFix" result="shape"/>
<feGaussianBlur stdDeviation="1.7" result="effect1_foregroundBlur_232_40303"/>
</filter>
<filter id="filter39_f_232_40303" x="45.7967" y="36.8301" width="29.8731" height="29.8731" filterUnits="userSpaceOnUse" color-interpolation-filters="sRGB">
<feFlood flood-opacity="0" result="BackgroundImageFix"/>
<feBlend mode="normal" in="SourceGraphic" in2="BackgroundImageFix" result="shape"/>
<feGaussianBlur stdDeviation="2.71828" result="effect1_foregroundBlur_232_40303"/>
</filter>
<filter id="filter40_f_232_40303" x="51.2266" y="39.5406" width="21.5527" height="17.4714" filterUnits="userSpaceOnUse" color-interpolation-filters="sRGB">
<feFlood flood-opacity="0" result="BackgroundImageFix"/>
<feBlend mode="normal" in="SourceGraphic" in2="BackgroundImageFix" result="shape"/>
<feGaussianBlur stdDeviation="2.22" result="effect1_foregroundBlur_232_40303"/>
</filter>
<filter id="filter41_f_232_40303" x="51.9581" y="46.7933" width="15.6486" height="13.8918" filterUnits="userSpaceOnUse" color-interpolation-filters="sRGB">
<feFlood flood-opacity="0" result="BackgroundImageFix"/>
<feBlend mode="normal" in="SourceGraphic" in2="BackgroundImageFix" result="shape"/>
<feGaussianBlur stdDeviation="1.22" result="effect1_foregroundBlur_232_40303"/>
</filter>
<filter id="filter42_f_232_40303" x="56.1" y="41.6" width="9.8" height="9.8" filterUnits="userSpaceOnUse" color-interpolation-filters="sRGB">
<feFlood flood-opacity="0" result="BackgroundImageFix"/>
<feBlend mode="normal" in="SourceGraphic" in2="BackgroundImageFix" result="shape"/>
<feGaussianBlur stdDeviation="1.7" result="effect1_foregroundBlur_232_40303"/>
</filter>
<filter id="filter43_f_232_40303" x="45.7967" y="60.8301" width="29.8731" height="29.8731" filterUnits="userSpaceOnUse" color-interpolation-filters="sRGB">
<feFlood flood-opacity="0" result="BackgroundImageFix"/>
<feBlend mode="normal" in="SourceGraphic" in2="BackgroundImageFix" result="shape"/>
<feGaussianBlur stdDeviation="2.71828" result="effect1_foregroundBlur_232_40303"/>
</filter>
<filter id="filter44_f_232_40303" x="51.2266" y="63.5406" width="21.5527" height="17.4714" filterUnits="userSpaceOnUse" color-interpolation-filters="sRGB">
<feFlood flood-opacity="0" result="BackgroundImageFix"/>
<feBlend mode="normal" in="SourceGraphic" in2="BackgroundImageFix" result="shape"/>
<feGaussianBlur stdDeviation="2.22" result="effect1_foregroundBlur_232_40303"/>
</filter>
<filter id="filter45_f_232_40303" x="51.9581" y="70.7933" width="15.6486" height="13.8918" filterUnits="userSpaceOnUse" color-interpolation-filters="sRGB">
<feFlood flood-opacity="0" result="BackgroundImageFix"/>
<feBlend mode="normal" in="SourceGraphic" in2="BackgroundImageFix" result="shape"/>
<feGaussianBlur stdDeviation="1.22" result="effect1_foregroundBlur_232_40303"/>
</filter>
<filter id="filter46_f_232_40303" x="56.1" y="65.6" width="9.8" height="9.8" filterUnits="userSpaceOnUse" color-interpolation-filters="sRGB">
<feFlood flood-opacity="0" result="BackgroundImageFix"/>
<feBlend mode="normal" in="SourceGraphic" in2="BackgroundImageFix" result="shape"/>
<feGaussianBlur stdDeviation="1.7" result="effect1_foregroundBlur_232_40303"/>
</filter>
<radialGradient id="paint0_radial_232_40303" cx="0" cy="0" r="1" gradientUnits="userSpaceOnUse" gradientTransform="translate(33.3137 130.814) rotate(90) scale(8.76989)">
<stop stop-color="white" stop-opacity="0.1"/>
<stop offset="0.635889" stop-color="white" stop-opacity="0.085889"/>
<stop offset="1" stop-opacity="0.08"/>
</radialGradient>
<radialGradient id="paint1_radial_232_40303" cx="0" cy="0" r="1" gradientUnits="userSpaceOnUse" gradientTransform="translate(61.3137 106.814) rotate(90) scale(8.76989)">
<stop stop-color="white" stop-opacity="0.1"/>
<stop offset="0.635889" stop-color="white" stop-opacity="0.085889"/>
<stop offset="1" stop-opacity="0.08"/>
</radialGradient>
<radialGradient id="paint2_radial_232_40303" cx="0" cy="0" r="1" gradientUnits="userSpaceOnUse" gradientTransform="translate(61.3137 130.814) rotate(90) scale(8.76989)">
<stop stop-color="white" stop-opacity="0.1"/>
<stop offset="0.635889" stop-color="white" stop-opacity="0.085889"/>
<stop offset="1" stop-opacity="0.08"/>
</radialGradient>
<radialGradient id="paint3_radial_232_40303" cx="0" cy="0" r="1" gradientUnits="userSpaceOnUse" gradientTransform="translate(33.3137 25.8137) rotate(90) scale(8.76989)">
<stop stop-color="white" stop-opacity="0.1"/>
<stop offset="0.635889" stop-color="white" stop-opacity="0.085889"/>
<stop offset="1" stop-opacity="0.08"/>
</radialGradient>
<radialGradient id="paint4_radial_232_40303" cx="0" cy="0" r="1" gradientUnits="userSpaceOnUse" gradientTransform="translate(33.3137 49.8137) rotate(90) scale(8.76989)">
<stop stop-color="white" stop-opacity="0.1"/>
<stop offset="0.635889" stop-color="white" stop-opacity="0.085889"/>
<stop offset="1" stop-opacity="0.08"/>
</radialGradient>
<radialGradient id="paint5_radial_232_40303" cx="0" cy="0" r="1" gradientUnits="userSpaceOnUse" gradientTransform="translate(33.3137 73.8137) rotate(90) scale(8.76989)">
<stop stop-color="white" stop-opacity="0.1"/>
<stop offset="0.635889" stop-color="white" stop-opacity="0.085889"/>
<stop offset="1" stop-opacity="0.08"/>
</radialGradient>
<radialGradient id="paint6_radial_232_40303" cx="0" cy="0" r="1" gradientUnits="userSpaceOnUse" gradientTransform="translate(33.3137 97.8137) rotate(90) scale(8.76989)">
<stop stop-color="white" stop-opacity="0.1"/>
<stop offset="0.635889" stop-color="white" stop-opacity="0.085889"/>
<stop offset="1" stop-opacity="0.08"/>
</radialGradient>
<radialGradient id="paint7_radial_232_40303" cx="0" cy="0" r="1" gradientUnits="userSpaceOnUse" gradientTransform="translate(61.3137 25.8137) rotate(90) scale(8.76989)">
<stop stop-color="white" stop-opacity="0.1"/>
<stop offset="0.635889" stop-color="white" stop-opacity="0.085889"/>
<stop offset="1" stop-opacity="0.08"/>
</radialGradient>
<radialGradient id="paint8_radial_232_40303" cx="0" cy="0" r="1" gradientUnits="userSpaceOnUse" gradientTransform="translate(61.3137 49.8137) rotate(90) scale(8.76989)">
<stop stop-color="white" stop-opacity="0.1"/>
<stop offset="0.635889" stop-color="white" stop-opacity="0.085889"/>
<stop offset="1" stop-opacity="0.08"/>
</radialGradient>
<radialGradient id="paint9_radial_232_40303" cx="0" cy="0" r="1" gradientUnits="userSpaceOnUse" gradientTransform="translate(61.3137 73.8137) rotate(90) scale(8.76989)">
<stop stop-color="white" stop-opacity="0.1"/>
<stop offset="0.635889" stop-color="white" stop-opacity="0.085889"/>
<stop offset="1" stop-opacity="0.08"/>
</radialGradient>
<clipPath id="clip0_232_40303">
<rect width="96" height="158" fill="white"/>
</clipPath>
</defs>
</svg>
