<svg width="96" height="158" viewBox="0 0 96 158" fill="none" xmlns="http://www.w3.org/2000/svg">
<g style="mix-blend-mode:multiply" opacity="0.7" filter="url(#filter0_f_233_43437)">
<circle cx="32.7333" cy="30.7667" r="9.5" fill="black"/>
</g>
<circle cx="34" cy="29.5" r="9.5" fill="#011417"/>
<circle cx="34" cy="29.5" r="9.5" fill="url(#paint0_radial_233_43437)"/>
<g filter="url(#filter1_f_233_43437)">
<path fill-rule="evenodd" clip-rule="evenodd" d="M27.6667 25.8289C27.6667 25.8289 32.3096 21.2922 36.4846 23.6699C40.6597 26.0475 40.3333 31.5719 40.3333 31.5719C40.3333 31.5719 39.3172 27.3974 35.094 25.4481C30.8707 23.4987 27.6667 25.8289 27.6667 25.8289Z" fill="white"/>
</g>
<g opacity="0.5" filter="url(#filter2_f_233_43437)">
<path fill-rule="evenodd" clip-rule="evenodd" d="M37.1667 37.1C37.1667 37.1 30.9317 37.9735 28.5904 35.4343C26.2491 32.8951 26.4 28.2333 26.4 28.2333C26.4 28.2333 27.463 32.2632 29.9308 34.5196C32.3985 36.7759 37.1667 37.1 37.1667 37.1Z" fill="white"/>
</g>
<g filter="url(#filter3_f_233_43437)">
<circle cx="33" cy="25.5" r="1.5" fill="#D9D9D9"/>
</g>
<g style="mix-blend-mode:multiply" opacity="0.7" filter="url(#filter4_f_233_43437)">
<circle cx="32.7333" cy="54.7667" r="9.5" fill="black"/>
</g>
<circle cx="34" cy="53.5" r="9.5" fill="#011417"/>
<circle cx="34" cy="53.5" r="9.5" fill="url(#paint1_radial_233_43437)"/>
<g filter="url(#filter5_f_233_43437)">
<path fill-rule="evenodd" clip-rule="evenodd" d="M27.6667 49.8289C27.6667 49.8289 32.3096 45.2922 36.4846 47.6699C40.6597 50.0475 40.3333 55.5719 40.3333 55.5719C40.3333 55.5719 39.3172 51.3974 35.094 49.4481C30.8707 47.4987 27.6667 49.8289 27.6667 49.8289Z" fill="white"/>
</g>
<g opacity="0.5" filter="url(#filter6_f_233_43437)">
<path fill-rule="evenodd" clip-rule="evenodd" d="M37.1667 61.1C37.1667 61.1 30.9317 61.9735 28.5904 59.4343C26.2491 56.8951 26.4 52.2333 26.4 52.2333C26.4 52.2333 27.463 56.2632 29.9308 58.5196C32.3985 60.7759 37.1667 61.1 37.1667 61.1Z" fill="white"/>
</g>
<g filter="url(#filter7_f_233_43437)">
<circle cx="33" cy="49.5" r="1.5" fill="#D9D9D9"/>
</g>
<g style="mix-blend-mode:multiply" opacity="0.7" filter="url(#filter8_f_233_43437)">
<circle cx="32.7333" cy="78.7667" r="9.5" fill="black"/>
</g>
<circle cx="34" cy="77.5" r="9.5" fill="#011417"/>
<circle cx="34" cy="77.5" r="9.5" fill="url(#paint2_radial_233_43437)"/>
<g filter="url(#filter9_f_233_43437)">
<path fill-rule="evenodd" clip-rule="evenodd" d="M27.6667 73.8289C27.6667 73.8289 32.3096 69.2922 36.4846 71.6699C40.6597 74.0475 40.3333 79.5719 40.3333 79.5719C40.3333 79.5719 39.3172 75.3974 35.094 73.4481C30.8707 71.4987 27.6667 73.8289 27.6667 73.8289Z" fill="white"/>
</g>
<g opacity="0.5" filter="url(#filter10_f_233_43437)">
<path fill-rule="evenodd" clip-rule="evenodd" d="M37.1667 85.1C37.1667 85.1 30.9317 85.9735 28.5904 83.4343C26.2491 80.8951 26.4 76.2333 26.4 76.2333C26.4 76.2333 27.463 80.2632 29.9308 82.5196C32.3985 84.7759 37.1667 85.1 37.1667 85.1Z" fill="white"/>
</g>
<g filter="url(#filter11_f_233_43437)">
<circle cx="33" cy="73.5" r="1.5" fill="#D9D9D9"/>
</g>
<g style="mix-blend-mode:multiply" opacity="0.7" filter="url(#filter12_f_233_43437)">
<circle cx="32.7333" cy="102.767" r="9.5" fill="black"/>
</g>
<circle cx="34" cy="101.5" r="9.5" fill="#011417"/>
<circle cx="34" cy="101.5" r="9.5" fill="url(#paint3_radial_233_43437)"/>
<g filter="url(#filter13_f_233_43437)">
<path fill-rule="evenodd" clip-rule="evenodd" d="M27.6667 97.8289C27.6667 97.8289 32.3096 93.2922 36.4846 95.6699C40.6597 98.0475 40.3333 103.572 40.3333 103.572C40.3333 103.572 39.3172 99.3974 35.094 97.4481C30.8707 95.4987 27.6667 97.8289 27.6667 97.8289Z" fill="white"/>
</g>
<g opacity="0.5" filter="url(#filter14_f_233_43437)">
<path fill-rule="evenodd" clip-rule="evenodd" d="M37.1667 109.1C37.1667 109.1 30.9317 109.974 28.5904 107.434C26.2491 104.895 26.4 100.233 26.4 100.233C26.4 100.233 27.463 104.263 29.9308 106.52C32.3985 108.776 37.1667 109.1 37.1667 109.1Z" fill="white"/>
</g>
<g filter="url(#filter15_f_233_43437)">
<circle cx="33" cy="97.5" r="1.5" fill="#D9D9D9"/>
</g>
<g style="mix-blend-mode:multiply" opacity="0.7" filter="url(#filter16_f_233_43437)">
<circle cx="32.7333" cy="126.767" r="9.5" fill="black"/>
</g>
<circle cx="34" cy="125.5" r="9.5" fill="#011417"/>
<circle cx="34" cy="125.5" r="9.5" fill="url(#paint4_radial_233_43437)"/>
<g filter="url(#filter17_f_233_43437)">
<path fill-rule="evenodd" clip-rule="evenodd" d="M27.6667 121.829C27.6667 121.829 32.3096 117.292 36.4846 119.67C40.6597 122.048 40.3333 127.572 40.3333 127.572C40.3333 127.572 39.3172 123.397 35.094 121.448C30.8707 119.499 27.6667 121.829 27.6667 121.829Z" fill="white"/>
</g>
<g opacity="0.5" filter="url(#filter18_f_233_43437)">
<path fill-rule="evenodd" clip-rule="evenodd" d="M37.1667 133.1C37.1667 133.1 30.9317 133.974 28.5904 131.434C26.2491 128.895 26.4 124.233 26.4 124.233C26.4 124.233 27.463 128.263 29.9308 130.52C32.3985 132.776 37.1667 133.1 37.1667 133.1Z" fill="white"/>
</g>
<g filter="url(#filter19_f_233_43437)">
<circle cx="33" cy="121.5" r="1.5" fill="#D9D9D9"/>
</g>
<g style="mix-blend-mode:multiply" opacity="0.7" filter="url(#filter20_f_233_43437)">
<circle cx="60.7333" cy="30.7667" r="9.5" fill="black"/>
</g>
<circle cx="62" cy="29.5" r="9.5" fill="#011417"/>
<circle cx="62" cy="29.5" r="9.5" fill="url(#paint5_radial_233_43437)"/>
<g filter="url(#filter21_f_233_43437)">
<path fill-rule="evenodd" clip-rule="evenodd" d="M55.6667 25.8289C55.6667 25.8289 60.3096 21.2922 64.4846 23.6699C68.6597 26.0475 68.3333 31.5719 68.3333 31.5719C68.3333 31.5719 67.3172 27.3974 63.094 25.4481C58.8707 23.4987 55.6667 25.8289 55.6667 25.8289Z" fill="white"/>
</g>
<g opacity="0.5" filter="url(#filter22_f_233_43437)">
<path fill-rule="evenodd" clip-rule="evenodd" d="M65.1667 37.1C65.1667 37.1 58.9317 37.9735 56.5904 35.4343C54.2491 32.8951 54.4 28.2333 54.4 28.2333C54.4 28.2333 55.463 32.2632 57.9308 34.5196C60.3985 36.7759 65.1667 37.1 65.1667 37.1Z" fill="white"/>
</g>
<g filter="url(#filter23_f_233_43437)">
<circle cx="61" cy="25.5" r="1.5" fill="#D9D9D9"/>
</g>
<g style="mix-blend-mode:multiply" opacity="0.7" filter="url(#filter24_f_233_43437)">
<circle cx="60.7333" cy="54.7667" r="9.5" fill="black"/>
</g>
<circle cx="62" cy="53.5" r="9.5" fill="#011417"/>
<circle cx="62" cy="53.5" r="9.5" fill="url(#paint6_radial_233_43437)"/>
<g filter="url(#filter25_f_233_43437)">
<path fill-rule="evenodd" clip-rule="evenodd" d="M55.6667 49.8289C55.6667 49.8289 60.3096 45.2922 64.4846 47.6699C68.6597 50.0475 68.3333 55.5719 68.3333 55.5719C68.3333 55.5719 67.3172 51.3974 63.094 49.4481C58.8707 47.4987 55.6667 49.8289 55.6667 49.8289Z" fill="white"/>
</g>
<g opacity="0.5" filter="url(#filter26_f_233_43437)">
<path fill-rule="evenodd" clip-rule="evenodd" d="M65.1667 61.1C65.1667 61.1 58.9317 61.9735 56.5904 59.4343C54.2491 56.8951 54.4 52.2333 54.4 52.2333C54.4 52.2333 55.463 56.2632 57.9308 58.5196C60.3985 60.7759 65.1667 61.1 65.1667 61.1Z" fill="white"/>
</g>
<g filter="url(#filter27_f_233_43437)">
<circle cx="61" cy="49.5" r="1.5" fill="#D9D9D9"/>
</g>
<g style="mix-blend-mode:multiply" opacity="0.7" filter="url(#filter28_f_233_43437)">
<circle cx="60.7333" cy="78.7667" r="9.5" fill="black"/>
</g>
<circle cx="62" cy="77.5" r="9.5" fill="#011417"/>
<circle cx="62" cy="77.5" r="9.5" fill="url(#paint7_radial_233_43437)"/>
<g filter="url(#filter29_f_233_43437)">
<path fill-rule="evenodd" clip-rule="evenodd" d="M55.6667 73.8289C55.6667 73.8289 60.3096 69.2922 64.4846 71.6699C68.6597 74.0475 68.3333 79.5719 68.3333 79.5719C68.3333 79.5719 67.3172 75.3974 63.094 73.4481C58.8707 71.4987 55.6667 73.8289 55.6667 73.8289Z" fill="white"/>
</g>
<g opacity="0.5" filter="url(#filter30_f_233_43437)">
<path fill-rule="evenodd" clip-rule="evenodd" d="M65.1667 85.1C65.1667 85.1 58.9317 85.9735 56.5904 83.4343C54.2491 80.8951 54.4 76.2333 54.4 76.2333C54.4 76.2333 55.463 80.2632 57.9308 82.5196C60.3985 84.7759 65.1667 85.1 65.1667 85.1Z" fill="white"/>
</g>
<g filter="url(#filter31_f_233_43437)">
<circle cx="61" cy="73.5" r="1.5" fill="#D9D9D9"/>
</g>
<g style="mix-blend-mode:multiply" opacity="0.7" filter="url(#filter32_f_233_43437)">
<circle cx="60.7333" cy="102.767" r="9.5" fill="black"/>
</g>
<circle cx="62" cy="101.5" r="9.5" fill="#011417"/>
<circle cx="62" cy="101.5" r="9.5" fill="url(#paint8_radial_233_43437)"/>
<g filter="url(#filter33_f_233_43437)">
<path fill-rule="evenodd" clip-rule="evenodd" d="M55.6667 97.8289C55.6667 97.8289 60.3096 93.2922 64.4846 95.6699C68.6597 98.0475 68.3333 103.572 68.3333 103.572C68.3333 103.572 67.3172 99.3974 63.094 97.4481C58.8707 95.4987 55.6667 97.8289 55.6667 97.8289Z" fill="white"/>
</g>
<g opacity="0.5" filter="url(#filter34_f_233_43437)">
<path fill-rule="evenodd" clip-rule="evenodd" d="M65.1667 109.1C65.1667 109.1 58.9317 109.974 56.5904 107.434C54.2491 104.895 54.4 100.233 54.4 100.233C54.4 100.233 55.463 104.263 57.9308 106.52C60.3985 108.776 65.1667 109.1 65.1667 109.1Z" fill="white"/>
</g>
<g filter="url(#filter35_f_233_43437)">
<circle cx="61" cy="97.5" r="1.5" fill="#D9D9D9"/>
</g>
<defs>
<filter id="filter0_f_233_43437" x="17.7967" y="15.8301" width="29.8731" height="29.8731" filterUnits="userSpaceOnUse" color-interpolation-filters="sRGB">
<feFlood flood-opacity="0" result="BackgroundImageFix"/>
<feBlend mode="normal" in="SourceGraphic" in2="BackgroundImageFix" result="shape"/>
<feGaussianBlur stdDeviation="2.71828" result="effect1_foregroundBlur_233_43437"/>
</filter>
<filter id="filter1_f_233_43437" x="23.2266" y="18.5406" width="21.5527" height="17.4714" filterUnits="userSpaceOnUse" color-interpolation-filters="sRGB">
<feFlood flood-opacity="0" result="BackgroundImageFix"/>
<feBlend mode="normal" in="SourceGraphic" in2="BackgroundImageFix" result="shape"/>
<feGaussianBlur stdDeviation="2.22" result="effect1_foregroundBlur_233_43437"/>
</filter>
<filter id="filter2_f_233_43437" x="23.9581" y="25.7933" width="15.6486" height="13.8918" filterUnits="userSpaceOnUse" color-interpolation-filters="sRGB">
<feFlood flood-opacity="0" result="BackgroundImageFix"/>
<feBlend mode="normal" in="SourceGraphic" in2="BackgroundImageFix" result="shape"/>
<feGaussianBlur stdDeviation="1.22" result="effect1_foregroundBlur_233_43437"/>
</filter>
<filter id="filter3_f_233_43437" x="28.1" y="20.6" width="9.8" height="9.8" filterUnits="userSpaceOnUse" color-interpolation-filters="sRGB">
<feFlood flood-opacity="0" result="BackgroundImageFix"/>
<feBlend mode="normal" in="SourceGraphic" in2="BackgroundImageFix" result="shape"/>
<feGaussianBlur stdDeviation="1.7" result="effect1_foregroundBlur_233_43437"/>
</filter>
<filter id="filter4_f_233_43437" x="17.7967" y="39.8301" width="29.8731" height="29.8731" filterUnits="userSpaceOnUse" color-interpolation-filters="sRGB">
<feFlood flood-opacity="0" result="BackgroundImageFix"/>
<feBlend mode="normal" in="SourceGraphic" in2="BackgroundImageFix" result="shape"/>
<feGaussianBlur stdDeviation="2.71828" result="effect1_foregroundBlur_233_43437"/>
</filter>
<filter id="filter5_f_233_43437" x="23.2266" y="42.5406" width="21.5527" height="17.4714" filterUnits="userSpaceOnUse" color-interpolation-filters="sRGB">
<feFlood flood-opacity="0" result="BackgroundImageFix"/>
<feBlend mode="normal" in="SourceGraphic" in2="BackgroundImageFix" result="shape"/>
<feGaussianBlur stdDeviation="2.22" result="effect1_foregroundBlur_233_43437"/>
</filter>
<filter id="filter6_f_233_43437" x="23.9581" y="49.7933" width="15.6486" height="13.8918" filterUnits="userSpaceOnUse" color-interpolation-filters="sRGB">
<feFlood flood-opacity="0" result="BackgroundImageFix"/>
<feBlend mode="normal" in="SourceGraphic" in2="BackgroundImageFix" result="shape"/>
<feGaussianBlur stdDeviation="1.22" result="effect1_foregroundBlur_233_43437"/>
</filter>
<filter id="filter7_f_233_43437" x="28.1" y="44.6" width="9.8" height="9.8" filterUnits="userSpaceOnUse" color-interpolation-filters="sRGB">
<feFlood flood-opacity="0" result="BackgroundImageFix"/>
<feBlend mode="normal" in="SourceGraphic" in2="BackgroundImageFix" result="shape"/>
<feGaussianBlur stdDeviation="1.7" result="effect1_foregroundBlur_233_43437"/>
</filter>
<filter id="filter8_f_233_43437" x="17.7967" y="63.8301" width="29.8731" height="29.8731" filterUnits="userSpaceOnUse" color-interpolation-filters="sRGB">
<feFlood flood-opacity="0" result="BackgroundImageFix"/>
<feBlend mode="normal" in="SourceGraphic" in2="BackgroundImageFix" result="shape"/>
<feGaussianBlur stdDeviation="2.71828" result="effect1_foregroundBlur_233_43437"/>
</filter>
<filter id="filter9_f_233_43437" x="23.2266" y="66.5406" width="21.5527" height="17.4714" filterUnits="userSpaceOnUse" color-interpolation-filters="sRGB">
<feFlood flood-opacity="0" result="BackgroundImageFix"/>
<feBlend mode="normal" in="SourceGraphic" in2="BackgroundImageFix" result="shape"/>
<feGaussianBlur stdDeviation="2.22" result="effect1_foregroundBlur_233_43437"/>
</filter>
<filter id="filter10_f_233_43437" x="23.9581" y="73.7933" width="15.6486" height="13.8918" filterUnits="userSpaceOnUse" color-interpolation-filters="sRGB">
<feFlood flood-opacity="0" result="BackgroundImageFix"/>
<feBlend mode="normal" in="SourceGraphic" in2="BackgroundImageFix" result="shape"/>
<feGaussianBlur stdDeviation="1.22" result="effect1_foregroundBlur_233_43437"/>
</filter>
<filter id="filter11_f_233_43437" x="28.1" y="68.6" width="9.8" height="9.8" filterUnits="userSpaceOnUse" color-interpolation-filters="sRGB">
<feFlood flood-opacity="0" result="BackgroundImageFix"/>
<feBlend mode="normal" in="SourceGraphic" in2="BackgroundImageFix" result="shape"/>
<feGaussianBlur stdDeviation="1.7" result="effect1_foregroundBlur_233_43437"/>
</filter>
<filter id="filter12_f_233_43437" x="17.7967" y="87.8301" width="29.8731" height="29.8731" filterUnits="userSpaceOnUse" color-interpolation-filters="sRGB">
<feFlood flood-opacity="0" result="BackgroundImageFix"/>
<feBlend mode="normal" in="SourceGraphic" in2="BackgroundImageFix" result="shape"/>
<feGaussianBlur stdDeviation="2.71828" result="effect1_foregroundBlur_233_43437"/>
</filter>
<filter id="filter13_f_233_43437" x="23.2266" y="90.5406" width="21.5527" height="17.4714" filterUnits="userSpaceOnUse" color-interpolation-filters="sRGB">
<feFlood flood-opacity="0" result="BackgroundImageFix"/>
<feBlend mode="normal" in="SourceGraphic" in2="BackgroundImageFix" result="shape"/>
<feGaussianBlur stdDeviation="2.22" result="effect1_foregroundBlur_233_43437"/>
</filter>
<filter id="filter14_f_233_43437" x="23.9581" y="97.7933" width="15.6486" height="13.8918" filterUnits="userSpaceOnUse" color-interpolation-filters="sRGB">
<feFlood flood-opacity="0" result="BackgroundImageFix"/>
<feBlend mode="normal" in="SourceGraphic" in2="BackgroundImageFix" result="shape"/>
<feGaussianBlur stdDeviation="1.22" result="effect1_foregroundBlur_233_43437"/>
</filter>
<filter id="filter15_f_233_43437" x="28.1" y="92.6" width="9.8" height="9.8" filterUnits="userSpaceOnUse" color-interpolation-filters="sRGB">
<feFlood flood-opacity="0" result="BackgroundImageFix"/>
<feBlend mode="normal" in="SourceGraphic" in2="BackgroundImageFix" result="shape"/>
<feGaussianBlur stdDeviation="1.7" result="effect1_foregroundBlur_233_43437"/>
</filter>
<filter id="filter16_f_233_43437" x="17.7967" y="111.83" width="29.8731" height="29.8731" filterUnits="userSpaceOnUse" color-interpolation-filters="sRGB">
<feFlood flood-opacity="0" result="BackgroundImageFix"/>
<feBlend mode="normal" in="SourceGraphic" in2="BackgroundImageFix" result="shape"/>
<feGaussianBlur stdDeviation="2.71828" result="effect1_foregroundBlur_233_43437"/>
</filter>
<filter id="filter17_f_233_43437" x="23.2266" y="114.541" width="21.5527" height="17.4714" filterUnits="userSpaceOnUse" color-interpolation-filters="sRGB">
<feFlood flood-opacity="0" result="BackgroundImageFix"/>
<feBlend mode="normal" in="SourceGraphic" in2="BackgroundImageFix" result="shape"/>
<feGaussianBlur stdDeviation="2.22" result="effect1_foregroundBlur_233_43437"/>
</filter>
<filter id="filter18_f_233_43437" x="23.9581" y="121.793" width="15.6486" height="13.8918" filterUnits="userSpaceOnUse" color-interpolation-filters="sRGB">
<feFlood flood-opacity="0" result="BackgroundImageFix"/>
<feBlend mode="normal" in="SourceGraphic" in2="BackgroundImageFix" result="shape"/>
<feGaussianBlur stdDeviation="1.22" result="effect1_foregroundBlur_233_43437"/>
</filter>
<filter id="filter19_f_233_43437" x="28.1" y="116.6" width="9.8" height="9.8" filterUnits="userSpaceOnUse" color-interpolation-filters="sRGB">
<feFlood flood-opacity="0" result="BackgroundImageFix"/>
<feBlend mode="normal" in="SourceGraphic" in2="BackgroundImageFix" result="shape"/>
<feGaussianBlur stdDeviation="1.7" result="effect1_foregroundBlur_233_43437"/>
</filter>
<filter id="filter20_f_233_43437" x="45.7967" y="15.8301" width="29.8731" height="29.8731" filterUnits="userSpaceOnUse" color-interpolation-filters="sRGB">
<feFlood flood-opacity="0" result="BackgroundImageFix"/>
<feBlend mode="normal" in="SourceGraphic" in2="BackgroundImageFix" result="shape"/>
<feGaussianBlur stdDeviation="2.71828" result="effect1_foregroundBlur_233_43437"/>
</filter>
<filter id="filter21_f_233_43437" x="51.2266" y="18.5406" width="21.5527" height="17.4714" filterUnits="userSpaceOnUse" color-interpolation-filters="sRGB">
<feFlood flood-opacity="0" result="BackgroundImageFix"/>
<feBlend mode="normal" in="SourceGraphic" in2="BackgroundImageFix" result="shape"/>
<feGaussianBlur stdDeviation="2.22" result="effect1_foregroundBlur_233_43437"/>
</filter>
<filter id="filter22_f_233_43437" x="51.9581" y="25.7933" width="15.6486" height="13.8918" filterUnits="userSpaceOnUse" color-interpolation-filters="sRGB">
<feFlood flood-opacity="0" result="BackgroundImageFix"/>
<feBlend mode="normal" in="SourceGraphic" in2="BackgroundImageFix" result="shape"/>
<feGaussianBlur stdDeviation="1.22" result="effect1_foregroundBlur_233_43437"/>
</filter>
<filter id="filter23_f_233_43437" x="56.1" y="20.6" width="9.8" height="9.8" filterUnits="userSpaceOnUse" color-interpolation-filters="sRGB">
<feFlood flood-opacity="0" result="BackgroundImageFix"/>
<feBlend mode="normal" in="SourceGraphic" in2="BackgroundImageFix" result="shape"/>
<feGaussianBlur stdDeviation="1.7" result="effect1_foregroundBlur_233_43437"/>
</filter>
<filter id="filter24_f_233_43437" x="45.7967" y="39.8301" width="29.8731" height="29.8731" filterUnits="userSpaceOnUse" color-interpolation-filters="sRGB">
<feFlood flood-opacity="0" result="BackgroundImageFix"/>
<feBlend mode="normal" in="SourceGraphic" in2="BackgroundImageFix" result="shape"/>
<feGaussianBlur stdDeviation="2.71828" result="effect1_foregroundBlur_233_43437"/>
</filter>
<filter id="filter25_f_233_43437" x="51.2266" y="42.5406" width="21.5527" height="17.4714" filterUnits="userSpaceOnUse" color-interpolation-filters="sRGB">
<feFlood flood-opacity="0" result="BackgroundImageFix"/>
<feBlend mode="normal" in="SourceGraphic" in2="BackgroundImageFix" result="shape"/>
<feGaussianBlur stdDeviation="2.22" result="effect1_foregroundBlur_233_43437"/>
</filter>
<filter id="filter26_f_233_43437" x="51.9581" y="49.7933" width="15.6486" height="13.8918" filterUnits="userSpaceOnUse" color-interpolation-filters="sRGB">
<feFlood flood-opacity="0" result="BackgroundImageFix"/>
<feBlend mode="normal" in="SourceGraphic" in2="BackgroundImageFix" result="shape"/>
<feGaussianBlur stdDeviation="1.22" result="effect1_foregroundBlur_233_43437"/>
</filter>
<filter id="filter27_f_233_43437" x="56.1" y="44.6" width="9.8" height="9.8" filterUnits="userSpaceOnUse" color-interpolation-filters="sRGB">
<feFlood flood-opacity="0" result="BackgroundImageFix"/>
<feBlend mode="normal" in="SourceGraphic" in2="BackgroundImageFix" result="shape"/>
<feGaussianBlur stdDeviation="1.7" result="effect1_foregroundBlur_233_43437"/>
</filter>
<filter id="filter28_f_233_43437" x="45.7967" y="63.8301" width="29.8731" height="29.8731" filterUnits="userSpaceOnUse" color-interpolation-filters="sRGB">
<feFlood flood-opacity="0" result="BackgroundImageFix"/>
<feBlend mode="normal" in="SourceGraphic" in2="BackgroundImageFix" result="shape"/>
<feGaussianBlur stdDeviation="2.71828" result="effect1_foregroundBlur_233_43437"/>
</filter>
<filter id="filter29_f_233_43437" x="51.2266" y="66.5406" width="21.5527" height="17.4714" filterUnits="userSpaceOnUse" color-interpolation-filters="sRGB">
<feFlood flood-opacity="0" result="BackgroundImageFix"/>
<feBlend mode="normal" in="SourceGraphic" in2="BackgroundImageFix" result="shape"/>
<feGaussianBlur stdDeviation="2.22" result="effect1_foregroundBlur_233_43437"/>
</filter>
<filter id="filter30_f_233_43437" x="51.9581" y="73.7933" width="15.6486" height="13.8918" filterUnits="userSpaceOnUse" color-interpolation-filters="sRGB">
<feFlood flood-opacity="0" result="BackgroundImageFix"/>
<feBlend mode="normal" in="SourceGraphic" in2="BackgroundImageFix" result="shape"/>
<feGaussianBlur stdDeviation="1.22" result="effect1_foregroundBlur_233_43437"/>
</filter>
<filter id="filter31_f_233_43437" x="56.1" y="68.6" width="9.8" height="9.8" filterUnits="userSpaceOnUse" color-interpolation-filters="sRGB">
<feFlood flood-opacity="0" result="BackgroundImageFix"/>
<feBlend mode="normal" in="SourceGraphic" in2="BackgroundImageFix" result="shape"/>
<feGaussianBlur stdDeviation="1.7" result="effect1_foregroundBlur_233_43437"/>
</filter>
<filter id="filter32_f_233_43437" x="45.7967" y="87.8301" width="29.8731" height="29.8731" filterUnits="userSpaceOnUse" color-interpolation-filters="sRGB">
<feFlood flood-opacity="0" result="BackgroundImageFix"/>
<feBlend mode="normal" in="SourceGraphic" in2="BackgroundImageFix" result="shape"/>
<feGaussianBlur stdDeviation="2.71828" result="effect1_foregroundBlur_233_43437"/>
</filter>
<filter id="filter33_f_233_43437" x="51.2266" y="90.5406" width="21.5527" height="17.4714" filterUnits="userSpaceOnUse" color-interpolation-filters="sRGB">
<feFlood flood-opacity="0" result="BackgroundImageFix"/>
<feBlend mode="normal" in="SourceGraphic" in2="BackgroundImageFix" result="shape"/>
<feGaussianBlur stdDeviation="2.22" result="effect1_foregroundBlur_233_43437"/>
</filter>
<filter id="filter34_f_233_43437" x="51.9581" y="97.7933" width="15.6486" height="13.8918" filterUnits="userSpaceOnUse" color-interpolation-filters="sRGB">
<feFlood flood-opacity="0" result="BackgroundImageFix"/>
<feBlend mode="normal" in="SourceGraphic" in2="BackgroundImageFix" result="shape"/>
<feGaussianBlur stdDeviation="1.22" result="effect1_foregroundBlur_233_43437"/>
</filter>
<filter id="filter35_f_233_43437" x="56.1" y="92.6" width="9.8" height="9.8" filterUnits="userSpaceOnUse" color-interpolation-filters="sRGB">
<feFlood flood-opacity="0" result="BackgroundImageFix"/>
<feBlend mode="normal" in="SourceGraphic" in2="BackgroundImageFix" result="shape"/>
<feGaussianBlur stdDeviation="1.7" result="effect1_foregroundBlur_233_43437"/>
</filter>
<radialGradient id="paint0_radial_233_43437" cx="0" cy="0" r="1" gradientUnits="userSpaceOnUse" gradientTransform="translate(33.3137 28.8137) rotate(90) scale(8.76989)">
<stop stop-color="white" stop-opacity="0.1"/>
<stop offset="0.635889" stop-color="white" stop-opacity="0.085889"/>
<stop offset="1" stop-opacity="0.08"/>
</radialGradient>
<radialGradient id="paint1_radial_233_43437" cx="0" cy="0" r="1" gradientUnits="userSpaceOnUse" gradientTransform="translate(33.3137 52.8137) rotate(90) scale(8.76989)">
<stop stop-color="white" stop-opacity="0.1"/>
<stop offset="0.635889" stop-color="white" stop-opacity="0.085889"/>
<stop offset="1" stop-opacity="0.08"/>
</radialGradient>
<radialGradient id="paint2_radial_233_43437" cx="0" cy="0" r="1" gradientUnits="userSpaceOnUse" gradientTransform="translate(33.3137 76.8137) rotate(90) scale(8.76989)">
<stop stop-color="white" stop-opacity="0.1"/>
<stop offset="0.635889" stop-color="white" stop-opacity="0.085889"/>
<stop offset="1" stop-opacity="0.08"/>
</radialGradient>
<radialGradient id="paint3_radial_233_43437" cx="0" cy="0" r="1" gradientUnits="userSpaceOnUse" gradientTransform="translate(33.3137 100.814) rotate(90) scale(8.76989)">
<stop stop-color="white" stop-opacity="0.1"/>
<stop offset="0.635889" stop-color="white" stop-opacity="0.085889"/>
<stop offset="1" stop-opacity="0.08"/>
</radialGradient>
<radialGradient id="paint4_radial_233_43437" cx="0" cy="0" r="1" gradientUnits="userSpaceOnUse" gradientTransform="translate(33.3137 124.814) rotate(90) scale(8.76989)">
<stop stop-color="white" stop-opacity="0.1"/>
<stop offset="0.635889" stop-color="white" stop-opacity="0.085889"/>
<stop offset="1" stop-opacity="0.08"/>
</radialGradient>
<radialGradient id="paint5_radial_233_43437" cx="0" cy="0" r="1" gradientUnits="userSpaceOnUse" gradientTransform="translate(61.3137 28.8137) rotate(90) scale(8.76989)">
<stop stop-color="white" stop-opacity="0.1"/>
<stop offset="0.635889" stop-color="white" stop-opacity="0.085889"/>
<stop offset="1" stop-opacity="0.08"/>
</radialGradient>
<radialGradient id="paint6_radial_233_43437" cx="0" cy="0" r="1" gradientUnits="userSpaceOnUse" gradientTransform="translate(61.3137 52.8137) rotate(90) scale(8.76989)">
<stop stop-color="white" stop-opacity="0.1"/>
<stop offset="0.635889" stop-color="white" stop-opacity="0.085889"/>
<stop offset="1" stop-opacity="0.08"/>
</radialGradient>
<radialGradient id="paint7_radial_233_43437" cx="0" cy="0" r="1" gradientUnits="userSpaceOnUse" gradientTransform="translate(61.3137 76.8137) rotate(90) scale(8.76989)">
<stop stop-color="white" stop-opacity="0.1"/>
<stop offset="0.635889" stop-color="white" stop-opacity="0.085889"/>
<stop offset="1" stop-opacity="0.08"/>
</radialGradient>
<radialGradient id="paint8_radial_233_43437" cx="0" cy="0" r="1" gradientUnits="userSpaceOnUse" gradientTransform="translate(61.3137 100.814) rotate(90) scale(8.76989)">
<stop stop-color="white" stop-opacity="0.1"/>
<stop offset="0.635889" stop-color="white" stop-opacity="0.085889"/>
<stop offset="1" stop-opacity="0.08"/>
</radialGradient>
</defs>
</svg>
