<svg width="2372" height="2373" xmlns="http://www.w3.org/2000/svg" xmlns:xlink="http://www.w3.org/1999/xlink" overflow="hidden"><defs><clipPath id="clip0"><rect x="1017" y="52" width="2372" height="2373"/></clipPath></defs><g clip-path="url(#clip0)" transform="translate(-1017 -52)"><rect x="1018" y="55" width="2364" height="2365" fill="#3066A2"/><path d="M1315.27 52.9927 1315.27 2422.01" stroke="#000000" stroke-width="4.58333" stroke-linejoin="round" stroke-miterlimit="10" fill="none" fill-rule="evenodd"/><path d="M1610.76 52.9927 1610.76 2422.01" stroke="#000000" stroke-width="4.58333" stroke-linejoin="round" stroke-miterlimit="10" fill="none" fill-rule="evenodd"/><path d="M1906.24 52.9927 1906.24 2422.01" stroke="#000000" stroke-width="4.58333" stroke-linejoin="round" stroke-miterlimit="10" fill="none" fill-rule="evenodd"/><path d="M2201.72 52.9927 2201.72 2422.01" stroke="#000000" stroke-width="4.58333" stroke-linejoin="round" stroke-miterlimit="10" fill="none" fill-rule="evenodd"/><path d="M2497.2 52.9927 2497.2 2422.01" stroke="#000000" stroke-width="4.58333" stroke-linejoin="round" stroke-miterlimit="10" fill="none" fill-rule="evenodd"/><path d="M2792.68 52.9927 2792.68 2422.01" stroke="#000000" stroke-width="4.58333" stroke-linejoin="round" stroke-miterlimit="10" fill="none" fill-rule="evenodd"/><path d="M3088.16 52.9927 3088.16 2422.01" stroke="#000000" stroke-width="4.58333" stroke-linejoin="round" stroke-miterlimit="10" fill="none" fill-rule="evenodd"/><path d="M1017.5 350.838 3385.94 350.838" stroke="#000000" stroke-width="4.58333" stroke-linejoin="round" stroke-miterlimit="10" fill="none" fill-rule="evenodd"/><path d="M1017.5 646.392 3385.94 646.392" stroke="#000000" stroke-width="4.58333" stroke-linejoin="round" stroke-miterlimit="10" fill="none" fill-rule="evenodd"/><path d="M1017.5 941.946 3385.94 941.946" stroke="#000000" stroke-width="4.58333" stroke-linejoin="round" stroke-miterlimit="10" fill="none" fill-rule="evenodd"/><path d="M1017.5 1237.5 3385.94 1237.5" stroke="#000000" stroke-width="4.58333" stroke-linejoin="round" stroke-miterlimit="10" fill="none" fill-rule="evenodd"/><path d="M1017.5 1533.05 3385.94 1533.05" stroke="#000000" stroke-width="4.58333" stroke-linejoin="round" stroke-miterlimit="10" fill="none" fill-rule="evenodd"/><path d="M1017.5 1828.61 3385.94 1828.61" stroke="#000000" stroke-width="4.58333" stroke-linejoin="round" stroke-miterlimit="10" fill="none" fill-rule="evenodd"/><path d="M1017.5 2124.16 3385.94 2124.16" stroke="#000000" stroke-width="4.58333" stroke-linejoin="round" stroke-miterlimit="10" fill="none" fill-rule="evenodd"/><path d="M1019.79 52.9927 1019.79 2422.01" stroke="#000000" stroke-width="4.58333" stroke-linejoin="round" stroke-miterlimit="10" fill="none" fill-rule="evenodd"/><path d="M3383.65 52.9927 3383.65 2422.01" stroke="#000000" stroke-width="4.58333" stroke-linejoin="round" stroke-miterlimit="10" fill="none" fill-rule="evenodd"/><path d="M1017.5 55.2844 3385.94 55.2844" stroke="#000000" stroke-width="4.58333" stroke-linejoin="round" stroke-miterlimit="10" fill="none" fill-rule="evenodd"/><path d="M1017.5 2419.72 3385.94 2419.72" stroke="#000000" stroke-width="4.58333" stroke-linejoin="round" stroke-miterlimit="10" fill="none" fill-rule="evenodd"/><path d="M1595.5 647.5C1595.5 639.216 1602.22 632.5 1610.5 632.5 1618.78 632.5 1625.5 639.216 1625.5 647.5 1625.5 655.784 1618.78 662.5 1610.5 662.5 1602.22 662.5 1595.5 655.784 1595.5 647.5Z" stroke="#000000" stroke-width="4.58333" stroke-miterlimit="8" fill-rule="evenodd"/><path d="M2778.5 647.5C2778.5 639.216 2785.22 632.5 2793.5 632.5 2801.78 632.5 2808.5 639.216 2808.5 647.5 2808.5 655.784 2801.78 662.5 2793.5 662.5 2785.22 662.5 2778.5 655.784 2778.5 647.5Z" stroke="#000000" stroke-width="4.58333" stroke-miterlimit="8" fill-rule="evenodd"/><path d="M1596.5 1830.5C1596.5 1822.22 1603.22 1815.5 1611.5 1815.5 1619.78 1815.5 1626.5 1822.22 1626.5 1830.5 1626.5 1838.78 1619.78 1845.5 1611.5 1845.5 1603.22 1845.5 1596.5 1838.78 1596.5 1830.5Z" stroke="#000000" stroke-width="4.58333" stroke-miterlimit="8" fill-rule="evenodd"/><path d="M2776.5 1830.5C2776.5 1822.22 2783.22 1815.5 2791.5 1815.5 2799.78 1815.5 2806.5 1822.22 2806.5 1830.5 2806.5 1838.78 2799.78 1845.5 2791.5 1845.5 2783.22 1845.5 2776.5 1838.78 2776.5 1830.5Z" stroke="#000000" stroke-width="4.58333" stroke-miterlimit="8" fill-rule="evenodd"/></g></svg>
