<svg width="2957" height="2964" xmlns="http://www.w3.org/2000/svg" xmlns:xlink="http://www.w3.org/1999/xlink" xml:space="preserve" overflow="hidden"><defs><clipPath id="clip0"><rect x="1017" y="52" width="2957" height="2964"/></clipPath></defs><g clip-path="url(#clip0)" transform="translate(-1017 -52)"><rect x="1018" y="55" width="2949" height="2956" fill="#30A230"/><path d="M1314.71 52.9927 1314.71 3013.12" stroke="#000000" stroke-width="4.58333" stroke-linejoin="round" stroke-miterlimit="10" fill="none" fill-rule="evenodd"/><path d="M1609.63 52.9927 1609.63 3013.12" stroke="#000000" stroke-width="4.58333" stroke-linejoin="round" stroke-miterlimit="10" fill="none" fill-rule="evenodd"/><path d="M1904.56 52.9927 1904.56 3013.12" stroke="#000000" stroke-width="4.58333" stroke-linejoin="round" stroke-miterlimit="10" fill="none" fill-rule="evenodd"/><path d="M2199.48 52.9927 2199.48 3013.12" stroke="#000000" stroke-width="4.58333" stroke-linejoin="round" stroke-miterlimit="10" fill="none" fill-rule="evenodd"/><path d="M2494.4 52.9927 2494.4 3013.12" stroke="#000000" stroke-width="4.58333" stroke-linejoin="round" stroke-miterlimit="10" fill="none" fill-rule="evenodd"/><path d="M2789.32 52.9927 2789.32 3013.12" stroke="#000000" stroke-width="4.58333" stroke-linejoin="round" stroke-miterlimit="10" fill="none" fill-rule="evenodd"/><path d="M3084.24 52.9927 3084.24 3013.12" stroke="#000000" stroke-width="4.58333" stroke-linejoin="round" stroke-miterlimit="10" fill="none" fill-rule="evenodd"/><path d="M3379.16 52.9927 3379.16 3013.12" stroke="#000000" stroke-width="4.58333" stroke-linejoin="round" stroke-miterlimit="10" fill="none" fill-rule="evenodd"/><path d="M3674.08 52.9927 3674.08 3013.12" stroke="#000000" stroke-width="4.58333" stroke-linejoin="round" stroke-miterlimit="10" fill="none" fill-rule="evenodd"/><path d="M1017.5 350.838 3971.3 350.838" stroke="#000000" stroke-width="4.58333" stroke-linejoin="round" stroke-miterlimit="10" fill="none" fill-rule="evenodd"/><path d="M1017.5 646.392 3971.3 646.392" stroke="#000000" stroke-width="4.58333" stroke-linejoin="round" stroke-miterlimit="10" fill="none" fill-rule="evenodd"/><path d="M1017.5 941.946 3971.3 941.946" stroke="#000000" stroke-width="4.58333" stroke-linejoin="round" stroke-miterlimit="10" fill="none" fill-rule="evenodd"/><path d="M1017.5 1237.5 3971.3 1237.5" stroke="#000000" stroke-width="4.58333" stroke-linejoin="round" stroke-miterlimit="10" fill="none" fill-rule="evenodd"/><path d="M1017.5 1533.05 3971.3 1533.05" stroke="#000000" stroke-width="4.58333" stroke-linejoin="round" stroke-miterlimit="10" fill="none" fill-rule="evenodd"/><path d="M1017.5 1828.61 3971.3 1828.61" stroke="#000000" stroke-width="4.58333" stroke-linejoin="round" stroke-miterlimit="10" fill="none" fill-rule="evenodd"/><path d="M1017.5 2124.16 3971.3 2124.16" stroke="#000000" stroke-width="4.58333" stroke-linejoin="round" stroke-miterlimit="10" fill="none" fill-rule="evenodd"/><path d="M1017.5 2419.72 3971.3 2419.72" stroke="#000000" stroke-width="4.58333" stroke-linejoin="round" stroke-miterlimit="10" fill="none" fill-rule="evenodd"/><path d="M1017.5 2715.27 3971.3 2715.27" stroke="#000000" stroke-width="4.58333" stroke-linejoin="round" stroke-miterlimit="10" fill="none" fill-rule="evenodd"/><path d="M1019.79 52.9927 1019.79 3013.12" stroke="#000000" stroke-width="4.58333" stroke-linejoin="round" stroke-miterlimit="10" fill="none" fill-rule="evenodd"/><path d="M3969 52.9927 3969 3013.12" stroke="#000000" stroke-width="4.58333" stroke-linejoin="round" stroke-miterlimit="10" fill="none" fill-rule="evenodd"/><path d="M1017.5 55.2844 3971.3 55.2844" stroke="#000000" stroke-width="4.58333" stroke-linejoin="round" stroke-miterlimit="10" fill="none" fill-rule="evenodd"/><path d="M1017.5 3010.82 3971.3 3010.82" stroke="#000000" stroke-width="4.58333" stroke-linejoin="round" stroke-miterlimit="10" fill="none" fill-rule="evenodd"/><path d="M1888.5 941.5C1888.5 933.216 1895.22 926.5 1903.5 926.5 1911.78 926.5 1918.5 933.216 1918.5 941.5 1918.5 949.784 1911.78 956.5 1903.5 956.5 1895.22 956.5 1888.5 949.784 1888.5 941.5Z" stroke="#000000" stroke-width="4.58333" stroke-miterlimit="8" fill-rule="evenodd"/><path d="M3069.5 940.5C3069.5 932.216 3076.22 925.5 3084.5 925.5 3092.78 925.5 3099.5 932.216 3099.5 940.5 3099.5 948.784 3092.78 955.5 3084.5 955.5 3076.22 955.5 3069.5 948.784 3069.5 940.5Z" stroke="#000000" stroke-width="4.58333" stroke-miterlimit="8" fill-rule="evenodd"/><path d="M1888.5 2124.5C1888.5 2116.22 1895.22 2109.5 1903.5 2109.5 1911.78 2109.5 1918.5 2116.22 1918.5 2124.5 1918.5 2132.78 1911.78 2139.5 1903.5 2139.5 1895.22 2139.5 1888.5 2132.78 1888.5 2124.5Z" stroke="#000000" stroke-width="4.58333" stroke-miterlimit="8" fill-rule="evenodd"/><path d="M3069.5 2123.5C3069.5 2115.22 3076.22 2108.5 3084.5 2108.5 3092.78 2108.5 3099.5 2115.22 3099.5 2123.5 3099.5 2131.78 3092.78 2138.5 3084.5 2138.5 3076.22 2138.5 3069.5 2131.78 3069.5 2123.5Z" stroke="#000000" stroke-width="4.58333" stroke-miterlimit="8" fill-rule="evenodd"/></g></svg>