<svg width="2372" height="2373" xmlns="http://www.w3.org/2000/svg" xmlns:xlink="http://www.w3.org/1999/xlink" overflow="hidden"><defs><clipPath id="clip0"><rect x="1016" y="54" width="2372" height="2373"/></clipPath></defs><g clip-path="url(#clip0)" transform="translate(-1016 -54)"><rect x="1031" y="68.0001" width="2338" height="2339" stroke="#000000" stroke-width="27.5" stroke-miterlimit="8" fill="#30A230"/><path d="M1314.13 55 1314.13 2424.01" stroke="#000000" stroke-width="4.58333" stroke-linejoin="round" stroke-miterlimit="10" fill="none" fill-rule="evenodd"/><path d="M1609.61 55 1609.61 2424.01" stroke="#000000" stroke-width="4.58333" stroke-linejoin="round" stroke-miterlimit="10" fill="none" fill-rule="evenodd"/><path d="M1905.09 55 1905.09 2424.01" stroke="#000000" stroke-width="4.58333" stroke-linejoin="round" stroke-miterlimit="10" fill="none" fill-rule="evenodd"/><path d="M2200.57 55 2200.57 2424.01" stroke="#000000" stroke-width="4.58333" stroke-linejoin="round" stroke-miterlimit="10" fill="none" fill-rule="evenodd"/><path d="M2496.05 55 2496.05 2424.01" stroke="#000000" stroke-width="4.58333" stroke-linejoin="round" stroke-miterlimit="10" fill="none" fill-rule="evenodd"/><path d="M2791.54 55 2791.54 2424.01" stroke="#000000" stroke-width="4.58333" stroke-linejoin="round" stroke-miterlimit="10" fill="none" fill-rule="evenodd"/><path d="M3087.02 55 3087.02 2424.01" stroke="#000000" stroke-width="4.58333" stroke-linejoin="round" stroke-miterlimit="10" fill="none" fill-rule="evenodd"/><path d="M1016.35 352.846 3384.79 352.846" stroke="#000000" stroke-width="4.58333" stroke-linejoin="round" stroke-miterlimit="10" fill="none" fill-rule="evenodd"/><path d="M1016.35 648.399 3384.79 648.399" stroke="#000000" stroke-width="4.58333" stroke-linejoin="round" stroke-miterlimit="10" fill="none" fill-rule="evenodd"/><path d="M1016.35 943.953 3384.79 943.953" stroke="#000000" stroke-width="4.58333" stroke-linejoin="round" stroke-miterlimit="10" fill="none" fill-rule="evenodd"/><path d="M1016.35 1239.51 3384.79 1239.51" stroke="#000000" stroke-width="4.58333" stroke-linejoin="round" stroke-miterlimit="10" fill="none" fill-rule="evenodd"/><path d="M1016.35 1535.06 3384.79 1535.06" stroke="#000000" stroke-width="4.58333" stroke-linejoin="round" stroke-miterlimit="10" fill="none" fill-rule="evenodd"/><path d="M1016.35 1830.61 3384.79 1830.61" stroke="#000000" stroke-width="4.58333" stroke-linejoin="round" stroke-miterlimit="10" fill="none" fill-rule="evenodd"/><path d="M1016.35 2126.17 3384.79 2126.17" stroke="#000000" stroke-width="4.58333" stroke-linejoin="round" stroke-miterlimit="10" fill="none" fill-rule="evenodd"/><path d="M1018.65 55 1018.65 2424.01" stroke="#000000" stroke-width="4.58333" stroke-linejoin="round" stroke-miterlimit="10" fill="none" fill-rule="evenodd"/><path d="M3382.5 55 3382.5 2424.01" stroke="#000000" stroke-width="4.58333" stroke-linejoin="round" stroke-miterlimit="10" fill="none" fill-rule="evenodd"/><path d="M1016.35 57.2917 3384.79 57.2917" stroke="#000000" stroke-width="4.58333" stroke-linejoin="round" stroke-miterlimit="10" fill="none" fill-rule="evenodd"/><path d="M1016.35 2421.72 3384.79 2421.72" stroke="#000000" stroke-width="4.58333" stroke-linejoin="round" stroke-miterlimit="10" fill="none" fill-rule="evenodd"/><path d="M1595.5 647.5C1595.5 639.216 1602.22 632.5 1610.5 632.5 1618.78 632.5 1625.5 639.216 1625.5 647.5 1625.5 655.784 1618.78 662.5 1610.5 662.5 1602.22 662.5 1595.5 655.784 1595.5 647.5Z" stroke="#000000" stroke-width="4.58333" stroke-miterlimit="8" fill-rule="evenodd"/><path d="M2778.5 647.5C2778.5 639.216 2785.22 632.5 2793.5 632.5 2801.78 632.5 2808.5 639.216 2808.5 647.5 2808.5 655.784 2801.78 662.5 2793.5 662.5 2785.22 662.5 2778.5 655.784 2778.5 647.5Z" stroke="#000000" stroke-width="4.58333" stroke-miterlimit="8" fill-rule="evenodd"/><path d="M1596.5 1830.5C1596.5 1822.22 1603.22 1815.5 1611.5 1815.5 1619.78 1815.5 1626.5 1822.22 1626.5 1830.5 1626.5 1838.78 1619.78 1845.5 1611.5 1845.5 1603.22 1845.5 1596.5 1838.78 1596.5 1830.5Z" stroke="#000000" stroke-width="4.58333" stroke-miterlimit="8" fill-rule="evenodd"/><path d="M2776.5 1830.5C2776.5 1822.22 2783.22 1815.5 2791.5 1815.5 2799.78 1815.5 2806.5 1822.22 2806.5 1830.5 2806.5 1838.78 2799.78 1845.5 2791.5 1845.5 2783.22 1845.5 2776.5 1838.78 2776.5 1830.5Z" stroke="#000000" stroke-width="4.58333" stroke-miterlimit="8" fill-rule="evenodd"/></g></svg>