<svg width="3000" height="3000" viewBox="0 0 3000 3000" xmlns="http://www.w3.org/2000/svg">
  <g>
    <rect x="600" y="2700" width="300" height="300" fill="#30A230"/>
    <rect x="900" y="2700" width="300" height="300" fill="#30A230"/>
    <rect x="1200" y="2700" width="300" height="300" fill="#30A230"/>
    <rect x="1500" y="2700" width="300" height="300" fill="#30A230"/>
    <rect x="1800" y="2700" width="300" height="300" fill="#30A230"/>
    <rect x="2100" y="2700" width="300" height="300" fill="#30A230"/>
    <rect x="300" y="2400" width="300" height="300" fill="#30A230"/>
    <rect x="600" y="2400" width="300" height="300" fill="#30A230"/>
    <rect x="900" y="2400" width="300" height="300" fill="#30A230"/>
    <rect x="1200" y="2400" width="300" height="300" fill="#30A230"/>
    <rect x="1500" y="2400" width="300" height="300" fill="#30A230"/>
    <rect x="1800" y="2400" width="300" height="300" fill="#30A230"/>
    <rect x="2100" y="2400" width="300" height="300" fill="#30A230"/>
    <rect x="2400" y="2400" width="300" height="300" fill="#30A230"/>
    <rect x="0" y="2100" width="300" height="300" fill="#30A230"/>
    <rect x="300" y="2100" width="300" height="300" fill="#30A230"/>
    <rect x="600" y="2100" width="300" height="300" fill="#30A230"/>
    <rect x="900" y="2100" width="300" height="300" fill="#30A230"/>
    <rect x="1200" y="2100" width="300" height="300" fill="#30A230"/>
    <rect x="1500" y="2100" width="300" height="300" fill="#30A230"/>
    <rect x="1800" y="2100" width="300" height="300" fill="#30A230"/>
    <rect x="2100" y="2100" width="300" height="300" fill="#30A230"/>
    <rect x="2400" y="2100" width="300" height="300" fill="#30A230"/>
    <rect x="2700" y="2100" width="300" height="300" fill="#30A230"/>
    <rect x="0" y="1800" width="300" height="300" fill="#30A230"/>
    <rect x="300" y="1800" width="300" height="300" fill="#30A230"/>
    <rect x="600" y="1800" width="300" height="300" fill="#30A230"/>
    <rect x="900" y="1800" width="300" height="300" fill="#30A230"/>
    <rect x="1200" y="1800" width="300" height="300" fill="#30A230"/>
    <rect x="1500" y="1800" width="300" height="300" fill="#30A230"/>
    <rect x="1800" y="1800" width="300" height="300" fill="#30A230"/>
    <rect x="2100" y="1800" width="300" height="300" fill="#30A230"/>
    <rect x="2400" y="1800" width="300" height="300" fill="#30A230"/>
    <rect x="2700" y="1800" width="300" height="300" fill="#30A230"/>
    <rect x="0" y="1500" width="300" height="300" fill="#30A230"/>
    <rect x="300" y="1500" width="300" height="300" fill="#30A230"/>
    <rect x="600" y="1500" width="300" height="300" fill="#30A230"/>
    <rect x="900" y="1500" width="300" height="300" fill="#30A230"/>
    <rect x="1200" y="1500" width="300" height="300" fill="#30A230"/>
    <rect x="1500" y="1500" width="300" height="300" fill="#30A230"/>
    <rect x="1800" y="1500" width="300" height="300" fill="#30A230"/>
    <rect x="2100" y="1500" width="300" height="300" fill="#30A230"/>
    <rect x="2400" y="1500" width="300" height="300" fill="#30A230"/>
    <rect x="2700" y="1500" width="300" height="300" fill="#30A230"/>
    <rect x="0" y="1200" width="300" height="300" fill="#30A230"/>
    <rect x="300" y="1200" width="300" height="300" fill="#30A230"/>
    <rect x="600" y="1200" width="300" height="300" fill="#30A230"/>
    <rect x="900" y="1200" width="300" height="300" fill="#30A230"/>
    <rect x="1200" y="1200" width="300" height="300" fill="#30A230"/>
    <rect x="1500" y="1200" width="300" height="300" fill="#30A230"/>
    <rect x="1800" y="1200" width="300" height="300" fill="#30A230"/>
    <rect x="2100" y="1200" width="300" height="300" fill="#30A230"/>
    <rect x="2400" y="1200" width="300" height="300" fill="#30A230"/>
    <rect x="2700" y="1200" width="300" height="300" fill="#30A230"/>
    <rect x="0" y="900" width="300" height="300" fill="#30A230"/>
    <rect x="300" y="900" width="300" height="300" fill="#30A230"/>
    <rect x="600" y="900" width="300" height="300" fill="#30A230"/>
    <rect x="900" y="900" width="300" height="300" fill="#30A230"/>
    <rect x="1200" y="900" width="300" height="300" fill="#30A230"/>
    <rect x="1500" y="900" width="300" height="300" fill="#30A230"/>
    <rect x="1800" y="900" width="300" height="300" fill="#30A230"/>
    <rect x="2100" y="900" width="300" height="300" fill="#30A230"/>
    <rect x="2400" y="900" width="300" height="300" fill="#30A230"/>
    <rect x="2700" y="900" width="300" height="300" fill="#30A230"/>
    <rect x="0" y="600" width="300" height="300" fill="#30A230"/>
    <rect x="300" y="600" width="300" height="300" fill="#30A230"/>
    <rect x="600" y="600" width="300" height="300" fill="#30A230"/>
    <rect x="900" y="600" width="300" height="300" fill="#30A230"/>
    <rect x="1200" y="600" width="300" height="300" fill="#30A230"/>
    <rect x="1500" y="600" width="300" height="300" fill="#30A230"/>
    <rect x="1800" y="600" width="300" height="300" fill="#30A230"/>
    <rect x="2100" y="600" width="300" height="300" fill="#30A230"/>
    <rect x="2400" y="600" width="300" height="300" fill="#30A230"/>
    <rect x="2700" y="600" width="300" height="300" fill="#30A230"/>
    <rect x="300" y="300" width="300" height="300" fill="#30A230"/>
    <rect x="600" y="300" width="300" height="300" fill="#30A230"/>
    <rect x="900" y="300" width="300" height="300" fill="#30A230"/>
    <rect x="1200" y="300" width="300" height="300" fill="#30A230"/>
    <rect x="1500" y="300" width="300" height="300" fill="#30A230"/>
    <rect x="1800" y="300" width="300" height="300" fill="#30A230"/>
    <rect x="2100" y="300" width="300" height="300" fill="#30A230"/>
    <rect x="2400" y="300" width="300" height="300" fill="#30A230"/>
    <rect x="600" y="0" width="300" height="300" fill="#30A230"/>
    <rect x="900" y="0" width="300" height="300" fill="#30A230"/>
    <rect x="1200" y="0" width="300" height="300" fill="#30A230"/>
    <rect x="1500" y="0" width="300" height="300" fill="#30A230"/>
    <rect x="1800" y="0" width="300" height="300" fill="#30A230"/>
    <rect x="2100" y="0" width="300" height="300" fill="#30A230"/>
  </g>
  <g stroke="black" stroke-width="4">
    <line x1="0" y1="600" x2="0" y2="2400"/>
    <line x1="300" y1="300" x2="300" y2="2700"/>
    <line x1="600" y1="0" x2="600" y2="3000"/>
    <line x1="900" y1="0" x2="900" y2="3000"/>
    <line x1="1200" y1="0" x2="1200" y2="3000"/>
    <line x1="1500" y1="0" x2="1500" y2="3000"/>
    <line x1="1800" y1="0" x2="1800" y2="3000"/>
    <line x1="2100" y1="0" x2="2100" y2="3000"/>
    <line x1="2400" y1="0" x2="2400" y2="3000"/>
    <line x1="2700" y1="300" x2="2700" y2="2700"/>
    <line x1="3000" y1="600" x2="3000" y2="2400"/>
    <line x1="600" y1="0" x2="2400" y2="0"/>
    <line x1="300" y1="300" x2="2700" y2="300"/>
    <line x1="0" y1="600" x2="3000" y2="600"/>
    <line x1="0" y1="900" x2="3000" y2="900"/>
    <line x1="0" y1="1200" x2="3000" y2="1200"/>
    <line x1="0" y1="1500" x2="3000" y2="1500"/>
    <line x1="0" y1="1800" x2="3000" y2="1800"/>
    <line x1="0" y1="2100" x2="3000" y2="2100"/>
    <line x1="0" y1="2400" x2="3000" y2="2400"/>
    <line x1="300" y1="2700" x2="2700" y2="2700"/>
    <line x1="600" y1="3000" x2="2400" y2="3000"/>
  </g>
    <g>
    <circle cx="900" cy="900" r="18" fill="black"/>
    <circle cx="900" cy="2100" r="18" fill="black"/>
    <circle cx="2100" cy="900" r="18" fill="black"/>
    <circle cx="2100" cy="2100" r="18" fill="black"/>
  </g>
</svg>
