<?xml version="1.0" encoding="UTF-8"?>
<svg width="144px" height="144px" viewBox="0 0 144 144" version="1.1" xmlns="http://www.w3.org/2000/svg" xmlns:xlink="http://www.w3.org/1999/xlink">
    <title>seeds-39</title>
    <defs>
        <rect id="path-1" x="0" y="0" width="144" height="144"></rect>
        <filter x="-22.2%" y="-26.1%" width="144.4%" height="152.2%" filterUnits="objectBoundingBox" id="filter-3">
            <feGaussianBlur stdDeviation="2" in="SourceGraphic"></feGaussianBlur>
        </filter>
        <radialGradient cx="46.387808%" cy="46.387808%" fx="46.387808%" fy="46.387808%" r="46.1573049%" gradientTransform="translate(0.463878,0.463878),scale(0.851852,1.000000),rotate(90.000000),translate(-0.463878,-0.463878)" id="radialGradient-4">
            <stop stop-color="#FFFFFF" stop-opacity="0.1" offset="0%"></stop>
            <stop stop-color="#FFFFFF" stop-opacity="0.0858890035" offset="63.5889013%"></stop>
            <stop stop-color="#000000" stop-opacity="0.08" offset="100%"></stop>
        </radialGradient>
        <ellipse id="path-5" cx="13.5" cy="11.5" rx="13.5" ry="11.5"></ellipse>
        <filter x="-34.6%" y="-38.6%" width="169.2%" height="177.3%" filterUnits="objectBoundingBox" id="filter-6">
            <feGaussianBlur stdDeviation="2" in="SourceGraphic"></feGaussianBlur>
        </filter>
        <filter x="-22.2%" y="-26.1%" width="144.4%" height="152.2%" filterUnits="objectBoundingBox" id="filter-7">
            <feGaussianBlur stdDeviation="2" in="SourceGraphic"></feGaussianBlur>
        </filter>
        <ellipse id="path-8" cx="13.5" cy="11.5" rx="13.5" ry="11.5"></ellipse>
        <filter x="-34.6%" y="-38.6%" width="169.2%" height="177.3%" filterUnits="objectBoundingBox" id="filter-9">
            <feGaussianBlur stdDeviation="2" in="SourceGraphic"></feGaussianBlur>
        </filter>
        <filter x="-22.2%" y="-26.1%" width="144.4%" height="152.2%" filterUnits="objectBoundingBox" id="filter-10">
            <feGaussianBlur stdDeviation="2" in="SourceGraphic"></feGaussianBlur>
        </filter>
        <ellipse id="path-11" cx="13.5" cy="11.5" rx="13.5" ry="11.5"></ellipse>
        <filter x="-34.6%" y="-38.6%" width="169.2%" height="177.3%" filterUnits="objectBoundingBox" id="filter-12">
            <feGaussianBlur stdDeviation="2" in="SourceGraphic"></feGaussianBlur>
        </filter>
        <filter x="-22.2%" y="-26.1%" width="144.4%" height="152.2%" filterUnits="objectBoundingBox" id="filter-13">
            <feGaussianBlur stdDeviation="2" in="SourceGraphic"></feGaussianBlur>
        </filter>
        <ellipse id="path-14" cx="13.5" cy="11.5" rx="13.5" ry="11.5"></ellipse>
        <filter x="-34.6%" y="-38.6%" width="169.2%" height="177.3%" filterUnits="objectBoundingBox" id="filter-15">
            <feGaussianBlur stdDeviation="2" in="SourceGraphic"></feGaussianBlur>
        </filter>
        <filter x="-22.2%" y="-26.1%" width="144.4%" height="152.2%" filterUnits="objectBoundingBox" id="filter-16">
            <feGaussianBlur stdDeviation="2" in="SourceGraphic"></feGaussianBlur>
        </filter>
        <ellipse id="path-17" cx="13.5" cy="11.5" rx="13.5" ry="11.5"></ellipse>
        <filter x="-34.6%" y="-38.6%" width="169.2%" height="177.3%" filterUnits="objectBoundingBox" id="filter-18">
            <feGaussianBlur stdDeviation="2" in="SourceGraphic"></feGaussianBlur>
        </filter>
        <filter x="-22.2%" y="-26.1%" width="144.4%" height="152.2%" filterUnits="objectBoundingBox" id="filter-19">
            <feGaussianBlur stdDeviation="2" in="SourceGraphic"></feGaussianBlur>
        </filter>
        <ellipse id="path-20" cx="13.5" cy="11.5" rx="13.5" ry="11.5"></ellipse>
        <filter x="-34.6%" y="-38.6%" width="169.2%" height="177.3%" filterUnits="objectBoundingBox" id="filter-21">
            <feGaussianBlur stdDeviation="2" in="SourceGraphic"></feGaussianBlur>
        </filter>
        <filter x="-22.2%" y="-26.1%" width="144.4%" height="152.2%" filterUnits="objectBoundingBox" id="filter-22">
            <feGaussianBlur stdDeviation="2" in="SourceGraphic"></feGaussianBlur>
        </filter>
        <ellipse id="path-23" cx="13.5" cy="11.5" rx="13.5" ry="11.5"></ellipse>
        <filter x="-34.6%" y="-38.6%" width="169.2%" height="177.3%" filterUnits="objectBoundingBox" id="filter-24">
            <feGaussianBlur stdDeviation="2" in="SourceGraphic"></feGaussianBlur>
        </filter>
        <filter x="-22.2%" y="-26.1%" width="144.4%" height="152.2%" filterUnits="objectBoundingBox" id="filter-25">
            <feGaussianBlur stdDeviation="2" in="SourceGraphic"></feGaussianBlur>
        </filter>
        <ellipse id="path-26" cx="13.5" cy="11.5" rx="13.5" ry="11.5"></ellipse>
        <filter x="-34.6%" y="-38.6%" width="169.2%" height="177.3%" filterUnits="objectBoundingBox" id="filter-27">
            <feGaussianBlur stdDeviation="2" in="SourceGraphic"></feGaussianBlur>
        </filter>
        <filter x="-22.2%" y="-26.1%" width="144.4%" height="152.2%" filterUnits="objectBoundingBox" id="filter-28">
            <feGaussianBlur stdDeviation="2" in="SourceGraphic"></feGaussianBlur>
        </filter>
        <ellipse id="path-29" cx="13.5" cy="11.5" rx="13.5" ry="11.5"></ellipse>
        <filter x="-34.6%" y="-38.6%" width="169.2%" height="177.3%" filterUnits="objectBoundingBox" id="filter-30">
            <feGaussianBlur stdDeviation="2" in="SourceGraphic"></feGaussianBlur>
        </filter>
    </defs>
    <g id="Page-1" stroke="none" stroke-width="1" fill="none" fill-rule="evenodd">
        <g id="8+-seeds" transform="translate(-340.000000, -908.000000)">
            <g id="seeds-39" transform="translate(340.000000, 908.000000)">
                <mask id="mask-2" fill="white">
                    <use xlink:href="#path-1"></use>
                </mask>
                <use id="Mask" fill-opacity="0.01" fill="#FFFFFF" xlink:href="#path-1"></use>
                <g id="Seeds" mask="url(#mask-2)">
                    <g transform="translate(21.000000, 26.000000)" id="Group">
                        <g transform="translate(28.000000, 21.000000)">
                            <ellipse id="shadow" fill="#000000" opacity="0.4" style="mix-blend-mode: multiply;" filter="url(#filter-3)" cx="18.5" cy="19.0828118" rx="13.5" ry="11.5"></ellipse>
                            <g id="colour---red" transform="translate(6.000000, 6.582812)">
                                <use fill="#D02424" xlink:href="#path-5"></use>
                                <use fill="url(#radialGradient-4)" xlink:href="#path-5"></use>
                            </g>
                            <ellipse id="gradient" fill="url(#radialGradient-4)" cx="19.5" cy="18.0828118" rx="13.5" ry="11.5"></ellipse>
                            <path d="M12.5948736,25.0350541 C11.3899054,18.6960045 12.8422208,14.1754906 16.9518199,11.4735124 C21.0614189,8.7715343 25.2518379,8.85187883 29.5230768,11.714546 C25.6309065,10.7024657 21.7895756,11.6688261 17.999084,14.6136272 C14.2085923,17.5584284 12.4071889,21.0322373 12.5948736,25.0350541 Z" id="glow" fill="#FFFFFF" filter="url(#filter-6)" transform="translate(20.854074, 17.270301) rotate(-300.000000) translate(-20.854074, -17.270301) "></path>
                        </g>
                        <g transform="translate(32.000000, 44.000000)">
                            <ellipse id="shadow" fill="#000000" opacity="0.4" style="mix-blend-mode: multiply;" filter="url(#filter-7)" cx="18.5" cy="19.0828118" rx="13.5" ry="11.5"></ellipse>
                            <g id="colour---red" transform="translate(6.000000, 6.582812)">
                                <use fill="#D02424" xlink:href="#path-8"></use>
                                <use fill="url(#radialGradient-4)" xlink:href="#path-8"></use>
                            </g>
                            <ellipse id="gradient" fill="url(#radialGradient-4)" cx="19.5" cy="18.0828118" rx="13.5" ry="11.5"></ellipse>
                            <path d="M12.5948736,25.0350541 C11.3899054,18.6960045 12.8422208,14.1754906 16.9518199,11.4735124 C21.0614189,8.7715343 25.2518379,8.85187883 29.5230768,11.714546 C25.6309065,10.7024657 21.7895756,11.6688261 17.999084,14.6136272 C14.2085923,17.5584284 12.4071889,21.0322373 12.5948736,25.0350541 Z" id="glow" fill="#FFFFFF" filter="url(#filter-9)" transform="translate(20.854074, 17.270301) rotate(-300.000000) translate(-20.854074, -17.270301) "></path>
                        </g>
                        <g transform="translate(0.000000, 31.000000)">
                            <ellipse id="shadow" fill="#000000" opacity="0.4" style="mix-blend-mode: multiply;" filter="url(#filter-10)" cx="18.5" cy="19.0828118" rx="13.5" ry="11.5"></ellipse>
                            <g id="colour---red" transform="translate(6.000000, 6.582812)">
                                <use fill="#D02424" xlink:href="#path-11"></use>
                                <use fill="url(#radialGradient-4)" xlink:href="#path-11"></use>
                            </g>
                            <ellipse id="gradient" fill="url(#radialGradient-4)" cx="19.5" cy="18.0828118" rx="13.5" ry="11.5"></ellipse>
                            <path d="M12.5948736,25.0350541 C11.3899054,18.6960045 12.8422208,14.1754906 16.9518199,11.4735124 C21.0614189,8.7715343 25.2518379,8.85187883 29.5230768,11.714546 C25.6309065,10.7024657 21.7895756,11.6688261 17.999084,14.6136272 C14.2085923,17.5584284 12.4071889,21.0322373 12.5948736,25.0350541 Z" id="glow" fill="#FFFFFF" filter="url(#filter-12)" transform="translate(20.854074, 17.270301) rotate(-300.000000) translate(-20.854074, -17.270301) "></path>
                        </g>
                        <g transform="translate(14.000000, 52.000000)">
                            <ellipse id="shadow" fill="#000000" opacity="0.4" style="mix-blend-mode: multiply;" filter="url(#filter-13)" cx="18.5" cy="19.0828118" rx="13.5" ry="11.5"></ellipse>
                            <g id="colour---red" transform="translate(6.000000, 6.582812)">
                                <use fill="#D02424" xlink:href="#path-14"></use>
                                <use fill="url(#radialGradient-4)" xlink:href="#path-14"></use>
                            </g>
                            <ellipse id="gradient" fill="url(#radialGradient-4)" cx="19.5" cy="18.0828118" rx="13.5" ry="11.5"></ellipse>
                            <path d="M12.5948736,25.0350541 C11.3899054,18.6960045 12.8422208,14.1754906 16.9518199,11.4735124 C21.0614189,8.7715343 25.2518379,8.85187883 29.5230768,11.714546 C25.6309065,10.7024657 21.7895756,11.6688261 17.999084,14.6136272 C14.2085923,17.5584284 12.4071889,21.0322373 12.5948736,25.0350541 Z" id="glow" fill="#FFFFFF" filter="url(#filter-15)" transform="translate(20.854074, 17.270301) rotate(-300.000000) translate(-20.854074, -17.270301) "></path>
                        </g>
                        <g transform="translate(42.000000, 56.000000)">
                            <ellipse id="shadow" fill="#000000" opacity="0.4" style="mix-blend-mode: multiply;" filter="url(#filter-16)" cx="18.5" cy="19.0828118" rx="13.5" ry="11.5"></ellipse>
                            <g id="colour---red" transform="translate(6.000000, 6.582812)">
                                <use fill="#D02424" xlink:href="#path-17"></use>
                                <use fill="url(#radialGradient-4)" xlink:href="#path-17"></use>
                            </g>
                            <ellipse id="gradient" fill="url(#radialGradient-4)" cx="19.5" cy="18.0828118" rx="13.5" ry="11.5"></ellipse>
                            <path d="M12.5948736,25.0350541 C11.3899054,18.6960045 12.8422208,14.1754906 16.9518199,11.4735124 C21.0614189,8.7715343 25.2518379,8.85187883 29.5230768,11.714546 C25.6309065,10.7024657 21.7895756,11.6688261 17.999084,14.6136272 C14.2085923,17.5584284 12.4071889,21.0322373 12.5948736,25.0350541 Z" id="glow" fill="#FFFFFF" filter="url(#filter-18)" transform="translate(20.854074, 17.270301) rotate(-300.000000) translate(-20.854074, -17.270301) "></path>
                        </g>
                        <g transform="translate(61.000000, 38.000000)">
                            <ellipse id="shadow" fill="#000000" opacity="0.4" style="mix-blend-mode: multiply;" filter="url(#filter-19)" cx="18.5" cy="19.0828118" rx="13.5" ry="11.5"></ellipse>
                            <g id="colour---red" transform="translate(6.000000, 6.582812)">
                                <use fill="#D02424" xlink:href="#path-20"></use>
                                <use fill="url(#radialGradient-4)" xlink:href="#path-20"></use>
                            </g>
                            <ellipse id="gradient" fill="url(#radialGradient-4)" cx="19.5" cy="18.0828118" rx="13.5" ry="11.5"></ellipse>
                            <path d="M12.5948736,25.0350541 C11.3899054,18.6960045 12.8422208,14.1754906 16.9518199,11.4735124 C21.0614189,8.7715343 25.2518379,8.85187883 29.5230768,11.714546 C25.6309065,10.7024657 21.7895756,11.6688261 17.999084,14.6136272 C14.2085923,17.5584284 12.4071889,21.0322373 12.5948736,25.0350541 Z" id="glow" fill="#FFFFFF" filter="url(#filter-21)" transform="translate(20.854074, 17.270301) rotate(-300.000000) translate(-20.854074, -17.270301) "></path>
                        </g>
                        <g transform="translate(57.000000, 14.000000)">
                            <ellipse id="shadow" fill="#000000" opacity="0.4" style="mix-blend-mode: multiply;" filter="url(#filter-22)" cx="18.5" cy="19.0828118" rx="13.5" ry="11.5"></ellipse>
                            <g id="colour---red" transform="translate(6.000000, 6.582812)">
                                <use fill="#D02424" xlink:href="#path-23"></use>
                                <use fill="url(#radialGradient-4)" xlink:href="#path-23"></use>
                            </g>
                            <ellipse id="gradient" fill="url(#radialGradient-4)" cx="19.5" cy="18.0828118" rx="13.5" ry="11.5"></ellipse>
                            <path d="M12.5948736,25.0350541 C11.3899054,18.6960045 12.8422208,14.1754906 16.9518199,11.4735124 C21.0614189,8.7715343 25.2518379,8.85187883 29.5230768,11.714546 C25.6309065,10.7024657 21.7895756,11.6688261 17.999084,14.6136272 C14.2085923,17.5584284 12.4071889,21.0322373 12.5948736,25.0350541 Z" id="glow" fill="#FFFFFF" filter="url(#filter-24)" transform="translate(20.854074, 17.270301) rotate(-300.000000) translate(-20.854074, -17.270301) "></path>
                        </g>
                        <g transform="translate(9.000000, 8.000000)">
                            <ellipse id="shadow" fill="#000000" opacity="0.4" style="mix-blend-mode: multiply;" filter="url(#filter-25)" cx="18.5" cy="19.0828118" rx="13.5" ry="11.5"></ellipse>
                            <g id="colour---red" transform="translate(6.000000, 6.582812)">
                                <use fill="#D02424" xlink:href="#path-26"></use>
                                <use fill="url(#radialGradient-4)" xlink:href="#path-26"></use>
                            </g>
                            <ellipse id="gradient" fill="url(#radialGradient-4)" cx="19.5" cy="18.0828118" rx="13.5" ry="11.5"></ellipse>
                            <path d="M12.5948736,25.0350541 C11.3899054,18.6960045 12.8422208,14.1754906 16.9518199,11.4735124 C21.0614189,8.7715343 25.2518379,8.85187883 29.5230768,11.714546 C25.6309065,10.7024657 21.7895756,11.6688261 17.999084,14.6136272 C14.2085923,17.5584284 12.4071889,21.0322373 12.5948736,25.0350541 Z" id="glow" fill="#FFFFFF" filter="url(#filter-27)" transform="translate(20.854074, 17.270301) rotate(-300.000000) translate(-20.854074, -17.270301) "></path>
                        </g>
                        <g transform="translate(36.000000, 0.000000)">
                            <ellipse id="shadow" fill="#000000" opacity="0.4" style="mix-blend-mode: multiply;" filter="url(#filter-28)" cx="18.5" cy="19.0828118" rx="13.5" ry="11.5"></ellipse>
                            <g id="colour---red" transform="translate(6.000000, 6.582812)">
                                <use fill="#D02424" xlink:href="#path-29"></use>
                                <use fill="url(#radialGradient-4)" xlink:href="#path-29"></use>
                            </g>
                            <ellipse id="gradient" fill="url(#radialGradient-4)" cx="19.5" cy="18.0828118" rx="13.5" ry="11.5"></ellipse>
                            <path d="M12.5948736,25.0350541 C11.3899054,18.6960045 12.8422208,14.1754906 16.9518199,11.4735124 C21.0614189,8.7715343 25.2518379,8.85187883 29.5230768,11.714546 C25.6309065,10.7024657 21.7895756,11.6688261 17.999084,14.6136272 C14.2085923,17.5584284 12.4071889,21.0322373 12.5948736,25.0350541 Z" id="glow" fill="#FFFFFF" filter="url(#filter-30)" transform="translate(20.854074, 17.270301) rotate(-300.000000) translate(-20.854074, -17.270301) "></path>
                        </g>
                    </g>
                </g>
                <g id="Group" mask="url(#mask-2)">
                    <g transform="translate(93.000000, 26.000000)">
                        <circle id="Oval" fill="#000000" cx="19" cy="19" r="19"></circle>
                        <path d="M13.9495,25.221 C15.1055,25.221 15.1055,25.221 16.0745,24.68125 C17.0435,24.1415 17.0435,24.1415 17.63,23.21925 C18.2165,22.297 18.2165,22.297 18.2165,21.141 C18.2165,20.1975 18.2165,20.1975 17.83825,19.36025 C17.46,18.523 17.46,18.523 16.73325,17.94925 C16.2790312,17.5906562 16.2790312,17.5906562 15.6969805,17.3930977 L15.51,17.337 L17.9955,14.936 L17.9955,12.76 L10.3455,12.76 L10.3455,14.936 L15.259,14.936 L11.9605,17.673 L12.9975,19.492 C13.2185,19.3645 13.2185,19.3645 13.4565,19.29225 C13.6945,19.22 13.6945,19.22 13.9495,19.22 C14.791,19.22 14.791,19.22 15.33075,19.78525 C15.8705,20.3505 15.8705,20.3505 15.8705,21.141 C15.8705,21.668 15.8705,21.668 15.61125,22.1015 C15.352,22.535 15.352,22.535 14.91425,22.79 C14.4765,23.045 14.4765,23.045 13.9495,23.045 C13.3375,23.045 13.3375,23.045 12.81475,22.67525 C12.292,22.3055 12.292,22.3055 12.1135,21.634 L12.1135,21.634 L9.8695,22.229 C10.133,23.1385 10.133,23.1385 10.74925,23.81 C11.3655,24.4815 11.3655,24.4815 12.1985,24.85125 C13.0315,25.221 13.0315,25.221 13.9495,25.221 Z M24.0815,25.255 C25.4585,25.255 25.4585,25.255 26.4785,24.68975 C27.4985,24.1245 27.4985,24.1245 28.0595,23.07475 C28.6205,22.025 28.6205,22.025 28.6205,20.58 L28.6205,20.58 L28.6205,17.027 C28.6205,15.6925 28.6205,15.6925 28.0595,14.67675 C27.4985,13.661 27.4985,13.661 26.53375,13.0915 C25.569,12.522 25.569,12.522 24.3535,12.522 C23.1975,12.522 23.1975,12.522 22.2285,13.07025 C21.2595,13.6185 21.2595,13.6185 20.673,14.54925 C20.0865,15.48 20.0865,15.48 20.0865,16.636 C20.0865,17.792 20.0865,17.792 20.58375,18.693 C21.081,19.594 21.081,19.594 21.96075,20.1125 C22.8405,20.631 22.8405,20.631 23.9965,20.631 C24.736,20.631 24.736,20.631 25.433,20.34625 C25.7815,20.203875 25.7815,20.203875 26.085375,19.9988125 L26.257,19.874 L26.2575,20.92 C26.2575,21.3875 26.2575,21.3875 26.0715625,21.8107292 L25.98975,21.97825 C25.722,22.4755 25.722,22.4755 25.23325,22.78575 C24.7445,23.096 24.7445,23.096 24.0815,23.096 C23.665,23.096 23.665,23.096 23.26125,22.926 C22.8575,22.756 22.8575,22.756 22.5515,22.45 L22.5515,22.45 L20.9025,24.099 C21.5825,24.7195 21.5825,24.7195 22.38575,24.98725 C23.189,25.255 23.189,25.255 24.0815,25.255 Z M24.3365,18.557 C23.8095,18.557 23.8095,18.557 23.376,18.29775 C22.9425,18.0385 22.9425,18.0385 22.6875,17.60075 C22.4325,17.163 22.4325,17.163 22.4325,16.636 C22.4325,16.109 22.4325,16.109 22.69175,15.6755 C22.951,15.242 22.951,15.242 23.38875,14.987 C23.8265,14.732 23.8265,14.732 24.3535,14.732 C24.8805,14.732 24.8805,14.732 25.314,14.9955 C25.7475,15.259 25.7475,15.259 26.0025,15.6925 C26.2575,16.126 26.2575,16.126 26.2575,16.636 C26.2575,17.163 26.2575,17.163 25.99825,17.60075 C25.739,18.0385 25.739,18.0385 25.30125,18.29775 C24.8635,18.557 24.8635,18.557 24.3365,18.557 Z" id="Combined-Shape" fill="#FFFFFF"></path>
                    </g>
                </g>
            </g>
        </g>
    </g>
</svg>