<?xml version="1.0" encoding="UTF-8"?>
<svg width="144px" height="144px" viewBox="0 0 144 144" version="1.1" xmlns="http://www.w3.org/2000/svg" xmlns:xlink="http://www.w3.org/1999/xlink">
    <title>seeds-40</title>
    <defs>
        <rect id="path-1" x="0" y="0" width="144" height="144"></rect>
        <filter x="-22.2%" y="-26.1%" width="144.4%" height="152.2%" filterUnits="objectBoundingBox" id="filter-3">
            <feGaussianBlur stdDeviation="2" in="SourceGraphic"></feGaussianBlur>
        </filter>
        <radialGradient cx="46.387808%" cy="46.387808%" fx="46.387808%" fy="46.387808%" r="46.1573049%" gradientTransform="translate(0.463878,0.463878),scale(0.851852,1.000000),rotate(90.000000),translate(-0.463878,-0.463878)" id="radialGradient-4">
            <stop stop-color="#FFFFFF" stop-opacity="0.1" offset="0%"></stop>
            <stop stop-color="#FFFFFF" stop-opacity="0.0858890035" offset="63.5889013%"></stop>
            <stop stop-color="#000000" stop-opacity="0.08" offset="100%"></stop>
        </radialGradient>
        <ellipse id="path-5" cx="13.5" cy="11.5" rx="13.5" ry="11.5"></ellipse>
        <filter x="-34.6%" y="-38.6%" width="169.2%" height="177.3%" filterUnits="objectBoundingBox" id="filter-6">
            <feGaussianBlur stdDeviation="2" in="SourceGraphic"></feGaussianBlur>
        </filter>
        <filter x="-22.2%" y="-26.1%" width="144.4%" height="152.2%" filterUnits="objectBoundingBox" id="filter-7">
            <feGaussianBlur stdDeviation="2" in="SourceGraphic"></feGaussianBlur>
        </filter>
        <ellipse id="path-8" cx="13.5" cy="11.5" rx="13.5" ry="11.5"></ellipse>
        <filter x="-34.6%" y="-38.6%" width="169.2%" height="177.3%" filterUnits="objectBoundingBox" id="filter-9">
            <feGaussianBlur stdDeviation="2" in="SourceGraphic"></feGaussianBlur>
        </filter>
        <filter x="-22.2%" y="-26.1%" width="144.4%" height="152.2%" filterUnits="objectBoundingBox" id="filter-10">
            <feGaussianBlur stdDeviation="2" in="SourceGraphic"></feGaussianBlur>
        </filter>
        <ellipse id="path-11" cx="13.5" cy="11.5" rx="13.5" ry="11.5"></ellipse>
        <filter x="-34.6%" y="-38.6%" width="169.2%" height="177.3%" filterUnits="objectBoundingBox" id="filter-12">
            <feGaussianBlur stdDeviation="2" in="SourceGraphic"></feGaussianBlur>
        </filter>
        <filter x="-22.2%" y="-26.1%" width="144.4%" height="152.2%" filterUnits="objectBoundingBox" id="filter-13">
            <feGaussianBlur stdDeviation="2" in="SourceGraphic"></feGaussianBlur>
        </filter>
        <ellipse id="path-14" cx="13.5" cy="11.5" rx="13.5" ry="11.5"></ellipse>
        <filter x="-34.6%" y="-38.6%" width="169.2%" height="177.3%" filterUnits="objectBoundingBox" id="filter-15">
            <feGaussianBlur stdDeviation="2" in="SourceGraphic"></feGaussianBlur>
        </filter>
        <filter x="-22.2%" y="-26.1%" width="144.4%" height="152.2%" filterUnits="objectBoundingBox" id="filter-16">
            <feGaussianBlur stdDeviation="2" in="SourceGraphic"></feGaussianBlur>
        </filter>
        <ellipse id="path-17" cx="13.5" cy="11.5" rx="13.5" ry="11.5"></ellipse>
        <filter x="-34.6%" y="-38.6%" width="169.2%" height="177.3%" filterUnits="objectBoundingBox" id="filter-18">
            <feGaussianBlur stdDeviation="2" in="SourceGraphic"></feGaussianBlur>
        </filter>
        <filter x="-22.2%" y="-26.1%" width="144.4%" height="152.2%" filterUnits="objectBoundingBox" id="filter-19">
            <feGaussianBlur stdDeviation="2" in="SourceGraphic"></feGaussianBlur>
        </filter>
        <ellipse id="path-20" cx="13.5" cy="11.5" rx="13.5" ry="11.5"></ellipse>
        <filter x="-34.6%" y="-38.6%" width="169.2%" height="177.3%" filterUnits="objectBoundingBox" id="filter-21">
            <feGaussianBlur stdDeviation="2" in="SourceGraphic"></feGaussianBlur>
        </filter>
        <filter x="-22.2%" y="-26.1%" width="144.4%" height="152.2%" filterUnits="objectBoundingBox" id="filter-22">
            <feGaussianBlur stdDeviation="2" in="SourceGraphic"></feGaussianBlur>
        </filter>
        <ellipse id="path-23" cx="13.5" cy="11.5" rx="13.5" ry="11.5"></ellipse>
        <filter x="-34.6%" y="-38.6%" width="169.2%" height="177.3%" filterUnits="objectBoundingBox" id="filter-24">
            <feGaussianBlur stdDeviation="2" in="SourceGraphic"></feGaussianBlur>
        </filter>
        <filter x="-22.2%" y="-26.1%" width="144.4%" height="152.2%" filterUnits="objectBoundingBox" id="filter-25">
            <feGaussianBlur stdDeviation="2" in="SourceGraphic"></feGaussianBlur>
        </filter>
        <ellipse id="path-26" cx="13.5" cy="11.5" rx="13.5" ry="11.5"></ellipse>
        <filter x="-34.6%" y="-38.6%" width="169.2%" height="177.3%" filterUnits="objectBoundingBox" id="filter-27">
            <feGaussianBlur stdDeviation="2" in="SourceGraphic"></feGaussianBlur>
        </filter>
        <filter x="-22.2%" y="-26.1%" width="144.4%" height="152.2%" filterUnits="objectBoundingBox" id="filter-28">
            <feGaussianBlur stdDeviation="2" in="SourceGraphic"></feGaussianBlur>
        </filter>
        <ellipse id="path-29" cx="13.5" cy="11.5" rx="13.5" ry="11.5"></ellipse>
        <filter x="-34.6%" y="-38.6%" width="169.2%" height="177.3%" filterUnits="objectBoundingBox" id="filter-30">
            <feGaussianBlur stdDeviation="2" in="SourceGraphic"></feGaussianBlur>
        </filter>
    </defs>
    <g id="Page-1" stroke="none" stroke-width="1" fill="none" fill-rule="evenodd">
        <g id="8+-seeds" transform="translate(-484.000000, -908.000000)">
            <g id="seeds-40" transform="translate(484.000000, 908.000000)">
                <mask id="mask-2" fill="white">
                    <use xlink:href="#path-1"></use>
                </mask>
                <use id="Mask" fill-opacity="0.01" fill="#FFFFFF" xlink:href="#path-1"></use>
                <g id="Seeds" mask="url(#mask-2)">
                    <g transform="translate(21.000000, 26.000000)" id="Group">
                        <g transform="translate(28.000000, 21.000000)">
                            <ellipse id="shadow" fill="#000000" opacity="0.4" style="mix-blend-mode: multiply;" filter="url(#filter-3)" cx="18.5" cy="19.0828118" rx="13.5" ry="11.5"></ellipse>
                            <g id="colour---red" transform="translate(6.000000, 6.582812)">
                                <use fill="#D02424" xlink:href="#path-5"></use>
                                <use fill="url(#radialGradient-4)" xlink:href="#path-5"></use>
                            </g>
                            <ellipse id="gradient" fill="url(#radialGradient-4)" cx="19.5" cy="18.0828118" rx="13.5" ry="11.5"></ellipse>
                            <path d="M12.5948736,25.0350541 C11.3899054,18.6960045 12.8422208,14.1754906 16.9518199,11.4735124 C21.0614189,8.7715343 25.2518379,8.85187883 29.5230768,11.714546 C25.6309065,10.7024657 21.7895756,11.6688261 17.999084,14.6136272 C14.2085923,17.5584284 12.4071889,21.0322373 12.5948736,25.0350541 Z" id="glow" fill="#FFFFFF" filter="url(#filter-6)" transform="translate(20.854074, 17.270301) rotate(-300.000000) translate(-20.854074, -17.270301) "></path>
                        </g>
                        <g transform="translate(32.000000, 44.000000)">
                            <ellipse id="shadow" fill="#000000" opacity="0.4" style="mix-blend-mode: multiply;" filter="url(#filter-7)" cx="18.5" cy="19.0828118" rx="13.5" ry="11.5"></ellipse>
                            <g id="colour---red" transform="translate(6.000000, 6.582812)">
                                <use fill="#D02424" xlink:href="#path-8"></use>
                                <use fill="url(#radialGradient-4)" xlink:href="#path-8"></use>
                            </g>
                            <ellipse id="gradient" fill="url(#radialGradient-4)" cx="19.5" cy="18.0828118" rx="13.5" ry="11.5"></ellipse>
                            <path d="M12.5948736,25.0350541 C11.3899054,18.6960045 12.8422208,14.1754906 16.9518199,11.4735124 C21.0614189,8.7715343 25.2518379,8.85187883 29.5230768,11.714546 C25.6309065,10.7024657 21.7895756,11.6688261 17.999084,14.6136272 C14.2085923,17.5584284 12.4071889,21.0322373 12.5948736,25.0350541 Z" id="glow" fill="#FFFFFF" filter="url(#filter-9)" transform="translate(20.854074, 17.270301) rotate(-300.000000) translate(-20.854074, -17.270301) "></path>
                        </g>
                        <g transform="translate(0.000000, 31.000000)">
                            <ellipse id="shadow" fill="#000000" opacity="0.4" style="mix-blend-mode: multiply;" filter="url(#filter-10)" cx="18.5" cy="19.0828118" rx="13.5" ry="11.5"></ellipse>
                            <g id="colour---red" transform="translate(6.000000, 6.582812)">
                                <use fill="#D02424" xlink:href="#path-11"></use>
                                <use fill="url(#radialGradient-4)" xlink:href="#path-11"></use>
                            </g>
                            <ellipse id="gradient" fill="url(#radialGradient-4)" cx="19.5" cy="18.0828118" rx="13.5" ry="11.5"></ellipse>
                            <path d="M12.5948736,25.0350541 C11.3899054,18.6960045 12.8422208,14.1754906 16.9518199,11.4735124 C21.0614189,8.7715343 25.2518379,8.85187883 29.5230768,11.714546 C25.6309065,10.7024657 21.7895756,11.6688261 17.999084,14.6136272 C14.2085923,17.5584284 12.4071889,21.0322373 12.5948736,25.0350541 Z" id="glow" fill="#FFFFFF" filter="url(#filter-12)" transform="translate(20.854074, 17.270301) rotate(-300.000000) translate(-20.854074, -17.270301) "></path>
                        </g>
                        <g transform="translate(14.000000, 52.000000)">
                            <ellipse id="shadow" fill="#000000" opacity="0.4" style="mix-blend-mode: multiply;" filter="url(#filter-13)" cx="18.5" cy="19.0828118" rx="13.5" ry="11.5"></ellipse>
                            <g id="colour---red" transform="translate(6.000000, 6.582812)">
                                <use fill="#D02424" xlink:href="#path-14"></use>
                                <use fill="url(#radialGradient-4)" xlink:href="#path-14"></use>
                            </g>
                            <ellipse id="gradient" fill="url(#radialGradient-4)" cx="19.5" cy="18.0828118" rx="13.5" ry="11.5"></ellipse>
                            <path d="M12.5948736,25.0350541 C11.3899054,18.6960045 12.8422208,14.1754906 16.9518199,11.4735124 C21.0614189,8.7715343 25.2518379,8.85187883 29.5230768,11.714546 C25.6309065,10.7024657 21.7895756,11.6688261 17.999084,14.6136272 C14.2085923,17.5584284 12.4071889,21.0322373 12.5948736,25.0350541 Z" id="glow" fill="#FFFFFF" filter="url(#filter-15)" transform="translate(20.854074, 17.270301) rotate(-300.000000) translate(-20.854074, -17.270301) "></path>
                        </g>
                        <g transform="translate(42.000000, 56.000000)">
                            <ellipse id="shadow" fill="#000000" opacity="0.4" style="mix-blend-mode: multiply;" filter="url(#filter-16)" cx="18.5" cy="19.0828118" rx="13.5" ry="11.5"></ellipse>
                            <g id="colour---red" transform="translate(6.000000, 6.582812)">
                                <use fill="#D02424" xlink:href="#path-17"></use>
                                <use fill="url(#radialGradient-4)" xlink:href="#path-17"></use>
                            </g>
                            <ellipse id="gradient" fill="url(#radialGradient-4)" cx="19.5" cy="18.0828118" rx="13.5" ry="11.5"></ellipse>
                            <path d="M12.5948736,25.0350541 C11.3899054,18.6960045 12.8422208,14.1754906 16.9518199,11.4735124 C21.0614189,8.7715343 25.2518379,8.85187883 29.5230768,11.714546 C25.6309065,10.7024657 21.7895756,11.6688261 17.999084,14.6136272 C14.2085923,17.5584284 12.4071889,21.0322373 12.5948736,25.0350541 Z" id="glow" fill="#FFFFFF" filter="url(#filter-18)" transform="translate(20.854074, 17.270301) rotate(-300.000000) translate(-20.854074, -17.270301) "></path>
                        </g>
                        <g transform="translate(61.000000, 38.000000)">
                            <ellipse id="shadow" fill="#000000" opacity="0.4" style="mix-blend-mode: multiply;" filter="url(#filter-19)" cx="18.5" cy="19.0828118" rx="13.5" ry="11.5"></ellipse>
                            <g id="colour---red" transform="translate(6.000000, 6.582812)">
                                <use fill="#D02424" xlink:href="#path-20"></use>
                                <use fill="url(#radialGradient-4)" xlink:href="#path-20"></use>
                            </g>
                            <ellipse id="gradient" fill="url(#radialGradient-4)" cx="19.5" cy="18.0828118" rx="13.5" ry="11.5"></ellipse>
                            <path d="M12.5948736,25.0350541 C11.3899054,18.6960045 12.8422208,14.1754906 16.9518199,11.4735124 C21.0614189,8.7715343 25.2518379,8.85187883 29.5230768,11.714546 C25.6309065,10.7024657 21.7895756,11.6688261 17.999084,14.6136272 C14.2085923,17.5584284 12.4071889,21.0322373 12.5948736,25.0350541 Z" id="glow" fill="#FFFFFF" filter="url(#filter-21)" transform="translate(20.854074, 17.270301) rotate(-300.000000) translate(-20.854074, -17.270301) "></path>
                        </g>
                        <g transform="translate(57.000000, 14.000000)">
                            <ellipse id="shadow" fill="#000000" opacity="0.4" style="mix-blend-mode: multiply;" filter="url(#filter-22)" cx="18.5" cy="19.0828118" rx="13.5" ry="11.5"></ellipse>
                            <g id="colour---red" transform="translate(6.000000, 6.582812)">
                                <use fill="#D02424" xlink:href="#path-23"></use>
                                <use fill="url(#radialGradient-4)" xlink:href="#path-23"></use>
                            </g>
                            <ellipse id="gradient" fill="url(#radialGradient-4)" cx="19.5" cy="18.0828118" rx="13.5" ry="11.5"></ellipse>
                            <path d="M12.5948736,25.0350541 C11.3899054,18.6960045 12.8422208,14.1754906 16.9518199,11.4735124 C21.0614189,8.7715343 25.2518379,8.85187883 29.5230768,11.714546 C25.6309065,10.7024657 21.7895756,11.6688261 17.999084,14.6136272 C14.2085923,17.5584284 12.4071889,21.0322373 12.5948736,25.0350541 Z" id="glow" fill="#FFFFFF" filter="url(#filter-24)" transform="translate(20.854074, 17.270301) rotate(-300.000000) translate(-20.854074, -17.270301) "></path>
                        </g>
                        <g transform="translate(9.000000, 8.000000)">
                            <ellipse id="shadow" fill="#000000" opacity="0.4" style="mix-blend-mode: multiply;" filter="url(#filter-25)" cx="18.5" cy="19.0828118" rx="13.5" ry="11.5"></ellipse>
                            <g id="colour---red" transform="translate(6.000000, 6.582812)">
                                <use fill="#D02424" xlink:href="#path-26"></use>
                                <use fill="url(#radialGradient-4)" xlink:href="#path-26"></use>
                            </g>
                            <ellipse id="gradient" fill="url(#radialGradient-4)" cx="19.5" cy="18.0828118" rx="13.5" ry="11.5"></ellipse>
                            <path d="M12.5948736,25.0350541 C11.3899054,18.6960045 12.8422208,14.1754906 16.9518199,11.4735124 C21.0614189,8.7715343 25.2518379,8.85187883 29.5230768,11.714546 C25.6309065,10.7024657 21.7895756,11.6688261 17.999084,14.6136272 C14.2085923,17.5584284 12.4071889,21.0322373 12.5948736,25.0350541 Z" id="glow" fill="#FFFFFF" filter="url(#filter-27)" transform="translate(20.854074, 17.270301) rotate(-300.000000) translate(-20.854074, -17.270301) "></path>
                        </g>
                        <g transform="translate(36.000000, 0.000000)">
                            <ellipse id="shadow" fill="#000000" opacity="0.4" style="mix-blend-mode: multiply;" filter="url(#filter-28)" cx="18.5" cy="19.0828118" rx="13.5" ry="11.5"></ellipse>
                            <g id="colour---red" transform="translate(6.000000, 6.582812)">
                                <use fill="#D02424" xlink:href="#path-29"></use>
                                <use fill="url(#radialGradient-4)" xlink:href="#path-29"></use>
                            </g>
                            <ellipse id="gradient" fill="url(#radialGradient-4)" cx="19.5" cy="18.0828118" rx="13.5" ry="11.5"></ellipse>
                            <path d="M12.5948736,25.0350541 C11.3899054,18.6960045 12.8422208,14.1754906 16.9518199,11.4735124 C21.0614189,8.7715343 25.2518379,8.85187883 29.5230768,11.714546 C25.6309065,10.7024657 21.7895756,11.6688261 17.999084,14.6136272 C14.2085923,17.5584284 12.4071889,21.0322373 12.5948736,25.0350541 Z" id="glow" fill="#FFFFFF" filter="url(#filter-30)" transform="translate(20.854074, 17.270301) rotate(-300.000000) translate(-20.854074, -17.270301) "></path>
                        </g>
                    </g>
                </g>
                <g id="Group" mask="url(#mask-2)">
                    <g transform="translate(93.000000, 26.000000)">
                        <circle id="Oval" fill="#000000" cx="19" cy="19" r="19"></circle>
                        <path d="M17.0605,25 L17.0605,23.096 L18.1485,23.096 L18.1485,20.937 L17.0605,20.937 L17.0605,17.877 L14.7145,17.877 L14.7145,20.937 L12.0455,20.937 L15.9045,12.76 L13.2525,12.76 L9.3935,20.937 L9.3935,23.096 L14.7145,23.096 L14.7145,25 L17.0605,25 Z M24.7275,25.255 C26.0875,25.255 26.0875,25.255 27.1075,24.6855 C28.1275,24.116 28.1275,24.116 28.697,23.096 C29.2665,22.076 29.2665,22.076 29.2665,20.716 L29.2665,20.716 L29.2665,17.044 C29.2665,15.684 29.2665,15.684 28.697,14.664 C28.1275,13.644 28.1275,13.644 27.1075,13.0745 C26.0875,12.505 26.0875,12.505 24.7275,12.505 C23.3675,12.505 23.3675,12.505 22.3475,13.0745 C21.3275,13.644 21.3275,13.644 20.758,14.664 C20.1885,15.684 20.1885,15.684 20.1885,17.044 L20.1885,17.044 L20.1885,20.716 C20.1885,22.076 20.1885,22.076 20.758,23.096 C21.3275,24.116 21.3275,24.116 22.3475,24.6855 C23.3675,25.255 23.3675,25.255 24.7275,25.255 Z M24.7275,23.062 C24.1155,23.062 24.1155,23.062 23.6225,22.773 C23.1295,22.484 23.1295,22.484 22.8405,21.991 C22.5515,21.498 22.5515,21.498 22.5515,20.886 L22.5515,20.886 L22.5515,16.857 C22.5515,16.245 22.5515,16.245 22.8405,15.752 C23.1295,15.259 23.1295,15.259 23.6225,14.97 C24.1155,14.681 24.1155,14.681 24.7275,14.681 C25.3395,14.681 25.3395,14.681 25.8325,14.97 C26.3255,15.259 26.3255,15.259 26.6145,15.752 C26.9035,16.245 26.9035,16.245 26.9035,16.857 L26.9035,16.857 L26.9035,20.886 C26.9035,21.498 26.9035,21.498 26.6145,21.991 C26.3255,22.484 26.3255,22.484 25.8325,22.773 C25.3395,23.062 25.3395,23.062 24.7275,23.062 Z" id="Combined-Shape" fill="#FFFFFF"></path>
                    </g>
                </g>
            </g>
        </g>
    </g>
</svg>