<svg width="456" height="454" xmlns="http://www.w3.org/2000/svg" xmlns:xlink="http://www.w3.org/1999/xlink" overflow="hidden"><defs><clipPath id="clip0"><rect x="1222" y="729" width="456" height="454"/></clipPath></defs><g clip-path="url(#clip0)" transform="translate(-1222 -729)"><path d="M1224.68 950.501C1224.68 864.915 1325.46 795.5 1449.73 795.5 1574 795.5 1674.78 864.915 1674.78 950.501 1675.37 980.646 1675.91 1010.79 1676.5 1040.98 1676.5 1126.64 1577.45 1180.5 1453.13 1180.5 1328.86 1180.5 1224.68 1121.52 1224.68 1035.86L1224.68 950.501Z" fill="#888888" fill-rule="evenodd"/><path d="M1674.78 950.501C1674.78 1036.16 1574 1105.58 1449.73 1105.58 1325.46 1105.58 1224.68 1036.16 1224.68 950.501" stroke="#D9D9D9" stroke-width="4.58333" stroke-miterlimit="8" fill="none" fill-rule="evenodd"/><path d="M1224.68 950.501C1224.68 864.915 1325.46 795.5 1449.73 795.5 1574 795.5 1674.78 864.915 1674.78 950.501L1674.78 1040.98C1674.78 1126.64 1575.72 1180.5 1451.45 1180.5 1327.18 1180.5 1224.68 1118.05 1224.68 1032.39 1225.27 1002.21 1224.09 980.646 1224.68 950.501Z" stroke="#D9D9D9" stroke-width="4.58333" stroke-miterlimit="8" fill="none" fill-rule="evenodd"/><path d="M1224.68 886.501C1224.68 800.916 1325.46 731.5 1449.73 731.5 1574 731.5 1674.78 800.916 1674.78 886.501 1675.37 916.646 1675.91 946.792 1676.5 976.976 1676.5 1062.64 1577.45 1116.5 1453.13 1116.5 1328.86 1116.5 1224.68 1057.52 1224.68 971.855L1224.68 886.501Z" fill="#888888" fill-rule="evenodd"/><path d="M1674.78 886.501C1674.78 972.164 1574 1041.58 1449.73 1041.58 1325.46 1041.58 1224.68 972.164 1224.68 886.501" stroke="#E7E6E6" stroke-width="4.58333" stroke-miterlimit="8" fill="none" fill-rule="evenodd"/><path d="M1224.68 886.501C1224.68 800.916 1325.46 731.5 1449.73 731.5 1574 731.5 1674.78 800.916 1674.78 886.501L1674.78 976.976C1674.78 1062.64 1575.72 1116.5 1451.45 1116.5 1327.18 1116.5 1224.68 1054.05 1224.68 968.391 1225.27 938.207 1224.09 916.646 1224.68 886.501Z" stroke="#E7E6E6" stroke-width="4.58333" stroke-miterlimit="8" fill="none" fill-rule="evenodd"/></g></svg>