<?xml version="1.0" encoding="UTF-8"?>
<svg width="144px" height="144px" viewBox="0 0 144 144" version="1.1" xmlns="http://www.w3.org/2000/svg" xmlns:xlink="http://www.w3.org/1999/xlink">
    <title>seeds-19</title>
    <defs>
        <rect id="path-1" x="0" y="0" width="144" height="144"></rect>
        <filter x="-22.2%" y="-26.1%" width="144.4%" height="152.2%" filterUnits="objectBoundingBox" id="filter-3">
            <feGaussianBlur stdDeviation="2" in="SourceGraphic"></feGaussianBlur>
        </filter>
        <radialGradient cx="46.387808%" cy="46.387808%" fx="46.387808%" fy="46.387808%" r="46.1573049%" gradientTransform="translate(0.463878,0.463878),scale(0.851852,1.000000),rotate(90.000000),translate(-0.463878,-0.463878)" id="radialGradient-4">
            <stop stop-color="#FFFFFF" stop-opacity="0.1" offset="0%"></stop>
            <stop stop-color="#FFFFFF" stop-opacity="0.0858890035" offset="63.5889013%"></stop>
            <stop stop-color="#000000" stop-opacity="0.08" offset="100%"></stop>
        </radialGradient>
        <ellipse id="path-5" cx="13.5" cy="11.5" rx="13.5" ry="11.5"></ellipse>
        <ellipse id="path-6" cx="13.5" cy="11.5" rx="13.5" ry="11.5"></ellipse>
        <filter x="-34.6%" y="-38.6%" width="169.2%" height="177.3%" filterUnits="objectBoundingBox" id="filter-7">
            <feGaussianBlur stdDeviation="2" in="SourceGraphic"></feGaussianBlur>
        </filter>
        <filter x="-22.2%" y="-26.1%" width="144.4%" height="152.2%" filterUnits="objectBoundingBox" id="filter-8">
            <feGaussianBlur stdDeviation="2" in="SourceGraphic"></feGaussianBlur>
        </filter>
        <ellipse id="path-9" cx="13.5" cy="11.5" rx="13.5" ry="11.5"></ellipse>
        <ellipse id="path-10" cx="13.5" cy="11.5" rx="13.5" ry="11.5"></ellipse>
        <filter x="-34.6%" y="-38.6%" width="169.2%" height="177.3%" filterUnits="objectBoundingBox" id="filter-11">
            <feGaussianBlur stdDeviation="2" in="SourceGraphic"></feGaussianBlur>
        </filter>
        <filter x="-22.2%" y="-26.1%" width="144.4%" height="152.2%" filterUnits="objectBoundingBox" id="filter-12">
            <feGaussianBlur stdDeviation="2" in="SourceGraphic"></feGaussianBlur>
        </filter>
        <ellipse id="path-13" cx="13.5" cy="11.5" rx="13.5" ry="11.5"></ellipse>
        <ellipse id="path-14" cx="13.5" cy="11.5" rx="13.5" ry="11.5"></ellipse>
        <filter x="-34.6%" y="-38.6%" width="169.2%" height="177.3%" filterUnits="objectBoundingBox" id="filter-15">
            <feGaussianBlur stdDeviation="2" in="SourceGraphic"></feGaussianBlur>
        </filter>
        <filter x="-22.2%" y="-26.1%" width="144.4%" height="152.2%" filterUnits="objectBoundingBox" id="filter-16">
            <feGaussianBlur stdDeviation="2" in="SourceGraphic"></feGaussianBlur>
        </filter>
        <ellipse id="path-17" cx="13.5" cy="11.5" rx="13.5" ry="11.5"></ellipse>
        <ellipse id="path-18" cx="13.5" cy="11.5" rx="13.5" ry="11.5"></ellipse>
        <filter x="-34.6%" y="-38.6%" width="169.2%" height="177.3%" filterUnits="objectBoundingBox" id="filter-19">
            <feGaussianBlur stdDeviation="2" in="SourceGraphic"></feGaussianBlur>
        </filter>
        <filter x="-22.2%" y="-26.1%" width="144.4%" height="152.2%" filterUnits="objectBoundingBox" id="filter-20">
            <feGaussianBlur stdDeviation="2" in="SourceGraphic"></feGaussianBlur>
        </filter>
        <ellipse id="path-21" cx="13.5" cy="11.5" rx="13.5" ry="11.5"></ellipse>
        <ellipse id="path-22" cx="13.5" cy="11.5" rx="13.5" ry="11.5"></ellipse>
        <filter x="-34.6%" y="-38.6%" width="169.2%" height="177.3%" filterUnits="objectBoundingBox" id="filter-23">
            <feGaussianBlur stdDeviation="2" in="SourceGraphic"></feGaussianBlur>
        </filter>
        <filter x="-22.2%" y="-26.1%" width="144.4%" height="152.2%" filterUnits="objectBoundingBox" id="filter-24">
            <feGaussianBlur stdDeviation="2" in="SourceGraphic"></feGaussianBlur>
        </filter>
        <ellipse id="path-25" cx="13.5" cy="11.5" rx="13.5" ry="11.5"></ellipse>
        <ellipse id="path-26" cx="13.5" cy="11.5" rx="13.5" ry="11.5"></ellipse>
        <filter x="-34.6%" y="-38.6%" width="169.2%" height="177.3%" filterUnits="objectBoundingBox" id="filter-27">
            <feGaussianBlur stdDeviation="2" in="SourceGraphic"></feGaussianBlur>
        </filter>
        <filter x="-22.2%" y="-26.1%" width="144.4%" height="152.2%" filterUnits="objectBoundingBox" id="filter-28">
            <feGaussianBlur stdDeviation="2" in="SourceGraphic"></feGaussianBlur>
        </filter>
        <ellipse id="path-29" cx="13.5" cy="11.5" rx="13.5" ry="11.5"></ellipse>
        <ellipse id="path-30" cx="13.5" cy="11.5" rx="13.5" ry="11.5"></ellipse>
        <filter x="-34.6%" y="-38.6%" width="169.2%" height="177.3%" filterUnits="objectBoundingBox" id="filter-31">
            <feGaussianBlur stdDeviation="2" in="SourceGraphic"></feGaussianBlur>
        </filter>
        <filter x="-22.2%" y="-26.1%" width="144.4%" height="152.2%" filterUnits="objectBoundingBox" id="filter-32">
            <feGaussianBlur stdDeviation="2" in="SourceGraphic"></feGaussianBlur>
        </filter>
        <ellipse id="path-33" cx="13.5" cy="11.5" rx="13.5" ry="11.5"></ellipse>
        <ellipse id="path-34" cx="13.5" cy="11.5" rx="13.5" ry="11.5"></ellipse>
        <filter x="-34.6%" y="-38.6%" width="169.2%" height="177.3%" filterUnits="objectBoundingBox" id="filter-35">
            <feGaussianBlur stdDeviation="2" in="SourceGraphic"></feGaussianBlur>
        </filter>
        <filter x="-22.2%" y="-26.1%" width="144.4%" height="152.2%" filterUnits="objectBoundingBox" id="filter-36">
            <feGaussianBlur stdDeviation="2" in="SourceGraphic"></feGaussianBlur>
        </filter>
        <ellipse id="path-37" cx="13.5" cy="11.5" rx="13.5" ry="11.5"></ellipse>
        <ellipse id="path-38" cx="13.5" cy="11.5" rx="13.5" ry="11.5"></ellipse>
        <filter x="-34.6%" y="-38.6%" width="169.2%" height="177.3%" filterUnits="objectBoundingBox" id="filter-39">
            <feGaussianBlur stdDeviation="2" in="SourceGraphic"></feGaussianBlur>
        </filter>
    </defs>
    <g id="Page-1" stroke="none" stroke-width="1" fill="none" fill-rule="evenodd">
        <g id="8+-seeds" transform="translate(-52.000000, -476.000000)">
            <g id="seeds-19" transform="translate(52.000000, 476.000000)">
                <mask id="mask-2" fill="white">
                    <use xlink:href="#path-1"></use>
                </mask>
                <use id="Mask" fill-opacity="0.01" fill="#FFFFFF" xlink:href="#path-1"></use>
                <g id="Seeds" mask="url(#mask-2)">
                    <g transform="translate(21.000000, 26.000000)" id="Group">
                        <g transform="translate(28.000000, 21.000000)">
                            <ellipse id="shadow" fill="#000000" opacity="0.4" style="mix-blend-mode: multiply;" filter="url(#filter-3)" cx="18.5" cy="19.0828118" rx="13.5" ry="11.5"></ellipse>
                            <g id="colour" transform="translate(6.000000, 6.582812)">
                                <g id="colour---red">
                                    <use fill="#D02424" xlink:href="#path-5"></use>
                                    <use fill="url(#radialGradient-4)" xlink:href="#path-5"></use>
                                </g>
                                <g id="colour---green">
                                    <use fill="#2F863A" xlink:href="#path-6"></use>
                                    <use fill="url(#radialGradient-4)" xlink:href="#path-6"></use>
                                </g>
                            </g>
                            <ellipse id="gradient" fill="url(#radialGradient-4)" cx="19.5" cy="18.0828118" rx="13.5" ry="11.5"></ellipse>
                            <path d="M12.5948736,25.0350541 C11.3899054,18.6960045 12.8422208,14.1754906 16.9518199,11.4735124 C21.0614189,8.7715343 25.2518379,8.85187883 29.5230768,11.714546 C25.6309065,10.7024657 21.7895756,11.6688261 17.999084,14.6136272 C14.2085923,17.5584284 12.4071889,21.0322373 12.5948736,25.0350541 Z" id="glow" fill="#FFFFFF" filter="url(#filter-7)" transform="translate(20.854074, 17.270301) rotate(-300.000000) translate(-20.854074, -17.270301) "></path>
                        </g>
                        <g transform="translate(32.000000, 44.000000)">
                            <ellipse id="shadow" fill="#000000" opacity="0.4" style="mix-blend-mode: multiply;" filter="url(#filter-8)" cx="18.5" cy="19.0828118" rx="13.5" ry="11.5"></ellipse>
                            <g id="colour" transform="translate(6.000000, 6.582812)">
                                <g id="colour---red">
                                    <use fill="#D02424" xlink:href="#path-9"></use>
                                    <use fill="url(#radialGradient-4)" xlink:href="#path-9"></use>
                                </g>
                                <g id="colour---green">
                                    <use fill="#2F863A" xlink:href="#path-10"></use>
                                    <use fill="url(#radialGradient-4)" xlink:href="#path-10"></use>
                                </g>
                            </g>
                            <ellipse id="gradient" fill="url(#radialGradient-4)" cx="19.5" cy="18.0828118" rx="13.5" ry="11.5"></ellipse>
                            <path d="M12.5948736,25.0350541 C11.3899054,18.6960045 12.8422208,14.1754906 16.9518199,11.4735124 C21.0614189,8.7715343 25.2518379,8.85187883 29.5230768,11.714546 C25.6309065,10.7024657 21.7895756,11.6688261 17.999084,14.6136272 C14.2085923,17.5584284 12.4071889,21.0322373 12.5948736,25.0350541 Z" id="glow" fill="#FFFFFF" filter="url(#filter-11)" transform="translate(20.854074, 17.270301) rotate(-300.000000) translate(-20.854074, -17.270301) "></path>
                        </g>
                        <g transform="translate(0.000000, 31.000000)">
                            <ellipse id="shadow" fill="#000000" opacity="0.4" style="mix-blend-mode: multiply;" filter="url(#filter-12)" cx="18.5" cy="19.0828118" rx="13.5" ry="11.5"></ellipse>
                            <g id="colour" transform="translate(6.000000, 6.582812)">
                                <g id="colour---red">
                                    <use fill="#D02424" xlink:href="#path-13"></use>
                                    <use fill="url(#radialGradient-4)" xlink:href="#path-13"></use>
                                </g>
                                <g id="colour---green">
                                    <use fill="#2F863A" xlink:href="#path-14"></use>
                                    <use fill="url(#radialGradient-4)" xlink:href="#path-14"></use>
                                </g>
                            </g>
                            <ellipse id="gradient" fill="url(#radialGradient-4)" cx="19.5" cy="18.0828118" rx="13.5" ry="11.5"></ellipse>
                            <path d="M12.5948736,25.0350541 C11.3899054,18.6960045 12.8422208,14.1754906 16.9518199,11.4735124 C21.0614189,8.7715343 25.2518379,8.85187883 29.5230768,11.714546 C25.6309065,10.7024657 21.7895756,11.6688261 17.999084,14.6136272 C14.2085923,17.5584284 12.4071889,21.0322373 12.5948736,25.0350541 Z" id="glow" fill="#FFFFFF" filter="url(#filter-15)" transform="translate(20.854074, 17.270301) rotate(-300.000000) translate(-20.854074, -17.270301) "></path>
                        </g>
                        <g transform="translate(14.000000, 52.000000)">
                            <ellipse id="shadow" fill="#000000" opacity="0.4" style="mix-blend-mode: multiply;" filter="url(#filter-16)" cx="18.5" cy="19.0828118" rx="13.5" ry="11.5"></ellipse>
                            <g id="colour" transform="translate(6.000000, 6.582812)">
                                <g id="colour---red">
                                    <use fill="#D02424" xlink:href="#path-17"></use>
                                    <use fill="url(#radialGradient-4)" xlink:href="#path-17"></use>
                                </g>
                                <g id="colour---green">
                                    <use fill="#2F863A" xlink:href="#path-18"></use>
                                    <use fill="url(#radialGradient-4)" xlink:href="#path-18"></use>
                                </g>
                            </g>
                            <ellipse id="gradient" fill="url(#radialGradient-4)" cx="19.5" cy="18.0828118" rx="13.5" ry="11.5"></ellipse>
                            <path d="M12.5948736,25.0350541 C11.3899054,18.6960045 12.8422208,14.1754906 16.9518199,11.4735124 C21.0614189,8.7715343 25.2518379,8.85187883 29.5230768,11.714546 C25.6309065,10.7024657 21.7895756,11.6688261 17.999084,14.6136272 C14.2085923,17.5584284 12.4071889,21.0322373 12.5948736,25.0350541 Z" id="glow" fill="#FFFFFF" filter="url(#filter-19)" transform="translate(20.854074, 17.270301) rotate(-300.000000) translate(-20.854074, -17.270301) "></path>
                        </g>
                        <g transform="translate(42.000000, 56.000000)">
                            <ellipse id="shadow" fill="#000000" opacity="0.4" style="mix-blend-mode: multiply;" filter="url(#filter-20)" cx="18.5" cy="19.0828118" rx="13.5" ry="11.5"></ellipse>
                            <g id="colour" transform="translate(6.000000, 6.582812)">
                                <g id="colour---red">
                                    <use fill="#D02424" xlink:href="#path-21"></use>
                                    <use fill="url(#radialGradient-4)" xlink:href="#path-21"></use>
                                </g>
                                <g id="colour---green">
                                    <use fill="#2F863A" xlink:href="#path-22"></use>
                                    <use fill="url(#radialGradient-4)" xlink:href="#path-22"></use>
                                </g>
                            </g>
                            <ellipse id="gradient" fill="url(#radialGradient-4)" cx="19.5" cy="18.0828118" rx="13.5" ry="11.5"></ellipse>
                            <path d="M12.5948736,25.0350541 C11.3899054,18.6960045 12.8422208,14.1754906 16.9518199,11.4735124 C21.0614189,8.7715343 25.2518379,8.85187883 29.5230768,11.714546 C25.6309065,10.7024657 21.7895756,11.6688261 17.999084,14.6136272 C14.2085923,17.5584284 12.4071889,21.0322373 12.5948736,25.0350541 Z" id="glow" fill="#FFFFFF" filter="url(#filter-23)" transform="translate(20.854074, 17.270301) rotate(-300.000000) translate(-20.854074, -17.270301) "></path>
                        </g>
                        <g transform="translate(61.000000, 38.000000)">
                            <ellipse id="shadow" fill="#000000" opacity="0.4" style="mix-blend-mode: multiply;" filter="url(#filter-24)" cx="18.5" cy="19.0828118" rx="13.5" ry="11.5"></ellipse>
                            <g id="colour" transform="translate(6.000000, 6.582812)">
                                <g id="colour---red">
                                    <use fill="#D02424" xlink:href="#path-25"></use>
                                    <use fill="url(#radialGradient-4)" xlink:href="#path-25"></use>
                                </g>
                                <g id="colour---green">
                                    <use fill="#2F863A" xlink:href="#path-26"></use>
                                    <use fill="url(#radialGradient-4)" xlink:href="#path-26"></use>
                                </g>
                            </g>
                            <ellipse id="gradient" fill="url(#radialGradient-4)" cx="19.5" cy="18.0828118" rx="13.5" ry="11.5"></ellipse>
                            <path d="M12.5948736,25.0350541 C11.3899054,18.6960045 12.8422208,14.1754906 16.9518199,11.4735124 C21.0614189,8.7715343 25.2518379,8.85187883 29.5230768,11.714546 C25.6309065,10.7024657 21.7895756,11.6688261 17.999084,14.6136272 C14.2085923,17.5584284 12.4071889,21.0322373 12.5948736,25.0350541 Z" id="glow" fill="#FFFFFF" filter="url(#filter-27)" transform="translate(20.854074, 17.270301) rotate(-300.000000) translate(-20.854074, -17.270301) "></path>
                        </g>
                        <g transform="translate(57.000000, 14.000000)">
                            <ellipse id="shadow" fill="#000000" opacity="0.4" style="mix-blend-mode: multiply;" filter="url(#filter-28)" cx="18.5" cy="19.0828118" rx="13.5" ry="11.5"></ellipse>
                            <g id="colour" transform="translate(6.000000, 6.582812)">
                                <g id="colour---red">
                                    <use fill="#D02424" xlink:href="#path-29"></use>
                                    <use fill="url(#radialGradient-4)" xlink:href="#path-29"></use>
                                </g>
                                <g id="colour---green">
                                    <use fill="#2F863A" xlink:href="#path-30"></use>
                                    <use fill="url(#radialGradient-4)" xlink:href="#path-30"></use>
                                </g>
                            </g>
                            <ellipse id="gradient" fill="url(#radialGradient-4)" cx="19.5" cy="18.0828118" rx="13.5" ry="11.5"></ellipse>
                            <path d="M12.5948736,25.0350541 C11.3899054,18.6960045 12.8422208,14.1754906 16.9518199,11.4735124 C21.0614189,8.7715343 25.2518379,8.85187883 29.5230768,11.714546 C25.6309065,10.7024657 21.7895756,11.6688261 17.999084,14.6136272 C14.2085923,17.5584284 12.4071889,21.0322373 12.5948736,25.0350541 Z" id="glow" fill="#FFFFFF" filter="url(#filter-31)" transform="translate(20.854074, 17.270301) rotate(-300.000000) translate(-20.854074, -17.270301) "></path>
                        </g>
                        <g transform="translate(9.000000, 8.000000)">
                            <ellipse id="shadow" fill="#000000" opacity="0.4" style="mix-blend-mode: multiply;" filter="url(#filter-32)" cx="18.5" cy="19.0828118" rx="13.5" ry="11.5"></ellipse>
                            <g id="colour" transform="translate(6.000000, 6.582812)">
                                <g id="colour---red">
                                    <use fill="#D02424" xlink:href="#path-33"></use>
                                    <use fill="url(#radialGradient-4)" xlink:href="#path-33"></use>
                                </g>
                                <g id="colour---green">
                                    <use fill="#2F863A" xlink:href="#path-34"></use>
                                    <use fill="url(#radialGradient-4)" xlink:href="#path-34"></use>
                                </g>
                            </g>
                            <ellipse id="gradient" fill="url(#radialGradient-4)" cx="19.5" cy="18.0828118" rx="13.5" ry="11.5"></ellipse>
                            <path d="M12.5948736,25.0350541 C11.3899054,18.6960045 12.8422208,14.1754906 16.9518199,11.4735124 C21.0614189,8.7715343 25.2518379,8.85187883 29.5230768,11.714546 C25.6309065,10.7024657 21.7895756,11.6688261 17.999084,14.6136272 C14.2085923,17.5584284 12.4071889,21.0322373 12.5948736,25.0350541 Z" id="glow" fill="#FFFFFF" filter="url(#filter-35)" transform="translate(20.854074, 17.270301) rotate(-300.000000) translate(-20.854074, -17.270301) "></path>
                        </g>
                        <g transform="translate(36.000000, 0.000000)">
                            <ellipse id="shadow" fill="#000000" opacity="0.4" style="mix-blend-mode: multiply;" filter="url(#filter-36)" cx="18.5" cy="19.0828118" rx="13.5" ry="11.5"></ellipse>
                            <g id="colour" transform="translate(6.000000, 6.582812)">
                                <g id="colour---red">
                                    <use fill="#D02424" xlink:href="#path-37"></use>
                                    <use fill="url(#radialGradient-4)" xlink:href="#path-37"></use>
                                </g>
                                <g id="colour---green">
                                    <use fill="#2F863A" xlink:href="#path-38"></use>
                                    <use fill="url(#radialGradient-4)" xlink:href="#path-38"></use>
                                </g>
                            </g>
                            <ellipse id="gradient" fill="url(#radialGradient-4)" cx="19.5" cy="18.0828118" rx="13.5" ry="11.5"></ellipse>
                            <path d="M12.5948736,25.0350541 C11.3899054,18.6960045 12.8422208,14.1754906 16.9518199,11.4735124 C21.0614189,8.7715343 25.2518379,8.85187883 29.5230768,11.714546 C25.6309065,10.7024657 21.7895756,11.6688261 17.999084,14.6136272 C14.2085923,17.5584284 12.4071889,21.0322373 12.5948736,25.0350541 Z" id="glow" fill="#FFFFFF" filter="url(#filter-39)" transform="translate(20.854074, 17.270301) rotate(-300.000000) translate(-20.854074, -17.270301) "></path>
                        </g>
                    </g>
                </g>
                <g id="Group" mask="url(#mask-2)">
                    <g transform="translate(93.000000, 26.000000)">
                        <circle id="Oval" fill="#000000" cx="19" cy="19" r="19"></circle>
                        <path d="M16.032,25 L16.032,12.76 L13.669,12.76 L11.374,14.137 L11.374,16.687 L13.669,15.276 L13.669,25 L16.032,25 Z M22.917,25.255 C24.294,25.255 24.294,25.255 25.314,24.68975 C26.334,24.1245 26.334,24.1245 26.895,23.07475 C27.456,22.025 27.456,22.025 27.456,20.58 L27.456,20.58 L27.456,17.027 C27.456,15.6925 27.456,15.6925 26.895,14.67675 C26.334,13.661 26.334,13.661 25.36925,13.0915 C24.4045,12.522 24.4045,12.522 23.189,12.522 C22.033,12.522 22.033,12.522 21.064,13.07025 C20.095,13.6185 20.095,13.6185 19.5085,14.54925 C18.922,15.48 18.922,15.48 18.922,16.636 C18.922,17.792 18.922,17.792 19.41925,18.693 C19.9165,19.594 19.9165,19.594 20.79625,20.1125 C21.676,20.631 21.676,20.631 22.832,20.631 C23.5715,20.631 23.5715,20.631 24.2685,20.34625 C24.617,20.203875 24.617,20.203875 24.920875,19.9988125 L25.093,19.874 L25.093,20.92 C25.093,21.3875 25.093,21.3875 24.9070625,21.8107292 L24.82525,21.97825 C24.5575,22.4755 24.5575,22.4755 24.06875,22.78575 C23.58,23.096 23.58,23.096 22.917,23.096 C22.5005,23.096 22.5005,23.096 22.09675,22.926 C21.693,22.756 21.693,22.756 21.387,22.45 L21.387,22.45 L19.738,24.099 C20.418,24.7195 20.418,24.7195 21.22125,24.98725 C22.0245,25.255 22.0245,25.255 22.917,25.255 Z M23.172,18.557 C22.645,18.557 22.645,18.557 22.2115,18.29775 C21.778,18.0385 21.778,18.0385 21.523,17.60075 C21.268,17.163 21.268,17.163 21.268,16.636 C21.268,16.109 21.268,16.109 21.52725,15.6755 C21.7865,15.242 21.7865,15.242 22.22425,14.987 C22.662,14.732 22.662,14.732 23.189,14.732 C23.716,14.732 23.716,14.732 24.1495,14.9955 C24.583,15.259 24.583,15.259 24.838,15.6925 C25.093,16.126 25.093,16.126 25.093,16.636 C25.093,17.163 25.093,17.163 24.83375,17.60075 C24.5745,18.0385 24.5745,18.0385 24.13675,18.29775 C23.699,18.557 23.699,18.557 23.172,18.557 Z" id="Combined-Shape" fill="#FFFFFF"></path>
                    </g>
                </g>
            </g>
        </g>
    </g>
</svg>