<?xml version="1.0" encoding="UTF-8"?>
<svg width="144px" height="144px" viewBox="0 0 144 144" version="1.1" xmlns="http://www.w3.org/2000/svg" xmlns:xlink="http://www.w3.org/1999/xlink">
    <title>seeds-33</title>
    <defs>
        <rect id="path-1" x="0" y="0" width="144" height="144"></rect>
        <filter x="-22.2%" y="-26.1%" width="144.4%" height="152.2%" filterUnits="objectBoundingBox" id="filter-3">
            <feGaussianBlur stdDeviation="2" in="SourceGraphic"></feGaussianBlur>
        </filter>
        <radialGradient cx="46.387808%" cy="46.387808%" fx="46.387808%" fy="46.387808%" r="46.1573049%" gradientTransform="translate(0.463878,0.463878),scale(0.851852,1.000000),rotate(90.000000),translate(-0.463878,-0.463878)" id="radialGradient-4">
            <stop stop-color="#FFFFFF" stop-opacity="0.1" offset="0%"></stop>
            <stop stop-color="#FFFFFF" stop-opacity="0.0858890035" offset="63.5889013%"></stop>
            <stop stop-color="#000000" stop-opacity="0.08" offset="100%"></stop>
        </radialGradient>
        <ellipse id="path-5" cx="13.5" cy="11.5" rx="13.5" ry="11.5"></ellipse>
        <ellipse id="path-6" cx="13.5" cy="11.5" rx="13.5" ry="11.5"></ellipse>
        <filter x="-34.6%" y="-38.6%" width="169.2%" height="177.3%" filterUnits="objectBoundingBox" id="filter-7">
            <feGaussianBlur stdDeviation="2" in="SourceGraphic"></feGaussianBlur>
        </filter>
        <filter x="-22.2%" y="-26.1%" width="144.4%" height="152.2%" filterUnits="objectBoundingBox" id="filter-8">
            <feGaussianBlur stdDeviation="2" in="SourceGraphic"></feGaussianBlur>
        </filter>
        <ellipse id="path-9" cx="13.5" cy="11.5" rx="13.5" ry="11.5"></ellipse>
        <ellipse id="path-10" cx="13.5" cy="11.5" rx="13.5" ry="11.5"></ellipse>
        <filter x="-34.6%" y="-38.6%" width="169.2%" height="177.3%" filterUnits="objectBoundingBox" id="filter-11">
            <feGaussianBlur stdDeviation="2" in="SourceGraphic"></feGaussianBlur>
        </filter>
        <filter x="-22.2%" y="-26.1%" width="144.4%" height="152.2%" filterUnits="objectBoundingBox" id="filter-12">
            <feGaussianBlur stdDeviation="2" in="SourceGraphic"></feGaussianBlur>
        </filter>
        <ellipse id="path-13" cx="13.5" cy="11.5" rx="13.5" ry="11.5"></ellipse>
        <ellipse id="path-14" cx="13.5" cy="11.5" rx="13.5" ry="11.5"></ellipse>
        <filter x="-34.6%" y="-38.6%" width="169.2%" height="177.3%" filterUnits="objectBoundingBox" id="filter-15">
            <feGaussianBlur stdDeviation="2" in="SourceGraphic"></feGaussianBlur>
        </filter>
        <filter x="-22.2%" y="-26.1%" width="144.4%" height="152.2%" filterUnits="objectBoundingBox" id="filter-16">
            <feGaussianBlur stdDeviation="2" in="SourceGraphic"></feGaussianBlur>
        </filter>
        <ellipse id="path-17" cx="13.5" cy="11.5" rx="13.5" ry="11.5"></ellipse>
        <ellipse id="path-18" cx="13.5" cy="11.5" rx="13.5" ry="11.5"></ellipse>
        <filter x="-34.6%" y="-38.6%" width="169.2%" height="177.3%" filterUnits="objectBoundingBox" id="filter-19">
            <feGaussianBlur stdDeviation="2" in="SourceGraphic"></feGaussianBlur>
        </filter>
        <filter x="-22.2%" y="-26.1%" width="144.4%" height="152.2%" filterUnits="objectBoundingBox" id="filter-20">
            <feGaussianBlur stdDeviation="2" in="SourceGraphic"></feGaussianBlur>
        </filter>
        <ellipse id="path-21" cx="13.5" cy="11.5" rx="13.5" ry="11.5"></ellipse>
        <ellipse id="path-22" cx="13.5" cy="11.5" rx="13.5" ry="11.5"></ellipse>
        <filter x="-34.6%" y="-38.6%" width="169.2%" height="177.3%" filterUnits="objectBoundingBox" id="filter-23">
            <feGaussianBlur stdDeviation="2" in="SourceGraphic"></feGaussianBlur>
        </filter>
        <filter x="-22.2%" y="-26.1%" width="144.4%" height="152.2%" filterUnits="objectBoundingBox" id="filter-24">
            <feGaussianBlur stdDeviation="2" in="SourceGraphic"></feGaussianBlur>
        </filter>
        <ellipse id="path-25" cx="13.5" cy="11.5" rx="13.5" ry="11.5"></ellipse>
        <ellipse id="path-26" cx="13.5" cy="11.5" rx="13.5" ry="11.5"></ellipse>
        <filter x="-34.6%" y="-38.6%" width="169.2%" height="177.3%" filterUnits="objectBoundingBox" id="filter-27">
            <feGaussianBlur stdDeviation="2" in="SourceGraphic"></feGaussianBlur>
        </filter>
        <filter x="-22.2%" y="-26.1%" width="144.4%" height="152.2%" filterUnits="objectBoundingBox" id="filter-28">
            <feGaussianBlur stdDeviation="2" in="SourceGraphic"></feGaussianBlur>
        </filter>
        <ellipse id="path-29" cx="13.5" cy="11.5" rx="13.5" ry="11.5"></ellipse>
        <ellipse id="path-30" cx="13.5" cy="11.5" rx="13.5" ry="11.5"></ellipse>
        <filter x="-34.6%" y="-38.6%" width="169.2%" height="177.3%" filterUnits="objectBoundingBox" id="filter-31">
            <feGaussianBlur stdDeviation="2" in="SourceGraphic"></feGaussianBlur>
        </filter>
        <filter x="-22.2%" y="-26.1%" width="144.4%" height="152.2%" filterUnits="objectBoundingBox" id="filter-32">
            <feGaussianBlur stdDeviation="2" in="SourceGraphic"></feGaussianBlur>
        </filter>
        <ellipse id="path-33" cx="13.5" cy="11.5" rx="13.5" ry="11.5"></ellipse>
        <ellipse id="path-34" cx="13.5" cy="11.5" rx="13.5" ry="11.5"></ellipse>
        <filter x="-34.6%" y="-38.6%" width="169.2%" height="177.3%" filterUnits="objectBoundingBox" id="filter-35">
            <feGaussianBlur stdDeviation="2" in="SourceGraphic"></feGaussianBlur>
        </filter>
        <filter x="-22.2%" y="-26.1%" width="144.4%" height="152.2%" filterUnits="objectBoundingBox" id="filter-36">
            <feGaussianBlur stdDeviation="2" in="SourceGraphic"></feGaussianBlur>
        </filter>
        <ellipse id="path-37" cx="13.5" cy="11.5" rx="13.5" ry="11.5"></ellipse>
        <ellipse id="path-38" cx="13.5" cy="11.5" rx="13.5" ry="11.5"></ellipse>
        <filter x="-34.6%" y="-38.6%" width="169.2%" height="177.3%" filterUnits="objectBoundingBox" id="filter-39">
            <feGaussianBlur stdDeviation="2" in="SourceGraphic"></feGaussianBlur>
        </filter>
    </defs>
    <g id="Page-1" stroke="none" stroke-width="1" fill="none" fill-rule="evenodd">
        <g id="8+-seeds" transform="translate(-340.000000, -764.000000)">
            <g id="seeds-33" transform="translate(340.000000, 764.000000)">
                <mask id="mask-2" fill="white">
                    <use xlink:href="#path-1"></use>
                </mask>
                <use id="Mask" fill-opacity="0.01" fill="#FFFFFF" xlink:href="#path-1"></use>
                <g id="Seeds" mask="url(#mask-2)">
                    <g transform="translate(21.000000, 26.000000)" id="Group">
                        <g transform="translate(28.000000, 21.000000)">
                            <ellipse id="shadow" fill="#000000" opacity="0.4" style="mix-blend-mode: multiply;" filter="url(#filter-3)" cx="18.5" cy="19.0828118" rx="13.5" ry="11.5"></ellipse>
                            <g id="colour" transform="translate(6.000000, 6.582812)">
                                <g id="colour---red">
                                    <use fill="#D02424" xlink:href="#path-5"></use>
                                    <use fill="url(#radialGradient-4)" xlink:href="#path-5"></use>
                                </g>
                                <g id="colour---green">
                                    <use fill="#2F863A" xlink:href="#path-6"></use>
                                    <use fill="url(#radialGradient-4)" xlink:href="#path-6"></use>
                                </g>
                            </g>
                            <ellipse id="gradient" fill="url(#radialGradient-4)" cx="19.5" cy="18.0828118" rx="13.5" ry="11.5"></ellipse>
                            <path d="M12.5948736,25.0350541 C11.3899054,18.6960045 12.8422208,14.1754906 16.9518199,11.4735124 C21.0614189,8.7715343 25.2518379,8.85187883 29.5230768,11.714546 C25.6309065,10.7024657 21.7895756,11.6688261 17.999084,14.6136272 C14.2085923,17.5584284 12.4071889,21.0322373 12.5948736,25.0350541 Z" id="glow" fill="#FFFFFF" filter="url(#filter-7)" transform="translate(20.854074, 17.270301) rotate(-300.000000) translate(-20.854074, -17.270301) "></path>
                        </g>
                        <g transform="translate(32.000000, 44.000000)">
                            <ellipse id="shadow" fill="#000000" opacity="0.4" style="mix-blend-mode: multiply;" filter="url(#filter-8)" cx="18.5" cy="19.0828118" rx="13.5" ry="11.5"></ellipse>
                            <g id="colour" transform="translate(6.000000, 6.582812)">
                                <g id="colour---red">
                                    <use fill="#D02424" xlink:href="#path-9"></use>
                                    <use fill="url(#radialGradient-4)" xlink:href="#path-9"></use>
                                </g>
                                <g id="colour---green">
                                    <use fill="#2F863A" xlink:href="#path-10"></use>
                                    <use fill="url(#radialGradient-4)" xlink:href="#path-10"></use>
                                </g>
                            </g>
                            <ellipse id="gradient" fill="url(#radialGradient-4)" cx="19.5" cy="18.0828118" rx="13.5" ry="11.5"></ellipse>
                            <path d="M12.5948736,25.0350541 C11.3899054,18.6960045 12.8422208,14.1754906 16.9518199,11.4735124 C21.0614189,8.7715343 25.2518379,8.85187883 29.5230768,11.714546 C25.6309065,10.7024657 21.7895756,11.6688261 17.999084,14.6136272 C14.2085923,17.5584284 12.4071889,21.0322373 12.5948736,25.0350541 Z" id="glow" fill="#FFFFFF" filter="url(#filter-11)" transform="translate(20.854074, 17.270301) rotate(-300.000000) translate(-20.854074, -17.270301) "></path>
                        </g>
                        <g transform="translate(0.000000, 31.000000)">
                            <ellipse id="shadow" fill="#000000" opacity="0.4" style="mix-blend-mode: multiply;" filter="url(#filter-12)" cx="18.5" cy="19.0828118" rx="13.5" ry="11.5"></ellipse>
                            <g id="colour" transform="translate(6.000000, 6.582812)">
                                <g id="colour---red">
                                    <use fill="#D02424" xlink:href="#path-13"></use>
                                    <use fill="url(#radialGradient-4)" xlink:href="#path-13"></use>
                                </g>
                                <g id="colour---green">
                                    <use fill="#2F863A" xlink:href="#path-14"></use>
                                    <use fill="url(#radialGradient-4)" xlink:href="#path-14"></use>
                                </g>
                            </g>
                            <ellipse id="gradient" fill="url(#radialGradient-4)" cx="19.5" cy="18.0828118" rx="13.5" ry="11.5"></ellipse>
                            <path d="M12.5948736,25.0350541 C11.3899054,18.6960045 12.8422208,14.1754906 16.9518199,11.4735124 C21.0614189,8.7715343 25.2518379,8.85187883 29.5230768,11.714546 C25.6309065,10.7024657 21.7895756,11.6688261 17.999084,14.6136272 C14.2085923,17.5584284 12.4071889,21.0322373 12.5948736,25.0350541 Z" id="glow" fill="#FFFFFF" filter="url(#filter-15)" transform="translate(20.854074, 17.270301) rotate(-300.000000) translate(-20.854074, -17.270301) "></path>
                        </g>
                        <g transform="translate(14.000000, 52.000000)">
                            <ellipse id="shadow" fill="#000000" opacity="0.4" style="mix-blend-mode: multiply;" filter="url(#filter-16)" cx="18.5" cy="19.0828118" rx="13.5" ry="11.5"></ellipse>
                            <g id="colour" transform="translate(6.000000, 6.582812)">
                                <g id="colour---red">
                                    <use fill="#D02424" xlink:href="#path-17"></use>
                                    <use fill="url(#radialGradient-4)" xlink:href="#path-17"></use>
                                </g>
                                <g id="colour---green">
                                    <use fill="#2F863A" xlink:href="#path-18"></use>
                                    <use fill="url(#radialGradient-4)" xlink:href="#path-18"></use>
                                </g>
                            </g>
                            <ellipse id="gradient" fill="url(#radialGradient-4)" cx="19.5" cy="18.0828118" rx="13.5" ry="11.5"></ellipse>
                            <path d="M12.5948736,25.0350541 C11.3899054,18.6960045 12.8422208,14.1754906 16.9518199,11.4735124 C21.0614189,8.7715343 25.2518379,8.85187883 29.5230768,11.714546 C25.6309065,10.7024657 21.7895756,11.6688261 17.999084,14.6136272 C14.2085923,17.5584284 12.4071889,21.0322373 12.5948736,25.0350541 Z" id="glow" fill="#FFFFFF" filter="url(#filter-19)" transform="translate(20.854074, 17.270301) rotate(-300.000000) translate(-20.854074, -17.270301) "></path>
                        </g>
                        <g transform="translate(42.000000, 56.000000)">
                            <ellipse id="shadow" fill="#000000" opacity="0.4" style="mix-blend-mode: multiply;" filter="url(#filter-20)" cx="18.5" cy="19.0828118" rx="13.5" ry="11.5"></ellipse>
                            <g id="colour" transform="translate(6.000000, 6.582812)">
                                <g id="colour---red">
                                    <use fill="#D02424" xlink:href="#path-21"></use>
                                    <use fill="url(#radialGradient-4)" xlink:href="#path-21"></use>
                                </g>
                                <g id="colour---green">
                                    <use fill="#2F863A" xlink:href="#path-22"></use>
                                    <use fill="url(#radialGradient-4)" xlink:href="#path-22"></use>
                                </g>
                            </g>
                            <ellipse id="gradient" fill="url(#radialGradient-4)" cx="19.5" cy="18.0828118" rx="13.5" ry="11.5"></ellipse>
                            <path d="M12.5948736,25.0350541 C11.3899054,18.6960045 12.8422208,14.1754906 16.9518199,11.4735124 C21.0614189,8.7715343 25.2518379,8.85187883 29.5230768,11.714546 C25.6309065,10.7024657 21.7895756,11.6688261 17.999084,14.6136272 C14.2085923,17.5584284 12.4071889,21.0322373 12.5948736,25.0350541 Z" id="glow" fill="#FFFFFF" filter="url(#filter-23)" transform="translate(20.854074, 17.270301) rotate(-300.000000) translate(-20.854074, -17.270301) "></path>
                        </g>
                        <g transform="translate(61.000000, 38.000000)">
                            <ellipse id="shadow" fill="#000000" opacity="0.4" style="mix-blend-mode: multiply;" filter="url(#filter-24)" cx="18.5" cy="19.0828118" rx="13.5" ry="11.5"></ellipse>
                            <g id="colour" transform="translate(6.000000, 6.582812)">
                                <g id="colour---red">
                                    <use fill="#D02424" xlink:href="#path-25"></use>
                                    <use fill="url(#radialGradient-4)" xlink:href="#path-25"></use>
                                </g>
                                <g id="colour---green">
                                    <use fill="#2F863A" xlink:href="#path-26"></use>
                                    <use fill="url(#radialGradient-4)" xlink:href="#path-26"></use>
                                </g>
                            </g>
                            <ellipse id="gradient" fill="url(#radialGradient-4)" cx="19.5" cy="18.0828118" rx="13.5" ry="11.5"></ellipse>
                            <path d="M12.5948736,25.0350541 C11.3899054,18.6960045 12.8422208,14.1754906 16.9518199,11.4735124 C21.0614189,8.7715343 25.2518379,8.85187883 29.5230768,11.714546 C25.6309065,10.7024657 21.7895756,11.6688261 17.999084,14.6136272 C14.2085923,17.5584284 12.4071889,21.0322373 12.5948736,25.0350541 Z" id="glow" fill="#FFFFFF" filter="url(#filter-27)" transform="translate(20.854074, 17.270301) rotate(-300.000000) translate(-20.854074, -17.270301) "></path>
                        </g>
                        <g transform="translate(57.000000, 14.000000)">
                            <ellipse id="shadow" fill="#000000" opacity="0.4" style="mix-blend-mode: multiply;" filter="url(#filter-28)" cx="18.5" cy="19.0828118" rx="13.5" ry="11.5"></ellipse>
                            <g id="colour" transform="translate(6.000000, 6.582812)">
                                <g id="colour---red">
                                    <use fill="#D02424" xlink:href="#path-29"></use>
                                    <use fill="url(#radialGradient-4)" xlink:href="#path-29"></use>
                                </g>
                                <g id="colour---green">
                                    <use fill="#2F863A" xlink:href="#path-30"></use>
                                    <use fill="url(#radialGradient-4)" xlink:href="#path-30"></use>
                                </g>
                            </g>
                            <ellipse id="gradient" fill="url(#radialGradient-4)" cx="19.5" cy="18.0828118" rx="13.5" ry="11.5"></ellipse>
                            <path d="M12.5948736,25.0350541 C11.3899054,18.6960045 12.8422208,14.1754906 16.9518199,11.4735124 C21.0614189,8.7715343 25.2518379,8.85187883 29.5230768,11.714546 C25.6309065,10.7024657 21.7895756,11.6688261 17.999084,14.6136272 C14.2085923,17.5584284 12.4071889,21.0322373 12.5948736,25.0350541 Z" id="glow" fill="#FFFFFF" filter="url(#filter-31)" transform="translate(20.854074, 17.270301) rotate(-300.000000) translate(-20.854074, -17.270301) "></path>
                        </g>
                        <g transform="translate(9.000000, 8.000000)">
                            <ellipse id="shadow" fill="#000000" opacity="0.4" style="mix-blend-mode: multiply;" filter="url(#filter-32)" cx="18.5" cy="19.0828118" rx="13.5" ry="11.5"></ellipse>
                            <g id="colour" transform="translate(6.000000, 6.582812)">
                                <g id="colour---red">
                                    <use fill="#D02424" xlink:href="#path-33"></use>
                                    <use fill="url(#radialGradient-4)" xlink:href="#path-33"></use>
                                </g>
                                <g id="colour---green">
                                    <use fill="#2F863A" xlink:href="#path-34"></use>
                                    <use fill="url(#radialGradient-4)" xlink:href="#path-34"></use>
                                </g>
                            </g>
                            <ellipse id="gradient" fill="url(#radialGradient-4)" cx="19.5" cy="18.0828118" rx="13.5" ry="11.5"></ellipse>
                            <path d="M12.5948736,25.0350541 C11.3899054,18.6960045 12.8422208,14.1754906 16.9518199,11.4735124 C21.0614189,8.7715343 25.2518379,8.85187883 29.5230768,11.714546 C25.6309065,10.7024657 21.7895756,11.6688261 17.999084,14.6136272 C14.2085923,17.5584284 12.4071889,21.0322373 12.5948736,25.0350541 Z" id="glow" fill="#FFFFFF" filter="url(#filter-35)" transform="translate(20.854074, 17.270301) rotate(-300.000000) translate(-20.854074, -17.270301) "></path>
                        </g>
                        <g transform="translate(36.000000, 0.000000)">
                            <ellipse id="shadow" fill="#000000" opacity="0.4" style="mix-blend-mode: multiply;" filter="url(#filter-36)" cx="18.5" cy="19.0828118" rx="13.5" ry="11.5"></ellipse>
                            <g id="colour" transform="translate(6.000000, 6.582812)">
                                <g id="colour---red">
                                    <use fill="#D02424" xlink:href="#path-37"></use>
                                    <use fill="url(#radialGradient-4)" xlink:href="#path-37"></use>
                                </g>
                                <g id="colour---green">
                                    <use fill="#2F863A" xlink:href="#path-38"></use>
                                    <use fill="url(#radialGradient-4)" xlink:href="#path-38"></use>
                                </g>
                            </g>
                            <ellipse id="gradient" fill="url(#radialGradient-4)" cx="19.5" cy="18.0828118" rx="13.5" ry="11.5"></ellipse>
                            <path d="M12.5948736,25.0350541 C11.3899054,18.6960045 12.8422208,14.1754906 16.9518199,11.4735124 C21.0614189,8.7715343 25.2518379,8.85187883 29.5230768,11.714546 C25.6309065,10.7024657 21.7895756,11.6688261 17.999084,14.6136272 C14.2085923,17.5584284 12.4071889,21.0322373 12.5948736,25.0350541 Z" id="glow" fill="#FFFFFF" filter="url(#filter-39)" transform="translate(20.854074, 17.270301) rotate(-300.000000) translate(-20.854074, -17.270301) "></path>
                        </g>
                    </g>
                </g>
                <g id="Group" mask="url(#mask-2)">
                    <g transform="translate(93.000000, 26.000000)">
                        <circle id="Oval" fill="#000000" cx="19" cy="19" r="19"></circle>
                        <path d="M14.213,25.221 C15.369,25.221 15.369,25.221 16.338,24.68125 C17.307,24.1415 17.307,24.1415 17.8935,23.21925 C18.48,22.297 18.48,22.297 18.48,21.141 C18.48,20.1975 18.48,20.1975 18.10175,19.36025 C17.7235,18.523 17.7235,18.523 16.99675,17.94925 C16.5425313,17.5906563 16.5425313,17.5906563 15.9604805,17.3930977 L15.774,17.337 L18.259,14.936 L18.259,12.76 L10.609,12.76 L10.609,14.936 L15.523,14.936 L12.224,17.673 L13.261,19.492 C13.482,19.3645 13.482,19.3645 13.72,19.29225 C13.958,19.22 13.958,19.22 14.213,19.22 C15.0545,19.22 15.0545,19.22 15.59425,19.78525 C16.134,20.3505 16.134,20.3505 16.134,21.141 C16.134,21.668 16.134,21.668 15.87475,22.1015 C15.6155,22.535 15.6155,22.535 15.17775,22.79 C14.74,23.045 14.74,23.045 14.213,23.045 C13.601,23.045 13.601,23.045 13.07825,22.67525 C12.5555,22.3055 12.5555,22.3055 12.377,21.634 L12.377,21.634 L10.133,22.229 C10.3965,23.1385 10.3965,23.1385 11.01275,23.81 C11.629,24.4815 11.629,24.4815 12.462,24.85125 C13.295,25.221 13.295,25.221 14.213,25.221 Z M24.26,25.221 C25.416,25.221 25.416,25.221 26.385,24.68125 C27.354,24.1415 27.354,24.1415 27.9405,23.21925 C28.527,22.297 28.527,22.297 28.527,21.141 C28.527,20.1975 28.527,20.1975 28.14875,19.36025 C27.7705,18.523 27.7705,18.523 27.04375,17.94925 C26.5895313,17.5906563 26.5895313,17.5906563 26.0074805,17.3930977 L25.821,17.337 L28.306,14.936 L28.306,12.76 L20.656,12.76 L20.656,14.936 L25.57,14.936 L22.271,17.673 L23.308,19.492 C23.529,19.3645 23.529,19.3645 23.767,19.29225 C24.005,19.22 24.005,19.22 24.26,19.22 C25.1015,19.22 25.1015,19.22 25.64125,19.78525 C26.181,20.3505 26.181,20.3505 26.181,21.141 C26.181,21.668 26.181,21.668 25.92175,22.1015 C25.6625,22.535 25.6625,22.535 25.22475,22.79 C24.787,23.045 24.787,23.045 24.26,23.045 C23.648,23.045 23.648,23.045 23.12525,22.67525 C22.6025,22.3055 22.6025,22.3055 22.424,21.634 L22.424,21.634 L20.18,22.229 C20.4435,23.1385 20.4435,23.1385 21.05975,23.81 C21.676,24.4815 21.676,24.4815 22.509,24.85125 C23.342,25.221 23.342,25.221 24.26,25.221 Z" id="Combined-Shape" fill="#FFFFFF"></path>
                    </g>
                </g>
            </g>
        </g>
    </g>
</svg>