<svg xmlns="http://www.w3.org/2000/svg" viewBox="0 0 566.93 566.93"  xmlns:v="https://vecta.io/nano"><path d="M439.598 127.331c-41.705-41.705-97.152-64.674-156.138-64.674-58.977 0-114.423 22.968-156.129 64.674-41.705 41.696-64.674 97.152-64.674 156.129s22.968 114.423 64.674 156.129 97.152 64.674 156.129 64.674c58.986 0 114.433-22.968 156.138-64.674 41.696-41.705 64.665-97.152 64.665-156.129s-22.968-114.432-64.665-156.129zm-11.803 217.108a156.08 156.08 0 0 1-33.57 49.777v.009c-8.654 8.654-18.164 16.189-28.419 22.532l-2.821 1.702a154.827 154.827 0 0 1-5.751 3.231c-1.938 1.037-3.904 2.029-5.888 2.985l-3.431 1.602-3.476 1.52c-19.319 8.172-39.84 12.312-60.979 12.312s-41.651-4.14-60.97-12.312l-3.476-1.52-3.431-1.602c-1.984-.955-3.949-1.947-5.897-2.985-1.938-1.037-3.849-2.111-5.742-3.231l-2.821-1.702c-10.265-6.343-19.774-13.877-28.419-22.532v-.009c-14.396-14.378-25.68-31.122-33.57-49.777-8.172-19.319-12.312-39.831-12.312-60.97s4.141-41.66 12.312-60.979a163.16 163.16 0 0 1 4.796-10.301l.864-1.674 1.793-3.303.928-1.638v-.009l1.92-3.231c6.497-10.729 14.278-20.639 23.269-29.63v-.009a157.002 157.002 0 0 1 8.873-8.217l3.076-2.575 3.139-2.493c1.583-1.228 3.185-2.421 4.814-3.576l3.285-2.275 1.665-1.11a174.58 174.58 0 0 1 4.768-3.012l2.43-1.438a154.227 154.227 0 0 1 17.736-8.864 161.36 161.36 0 0 1 6.834-2.703l2.302-.828 1.847-.637 3.722-1.201 1.865-.564a160.606 160.606 0 0 1 10.847-2.785l2.739-.573a157.17 157.17 0 0 1 61.625 0l2.739.573c3.649.801 7.271 1.729 10.856 2.785l1.865.564 3.713 1.201 1.847.637 2.302.828a161.72 161.72 0 0 1 6.843 2.703 154.227 154.227 0 0 1 17.736 8.863l2.43 1.438a174.58 174.58 0 0 1 4.768 3.012l1.665 1.11a132.123 132.123 0 0 1 3.285 2.275c1.629 1.156 3.231 2.348 4.814 3.576l3.139 2.493 3.085 2.575a153.78 153.78 0 0 1 8.863 8.217v.009c14.378 14.378 25.671 31.122 33.561 49.777h.009v.009c8.163 19.319 12.312 39.84 12.312 60.979s-4.15 41.651-12.312 60.97zM283.46 145.022c-76.331 0-138.438 62.108-138.438 138.447s62.107 138.438 138.438 138.438c76.34 0 138.447-62.098 138.447-138.438S359.8 145.022 283.46 145.022zm81.19 96.324l-7.517 86.605a13.568 13.568 0 0 1-13.595 12.467H223.391a13.568 13.568 0 0 1-13.595-12.467l-7.517-86.605c-.51-5.779 2.685-11.211 7.953-13.605l.419-.191a13.714 13.714 0 0 1 5.223-1.037c3.868 0 7.562 1.656 10.147 4.532l23.651 26.299 23.642-26.299a13.677 13.677 0 0 1 10.147-4.532c3.868 0 7.571 1.656 10.156 4.532l23.642 26.299 23.642-26.299c2.584-2.876 6.288-4.532 10.156-4.532a13.632 13.632 0 0 1 5.214 1.037l.428.191a13.623 13.623 0 0 1 7.953 13.605z"/><path d="M356.697 227.741l-.428-.191a13.632 13.632 0 0 0-5.214-1.037c-3.868 0-7.571 1.656-10.156 4.532l-23.642 26.299-23.642-26.299c-2.584-2.876-6.288-4.532-10.156-4.532a13.677 13.677 0 0 0-10.147 4.532l-23.642 26.299-23.651-26.299c-2.584-2.876-6.279-4.532-10.147-4.532a13.714 13.714 0 0 0-5.223 1.037l-.419.191c-5.269 2.393-8.463 7.826-7.953 13.605l7.517 86.605a13.568 13.568 0 0 0 13.595 12.467h120.147a13.568 13.568 0 0 0 13.595-12.467l7.517-86.605a13.623 13.623 0 0 0-7.953-13.605zm-17.336 94.476H227.568l-5.988-68.896 28.092 31.24 33.788-37.592 33.797 37.592 28.083-31.24zm88.434-99.727h-.009v-.009c-7.89-18.655-19.183-35.399-33.561-49.777-2.857-2.857-5.815-5.606-8.863-8.226l-3.085-2.575-3.139-2.493c-1.583-1.219-3.185-2.411-4.814-3.576a132.123 132.123 0 0 0-3.285-2.275l-1.665-1.11-4.768-3.012a106.57 106.57 0 0 0-2.43-1.438 158.713 158.713 0 0 0-17.736-8.854 175.17 175.17 0 0 0-6.843-2.712l-2.302-.828-1.847-.637-3.713-1.201-1.865-.564c-3.585-1.056-7.207-1.984-10.856-2.785l-2.739-.573c-10.074-2.002-20.366-3.021-30.813-3.021s-20.739 1.019-30.813 3.021l-2.739.573a160.606 160.606 0 0 0-10.847 2.785l-1.865.564-3.722 1.201-1.847.637-2.302.828c-2.293.855-4.568 1.756-6.834 2.712a158.713 158.713 0 0 0-17.736 8.854l-2.43 1.438a174.58 174.58 0 0 0-4.768 3.012l-1.665 1.11a151.62 151.62 0 0 0-3.285 2.275c-1.629 1.165-3.231 2.357-4.814 3.576l-3.139 2.493-3.076 2.575c-3.048 2.621-6.006 5.369-8.873 8.226-8.991 8.991-16.771 18.901-23.269 29.63l-1.92 3.231v.009l-.928 1.638-1.793 3.303-.864 1.674a163.16 163.16 0 0 0-4.796 10.301c-8.172 19.319-12.312 39.84-12.312 60.979s4.141 41.651 12.312 60.97c7.89 18.655 19.174 35.399 33.57 49.777v.009c8.645 8.654 18.155 16.189 28.419 22.532l2.821 1.702c1.893 1.119 3.804 2.193 5.742 3.231 1.947 1.037 3.913 2.029 5.897 2.985l3.431 1.602 3.476 1.52c19.319 8.172 39.831 12.312 60.97 12.312s41.66-4.14 60.979-12.312l3.476-1.52 3.431-1.602c1.984-.955 3.949-1.947 5.888-2.985a154.827 154.827 0 0 0 5.751-3.231l2.821-1.702c10.256-6.343 19.765-13.877 28.419-22.532v-.009a156.08 156.08 0 0 0 33.57-49.777c8.163-19.319 12.312-39.831 12.312-60.97s-4.15-41.66-12.312-60.979zM283.46 421.907c-76.331 0-138.438-62.098-138.438-138.438s62.107-138.447 138.438-138.447c76.34 0 138.447 62.107 138.447 138.447S359.8 421.907 283.46 421.907z" fill="#bfbfbf"/><path d="M283.46 246.969l-33.788 37.592-28.092-31.24 5.988 68.896h111.794l5.979-68.896-28.083 31.24z"/></svg>