<svg xmlns="http://www.w3.org/2000/svg" viewBox="0 0 566.93 566.93"  xmlns:v="https://vecta.io/nano"><path d="M439.598 127.331c-41.705-41.705-97.152-64.674-156.138-64.674-58.977 0-114.423 22.968-156.129 64.674-41.705 41.696-64.674 97.152-64.674 156.129s22.968 114.423 64.674 156.129 97.152 64.674 156.129 64.674c58.986 0 114.433-22.968 156.138-64.674 41.696-41.705 64.665-97.152 64.665-156.129s-22.968-114.432-64.665-156.129zM427.795 344.43c-7.899 18.655-19.192 35.408-33.57 49.786-14.378 14.387-31.131 25.68-49.786 33.57-19.319 8.172-39.84 12.312-60.979 12.312s-41.651-4.14-60.97-12.312c-18.655-7.89-35.408-19.183-49.786-33.57-14.387-14.378-25.68-31.131-33.57-49.786-8.172-19.319-12.312-39.831-12.312-60.97s4.141-41.66 12.312-60.979c7.89-18.655 19.183-35.399 33.57-49.786 14.378-14.378 31.131-25.671 49.786-33.561 19.319-8.172 39.831-12.321 60.97-12.321s41.66 4.15 60.979 12.321c18.655 7.89 35.408 19.183 49.786 33.561s25.671 31.131 33.561 49.786h.009c8.163 19.319 12.312 39.84 12.312 60.979s-4.15 41.651-12.312 60.97zM283.46 145.022c-76.331 0-138.438 62.108-138.438 138.447s62.107 138.438 138.438 138.438c76.34 0 138.447-62.098 138.447-138.438S359.8 145.022 283.46 145.022zm81.19 96.324l-7.517 86.605a13.568 13.568 0 0 1-13.595 12.467H223.391a13.568 13.568 0 0 1-13.595-12.467l-7.517-86.605c-.51-5.779 2.685-11.211 7.953-13.605l.419-.191a13.714 13.714 0 0 1 5.223-1.037c3.868 0 7.562 1.656 10.147 4.532l23.651 26.299 23.642-26.299a13.677 13.677 0 0 1 10.147-4.532c3.868 0 7.571 1.656 10.156 4.532l23.642 26.299 23.642-26.299c2.584-2.876 6.288-4.532 10.156-4.532a13.632 13.632 0 0 1 5.214 1.037l.428.191a13.623 13.623 0 0 1 7.953 13.605z" fill="#fff"/><path d="M364.65 241.345l-7.517 86.605a13.568 13.568 0 0 1-13.595 12.467H223.391a13.568 13.568 0 0 1-13.595-12.467l-7.517-86.605c-.51-5.779 2.685-11.211 7.953-13.605l.419-.191a13.714 13.714 0 0 1 5.223-1.037c3.868 0 7.562 1.656 10.147 4.532l23.651 26.299 23.642-26.299a13.677 13.677 0 0 1 10.147-4.532c3.868 0 7.571 1.656 10.156 4.532l23.642 26.299 23.642-26.299c2.584-2.876 6.288-4.532 10.156-4.532a13.632 13.632 0 0 1 5.214 1.037l.428.191a13.623 13.623 0 0 1 7.953 13.605zm-81.19 180.562c-76.331 0-138.438-62.098-138.438-138.438s62.107-138.447 138.438-138.447c76.34 0 138.447 62.107 138.447 138.447S359.8 421.907 283.46 421.907zM427.795 222.49h-.009c-7.89-18.655-19.183-35.408-33.561-49.786s-31.131-25.671-49.786-33.561c-19.319-8.172-39.84-12.321-60.979-12.321s-41.651 4.15-60.97 12.321c-18.655 7.89-35.408 19.183-49.786 33.561-14.387 14.387-25.68 31.131-33.57 49.786-8.172 19.319-12.312 39.84-12.312 60.979s4.141 41.651 12.312 60.97c7.89 18.655 19.183 35.408 33.57 49.786 14.378 14.387 31.131 25.68 49.786 33.57 19.319 8.172 39.831 12.312 60.97 12.312s41.66-4.14 60.979-12.312c18.655-7.89 35.408-19.183 49.786-33.57 14.378-14.378 25.671-31.131 33.57-49.786 8.163-19.319 12.312-39.831 12.312-60.97s-4.15-41.66-12.312-60.979z" fill="#404040"/><path d="M345.34 252.192l-5.979 68.896H227.568l-5.988-68.896 28.092 31.24 33.788-37.592 33.797 37.592z" fill="#fff"/></svg>