<svg xmlns="http://www.w3.org/2000/svg" viewBox="0 0 566.93 566.93"  xmlns:v="https://vecta.io/nano"><path d="M283.46 145.022c-76.34 0-138.438 62.108-138.438 138.447S207.12 421.907 283.46 421.907s138.438-62.098 138.438-138.438S359.8 145.022 283.46 145.022zm0 213.604c-41.441 0-75.157-33.716-75.157-75.157s33.715-75.157 75.157-75.157 75.157 33.715 75.157 75.157-33.716 75.157-75.157 75.157zm156.129-231.295c-41.705-41.705-97.152-64.674-156.129-64.674s-114.423 22.968-156.129 64.674c-41.705 41.696-64.674 97.152-64.674 156.129s22.968 114.423 64.674 156.129 97.152 64.674 156.129 64.674 114.423-22.968 156.129-64.674 64.674-97.152 64.674-156.129-22.968-114.432-64.674-156.129zM427.786 344.43c-7.89 18.655-19.183 35.408-33.561 49.795-14.387 14.378-31.131 25.671-49.786 33.561-19.319 8.172-39.84 12.312-60.979 12.312s-41.66-4.14-60.979-12.312c-18.655-7.89-35.399-19.183-49.786-33.561-14.378-14.387-25.671-31.14-33.561-49.795-8.172-19.319-12.312-39.831-12.312-60.97s4.141-41.66 12.312-60.979c7.89-18.655 19.183-35.408 33.561-49.786 14.387-14.378 31.131-25.671 49.786-33.561 19.319-8.172 39.84-12.321 60.979-12.321s41.66 4.15 60.979 12.321c18.655 7.89 35.399 19.183 49.786 33.561 14.378 14.387 25.671 31.131 33.561 49.786 8.172 19.319 12.312 39.84 12.312 60.979s-4.14 41.651-12.312 60.97zm-86.423-60.97c0 31.932-25.971 57.912-57.903 57.912s-57.903-25.981-57.903-57.912 25.971-57.903 57.903-57.903 57.903 25.971 57.903 57.903z" fill="#fff"/><path d="M283.46 208.303c-41.441 0-75.157 33.715-75.157 75.157s33.715 75.157 75.157 75.157 75.157-33.716 75.157-75.157-33.716-75.157-75.157-75.157zm0 133.069c-31.932 0-57.903-25.981-57.903-57.912s25.971-57.903 57.903-57.903 57.903 25.971 57.903 57.903-25.971 57.912-57.903 57.912zM427.786 222.49c-7.89-18.655-19.183-35.399-33.561-49.786-14.387-14.378-31.131-25.671-49.786-33.561-19.319-8.172-39.84-12.321-60.979-12.321s-41.66 4.15-60.979 12.321c-18.655 7.89-35.399 19.183-49.786 33.561-14.378 14.378-25.671 31.131-33.561 49.786-8.172 19.319-12.312 39.84-12.312 60.979s4.141 41.651 12.312 60.97c7.89 18.655 19.183 35.408 33.561 49.795 14.387 14.378 31.131 25.671 49.786 33.561 19.319 8.172 39.84 12.312 60.979 12.312s41.66-4.14 60.979-12.312c18.655-7.89 35.399-19.183 49.786-33.561 14.378-14.387 25.671-31.14 33.561-49.795 8.172-19.319 12.312-39.831 12.312-60.97s-4.14-41.66-12.312-60.979zM283.46 421.907c-76.34 0-138.438-62.098-138.438-138.438S207.12 145.022 283.46 145.022s138.438 62.107 138.438 138.447S359.8 421.907 283.46 421.907z" fill="#404040"/></svg>