<?xml version="1.0" encoding="UTF-8"?>
<svg width="144px" height="144px" viewBox="0 0 144 144" version="1.1" xmlns="http://www.w3.org/2000/svg" xmlns:xlink="http://www.w3.org/1999/xlink">
    <title>seeds-32</title>
    <defs>
        <filter x="-14.1%" y="-15.7%" width="130.7%" height="131.0%" filterUnits="objectBoundingBox" id="filter-1">
            <feOffset dx="-3" dy="3" in="SourceAlpha" result="shadowOffsetOuter1"></feOffset>
            <feGaussianBlur stdDeviation="2" in="shadowOffsetOuter1" result="shadowBlurOuter1"></feGaussianBlur>
            <feColorMatrix values="0 0 0 0 0.221688975   0 0 0 0 0.0536301031   0 0 0 0 0.0536301031  0 0 0 0.18 0" type="matrix" in="shadowBlurOuter1" result="shadowMatrixOuter1"></feColorMatrix>
            <feMerge>
                <feMergeNode in="shadowMatrixOuter1"></feMergeNode>
                <feMergeNode in="SourceGraphic"></feMergeNode>
            </feMerge>
        </filter>
        <radialGradient cx="41.5870949%" cy="41.277448%" fx="41.5870949%" fy="41.277448%" r="46.1573049%" gradientTransform="translate(0.415871,0.412774),scale(0.867739,1.000000),rotate(90.000000),translate(-0.415871,-0.412774)" id="radialGradient-2">
            <stop stop-color="#FFFFFF" stop-opacity="0.1" offset="0%"></stop>
            <stop stop-color="#FFFFFF" stop-opacity="0.0858890035" offset="63.5889013%"></stop>
            <stop stop-color="#344152" stop-opacity="0.11" offset="100%"></stop>
        </radialGradient>
        <radialGradient cx="5.66065978%" cy="50%" fx="5.66065978%" fy="50%" r="15.0406377%" gradientTransform="translate(0.056607,0.500000),scale(0.867739,1.000000),rotate(180.000000),scale(1.000000,1.426476),translate(-0.056607,-0.500000)" id="radialGradient-3">
            <stop stop-color="#573A23" offset="0%"></stop>
            <stop stop-color="#FFFFFF" stop-opacity="0.5" offset="100%"></stop>
        </radialGradient>
        <path d="M15.6405705,25.7456712 C23.1405705,27.3284831 29.1405705,20.5969459 29.1405705,14.2456712 C29.1405705,7.89439661 23.1405705,1.32848305 15.6405705,2.74567123 C8.14057052,4.16285941 2.14057052,7.89439661 2.14057052,14.2456712 C2.14057052,20.5969459 8.14057052,24.1628594 15.6405705,25.7456712 Z" id="path-4"></path>
        <filter x="-20.7%" y="-23.1%" width="141.3%" height="146.2%" filterUnits="objectBoundingBox" id="filter-5">
            <feGaussianBlur stdDeviation="1" in="SourceGraphic"></feGaussianBlur>
        </filter>
        <filter x="-34.6%" y="-38.6%" width="169.2%" height="177.3%" filterUnits="objectBoundingBox" id="filter-6">
            <feGaussianBlur stdDeviation="2" in="SourceGraphic"></feGaussianBlur>
        </filter>
        <path d="M15.6405705,25.7456712 C23.1405705,27.3284831 29.1405705,20.5969459 29.1405705,14.2456712 C29.1405705,7.89439661 23.1405705,1.32848305 15.6405705,2.74567123 C8.14057052,4.16285941 2.14057052,7.89439661 2.14057052,14.2456712 C2.14057052,20.5969459 8.14057052,24.1628594 15.6405705,25.7456712 Z" id="path-7"></path>
        <filter x="-20.7%" y="-23.1%" width="141.3%" height="146.2%" filterUnits="objectBoundingBox" id="filter-8">
            <feGaussianBlur stdDeviation="1" in="SourceGraphic"></feGaussianBlur>
        </filter>
        <filter x="-34.6%" y="-38.6%" width="169.2%" height="177.3%" filterUnits="objectBoundingBox" id="filter-9">
            <feGaussianBlur stdDeviation="2" in="SourceGraphic"></feGaussianBlur>
        </filter>
        <path d="M15.6405705,25.7456712 C23.1405705,27.3284831 29.1405705,20.5969459 29.1405705,14.2456712 C29.1405705,7.89439661 23.1405705,1.32848305 15.6405705,2.74567123 C8.14057052,4.16285941 2.14057052,7.89439661 2.14057052,14.2456712 C2.14057052,20.5969459 8.14057052,24.1628594 15.6405705,25.7456712 Z" id="path-10"></path>
        <filter x="-20.7%" y="-23.1%" width="141.3%" height="146.2%" filterUnits="objectBoundingBox" id="filter-11">
            <feGaussianBlur stdDeviation="1" in="SourceGraphic"></feGaussianBlur>
        </filter>
        <filter x="-34.6%" y="-38.6%" width="169.2%" height="177.3%" filterUnits="objectBoundingBox" id="filter-12">
            <feGaussianBlur stdDeviation="2" in="SourceGraphic"></feGaussianBlur>
        </filter>
        <filter x="-33.8%" y="-43.9%" width="167.8%" height="183.8%" filterUnits="objectBoundingBox" id="filter-13">
            <feOffset dx="-1" dy="2" in="SourceAlpha" result="shadowOffsetOuter1"></feOffset>
            <feGaussianBlur stdDeviation="2.5" in="shadowOffsetOuter1" result="shadowBlurOuter1"></feGaussianBlur>
            <feColorMatrix values="0 0 0 0 0   0 0 0 0 0   0 0 0 0 0  0 0 0 0.3 0" type="matrix" in="shadowBlurOuter1" result="shadowMatrixOuter1"></feColorMatrix>
            <feMerge>
                <feMergeNode in="shadowMatrixOuter1"></feMergeNode>
                <feMergeNode in="SourceGraphic"></feMergeNode>
            </feMerge>
        </filter>
        <path d="M15.6405705,25.7456712 C23.1405705,27.3284831 29.1405705,20.5969459 29.1405705,14.2456712 C29.1405705,7.89439661 23.1405705,1.32848305 15.6405705,2.74567123 C8.14057052,4.16285941 2.14057052,7.89439661 2.14057052,14.2456712 C2.14057052,20.5969459 8.14057052,24.1628594 15.6405705,25.7456712 Z" id="path-14"></path>
        <filter x="-20.7%" y="-23.1%" width="141.3%" height="146.2%" filterUnits="objectBoundingBox" id="filter-15">
            <feGaussianBlur stdDeviation="1" in="SourceGraphic"></feGaussianBlur>
        </filter>
        <filter x="-34.6%" y="-38.6%" width="169.2%" height="177.3%" filterUnits="objectBoundingBox" id="filter-16">
            <feGaussianBlur stdDeviation="2" in="SourceGraphic"></feGaussianBlur>
        </filter>
        <path d="M15.6405705,25.7456712 C23.1405705,27.3284831 29.1405705,20.5969459 29.1405705,14.2456712 C29.1405705,7.89439661 23.1405705,1.32848305 15.6405705,2.74567123 C8.14057052,4.16285941 2.14057052,7.89439661 2.14057052,14.2456712 C2.14057052,20.5969459 8.14057052,24.1628594 15.6405705,25.7456712 Z" id="path-17"></path>
        <filter x="-20.7%" y="-23.1%" width="141.3%" height="146.2%" filterUnits="objectBoundingBox" id="filter-18">
            <feGaussianBlur stdDeviation="1" in="SourceGraphic"></feGaussianBlur>
        </filter>
        <filter x="-34.6%" y="-38.6%" width="169.2%" height="177.3%" filterUnits="objectBoundingBox" id="filter-19">
            <feGaussianBlur stdDeviation="2" in="SourceGraphic"></feGaussianBlur>
        </filter>
        <path d="M15.6405705,25.7456712 C23.1405705,27.3284831 29.1405705,20.5969459 29.1405705,14.2456712 C29.1405705,7.89439661 23.1405705,1.32848305 15.6405705,2.74567123 C8.14057052,4.16285941 2.14057052,7.89439661 2.14057052,14.2456712 C2.14057052,20.5969459 8.14057052,24.1628594 15.6405705,25.7456712 Z" id="path-20"></path>
        <filter x="-20.7%" y="-23.1%" width="141.3%" height="146.2%" filterUnits="objectBoundingBox" id="filter-21">
            <feGaussianBlur stdDeviation="1" in="SourceGraphic"></feGaussianBlur>
        </filter>
        <filter x="-34.6%" y="-38.6%" width="169.2%" height="177.3%" filterUnits="objectBoundingBox" id="filter-22">
            <feGaussianBlur stdDeviation="2" in="SourceGraphic"></feGaussianBlur>
        </filter>
        <path d="M15.6405705,25.7456712 C23.1405705,27.3284831 29.1405705,20.5969459 29.1405705,14.2456712 C29.1405705,7.89439661 23.1405705,1.32848305 15.6405705,2.74567123 C8.14057052,4.16285941 2.14057052,7.89439661 2.14057052,14.2456712 C2.14057052,20.5969459 8.14057052,24.1628594 15.6405705,25.7456712 Z" id="path-23"></path>
        <filter x="-20.7%" y="-23.1%" width="141.3%" height="146.2%" filterUnits="objectBoundingBox" id="filter-24">
            <feGaussianBlur stdDeviation="1" in="SourceGraphic"></feGaussianBlur>
        </filter>
        <filter x="-34.6%" y="-38.6%" width="169.2%" height="177.3%" filterUnits="objectBoundingBox" id="filter-25">
            <feGaussianBlur stdDeviation="2" in="SourceGraphic"></feGaussianBlur>
        </filter>
        <filter x="-40.0%" y="-50.9%" width="180.3%" height="197.7%" filterUnits="objectBoundingBox" id="filter-26">
            <feOffset dx="-1" dy="2" in="SourceAlpha" result="shadowOffsetOuter1"></feOffset>
            <feGaussianBlur stdDeviation="3" in="shadowOffsetOuter1" result="shadowBlurOuter1"></feGaussianBlur>
            <feColorMatrix values="0 0 0 0 0   0 0 0 0 0   0 0 0 0 0  0 0 0 0.35 0" type="matrix" in="shadowBlurOuter1" result="shadowMatrixOuter1"></feColorMatrix>
            <feMerge>
                <feMergeNode in="shadowMatrixOuter1"></feMergeNode>
                <feMergeNode in="SourceGraphic"></feMergeNode>
            </feMerge>
        </filter>
        <path d="M15.6405705,25.7456712 C23.1405705,27.3284831 29.1405705,20.5969459 29.1405705,14.2456712 C29.1405705,7.89439661 23.1405705,1.32848305 15.6405705,2.74567123 C8.14057052,4.16285941 2.14057052,7.89439661 2.14057052,14.2456712 C2.14057052,20.5969459 8.14057052,24.1628594 15.6405705,25.7456712 Z" id="path-27"></path>
        <filter x="-20.7%" y="-23.1%" width="141.3%" height="146.2%" filterUnits="objectBoundingBox" id="filter-28">
            <feGaussianBlur stdDeviation="1" in="SourceGraphic"></feGaussianBlur>
        </filter>
        <filter x="-34.6%" y="-38.6%" width="169.2%" height="177.3%" filterUnits="objectBoundingBox" id="filter-29">
            <feGaussianBlur stdDeviation="2" in="SourceGraphic"></feGaussianBlur>
        </filter>
        <path d="M15.6405705,25.7456712 C23.1405705,27.3284831 29.1405705,20.5969459 29.1405705,14.2456712 C29.1405705,7.89439661 23.1405705,1.32848305 15.6405705,2.74567123 C8.14057052,4.16285941 2.14057052,7.89439661 2.14057052,14.2456712 C2.14057052,20.5969459 8.14057052,24.1628594 15.6405705,25.7456712 Z" id="path-30"></path>
        <filter x="-20.7%" y="-23.1%" width="141.3%" height="146.2%" filterUnits="objectBoundingBox" id="filter-31">
            <feGaussianBlur stdDeviation="1" in="SourceGraphic"></feGaussianBlur>
        </filter>
        <filter x="-34.6%" y="-38.6%" width="169.2%" height="177.3%" filterUnits="objectBoundingBox" id="filter-32">
            <feGaussianBlur stdDeviation="2" in="SourceGraphic"></feGaussianBlur>
        </filter>
    </defs>
    <g id="Page-1" stroke="none" stroke-width="1" fill="none" fill-rule="evenodd">
        <g id="8+-seeds-(grey)" transform="translate(-196.000000, -764.000000)">
            <g id="seeds-32" transform="translate(196.000000, 764.000000)">
                <rect id="Rectangle" fill-opacity="0.01" fill="#FFFFFF" x="0" y="0" width="144" height="144"></rect>
                <g id="Seeds-(grey)" filter="url(#filter-1)" transform="translate(25.000000, 26.000000)">
                    <g id="Group" transform="translate(30.000000, 24.000000)">
                        <g id="seed-copy-3" transform="translate(20.000000, 18.000000) rotate(132.000000) translate(-20.000000, -18.000000) ">
                            <g id="colour-2" transform="translate(3.859429, 3.837141)">
                                <g id="colour" transform="translate(15.640571, 14.265301) rotate(12.000000) translate(-15.640571, -14.265301) ">
                                    <use fill="#8D9CBE" xlink:href="#path-4"></use>
                                    <use fill="url(#radialGradient-2)" xlink:href="#path-4"></use>
                                    <use fill-opacity="0.5" fill="url(#radialGradient-3)" xlink:href="#path-4"></use>
                                </g>
                                <path d="M13.335499,25.6761703 C12.3268008,20.36965 13.5425574,16.5854551 16.9827688,14.3235857 C20.4229803,12.0617164 23.9308474,12.1289741 27.5063702,14.5253588 C24.2481719,13.6781301 21.032532,14.4870859 17.8594505,16.9522263 C14.686369,19.4173667 13.1783851,22.3253481 13.335499,25.6761703 Z" id="shadow" fill="#000000" opacity="0.149999991" filter="url(#filter-5)" transform="translate(20.249409, 19.176170) rotate(-175.000000) translate(-20.249409, -19.176170) "></path>
                            </g>
                            <path d="M12.5948736,25.0350541 C11.3899054,18.6960045 12.8422208,14.1754906 16.9518199,11.4735124 C21.0614189,8.7715343 25.2518379,8.85187883 29.5230768,11.714546 C25.6309065,10.7024657 21.7895756,11.6688261 17.999084,14.6136272 C14.2085923,17.5584284 12.4071889,21.0322373 12.5948736,25.0350541 Z" id="glow" fill="#FFFFFF" opacity="0.600000024" filter="url(#filter-6)" transform="translate(20.854074, 17.270301) rotate(-300.000000) translate(-20.854074, -17.270301) "></path>
                        </g>
                    </g>
                    <g id="Group" transform="translate(45.000000, 56.000000)">
                        <g id="seed-copy-9" transform="translate(20.000000, 18.000000) rotate(-142.000000) translate(-20.000000, -18.000000) ">
                            <g id="colour-2" transform="translate(3.859429, 3.837141)">
                                <g id="colour" transform="translate(15.640571, 14.265301) rotate(12.000000) translate(-15.640571, -14.265301) ">
                                    <use fill="#8D9CBE" xlink:href="#path-7"></use>
                                    <use fill="url(#radialGradient-2)" xlink:href="#path-7"></use>
                                    <use fill-opacity="0.5" fill="url(#radialGradient-3)" xlink:href="#path-7"></use>
                                </g>
                                <path d="M13.335499,25.6761703 C12.3268008,20.36965 13.5425574,16.5854551 16.9827688,14.3235857 C20.4229803,12.0617164 23.9308474,12.1289741 27.5063702,14.5253588 C24.2481719,13.6781301 21.032532,14.4870859 17.8594505,16.9522263 C14.686369,19.4173667 13.1783851,22.3253481 13.335499,25.6761703 Z" id="shadow" fill="#000000" opacity="0.149999991" filter="url(#filter-8)" transform="translate(20.249409, 19.176170) rotate(-175.000000) translate(-20.249409, -19.176170) "></path>
                            </g>
                            <path d="M12.5948736,25.0350541 C11.3899054,18.6960045 12.8422208,14.1754906 16.9518199,11.4735124 C21.0614189,8.7715343 25.2518379,8.85187883 29.5230768,11.714546 C25.6309065,10.7024657 21.7895756,11.6688261 17.999084,14.6136272 C14.2085923,17.5584284 12.4071889,21.0322373 12.5948736,25.0350541 Z" id="glow" fill="#FFFFFF" opacity="0.600000024" filter="url(#filter-9)" transform="translate(20.854074, 17.270301) rotate(-300.000000) translate(-20.854074, -17.270301) "></path>
                        </g>
                    </g>
                    <g id="Group" transform="translate(13.000000, 56.000000)">
                        <g id="seed-copy-8" transform="translate(20.000000, 18.000000) rotate(-22.000000) translate(-20.000000, -18.000000) ">
                            <g id="colour-2" transform="translate(3.859429, 3.837141)">
                                <g id="colour" transform="translate(15.640571, 14.265301) rotate(12.000000) translate(-15.640571, -14.265301) ">
                                    <use fill="#8D9CBE" xlink:href="#path-10"></use>
                                    <use fill="url(#radialGradient-2)" xlink:href="#path-10"></use>
                                    <use fill-opacity="0.5" fill="url(#radialGradient-3)" xlink:href="#path-10"></use>
                                </g>
                                <path d="M13.335499,25.6761703 C12.3268008,20.36965 13.5425574,16.5854551 16.9827688,14.3235857 C20.4229803,12.0617164 23.9308474,12.1289741 27.5063702,14.5253588 C24.2481719,13.6781301 21.032532,14.4870859 17.8594505,16.9522263 C14.686369,19.4173667 13.1783851,22.3253481 13.335499,25.6761703 Z" id="shadow" fill="#000000" opacity="0.149999991" filter="url(#filter-11)" transform="translate(20.249409, 19.176170) rotate(-175.000000) translate(-20.249409, -19.176170) "></path>
                            </g>
                            <path d="M12.5948736,25.0350541 C11.3899054,18.6960045 12.8422208,14.1754906 16.9518199,11.4735124 C21.0614189,8.7715343 25.2518379,8.85187883 29.5230768,11.714546 C25.6309065,10.7024657 21.7895756,11.6688261 17.999084,14.6136272 C14.2085923,17.5584284 12.4071889,21.0322373 12.5948736,25.0350541 Z" id="glow" fill="#FFFFFF" opacity="0.600000024" filter="url(#filter-12)" transform="translate(20.854074, 17.270301) rotate(-300.000000) translate(-20.854074, -17.270301) "></path>
                        </g>
                    </g>
                    <g id="Group" transform="translate(28.000000, 44.000000)">
                        <g id="seed-copy-11" filter="url(#filter-13)" transform="translate(20.000000, 18.000000) rotate(18.000000) translate(-20.000000, -18.000000) ">
                            <g id="colour-2" transform="translate(3.859429, 3.837141)">
                                <g id="colour" transform="translate(15.640571, 14.265301) rotate(12.000000) translate(-15.640571, -14.265301) ">
                                    <use fill="#8D9CBE" xlink:href="#path-14"></use>
                                    <use fill="url(#radialGradient-2)" xlink:href="#path-14"></use>
                                    <use fill-opacity="0.5" fill="url(#radialGradient-3)" xlink:href="#path-14"></use>
                                </g>
                                <path d="M13.335499,25.6761703 C12.3268008,20.36965 13.5425574,16.5854551 16.9827688,14.3235857 C20.4229803,12.0617164 23.9308474,12.1289741 27.5063702,14.5253588 C24.2481719,13.6781301 21.032532,14.4870859 17.8594505,16.9522263 C14.686369,19.4173667 13.1783851,22.3253481 13.335499,25.6761703 Z" id="shadow" fill="#000000" opacity="0.149999991" filter="url(#filter-15)" transform="translate(20.249409, 19.176170) rotate(-175.000000) translate(-20.249409, -19.176170) "></path>
                            </g>
                            <path d="M12.5948736,25.0350541 C11.3899054,18.6960045 12.8422208,14.1754906 16.9518199,11.4735124 C21.0614189,8.7715343 25.2518379,8.85187883 29.5230768,11.714546 C25.6309065,10.7024657 21.7895756,11.6688261 17.999084,14.6136272 C14.2085923,17.5584284 12.4071889,21.0322373 12.5948736,25.0350541 Z" id="glow" fill="#FFFFFF" opacity="0.600000024" filter="url(#filter-16)" transform="translate(20.854074, 17.270301) rotate(-300.000000) translate(-20.854074, -17.270301) "></path>
                        </g>
                    </g>
                    <g id="Group" transform="translate(0.000000, 33.000000)">
                        <g id="colour-2" transform="translate(3.859429, 3.837141)">
                            <g id="colour" transform="translate(15.640571, 14.265301) rotate(12.000000) translate(-15.640571, -14.265301) ">
                                <use fill="#8D9CBE" xlink:href="#path-17"></use>
                                <use fill="url(#radialGradient-2)" xlink:href="#path-17"></use>
                                <use fill-opacity="0.5" fill="url(#radialGradient-3)" xlink:href="#path-17"></use>
                            </g>
                            <path d="M13.335499,25.6761703 C12.3268008,20.36965 13.5425574,16.5854551 16.9827688,14.3235857 C20.4229803,12.0617164 23.9308474,12.1289741 27.5063702,14.5253588 C24.2481719,13.6781301 21.032532,14.4870859 17.8594505,16.9522263 C14.686369,19.4173667 13.1783851,22.3253481 13.335499,25.6761703 Z" id="shadow" fill="#000000" opacity="0.149999991" filter="url(#filter-18)" transform="translate(20.249409, 19.176170) rotate(-175.000000) translate(-20.249409, -19.176170) "></path>
                        </g>
                        <path d="M12.5948736,25.0350541 C11.3899054,18.6960045 12.8422208,14.1754906 16.9518199,11.4735124 C21.0614189,8.7715343 25.2518379,8.85187883 29.5230768,11.714546 C25.6309065,10.7024657 21.7895756,11.6688261 17.999084,14.6136272 C14.2085923,17.5584284 12.4071889,21.0322373 12.5948736,25.0350541 Z" id="glow" fill="#FFFFFF" opacity="0.600000024" filter="url(#filter-19)" transform="translate(20.854074, 17.270301) rotate(-300.000000) translate(-20.854074, -17.270301) "></path>
                    </g>
                    <g id="Group" transform="translate(55.000000, 39.000000)">
                        <g id="seed-copy-10" transform="translate(20.000000, 18.000000) rotate(82.000000) translate(-20.000000, -18.000000) ">
                            <g id="colour-2" transform="translate(3.859429, 3.837141)">
                                <g id="colour" transform="translate(15.640571, 14.265301) rotate(12.000000) translate(-15.640571, -14.265301) ">
                                    <use fill="#8D9CBE" xlink:href="#path-20"></use>
                                    <use fill="url(#radialGradient-2)" xlink:href="#path-20"></use>
                                    <use fill-opacity="0.5" fill="url(#radialGradient-3)" xlink:href="#path-20"></use>
                                </g>
                                <path d="M13.335499,25.6761703 C12.3268008,20.36965 13.5425574,16.5854551 16.9827688,14.3235857 C20.4229803,12.0617164 23.9308474,12.1289741 27.5063702,14.5253588 C24.2481719,13.6781301 21.032532,14.4870859 17.8594505,16.9522263 C14.686369,19.4173667 13.1783851,22.3253481 13.335499,25.6761703 Z" id="shadow" fill="#000000" opacity="0.149999991" filter="url(#filter-21)" transform="translate(20.249409, 19.176170) rotate(-175.000000) translate(-20.249409, -19.176170) "></path>
                            </g>
                            <path d="M12.5948736,25.0350541 C11.3899054,18.6960045 12.8422208,14.1754906 16.9518199,11.4735124 C21.0614189,8.7715343 25.2518379,8.85187883 29.5230768,11.714546 C25.6309065,10.7024657 21.7895756,11.6688261 17.999084,14.6136272 C14.2085923,17.5584284 12.4071889,21.0322373 12.5948736,25.0350541 Z" id="glow" fill="#FFFFFF" opacity="0.600000024" filter="url(#filter-22)" transform="translate(20.854074, 17.270301) rotate(-300.000000) translate(-20.854074, -17.270301) "></path>
                        </g>
                    </g>
                    <g id="Group" transform="translate(53.000000, 14.000000)">
                        <g id="colour-2" transform="translate(3.859429, 3.837141)">
                            <g id="colour" transform="translate(15.640571, 14.265301) rotate(12.000000) translate(-15.640571, -14.265301) ">
                                <use fill="#8D9CBE" xlink:href="#path-23"></use>
                                <use fill="url(#radialGradient-2)" xlink:href="#path-23"></use>
                                <use fill-opacity="0.5" fill="url(#radialGradient-3)" xlink:href="#path-23"></use>
                            </g>
                            <path d="M13.335499,25.6761703 C12.3268008,20.36965 13.5425574,16.5854551 16.9827688,14.3235857 C20.4229803,12.0617164 23.9308474,12.1289741 27.5063702,14.5253588 C24.2481719,13.6781301 21.032532,14.4870859 17.8594505,16.9522263 C14.686369,19.4173667 13.1783851,22.3253481 13.335499,25.6761703 Z" id="shadow" fill="#000000" opacity="0.149999991" filter="url(#filter-24)" transform="translate(20.249409, 19.176170) rotate(-175.000000) translate(-20.249409, -19.176170) "></path>
                        </g>
                        <path d="M12.5948736,25.0350541 C11.3899054,18.6960045 12.8422208,14.1754906 16.9518199,11.4735124 C21.0614189,8.7715343 25.2518379,8.85187883 29.5230768,11.714546 C25.6309065,10.7024657 21.7895756,11.6688261 17.999084,14.6136272 C14.2085923,17.5584284 12.4071889,21.0322373 12.5948736,25.0350541 Z" id="glow" fill="#FFFFFF" opacity="0.600000024" filter="url(#filter-25)" transform="translate(20.854074, 17.270301) rotate(-300.000000) translate(-20.854074, -17.270301) "></path>
                    </g>
                    <g id="Group" transform="translate(11.126989, 16.777450)">
                        <g id="seed-copy-4" filter="url(#filter-26)" transform="translate(20.000000, 18.000000) rotate(90.000000) translate(-20.000000, -18.000000) ">
                            <g id="colour-2" transform="translate(3.859429, 3.837141)">
                                <g id="colour" transform="translate(15.640571, 14.265301) rotate(12.000000) translate(-15.640571, -14.265301) ">
                                    <use fill="#8D9CBE" xlink:href="#path-27"></use>
                                    <use fill="url(#radialGradient-2)" xlink:href="#path-27"></use>
                                    <use fill-opacity="0.5" fill="url(#radialGradient-3)" xlink:href="#path-27"></use>
                                </g>
                                <path d="M13.335499,25.6761703 C12.3268008,20.36965 13.5425574,16.5854551 16.9827688,14.3235857 C20.4229803,12.0617164 23.9308474,12.1289741 27.5063702,14.5253588 C24.2481719,13.6781301 21.032532,14.4870859 17.8594505,16.9522263 C14.686369,19.4173667 13.1783851,22.3253481 13.335499,25.6761703 Z" id="shadow" fill="#000000" opacity="0.149999991" filter="url(#filter-28)" transform="translate(20.249409, 19.176170) rotate(-175.000000) translate(-20.249409, -19.176170) "></path>
                            </g>
                            <path d="M12.5948736,25.0350541 C11.3899054,18.6960045 12.8422208,14.1754906 16.9518199,11.4735124 C21.0614189,8.7715343 25.2518379,8.85187883 29.5230768,11.714546 C25.6309065,10.7024657 21.7895756,11.6688261 17.999084,14.6136272 C14.2085923,17.5584284 12.4071889,21.0322373 12.5948736,25.0350541 Z" id="glow" fill="#FFFFFF" opacity="0.600000024" filter="url(#filter-29)" transform="translate(20.854074, 17.270301) rotate(-300.000000) translate(-20.854074, -17.270301) "></path>
                        </g>
                    </g>
                    <g id="Group" transform="translate(32.000000, 0.000000)">
                        <g id="colour-2" transform="translate(3.859429, 3.837141)">
                            <g id="colour" transform="translate(15.640571, 14.265301) rotate(12.000000) translate(-15.640571, -14.265301) ">
                                <use fill="#8D9CBE" xlink:href="#path-30"></use>
                                <use fill="url(#radialGradient-2)" xlink:href="#path-30"></use>
                                <use fill-opacity="0.5" fill="url(#radialGradient-3)" xlink:href="#path-30"></use>
                            </g>
                            <path d="M13.335499,25.6761703 C12.3268008,20.36965 13.5425574,16.5854551 16.9827688,14.3235857 C20.4229803,12.0617164 23.9308474,12.1289741 27.5063702,14.5253588 C24.2481719,13.6781301 21.032532,14.4870859 17.8594505,16.9522263 C14.686369,19.4173667 13.1783851,22.3253481 13.335499,25.6761703 Z" id="shadow" fill="#000000" opacity="0.149999991" filter="url(#filter-31)" transform="translate(20.249409, 19.176170) rotate(-175.000000) translate(-20.249409, -19.176170) "></path>
                        </g>
                        <path d="M12.5948736,25.0350541 C11.3899054,18.6960045 12.8422208,14.1754906 16.9518199,11.4735124 C21.0614189,8.7715343 25.2518379,8.85187883 29.5230768,11.714546 C25.6309065,10.7024657 21.7895756,11.6688261 17.999084,14.6136272 C14.2085923,17.5584284 12.4071889,21.0322373 12.5948736,25.0350541 Z" id="glow" fill="#FFFFFF" opacity="0.600000024" filter="url(#filter-32)" transform="translate(20.854074, 17.270301) rotate(-300.000000) translate(-20.854074, -17.270301) "></path>
                    </g>
                </g>
                <g id="Group" transform="translate(93.000000, 26.000000)">
                    <circle id="Oval" fill="#000000" cx="19" cy="19" r="19"></circle>
                    <path d="M14.1025,25.221 C15.2585,25.221 15.2585,25.221 16.2275,24.68125 C17.1965,24.1415 17.1965,24.1415 17.783,23.21925 C18.3695,22.297 18.3695,22.297 18.3695,21.141 C18.3695,20.1975 18.3695,20.1975 17.99125,19.36025 C17.613,18.523 17.613,18.523 16.88625,17.94925 C16.4320313,17.5906563 16.4320313,17.5906563 15.8499805,17.3930977 L15.663,17.337 L18.1485,14.936 L18.1485,12.76 L10.4985,12.76 L10.4985,14.936 L15.412,14.936 L12.1135,17.673 L13.1505,19.492 C13.3715,19.3645 13.3715,19.3645 13.6095,19.29225 C13.8475,19.22 13.8475,19.22 14.1025,19.22 C14.944,19.22 14.944,19.22 15.48375,19.78525 C16.0235,20.3505 16.0235,20.3505 16.0235,21.141 C16.0235,21.668 16.0235,21.668 15.76425,22.1015 C15.505,22.535 15.505,22.535 15.06725,22.79 C14.6295,23.045 14.6295,23.045 14.1025,23.045 C13.4905,23.045 13.4905,23.045 12.96775,22.67525 C12.445,22.3055 12.445,22.3055 12.2665,21.634 L12.2665,21.634 L10.0225,22.229 C10.286,23.1385 10.286,23.1385 10.90225,23.81 C11.5185,24.4815 11.5185,24.4815 12.3515,24.85125 C13.1845,25.221 13.1845,25.221 14.1025,25.221 Z M28.8075,24.983 L28.8075,22.807 L23.83,22.807 L26.5635,20.41 C27.1483,19.9 27.1483,19.9 27.58622,19.47432 L27.796,19.26675 C28.2975,18.761 28.2975,18.761 28.5525,18.16175 C28.8075,17.5625 28.8075,17.5625 28.8075,16.653 C28.8075,15.4205 28.8075,15.4205 28.2635,14.4855 C27.7195,13.5505 27.7195,13.5505 26.77175,13.02775 C25.824,12.505 25.824,12.505 24.6255,12.505 C23.3165,12.505 23.3165,12.505 22.3305,13.0065 C21.3445,13.508 21.3445,13.508 20.792,14.426 C20.2395,15.344 20.2395,15.344 20.2395,16.602 L20.2395,16.602 L22.6195,16.602 C22.6025,16.092 22.6025,16.092 22.849,15.65425 C23.0955,15.2165 23.0955,15.2165 23.54175,14.94875 C23.988,14.681 23.988,14.681 24.5745,14.681 C25.1355,14.681 25.1355,14.681 25.552,14.93175 C25.9685,15.1825 25.9685,15.1825 26.198,15.62025 C26.4275,16.058 26.4275,16.058 26.4275,16.619 C26.4275,17.01 26.4275,17.01 26.1895,17.4605 C25.9515,17.911 25.9515,17.911 25.3735,18.421 L25.3735,18.421 L20.2395,22.977 L20.2395,24.983 L28.8075,24.983 Z" id="Combined-Shape" fill="#FFFFFF"></path>
                </g>
            </g>
        </g>
    </g>
</svg>