<svg xmlns="http://www.w3.org/2000/svg" xmlns:xlink="http://www.w3.org/1999/xlink" width="120" height="120" viewBox="0 0 120 120"><defs><filter id="h" width="1.29" height="1.34" x="-.13" y="-.15"><feOffset dx="-3" dy="3" in="SourceAlpha" result="A"/><feGaussianBlur in="A" result="B" stdDeviation="2"/><feColorMatrix in="B" result="C" values="0 0 0 0 .222 0 0 0 0 .054 0 0 0 0 .054 0 0 0 .18 0"/><feMerge><feMergeNode in="C"/><feMergeNode in="SourceGraphic"/></feMerge></filter><filter id="g" width="1.33" height="1.37" x="-.17" y="-.18"><feGaussianBlur stdDeviation="1"/></filter><filter id="c" width="1.55" height="1.62" x="-.28" y="-.31"><feGaussianBlur stdDeviation="2"/></filter><filter id="k" width="1.8" height="2.13" x="-.37" y="-.58"><feOffset dx="-1" dy="2" in="SourceAlpha" result="A"/><feGaussianBlur in="A" result="B" stdDeviation="2.5"/><feColorMatrix in="B" result="C" values="0 0 0 0 0 0 0 0 0 0 0 0 0 0 0 0 0 0 .3 0"/><feMerge><feMergeNode in="C"/><feMergeNode in="SourceGraphic"/></feMerge></filter><filter id="n" width="1.89" height="2.23" x="-.41" y="-.63"><feOffset dx="-1" dy="2" in="SourceAlpha" result="A"/><feGaussianBlur in="A" result="B" stdDeviation="3"/><feColorMatrix in="B" result="C" values="0 0 0 0 0 0 0 0 0 0 0 0 0 0 0 0 0 0 .35 0"/><feMerge><feMergeNode in="C"/><feMergeNode in="SourceGraphic"/></feMerge></filter><radialGradient id="a" cx="41.59%" cy="41.28%" r="46.16%" fx="41.59%" fy="41.28%" gradientTransform="matrix(0 1 -.86774 0 .77 0)"><stop offset="0%" stop-color="#FFF" stop-opacity=".1"/><stop offset="63.59%" stop-color="#FFF" stop-opacity=".09"/><stop offset="100%" stop-color="#344152" stop-opacity=".11"/></radialGradient><radialGradient id="b" cx="5.66%" cy="50%" r="15.04%" fx="5.66%" fy="50%" gradientTransform="matrix(-.86774 0 0 -1.42648 .1 1.21)"><stop offset="0%" stop-color="#573A23"/><stop offset="100%" stop-color="#FFF" stop-opacity=".5"/></radialGradient><radialGradient xlink:href="#a" id="e" cx="12.45" cy="13.12" r="11.61" fx="12.45" fy="13.12" gradientTransform="scale(1.0735 .93153)" gradientUnits="userSpaceOnUse"/><radialGradient xlink:href="#b" id="f" cx="3.42" cy="15.31" r="3.78" fx="3.42" fy="15.31" gradientTransform="scale(1.0735 .93153)" gradientUnits="userSpaceOnUse"/><path id="d" d="M15.64 25.75c7.5 1.58 13.5-5.15 13.5-11.5 0-6.36-6-12.92-13.5-11.5-7.5 1.41-13.5 5.14-13.5 11.5 0 6.35 6 9.91 13.5 11.5"/><path id="m" fill="#fff" d="M12.59 25.04q-1.8-9.5 4.36-13.57 6.16-4.05 12.57.24-5.83-1.51-11.52 2.9t-5.41 10.43" filter="url(#c)" opacity=".6"/><g id="j"><g transform="rotate(12 -.68 34.54)"><use xlink:href="#d" width="100%" height="100%" fill="#8d9cbe"/><use xlink:href="#d" width="100%" height="100%" fill="url(#a)" style="fill:url(#e)"/><use xlink:href="#d" width="100%" height="100%" fill="url(#b)" fill-opacity=".5" style="fill:url(#f)"/></g><path d="M13.34 25.68q-1.52-7.96 3.64-11.36t10.53.21q-4.9-1.27-9.65 2.42-4.76 3.7-4.52 8.73" filter="url(#g)" opacity=".15" transform="rotate(-175 22.26 21.01)"/><path fill="#fff" d="M12.59 25.04q-1.8-9.5 4.36-13.57 6.16-4.05 12.57.24-5.83-1.51-11.52 2.9t-5.41 10.43" filter="url(#c)" opacity=".6" transform="rotate(60 20.85 17.27)"/></g><g id="l"><g transform="rotate(12 15.64 14.27)"><use xlink:href="#d" width="100%" height="100%" fill="#8d9cbe"/><use xlink:href="#d" width="100%" height="100%" fill="url(#a)" style="fill:url(#e)"/><use xlink:href="#d" width="100%" height="100%" fill="url(#b)" fill-opacity=".5" style="fill:url(#f)"/></g><path d="M13.34 25.68q-1.52-7.96 3.64-11.36t10.53.21q-4.9-1.27-9.65 2.42-4.76 3.7-4.52 8.73" filter="url(#g)" opacity=".15" transform="rotate(-175 20.25 19.18)"/></g></defs><g fill="none" fill-rule="evenodd"><path fill="#fff" fill-opacity=".01" d="M-13.62-14.12h144v144h-144z"/><g filter="url(#h)" transform="translate(11.38 11.88)"><use xlink:href="#j" transform="rotate(132 29.66 36.68)"/><use xlink:href="#j" transform="rotate(-142 52.14 38.25)"/><use xlink:href="#j" transform="rotate(-22 170.55 12.56)"/><g filter="url(#k)" transform="rotate(18 -104.9 128.4)"><use xlink:href="#l" transform="translate(3.86 3.84)"/><use xlink:href="#m" transform="rotate(60 20.85 17.27)"/></g><use xlink:href="#j" transform="translate(0 33)"/><use xlink:href="#j" transform="rotate(82 25.07 69.14)"/><use xlink:href="#j" transform="translate(53 14)"/><g filter="url(#n)" transform="rotate(90 17.17 31.95)"><use xlink:href="#l" transform="translate(3.86 3.84)"/><use xlink:href="#m" transform="rotate(60 20.85 17.27)"/></g><use xlink:href="#j" transform="translate(32)"/></g></g></svg>